<?xml version="1.0" standalone="no"?>
<!DOCTYPE svg PUBLIC "-//W3C//DTD SVG 20010904//EN"
 "http://www.w3.org/TR/2001/REC-SVG-20010904/DTD/svg10.dtd">
<svg version="1.0" xmlns="http://www.w3.org/2000/svg"
 width="1872.000000pt" height="352.000000pt" viewBox="0 0 1872.000000 352.000000"
 preserveAspectRatio="xMidYMid meet">

<g transform="translate(0.000000,352.000000) scale(0.100000,-0.100000)"
fill="#000000" stroke="none">
<path d="M13203 2998 c-5 -7 -14 -34 -21 -60 -13 -54 -112 -281 -124 -286 -5
-2 -6 -8 -3 -13 4 -5 0 -6 -8 -3 -25 9 -40 -45 -25 -92 11 -33 19 -41 56 -53
43 -13 45 -13 85 16 23 16 47 40 54 53 30 61 -57 94 -115 45 l-32 -26 14 38
c7 21 32 80 55 131 48 105 81 197 81 224 0 10 5 18 10 18 6 0 10 5 10 10 0 14
-26 12 -37 -2z m-8 -409 c10 -15 -32 -56 -63 -62 -14 -3 -34 -2 -45 2 -17 6
-15 10 17 39 37 32 79 42 91 21z"/>
<path d="M5630 2964 c-6 -14 -10 -30 -10 -37 0 -21 -51 -177 -58 -178 -4 -1
-20 -3 -37 -5 -16 -2 -41 -6 -53 -9 -22 -5 -23 -4 -16 27 13 52 11 141 -3 145
-9 3 -13 -6 -13 -24 -1 -15 -9 -57 -19 -93 -15 -55 -22 -67 -49 -80 -38 -18
-41 -30 -6 -30 21 0 24 -3 19 -21 -8 -25 -9 -109 -1 -117 11 -10 19 7 35 80
l17 73 61 16 61 16 -23 -61 c-36 -98 -39 -116 -17 -116 10 0 32 19 49 43 35
48 92 107 103 107 4 0 1 -27 -7 -60 -13 -58 -11 -80 6 -80 11 0 41 139 34 156
-11 30 -56 15 -100 -32 -24 -26 -43 -45 -43 -42 0 2 14 42 31 89 49 134 79
259 62 259 -7 0 -18 -12 -23 -26z"/>
<path d="M4924 2953 c3 -15 9 -64 12 -108 6 -74 4 -85 -20 -136 -42 -89 -96
-138 -96 -86 0 47 12 68 42 74 38 7 45 21 16 32 -46 17 -85 -14 -94 -76 -14
-97 44 -126 108 -55 55 60 82 127 86 207 4 88 -16 168 -42 173 -16 3 -18 0
-12 -25z"/>
<path d="M8142 2936 c-16 -25 -46 -99 -68 -164 l-38 -119 -46 -12 c-49 -13
-88 -37 -77 -48 4 -4 30 1 58 11 27 10 53 16 56 12 4 -3 -6 -45 -21 -94 -28
-92 -75 -179 -94 -174 -14 2 -16 -34 -3 -42 14 -9 67 57 101 124 16 32 35 91
41 130 9 55 15 70 26 65 8 -3 33 -8 56 -11 40 -6 41 -5 26 11 -9 9 -32 20 -50
24 -39 8 -39 11 -8 111 34 109 77 190 100 190 27 0 19 24 -9 28 -16 3 -29 -8
-50 -42z"/>
<path d="M14040 2918 c-14 -54 -40 -130 -51 -143 -17 -23 -69 -218 -63 -241 9
-36 27 -24 39 25 16 67 73 88 149 56 20 -8 36 -17 36 -19 0 -3 -9 -25 -19 -49
-20 -47 -22 -78 -4 -84 15 -5 65 125 57 149 -6 21 -68 53 -84 43 -5 -3 -11 -2
-14 3 -2 4 15 20 40 36 24 15 44 34 44 42 0 18 -15 18 -34 -1 -8 -8 -17 -15
-20 -15 -4 0 -31 -16 -61 -37 -31 -20 -58 -34 -60 -31 -3 3 12 61 34 129 55
170 57 179 37 179 -10 0 -19 -15 -26 -42z"/>
<path d="M13425 2938 c-3 -7 -16 -49 -29 -93 -28 -92 -64 -197 -95 -272 -16
-41 -18 -59 -11 -79 6 -15 13 -24 17 -21 7 8 49 124 75 212 12 39 33 108 47
155 14 47 26 89 26 94 0 15 -25 19 -30 4z"/>
<path d="M4720 2833 c0 -116 -15 -169 -59 -207 -21 -19 -21 -19 -21 11 0 17 7
36 15 43 19 15 19 30 2 30 -26 0 -47 -36 -47 -78 0 -87 74 -54 126 55 22 47
24 64 22 151 -3 83 -6 97 -20 100 -16 3 -18 -7 -18 -105z"/>
<path d="M1870 2909 c-97 -58 -173 -249 -131 -327 17 -33 75 -55 120 -47 83
15 158 84 181 165 8 28 5 43 -15 87 -27 59 -91 143 -109 143 -6 0 -27 -10 -46
-21z m61 -50 c12 -6 34 -38 49 -71 28 -58 28 -63 14 -97 -31 -77 -128 -135
-187 -112 -40 15 -49 49 -31 116 18 70 26 87 71 136 37 41 52 46 84 28z"/>
<path d="M7146 2914 c-13 -13 -15 -35 -9 -149 l6 -134 -31 -30 c-33 -33 -79
-42 -88 -16 -9 23 34 75 62 75 30 0 32 26 3 35 -59 19 -121 -76 -89 -136 13
-24 68 -26 110 -4 53 28 65 65 66 210 0 72 4 138 8 148 10 22 -16 23 -38 1z"/>
<path d="M10067 2923 c-4 -3 -7 -14 -7 -24 0 -9 -16 -41 -36 -70 -54 -79 -97
-175 -102 -228 -3 -38 0 -49 17 -65 27 -24 79 -25 115 -1 30 20 25 41 -5 24
-11 -5 -34 -9 -52 -7 -36 3 -43 19 -32 74 6 34 6 34 60 34 44 0 56 4 65 20 6
11 17 20 25 20 8 0 15 5 15 10 0 16 -40 12 -46 -5 -4 -10 -20 -15 -50 -15
l-44 0 50 96 c28 53 50 102 50 110 0 8 5 14 10 14 6 0 10 5 10 10 0 11 -33 14
-43 3z"/>
<path d="M16306 2835 c-9 -10 -26 -36 -38 -59 -16 -29 -23 -36 -26 -23 -5 25
-27 21 -67 -14 -65 -58 -88 -133 -55 -180 l21 -28 -22 -43 c-30 -58 -60 -148
-53 -159 11 -18 34 -8 40 19 4 15 20 57 36 93 29 65 31 67 72 73 50 8 96 50
121 110 21 50 13 80 -25 96 -29 12 -29 12 -13 44 8 17 22 39 31 49 22 25 1 45
-22 22z m-115 -205 c-20 -38 -40 -66 -44 -63 -15 9 -2 101 17 122 10 11 25 16
39 14 l23 -5 -35 -68z m114 50 c10 -17 -34 -98 -65 -120 -48 -34 -51 -22 -13
55 36 72 61 93 78 65z"/>
<path d="M17101 2831 c-11 -11 -27 -36 -35 -54 -10 -25 -22 -36 -42 -40 -16
-3 -30 -1 -32 4 -6 15 -37 10 -59 -8 -55 -49 -70 -142 -29 -190 16 -18 21 -32
16 -43 -41 -78 -51 -130 -25 -130 9 0 15 9 15 23 0 13 14 45 31 70 23 35 40
49 69 57 42 11 85 42 101 72 13 24 -5 100 -27 119 -11 9 -9 19 9 55 11 24 27
44 34 44 15 0 18 26 3 35 -5 3 -18 -3 -29 -14z m-91 -126 c11 4 20 3 20 -1 0
-13 -82 -154 -89 -154 -36 0 -39 93 -6 143 14 22 20 25 36 16 11 -5 29 -7 39
-4z m75 -66 c3 -10 1 -27 -5 -39 -10 -19 -58 -50 -78 -50 -5 0 5 29 22 65 30
66 46 72 61 24z"/>
<path d="M14218 2809 c-34 -28 -50 -59 -30 -59 8 0 82 75 82 84 0 12 -16 5
-52 -25z"/>
<path d="M16540 2793 c-89 -58 -160 -169 -160 -250 0 -34 5 -46 25 -59 21 -14
30 -14 55 -4 35 15 70 55 70 81 0 22 -37 49 -67 49 -13 0 -23 4 -23 9 0 27 59
108 101 138 48 34 61 54 37 52 -7 0 -24 -7 -38 -16z m-52 -245 c2 -11 -8 -23
-27 -32 -37 -20 -41 -20 -41 -1 0 45 60 74 68 33z"/>
<path d="M12715 2770 c-4 -6 -3 -40 0 -76 6 -54 5 -68 -10 -84 -34 -38 -55
-20 -55 45 0 52 -18 53 -65 1 -60 -65 -91 -61 -65 10 7 18 7 31 1 37 -18 18
-37 -16 -36 -68 0 -49 1 -50 32 -53 33 -3 52 10 85 58 l17 25 0 -32 c1 -46 33
-75 74 -69 56 9 73 52 60 147 -8 59 -23 83 -38 59z"/>
<path d="M17247 2765 c-9 -8 -14 -22 -10 -31 5 -13 7 -13 23 1 9 8 25 15 36
15 14 -1 8 -10 -26 -39 -25 -22 -43 -41 -40 -44 3 -2 20 -12 38 -21 17 -9 32
-21 32 -26 0 -6 -15 -19 -32 -30 -35 -21 -88 -27 -88 -10 0 13 -37 13 -45 0
-3 -5 3 -18 15 -30 28 -28 83 -26 137 5 35 21 43 31 43 55 0 19 -9 35 -25 48
l-26 20 31 22 c24 17 30 29 28 49 -3 22 -8 26 -39 29 -23 2 -42 -3 -52 -13z"/>
<path d="M10347 2764 c-8 -8 3 -34 14 -34 5 0 9 9 9 20 0 19 -11 26 -23 14z"/>
<path d="M3717 2701 c-20 -32 -59 -82 -87 -112 -27 -29 -50 -55 -50 -57 0 -9
47 13 67 31 20 18 23 18 29 3 11 -28 48 -18 100 28 l49 44 8 -29 c5 -20 14
-29 27 -29 22 0 26 10 9 27 -9 9 -9 20 0 44 14 39 14 69 1 69 -5 0 -31 -23
-57 -51 -49 -53 -101 -94 -108 -87 -3 2 11 37 30 77 19 40 35 79 35 87 0 28
-18 13 -53 -45z"/>
<path d="M3224 2735 c-3 -8 -3 -19 1 -25 4 -6 3 -10 -2 -9 -19 3 -33 -2 -33
-12 0 -6 8 -8 18 -5 15 5 17 0 13 -46 -2 -28 2 -69 8 -90 11 -36 10 -42 -30
-108 -27 -45 -42 -84 -43 -107 -1 -49 17 -52 33 -6 12 34 68 136 182 335 22
36 39 72 39 78 0 25 -26 0 -65 -62 -22 -36 -50 -78 -63 -94 l-23 -29 4 85 c3
47 3 91 0 98 -6 17 -32 15 -39 -3z"/>
<path d="M4378 2723 c-34 -38 -48 -66 -48 -101 0 -40 22 -56 62 -47 18 4 52 7
76 6 41 0 42 1 28 20 -12 18 -12 24 2 50 17 29 10 60 -13 61 -5 0 -16 9 -23
19 -19 27 -54 23 -84 -8z m71 -23 c4 0 6 -14 3 -30 -6 -44 -82 -83 -82 -42 0
30 39 84 56 78 9 -3 19 -6 23 -6z"/>
<path d="M12065 2709 c-46 -42 -54 -44 -34 -7 8 14 8 23 0 31 -15 15 -33 -4
-37 -39 -2 -15 -14 -50 -29 -77 -14 -27 -22 -53 -19 -58 3 -6 41 27 84 73 43
46 80 81 83 78 3 -3 -4 -30 -15 -60 -23 -63 -28 -102 -13 -106 6 -2 23 36 39
85 43 129 23 155 -59 80z"/>
<path d="M5848 2720 c-14 -11 -33 -38 -42 -60 -15 -38 -15 -42 0 -66 37 -56
75 -57 194 -7 22 10 23 12 8 18 -10 4 -32 2 -49 -4 -43 -15 -94 -14 -108 2 -8
11 -3 17 24 30 36 17 70 69 61 93 -8 20 -59 17 -88 -6z m52 -19 c0 -5 -12 -19
-27 -31 -32 -25 -45 -10 -17 21 18 20 44 26 44 10z"/>
<path d="M12283 2721 c-18 -11 -37 -35 -44 -55 -10 -27 -17 -35 -30 -31 -10 3
-20 1 -24 -4 -3 -6 6 -13 20 -17 14 -3 39 -20 56 -36 26 -27 33 -29 72 -23 63
10 69 25 10 25 -33 0 -55 5 -63 15 -15 18 -15 18 27 34 62 25 85 103 33 109
-14 1 -39 -6 -57 -17z m55 -23 c-5 -15 -69 -60 -75 -54 -8 7 21 45 42 55 28
13 37 13 33 -1z"/>
<path d="M2127 2634 c-33 -100 -24 -130 17 -61 32 57 74 107 88 107 7 0 9 -27
4 -81 -5 -64 -4 -80 6 -77 16 6 25 46 27 113 2 75 -30 96 -76 53 l-23 -21 0
26 c0 48 -15 28 -43 -59z"/>
<path d="M2396 2699 c-60 -47 -84 -145 -46 -187 24 -25 38 -27 75 -10 35 16
31 26 -12 30 -33 3 -38 7 -41 30 -3 28 26 95 54 123 27 27 2 39 -30 14z"/>
<path d="M2582 2695 c-50 -42 -61 -133 -22 -184 14 -19 26 -24 56 -23 21 1 40
6 42 12 2 6 8 8 12 5 5 -3 14 3 19 13 10 18 8 18 -34 9 -51 -12 -75 1 -75 39
0 17 12 30 45 50 52 30 69 69 40 91 -27 19 -50 16 -83 -12z m61 -11 c8 -9 -22
-53 -44 -65 -26 -14 -25 11 2 45 21 26 31 31 42 20z"/>
<path d="M3505 2700 c-3 -6 -14 -9 -22 -8 -21 4 -54 -61 -61 -118 -5 -48 8
-74 39 -74 29 0 86 57 104 105 15 37 15 47 3 72 -14 29 -51 43 -63 23z m40
-40 c11 -35 -55 -130 -89 -130 -11 0 -6 61 9 95 12 30 39 52 67 54 4 1 10 -8
13 -19z"/>
<path d="M6573 2700 c-27 -11 -73 -78 -73 -106 0 -44 60 -67 115 -44 22 8 21
9 -39 27 -41 13 -42 26 -7 65 17 18 31 27 31 21 0 -16 26 -17 35 -2 4 5 -1 19
-11 30 -19 21 -20 21 -51 9z"/>
<path d="M9312 2690 c-38 -23 -65 -78 -60 -124 4 -43 20 -36 35 14 16 54 29
69 81 92 23 10 42 23 42 28 0 17 -64 10 -98 -10z"/>
<path d="M7315 2669 c-42 -37 -45 -70 -10 -104 18 -19 35 -25 70 -25 51 0 103
18 124 43 17 21 4 21 -44 1 -39 -16 -126 -16 -132 1 -1 6 15 18 37 27 31 13
40 22 40 40 0 26 -17 48 -37 48 -7 0 -28 -14 -48 -31z m55 -12 c0 -8 -11 -19
-25 -25 -38 -18 -41 -15 -15 13 26 28 40 32 40 12z"/>
<path d="M9026 2657 c-53 -50 -65 -86 -42 -123 26 -39 59 -50 106 -34 57 19
62 33 8 26 -36 -5 -48 -2 -66 14 -12 12 -22 24 -22 28 2 36 88 112 102 89 5
-9 11 -8 24 5 22 22 10 38 -31 38 -27 0 -44 -9 -79 -43z"/>
<path d="M11351 2673 c-55 -69 -29 -129 41 -92 16 9 24 7 39 -10 21 -22 54
-27 79 -11 8 5 13 10 10 11 -32 5 -44 8 -55 12 -14 6 -26 67 -13 67 14 0 9 22
-9 36 -30 22 -69 17 -92 -13z m64 -29 c-11 -9 -28 -20 -39 -26 -14 -8 -17 -7
-11 4 18 29 28 38 49 38 21 -1 21 -1 1 -16z"/>
<path d="M15342 2643 c-45 -87 -66 -123 -74 -123 -5 0 -8 -6 -8 -13 0 -7 -16
-21 -36 -30 -19 -10 -32 -22 -29 -27 11 -18 91 34 112 73 11 21 12 20 20 -13
13 -48 45 -52 88 -10 33 32 33 32 44 11 7 -12 21 -21 31 -21 22 0 26 10 9 27
-9 9 -7 25 5 64 13 39 14 54 6 63 -9 8 -16 5 -28 -14 -32 -47 -97 -123 -109
-128 -19 -6 -16 22 9 99 20 63 20 99 -1 99 -5 0 -23 -26 -39 -57z"/>
<path d="M6771 2669 c-31 -18 -33 -23 -28 -57 8 -50 38 -74 76 -61 16 6 39 21
51 34 21 22 22 27 10 55 -11 27 -43 50 -68 50 -4 0 -22 -9 -41 -21z m83 -40
c12 -11 -18 -45 -45 -52 -21 -6 -39 18 -39 52 0 17 5 19 38 14 20 -3 41 -9 46
-14z"/>
<path d="M9491 2655 c-36 -42 -47 -78 -35 -114 12 -34 50 -47 89 -30 l30 13
-45 5 c-36 5 -46 10 -48 28 -3 17 5 24 35 33 65 21 91 58 61 88 -22 22 -55 13
-87 -23z m73 -10 c3 -8 4 -15 2 -15 -2 0 -20 -7 -41 -16 -38 -16 -40 -10 -7
29 19 21 38 22 46 2z"/>
<path d="M13718 2665 c-61 -41 -76 -97 -38 -135 25 -25 101 -28 120 -5 11 13
7 15 -24 15 -47 0 -76 15 -76 40 0 24 61 73 74 60 15 -15 26 -12 26 8 0 20
-18 42 -35 42 -6 0 -27 -11 -47 -25z"/>
<path d="M14988 2635 c-36 -60 -48 -68 -48 -30 0 37 -21 75 -42 75 -19 0 -25
-15 -9 -24 5 -3 12 -35 16 -70 l6 -65 -66 -83 c-36 -46 -70 -89 -76 -96 -5 -7
-8 -16 -5 -21 7 -11 -29 -101 -99 -244 -63 -129 -63 -141 0 -139 45 2 86 23
136 71 40 39 48 68 27 89 -21 21 -55 13 -102 -23 l-46 -35 34 69 c19 37 51
110 72 162 28 73 53 115 109 184 114 142 168 235 136 235 -6 0 -25 -25 -43
-55z m-178 -565 c0 -16 -36 -47 -79 -70 -57 -29 -69 -25 -35 11 49 52 114 86
114 59z"/>
<path d="M8407 2669 c-22 -13 -53 -74 -62 -122 -10 -53 8 -46 40 16 37 72 50
84 70 67 24 -20 38 1 19 28 -16 24 -39 27 -67 11z"/>
<path d="M15114 2669 c-3 -6 -1 -15 6 -19 10 -6 7 -20 -13 -60 -27 -54 -26
-74 3 -90 12 -6 29 -3 59 12 55 27 66 49 45 90 -33 66 -81 98 -100 67z m70
-75 c10 -27 7 -34 -26 -54 -39 -23 -50 -18 -37 18 19 51 50 69 63 36z"/>
<path d="M9712 2645 c-34 -28 -57 -77 -48 -101 5 -13 15 -15 49 -10 23 4 52
14 65 22 20 13 22 13 22 -5 0 -23 25 -47 35 -31 3 5 3 15 0 21 -4 5 -1 23 5
39 7 16 10 37 6 45 -5 13 -12 11 -43 -14 -48 -38 -93 -56 -93 -37 0 20 40 51
61 48 21 -4 25 18 7 36 -18 18 -33 15 -66 -13z"/>
<path d="M10698 2640 c-106 -57 -80 -143 33 -107 l46 14 -9 -51 c-4 -28 -14
-76 -21 -106 l-12 -55 -83 -6 c-89 -7 -122 -24 -122 -64 0 -35 38 -112 66
-134 14 -11 20 -22 14 -26 -16 -10 -12 -41 10 -60 19 -17 19 -19 2 -31 -30
-23 -67 -17 -82 14 l-13 27 -10 -29 c-8 -25 -7 -32 13 -48 29 -24 64 -23 111
4 46 26 49 49 12 76 l-28 21 48 12 c58 16 67 45 10 34 l-36 -7 31 27 c18 15
40 49 52 82 12 31 28 62 37 68 10 8 12 14 6 18 -8 5 -5 35 8 94 11 49 21 124
22 168 l2 80 -35 2 c-20 2 -51 -6 -72 -17z m75 -40 c-7 -25 -8 -26 -62 -35
-50 -8 -49 4 3 36 42 25 66 25 59 -1z m-59 -327 c-12 -53 -48 -108 -73 -111
-26 -4 -56 23 -71 63 -22 58 -3 73 93 74 l57 1 -6 -27z"/>
<path d="M13493 2653 c-7 -2 -13 -11 -13 -18 0 -8 -9 -30 -21 -50 -29 -49 -20
-85 23 -85 35 0 113 41 122 65 9 24 -21 74 -50 85 -27 11 -42 11 -61 3z m77
-63 c7 -14 2 -21 -29 -38 -70 -40 -90 -24 -46 34 27 35 57 37 75 4z"/>
<path d="M10472 2634 c-24 -16 -72 -86 -72 -104 0 -21 16 -8 42 34 14 25 36
49 47 56 20 10 21 8 21 -40 0 -27 5 -50 10 -50 14 0 12 94 -2 108 -15 15 -19
15 -46 -4z"/>
<path d="M10275 2595 c-10 -25 -14 -52 -10 -62 5 -14 10 -7 20 27 6 25 15 53
20 63 4 10 3 17 -3 17 -6 0 -18 -20 -27 -45z"/>
<path d="M8244 2620 c-31 -12 -64 -71 -64 -114 0 -33 2 -36 30 -36 57 0 102
69 83 126 -11 32 -20 36 -49 24z m26 -56 c0 -22 -34 -64 -52 -64 -16 0 -2 69
18 91 20 22 34 10 34 -27z"/>
<path d="M16649 2546 c-11 -23 -10 -29 2 -36 9 -6 19 -4 28 4 11 12 11 18 -2
37 l-16 22 -12 -27z"/>
<path d="M17399 2558 c-6 -12 -5 -48 2 -48 8 0 29 32 29 44 0 6 -29 9 -31 4z"/>
<path d="M14350 2541 c0 -5 7 -11 15 -15 34 -12 16 -53 -44 -103 -32 -26 -67
-53 -77 -59 -15 -10 -17 -14 -6 -25 18 -19 72 12 128 74 48 54 58 99 27 123
-21 15 -43 18 -43 5z"/>
<path d="M3344 2373 c4 -16 10 -67 13 -115 5 -76 2 -95 -17 -143 -25 -61 -92
-132 -98 -102 -5 24 16 57 44 67 32 13 32 40 -1 40 -19 0 -33 -11 -55 -47 -35
-56 -35 -54 -11 -84 l19 -24 36 19 c40 21 79 72 100 133 38 107 28 283 -16
283 -17 0 -19 -4 -14 -27z"/>
<path d="M9812 2383 c-7 -12 -21 -48 -31 -80 -25 -81 -72 -157 -99 -161 -27
-4 -29 -22 -3 -22 17 0 19 -4 10 -32 -12 -45 -11 -70 3 -66 6 2 18 28 26 56
l15 52 68 0 c39 0 69 4 69 10 0 6 -27 10 -60 10 -33 0 -60 2 -60 5 0 3 11 28
25 55 28 55 59 164 52 183 -2 7 -9 3 -15 -10z"/>
<path d="M12057 2393 c-4 -3 -7 -17 -7 -30 0 -35 27 -29 28 7 1 29 -7 37 -21
23z"/>
<path d="M8236 2348 c-3 -7 -9 -35 -16 -63 -22 -102 -40 -153 -52 -152 -43 1
-78 -4 -78 -13 0 -5 18 -10 41 -10 27 0 38 -4 33 -11 -12 -20 -21 -134 -12
-158 13 -34 21 -19 25 48 2 32 8 72 12 87 7 28 10 29 79 32 40 2 72 7 72 12 0
10 -12 12 -85 15 -29 1 -39 6 -37 16 2 8 15 56 28 107 13 51 24 94 24 97 0 11
-31 4 -34 -7z"/>
<path d="M13925 2338 c-4 -13 -34 -84 -67 -158 -33 -74 -61 -146 -62 -160 -2
-43 18 -34 35 17 9 26 35 89 58 138 23 50 40 98 38 107 -3 10 0 16 6 15 6 -1
13 8 15 21 2 12 8 22 13 22 5 0 9 5 9 10 0 20 -39 10 -45 -12z"/>
<path d="M5716 2285 c-10 -36 -32 -93 -49 -128 -21 -45 -30 -78 -31 -121 -1
-71 18 -88 28 -23 4 24 27 104 51 177 48 143 52 160 32 160 -7 0 -21 -29 -31
-65z"/>
<path d="M14020 2243 c-59 -153 -80 -263 -50 -263 4 0 12 26 18 58 6 31 29
107 52 167 56 148 55 145 37 145 -10 0 -29 -37 -57 -107z"/>
<path d="M12042 2313 c-5 -10 -17 -47 -27 -83 -9 -36 -35 -100 -56 -142 -57
-114 -51 -137 18 -72 21 19 50 44 66 55 l27 20 0 -34 c0 -19 7 -40 15 -47 13
-11 15 -6 17 34 1 25 2 54 2 63 2 30 -29 25 -77 -11 l-45 -35 24 55 c21 49 64
186 64 206 0 15 -19 8 -28 -9z"/>
<path d="M12700 2311 c-5 -11 -10 -29 -10 -40 0 -35 -28 -106 -76 -191 -33
-58 -43 -85 -36 -92 12 -12 19 -8 107 62 27 21 51 38 52 36 2 -2 -6 -25 -17
-52 -21 -48 -24 -109 -5 -109 6 0 11 11 13 25 2 14 12 51 24 82 33 92 14 109
-65 58 l-47 -30 34 68 c18 37 36 85 40 107 4 22 9 52 12 68 6 31 -10 37 -26 8z"/>
<path d="M16982 2298 c-11 -18 -25 -50 -31 -70 -9 -25 -17 -35 -27 -31 -73 28
-151 -125 -101 -199 13 -21 12 -28 -19 -90 -34 -67 -43 -121 -24 -133 6 -3 13
2 16 12 19 56 79 173 88 172 43 -5 69 5 101 36 30 31 35 42 35 85 0 37 -6 55
-25 78 -21 25 -23 34 -15 61 5 17 18 47 29 65 19 30 19 46 0 46 -4 0 -16 -15
-27 -32z m-70 -159 c-7 -32 -46 -119 -54 -119 -18 0 -8 87 13 114 21 27 46 30
41 5z m66 -55 c2 -31 -2 -44 -22 -63 -13 -12 -31 -21 -39 -19 -12 2 -11 14 11
66 14 34 30 61 36 59 6 -2 12 -21 14 -43z"/>
<path d="M3093 2273 c-8 -20 -7 -49 2 -153 5 -65 4 -79 -14 -107 -21 -33 -61
-46 -61 -19 0 24 40 66 57 59 11 -4 14 -2 11 8 -15 47 -98 -13 -98 -71 0 -53
60 -61 101 -14 40 46 51 85 45 153 -4 36 -7 78 -7 93 0 15 -4 30 -9 33 -5 3
-7 12 -3 20 3 8 0 15 -6 15 -7 0 -15 -8 -18 -17z"/>
<path d="M17404 2262 c-22 -16 -47 -41 -57 -55 -19 -29 -23 -82 -6 -93 7 -4 2
-16 -14 -33 -58 -61 -74 -144 -37 -181 24 -24 31 -24 73 -6 58 26 107 83 107
123 0 33 -21 72 -43 79 -17 5 -16 8 11 24 16 10 40 39 52 66 21 43 22 50 9 73
-20 36 -48 37 -95 3z m70 -18 c10 -25 -33 -92 -67 -103 -64 -23 -64 23 1 78
53 46 57 48 66 25z m-60 -190 c25 -24 20 -67 -11 -96 -31 -29 -80 -51 -94 -42
-22 13 -3 96 33 142 14 17 53 15 72 -4z"/>
<path d="M17167 2213 c-42 -119 -77 -248 -71 -265 3 -10 13 -18 23 -18 12 0
17 9 18 33 1 28 25 118 64 244 10 32 6 53 -10 53 -4 0 -15 -21 -24 -47z"/>
<path d="M9973 2233 c9 -9 19 -14 23 -11 10 10 -6 28 -24 28 -15 0 -15 -1 1
-17z"/>
<path d="M13775 2219 c-10 -15 1 -23 20 -15 9 3 13 10 10 16 -8 13 -22 13 -30
-1z"/>
<path d="M16619 2221 c-46 -15 -69 -31 -69 -51 0 -24 8 -25 32 -3 25 22 83 42
98 33 21 -13 -102 -180 -131 -180 -19 0 -79 -49 -79 -65 0 -35 41 -25 92 22
31 30 45 24 54 -22 3 -18 14 -41 24 -50 17 -16 21 -16 49 1 41 24 39 34 -3 27
-33 -5 -35 -4 -41 30 -4 20 -13 41 -21 48 -11 9 -3 25 41 89 33 46 55 88 55
104 0 24 -3 26 -37 25 -21 0 -50 -4 -64 -8z"/>
<path d="M1705 2178 c-26 -24 -41 -49 -50 -83 -15 -60 -7 -92 28 -119 23 -17
31 -18 67 -7 22 6 52 23 67 37 21 19 23 24 9 20 -47 -16 -106 -25 -120 -20
-34 13 -21 93 22 137 34 33 68 32 59 -3 -6 -23 3 -32 22 -20 10 6 11 17 4 46
-7 34 -13 39 -40 42 -25 2 -40 -4 -68 -30z"/>
<path d="M3844 2182 c-46 -37 -56 -88 -23 -117 17 -16 25 -17 51 -7 24 9 33 8
45 -3 16 -16 26 -18 61 -9 32 9 27 22 -10 26 -26 2 -33 8 -33 25 -1 35 -13 38
-42 9 -47 -47 -87 -12 -41 36 13 13 20 19 16 14 -20 -26 -3 -34 26 -13 15 11
17 17 7 35 -14 26 -29 27 -57 4z"/>
<path d="M4673 2185 c-11 -8 -34 -36 -51 -62 -24 -38 -30 -57 -27 -88 4 -49
45 -90 78 -79 50 15 67 24 67 34 0 13 -6 13 -32 -1 -28 -15 -67 -3 -79 24 -8
17 -6 33 10 67 30 67 57 98 72 83 18 -18 29 -16 29 6 0 17 -18 31 -39 31 -3 0
-16 -7 -28 -15z"/>
<path d="M5892 2183 c-18 -9 -42 -30 -54 -47 -12 -17 -28 -37 -37 -45 -12 -10
-13 -15 -3 -18 6 -3 12 -13 12 -24 0 -11 12 -32 26 -46 23 -23 31 -25 76 -20
47 6 78 20 78 36 0 4 -27 3 -59 -3 -66 -11 -91 0 -91 38 0 16 12 26 52 41 65
25 95 67 64 91 -24 17 -23 17 -64 -3z m51 -20 c11 -10 -13 -33 -51 -49 -53
-22 -52 -7 2 34 30 23 39 26 49 15z"/>
<path d="M9016 2176 c-49 -15 -54 -27 -27 -65 25 -35 27 -76 5 -85 -28 -11
-36 -7 -31 14 7 25 -5 26 -28 0 -36 -40 6 -73 61 -47 40 19 53 56 35 101 -18
47 -18 50 9 54 26 4 42 20 34 34 -6 10 -8 9 -58 -6z"/>
<path d="M1956 2161 c-16 -11 -35 -30 -42 -43 -18 -32 -17 -83 2 -99 16 -13
20 -12 87 16 12 5 17 2 17 -9 0 -9 7 -16 15 -16 10 0 15 10 15 33 1 17 7 43
15 57 18 32 18 40 1 40 -8 0 -22 -13 -31 -28 -16 -26 -72 -72 -88 -72 -4 0 -7
11 -7 24 0 28 35 76 56 76 17 0 16 31 -1 37 -5 1 -23 -6 -39 -16z"/>
<path d="M11610 2146 c-35 -19 -66 -39 -68 -45 -6 -19 31 -12 73 14 22 14 43
25 48 25 4 0 -6 -27 -23 -60 -55 -109 -26 -135 60 -54 50 46 50 46 50 20 0
-62 41 -85 80 -46 14 14 20 33 20 64 0 25 5 48 10 51 15 9 12 25 -4 25 -29 0
-46 -30 -46 -82 0 -58 -22 -63 -30 -7 -7 46 -28 47 -84 5 -25 -20 -46 -34 -46
-31 0 3 14 32 30 65 51 101 37 112 -70 56z"/>
<path d="M13337 2139 c-38 -21 -73 -39 -78 -39 -14 0 -11 -17 5 -23 7 -3 23 1
35 9 11 8 37 22 58 30 l37 16 -17 -24 c-91 -126 -83 -179 16 -104 56 43 106
74 90 56 -31 -34 -3 -91 35 -71 46 24 115 122 98 138 -8 8 -36 -17 -36 -31 0
-7 -19 -30 -41 -51 l-42 -40 6 43 c7 56 -9 62 -65 25 -24 -16 -49 -33 -56 -37
-8 -5 7 20 32 55 25 35 46 69 46 76 0 24 -54 12 -123 -28z"/>
<path d="M2153 2098 c-11 -40 -23 -81 -28 -90 -17 -40 24 -15 69 42 50 63 96
99 82 64 -5 -11 -10 -36 -13 -58 -5 -29 -3 -38 7 -34 14 4 49 107 42 126 -7
22 -51 12 -88 -20 -36 -32 -36 -32 -34 -7 7 76 -13 64 -37 -23z"/>
<path d="M4895 2156 c-15 -12 -17 -18 -7 -24 10 -7 10 -14 -3 -38 -21 -42 -19
-71 9 -89 29 -19 59 -9 99 33 20 21 28 38 25 57 -6 50 -86 89 -123 61z m93
-62 c3 -23 -33 -61 -63 -66 -17 -3 -20 2 -18 36 2 21 7 44 13 51 16 19 64 3
68 -21z"/>
<path d="M5534 2160 c-22 -9 -84 -75 -84 -90 0 -6 -3 -10 -8 -10 -4 0 -6 20
-4 45 3 28 0 45 -7 45 -6 0 -11 -15 -11 -32 0 -18 -11 -67 -24 -110 -30 -97
-43 -182 -26 -176 6 2 25 36 42 76 27 66 32 72 59 72 42 0 75 25 93 71 19 47
21 105 4 112 -7 2 -22 1 -34 -3z m13 -66 c-7 -42 -42 -84 -69 -84 -31 0 -18
39 35 98 29 32 41 27 34 -14z"/>
<path d="M8381 2142 c-20 -28 -61 -124 -61 -142 0 -29 24 -1 55 64 22 46 43
77 55 81 28 9 25 25 -4 25 -16 0 -32 -11 -45 -28z"/>
<path d="M14994 2151 c-65 -40 -98 -114 -69 -157 15 -23 22 -26 61 -21 50 5
136 45 142 66 4 10 0 12 -14 6 -123 -51 -167 -55 -172 -17 -3 16 2 22 15 22
21 0 110 45 131 67 12 12 12 17 -3 33 -23 25 -51 25 -91 1z m66 -15 c0 -6 -87
-56 -97 -56 -16 1 62 60 79 60 10 0 18 -2 18 -4z"/>
<path d="M6449 2158 c-1 -2 -3 -12 -5 -23 -1 -11 -15 -49 -29 -84 -33 -78 -22
-98 23 -42 33 41 40 61 21 61 -5 0 -7 5 -3 11 4 8 9 7 15 -2 6 -11 12 -9 28 5
20 18 20 18 14 -18 -7 -47 8 -47 48 -1 17 19 34 35 38 35 5 0 13 -18 20 -40
11 -38 20 -47 33 -35 6 6 -24 110 -35 121 -4 4 -15 0 -24 -8 -32 -27 -41 -29
-36 -9 9 34 -18 34 -54 0 -22 -21 -34 -27 -30 -16 7 20 -1 47 -14 47 -5 0 -10
-1 -10 -2z"/>
<path d="M6948 2143 c-22 -25 -44 -72 -53 -110 -11 -54 19 -41 48 20 32 68 50
83 81 69 31 -14 41 -4 19 20 -21 23 -75 24 -95 1z"/>
<path d="M7177 2142 c-9 -10 -18 -27 -20 -38 -8 -39 -20 -54 -44 -54 -15 0
-23 -5 -20 -12 2 -7 13 -12 25 -10 16 2 25 -5 36 -31 8 -20 23 -38 35 -42 38
-12 159 34 146 55 -3 5 -30 0 -61 -11 -65 -23 -89 -18 -98 18 -4 14 -6 26 -4
27 57 33 78 54 78 77 0 40 -44 53 -73 21z m50 -28 c3 -10 -36 -38 -44 -31 -2
3 1 15 7 27 11 21 31 23 37 4z"/>
<path d="M5190 2135 c0 -19 -55 -81 -91 -102 -16 -10 -29 -21 -29 -25 0 -15
38 -8 64 13 21 16 26 17 26 5 0 -15 26 -46 39 -46 4 0 26 16 49 36 23 19 42
31 42 25 0 -23 28 -10 34 17 4 15 9 35 12 45 9 31 -18 18 -72 -33 -73 -69 -93
-64 -59 17 8 19 15 42 15 49 0 8 -7 14 -15 14 -8 0 -15 -7 -15 -15z"/>
<path d="M8797 2117 c-19 -18 -39 -31 -45 -29 -9 3 -47 -86 -40 -94 3 -2 26
23 52 56 26 33 56 65 67 71 19 10 20 8 13 -52 -6 -50 -4 -61 7 -57 15 5 26 43
28 101 1 33 -2 37 -23 37 -14 0 -40 -14 -59 -33z"/>
<path d="M9194 2116 c-35 -35 -43 -63 -23 -83 13 -13 68 0 81 19 6 8 7 5 3
-10 -5 -16 -1 -30 11 -43 18 -20 59 -26 69 -9 3 6 -3 10 -13 10 -34 0 -45 24
-27 60 25 47 6 66 -32 30 -12 -10 -33 -22 -48 -26 -25 -6 -26 -5 -15 15 6 12
19 25 28 28 20 8 32 24 26 35 -10 15 -26 8 -60 -26z"/>
<path d="M10285 2119 c-63 -33 -94 -63 -95 -91 0 -24 27 -23 35 0 7 22 73 78
109 92 29 11 31 7 17 -54 -5 -21 -7 -45 -4 -53 7 -19 28 -11 30 13 1 10 5 43
9 72 7 50 6 52 -17 52 -13 -1 -51 -15 -84 -31z"/>
<path d="M8584 2132 c-6 -4 -25 -27 -42 -51 -57 -79 -33 -114 42 -63 44 30 45
30 48 9 2 -12 10 -23 18 -25 12 -2 15 8 13 45 0 27 -1 52 -2 57 -1 5 -11 0
-23 -11 -38 -33 -88 -65 -88 -55 0 4 16 27 35 49 19 22 31 43 28 47 -8 8 -15
7 -29 -2z"/>
<path d="M9467 2134 c-4 -4 -4 -10 -1 -15 6 -10 34 0 34 12 0 10 -24 12 -33 3z"/>
<path d="M6747 2106 c-43 -64 -24 -126 36 -126 50 0 79 36 75 91 -2 33 -8 45
-21 47 -15 3 -17 -2 -11 -37 8 -47 -6 -71 -42 -71 -41 0 -41 55 0 90 21 17 20
30 -3 30 -10 0 -26 -11 -34 -24z"/>
<path d="M10049 2100 c-19 -16 -37 -30 -40 -30 -11 0 -28 -50 -23 -65 23 -59
143 4 130 69 -3 15 -6 35 -6 42 0 23 -25 16 -61 -16z m31 -45 c0 -15 -38 -40
-47 -31 -3 3 2 17 11 31 17 26 36 26 36 0z"/>
<path d="M2794 2105 c-27 -18 -46 -65 -42 -101 3 -29 4 -29 64 -26 56 2 63 0
78 -23 14 -22 20 -24 32 -14 13 10 11 16 -13 42 -25 26 -32 28 -75 23 -42 -4
-48 -3 -48 13 0 29 34 65 54 58 12 -5 15 -13 11 -27 -7 -23 7 -27 24 -6 10 11
9 21 -4 45 -17 35 -47 40 -81 16z"/>
<path d="M9427 2091 c-24 -40 -21 -68 7 -86 19 -13 29 -14 45 -5 30 15 26 33
-5 27 -33 -6 -42 15 -20 48 16 24 14 45 -2 45 -4 0 -15 -13 -25 -29z"/>
<path d="M12381 2106 c-43 -24 -66 -97 -42 -134 12 -20 78 -32 112 -20 37 13
38 32 1 23 -42 -9 -82 10 -82 38 0 41 36 77 77 77 23 0 33 4 31 13 -6 17 -68
19 -97 3z"/>
<path d="M9871 2074 c-24 -30 -27 -54 -8 -54 12 0 47 53 47 71 0 17 -19 9 -39
-17z"/>
<path d="M13650 2068 c-23 -64 -28 -88 -20 -93 13 -8 30 20 33 53 1 16 5 28
10 25 4 -2 7 3 7 11 0 9 0 19 1 23 0 4 -4 9 -9 11 -5 1 -15 -12 -22 -30z"/>
<path d="M12150 2005 c0 -14 5 -25 10 -25 6 0 10 11 10 25 0 14 -4 25 -10 25
-5 0 -10 -11 -10 -25z"/>
<path d="M10985 1968 c-2 -7 -9 -30 -15 -50 -6 -21 -25 -52 -41 -69 -20 -22
-27 -35 -20 -42 24 -24 101 95 101 157 0 19 -19 22 -25 4z"/>
<path d="M7683 1944 c-3 -9 -1 -19 5 -23 7 -4 3 -29 -13 -76 -42 -125 -62
-163 -86 -167 -29 -4 -37 -28 -10 -28 20 0 21 -1 7 -29 -9 -16 -20 -47 -25
-70 -15 -68 15 -52 50 27 30 67 31 68 65 64 42 -5 47 16 5 24 l-29 6 34 83
c44 110 58 173 43 191 -15 19 -38 18 -46 -2z"/>
<path d="M5948 1833 c-55 -97 -56 -98 -97 -101 -48 -4 -54 -18 -12 -27 l30 -6
-15 -41 c-29 -83 -12 -148 39 -148 29 1 107 36 107 50 0 12 5 13 -54 -5 -26
-8 -52 -12 -57 -9 -14 8 -10 64 7 111 l16 42 56 -2 c45 -2 57 1 60 15 3 14 -3
15 -36 11 -23 -3 -42 -1 -46 5 -3 6 16 49 44 96 55 93 59 106 32 106 -12 0
-36 -31 -74 -97z"/>
<path d="M2633 1873 c-3 -16 -18 -75 -32 -133 l-26 -104 -37 -9 c-23 -5 -38
-15 -38 -24 0 -11 7 -13 30 -8 35 8 35 8 11 -72 -18 -59 -18 -63 -2 -63 13 0
23 19 39 74 20 69 24 75 56 86 19 6 40 18 46 26 14 16 7 17 -38 5 -37 -11 -36
-25 -3 119 11 47 23 95 27 108 5 16 2 22 -10 22 -9 0 -19 -12 -23 -27z"/>
<path d="M2795 1890 c-3 -5 -4 -14 -1 -18 9 -16 -33 -182 -70 -273 -28 -70
-34 -93 -25 -102 10 -9 16 -7 29 8 9 12 32 39 50 60 l33 40 -6 -47 c-8 -50 -1
-98 14 -98 5 0 9 11 9 24 0 14 5 55 12 91 16 85 6 98 -44 55 l-36 -32 14 39
c24 67 59 232 52 248 -6 17 -22 20 -31 5z"/>
<path d="M11477 1873 c-8 -10 -20 -31 -26 -47 -16 -40 -131 -226 -141 -226
-14 0 -32 71 -36 139 -2 46 -7 66 -16 66 -7 0 -14 -13 -16 -29 -5 -41 17 -157
34 -184 15 -22 12 -28 -51 -123 -69 -103 -115 -195 -115 -229 0 -35 14 -21 54
53 21 39 82 134 134 211 104 153 218 364 204 378 -5 5 -15 1 -25 -9z"/>
<path d="M4626 1857 c-13 -10 -19 -37 -27 -122 -5 -61 -14 -124 -20 -141 -9
-28 -59 -106 -59 -91 0 3 -16 -1 -35 -9 -19 -8 -35 -10 -35 -6 0 15 69 101 90
112 25 14 26 30 1 30 -23 0 -109 -92 -117 -126 -10 -41 2 -57 38 -49 43 10
104 49 124 80 25 38 54 152 54 212 0 28 4 62 9 76 13 33 0 51 -23 34z"/>
<path d="M13316 1838 c-2 -7 -11 -42 -20 -78 -47 -187 -67 -229 -141 -283 -40
-28 -40 -29 -43 -6 -5 28 28 73 57 77 29 5 27 32 -2 32 -37 0 -78 -51 -84
-103 -4 -34 -2 -45 11 -50 40 -16 119 46 170 133 35 60 86 215 86 263 0 28
-27 39 -34 15z"/>
<path d="M15305 1838 c-3 -7 -21 -69 -40 -138 -20 -68 -44 -138 -53 -155 -18
-30 -101 -100 -109 -91 -8 8 26 64 49 80 12 9 31 16 41 16 12 0 17 6 15 18 -2
11 -13 17 -33 17 -22 0 -36 -10 -62 -43 -42 -55 -51 -88 -30 -110 13 -12 21
-13 41 -4 42 19 106 84 131 131 28 57 88 260 81 278 -7 16 -25 17 -31 1z"/>
<path d="M7929 1839 c-10 -54 -8 -59 16 -35 12 12 12 16 0 26 -8 7 -15 11 -16
9z"/>
<path d="M16533 1828 c-6 -7 -19 -40 -31 -73 -44 -128 -42 -125 -89 -125 -32
0 -43 -4 -43 -15 0 -10 10 -15 30 -15 17 0 30 -2 30 -5 0 -3 -11 -28 -25 -55
-24 -48 -34 -107 -16 -96 5 3 24 39 44 80 32 67 38 74 70 80 33 6 66 31 55 41
-2 3 -19 0 -37 -5 -29 -8 -32 -7 -26 8 39 93 64 177 57 184 -5 5 -13 3 -19 -4z"/>
<path d="M1862 1814 c2 -11 11 -20 22 -22 13 -3 17 1 14 14 -2 11 -11 20 -22
22 -13 3 -17 -1 -14 -14z"/>
<path d="M13079 1827 c0 -1 -2 -18 -5 -37 -6 -45 -46 -164 -79 -234 -24 -50
-74 -106 -95 -106 -35 0 -3 76 35 86 29 7 32 19 9 28 -24 9 -64 -20 -80 -61
-13 -31 -13 -38 1 -59 21 -33 48 -30 92 10 56 50 101 132 134 242 34 115 35
120 9 127 -11 3 -20 4 -21 4z"/>
<path d="M16687 1823 c-2 -5 -12 -33 -22 -63 -10 -30 -35 -90 -56 -132 -61
-121 -52 -137 40 -78 44 29 59 35 51 21 -16 -30 -13 -81 5 -81 10 0 15 10 15
28 1 15 7 38 15 52 32 55 4 80 -46 42 -13 -10 -37 -26 -52 -35 l-28 -18 27 53
c35 69 74 173 74 198 0 20 -15 27 -23 13z"/>
<path d="M15076 1767 c-8 -12 -26 -66 -40 -120 -14 -55 -35 -111 -45 -125 -32
-44 -68 -74 -87 -70 -15 3 -13 7 10 35 15 18 36 35 46 38 26 8 26 25 0 25 -32
0 -90 -60 -93 -95 -2 -27 1 -30 30 -33 64 -6 159 115 183 233 6 33 18 70 26
82 18 28 18 39 -1 47 -9 3 -21 -4 -29 -17z"/>
<path d="M4843 1773 c-21 -7 -15 -33 7 -33 11 0 20 6 20 14 0 18 -11 25 -27
19z"/>
<path d="M3803 1738 c-17 -18 -43 -55 -59 -83 -15 -27 -33 -53 -40 -57 -7 -5
-22 -40 -34 -80 -12 -40 -48 -125 -80 -189 -47 -96 -61 -136 -75 -216 -15 -88
-30 -145 -50 -195 -5 -12 -2 -18 7 -18 8 0 23 19 33 43 9 23 21 51 26 62 4 11
14 49 20 85 15 84 28 109 29 55 0 -49 46 -148 91 -194 42 -43 47 -37 83 111
52 215 59 243 64 256 2 6 -3 12 -12 12 -17 0 -34 -52 -61 -179 -9 -41 -22 -99
-31 -128 -13 -46 -18 -52 -30 -42 -31 25 -63 96 -73 159 -17 105 -14 138 18
189 16 25 39 76 51 114 17 54 26 67 42 67 34 0 85 38 117 88 75 118 48 228
-36 140z m51 -25 c-8 -35 -39 -103 -56 -124 -7 -8 -25 -23 -40 -33 l-27 -18 5
26 c8 45 94 176 115 176 5 0 7 -12 3 -27z"/>
<path d="M10025 1721 c-9 -16 6 -143 21 -173 8 -14 19 -28 26 -31 10 -3 9 -9
-3 -23 -44 -51 -98 -199 -80 -217 11 -11 18 0 56 88 17 39 61 116 98 172 37
56 72 114 77 128 25 65 -1 76 -29 13 -10 -24 -29 -54 -41 -68 -12 -14 -29 -35
-37 -47 -9 -13 -19 -23 -23 -23 -13 0 -28 52 -35 118 -7 60 -17 83 -30 63z"/>
<path d="M1785 1708 c-3 -7 -13 -46 -24 -85 -15 -58 -16 -76 -6 -89 11 -16 41
-11 31 5 -3 4 4 41 15 81 11 41 17 80 14 87 -6 17 -24 17 -30 1z"/>
<path d="M9203 1707 c-23 -13 -113 -113 -113 -126 0 -4 6 -15 13 -25 13 -18
15 -18 62 3 26 11 49 21 51 21 2 0 4 -15 4 -33 0 -44 41 -87 65 -67 19 15 20
31 2 24 -26 -9 -40 23 -34 76 3 27 3 52 -2 54 -4 3 -28 -9 -54 -26 -26 -17
-50 -29 -52 -26 -2 2 15 26 39 53 42 48 43 49 55 27 6 -12 16 -22 21 -22 16 0
11 47 -6 64 -18 19 -22 19 -51 3z"/>
<path d="M6110 1649 c-46 -72 -56 -97 -42 -111 7 -7 20 8 40 48 48 94 54 99
90 86 38 -13 51 1 20 22 -43 30 -65 21 -108 -45z"/>
<path d="M9619 1688 c-34 -23 -104 -142 -93 -159 11 -18 20 -8 47 50 26 57 77
109 95 97 4 -2 14 0 22 5 13 8 13 10 0 19 -22 14 -33 12 -71 -12z"/>
<path d="M4003 1658 c-64 -68 -79 -111 -47 -142 21 -22 66 -20 125 5 79 34 55
49 -29 18 -35 -13 -82 -11 -81 4 0 6 19 26 41 42 23 17 46 37 51 46 10 17 2
69 -11 69 -4 0 -26 -19 -49 -42z m37 -11 c0 -2 -12 -14 -27 -28 l-28 -24 24
28 c23 25 31 32 31 24z"/>
<path d="M8432 1688 c-19 -19 -14 -72 9 -102 17 -22 19 -29 9 -42 -13 -14 -24
-11 -26 7 -1 5 -2 12 -3 15 -3 14 -31 -20 -31 -38 0 -25 24 -33 60 -18 52 21
56 35 24 81 -34 49 -25 74 27 75 23 0 34 5 34 15 0 19 -85 25 -103 7z"/>
<path d="M7810 1678 c0 -7 -16 -40 -36 -72 -24 -41 -32 -62 -25 -69 12 -12 9
-16 49 51 35 58 44 92 25 99 -7 3 -13 -1 -13 -9z"/>
<path d="M9435 1666 c-34 -35 -79 -126 -67 -138 15 -15 30 -2 53 45 29 58 48
77 76 77 28 0 30 15 4 30 -29 15 -39 13 -66 -14z"/>
<path d="M6870 1673 c-43 -8 -60 -32 -60 -83 0 -35 -5 -52 -21 -66 -21 -19
-22 -19 -15 4 9 29 -7 29 -34 0 -23 -25 -23 -46 2 -62 14 -8 26 -4 60 20 43
30 43 31 41 88 -1 36 2 54 8 50 6 -3 19 2 29 11 13 12 29 16 49 12 34 -7 45 1
30 20 -11 13 -40 15 -89 6z"/>
<path d="M7537 1673 c-10 -9 -9 -23 2 -23 5 0 11 7 15 15 5 15 -5 20 -17 8z"/>
<path d="M16894 1647 c-30 -27 -37 -41 -36 -68 1 -50 39 -79 103 -79 27 0 49
5 49 10 0 6 4 9 9 8 5 -2 8 1 8 6 -1 5 -26 8 -55 7 -55 -3 -82 10 -82 36 0 12
3 13 13 5 9 -8 23 -5 52 11 35 20 40 27 40 57 0 32 -3 35 -32 38 -25 3 -40 -4
-69 -31z m76 -16 c0 -4 -17 -15 -37 -25 l-38 -18 29 31 c26 27 46 33 46 12z"/>
<path d="M4256 1633 c-33 -33 -37 -35 -31 -14 13 44 -19 17 -47 -40 -53 -104
-25 -108 63 -8 35 39 65 67 67 61 2 -6 -4 -34 -12 -63 -20 -66 -20 -103 -1
-119 13 -11 15 -7 15 28 0 22 9 68 19 102 11 34 17 68 14 76 -9 25 -48 15 -87
-23z"/>
<path d="M9777 1639 c-24 -20 -37 -39 -37 -55 0 -31 22 -40 69 -28 31 8 37 6
46 -11 11 -20 55 -28 55 -10 0 6 -6 10 -12 10 -9 0 -12 12 -10 33 4 37 6 37
-59 16 -27 -9 -53 -13 -57 -9 -9 9 49 55 71 55 9 0 17 7 17 15 0 25 -43 17
-83 -16z"/>
<path d="M1897 1594 c-26 -37 -45 -70 -42 -72 8 -8 55 20 55 33 0 19 40 66 51
60 5 -4 9 -22 9 -41 0 -38 15 -74 30 -74 11 0 12 92 1 130 -5 17 -15 26 -32
28 -22 3 -33 -7 -72 -64z"/>
<path d="M6238 1618 c-85 -92 -52 -139 58 -83 57 29 55 29 53 13 -3 -27 2 -38
16 -38 9 0 15 9 15 24 0 14 5 37 10 52 17 42 -3 52 -41 20 -36 -30 -109 -70
-116 -63 -10 11 60 76 84 79 26 3 26 4 9 21 -27 26 -45 21 -88 -25z"/>
<path d="M8125 1624 c-8 -20 -15 -39 -15 -42 0 -3 -8 -14 -17 -24 -12 -14 -14
-21 -5 -30 9 -9 25 2 67 41 31 29 58 51 61 49 2 -3 -3 -22 -11 -42 -9 -21 -15
-50 -13 -64 4 -34 28 -42 28 -8 0 14 9 50 21 80 29 80 12 97 -53 52 l-35 -23
5 23 c7 37 -16 28 -33 -12z"/>
<path d="M2961 1621 c-12 -16 -21 -34 -21 -40 0 -5 -7 -14 -16 -19 -14 -8 -14
-12 3 -43 21 -36 67 -53 113 -41 14 3 30 5 35 4 6 -1 21 8 35 18 l25 20 -50
-6 c-74 -10 -117 -8 -126 8 -10 14 23 48 47 48 21 0 33 31 21 57 -14 31 -41
29 -66 -6z m47 -15 c-2 -1 -12 -8 -22 -16 -18 -14 -18 -14 -6 7 8 12 18 19 23
16 4 -3 7 -6 5 -7z"/>
<path d="M4724 1591 c-13 -35 -18 -64 -13 -72 10 -17 12 -15 38 54 24 67 26
77 9 77 -7 0 -23 -26 -34 -59z"/>
<path d="M6571 1619 c-34 -26 -42 -28 -39 -14 2 10 -2 20 -9 22 -11 4 -60
-124 -50 -134 3 -2 30 20 61 51 80 79 115 95 81 36 -17 -30 -20 -83 -4 -78 6
2 20 30 31 61 16 46 17 61 8 72 -18 22 -31 19 -79 -16z"/>
<path d="M7324 1631 c-39 -24 -84 -81 -84 -107 0 -51 81 -90 130 -64 30 16 24
30 -10 24 -33 -7 -80 17 -80 40 0 16 74 85 93 87 6 1 19 2 27 3 8 0 15 8 15
16 0 23 -55 23 -91 1z"/>
<path d="M7980 1640 c0 -5 -6 -10 -13 -10 -7 0 -36 -24 -65 -53 -37 -37 -52
-60 -52 -80 0 -33 19 -35 84 -7 69 29 97 61 89 102 -6 35 -20 58 -34 58 -5 0
-9 -4 -9 -10z m14 -57 c5 -11 0 -22 -11 -31 -32 -24 -95 -54 -101 -47 -8 7 79
95 94 95 7 0 15 -8 18 -17z"/>
<path d="M17220 1635 c-14 -8 -32 -17 -41 -21 -21 -7 -69 -111 -62 -131 7 -18
35 -12 38 8 5 29 55 96 82 108 21 9 30 9 49 -4 22 -14 25 -14 31 1 4 11 -2 24
-16 36 -28 22 -48 23 -81 3z"/>
<path d="M7050 1622 c-44 -22 -70 -64 -54 -89 14 -22 56 -28 84 -13 18 9 25 8
41 -6 10 -9 19 -15 20 -13 5 23 6 89 1 87 -4 -2 -28 -14 -54 -28 -26 -13 -51
-20 -55 -16 -11 11 56 66 79 66 10 0 18 7 18 15 0 20 -37 19 -80 -3z"/>
<path d="M4904 1611 c-43 -27 -104 -89 -104 -106 0 -23 16 -18 42 13 27 32 77
72 89 72 5 0 9 -18 9 -40 0 -29 4 -40 15 -40 13 0 15 11 13 57 -3 66 -15 74
-64 44z"/>
<path d="M11458 1588 c-90 -90 -63 -177 37 -119 57 33 68 91 27 141 l-19 24
-45 -46z m56 -24 c10 -26 7 -34 -20 -59 -28 -26 -64 -34 -64 -14 0 14 19 50
38 72 19 21 38 22 46 1z"/>
<path d="M11696 1593 c-8 -16 -29 -43 -46 -62 -16 -18 -30 -37 -30 -41 0 -4
-16 -15 -35 -26 -36 -19 -45 -34 -22 -34 7 0 29 14 47 30 39 35 35 33 60 18
15 -10 26 -9 57 7 21 11 41 21 46 23 4 2 7 -8 7 -22 0 -31 37 -73 52 -58 6 6
6 17 -1 30 -6 11 -11 43 -11 71 0 47 -10 65 -25 41 -10 -16 -96 -72 -102 -66
-3 3 6 25 21 50 14 24 26 49 26 55 0 22 -30 10 -44 -16z"/>
<path d="M15685 1587 c-61 -61 -36 -116 39 -88 35 14 36 14 36 -5 0 -34 25 -5
31 35 6 48 -6 63 -30 34 -27 -34 -81 -56 -81 -33 0 23 50 60 80 60 42 0 34 24
-9 28 -25 3 -39 -4 -66 -31z"/>
<path d="M16164 1602 c-59 -50 -70 -122 -18 -122 52 0 103 45 104 91 0 48 -45
65 -86 31z m56 -34 c0 -19 -42 -58 -62 -58 -23 0 -23 11 3 44 21 26 59 36 59
14z"/>
<path d="M12615 1556 c-53 -52 -71 -95 -46 -111 9 -5 79 7 114 21 11 4 17 1
17 -9 0 -8 7 -20 15 -27 13 -11 18 -11 28 0 9 10 9 13 0 17 -7 3 -13 18 -13
33 0 41 -12 44 -70 19 -28 -12 -53 -20 -55 -17 -3 3 14 24 37 47 32 31 44 38
46 27 4 -20 21 -21 28 -2 7 19 -13 56 -31 56 -8 0 -39 -24 -70 -54z"/>
<path d="M13653 1590 c-57 -34 -71 -97 -30 -131 29 -24 56 -23 87 1 l25 20
-45 -2 c-40 -3 -45 -1 -48 20 -5 33 34 72 70 72 31 0 39 24 12 34 -25 10 -37
7 -71 -14z"/>
<path d="M15953 1590 c-33 -20 -70 -67 -60 -76 8 -8 47 6 47 16 0 10 40 50 49
50 4 0 6 -14 6 -32 0 -47 21 -45 29 2 3 23 4 45 1 51 -10 14 -37 11 -72 -11z"/>
<path d="M14730 1583 c-74 -49 -98 -92 -64 -111 15 -9 40 -5 102 13 19 6 22 4
22 -18 0 -31 24 -52 47 -42 16 7 16 9 2 12 -10 2 -19 19 -23 43 -8 49 -15 53
-61 34 -20 -8 -47 -14 -59 -12 -19 3 -17 6 18 33 23 18 51 29 70 30 21 0 31 5
31 15 0 21 -54 23 -85 3z"/>
<path d="M5056 1557 c-51 -48 -61 -108 -20 -124 14 -5 36 0 103 25 11 4 13 -3
7 -37 -14 -89 -29 -121 -56 -121 -72 0 -173 -126 -156 -195 5 -20 13 -25 36
-25 35 0 100 59 144 129 l26 41 40 -26 c56 -37 64 -20 12 25 -38 33 -42 40
-34 62 6 14 13 61 17 104 5 54 14 88 27 106 24 32 20 64 -7 64 -15 0 -24 -11
-33 -41 -11 -34 -19 -43 -50 -53 -20 -7 -43 -15 -49 -17 -26 -11 -12 20 27 58
22 22 40 44 40 49 0 20 -41 7 -74 -24z m44 -293 c0 -24 -114 -153 -126 -141
-25 25 61 147 104 147 12 0 22 -3 22 -6z"/>
<path d="M14083 1570 c-18 -11 -39 -17 -47 -14 -10 4 -15 -1 -15 -13 1 -10 -2
-28 -6 -40 -11 -36 16 -27 50 15 29 38 72 53 59 22 -3 -8 -9 -35 -12 -59 -4
-34 -2 -43 8 -39 13 4 36 83 35 123 0 27 -33 30 -72 5z"/>
<path d="M13825 1555 c-47 -46 -23 -90 36 -68 22 8 29 8 33 -3 3 -8 10 -14 16
-14 6 0 9 4 6 9 -3 5 1 14 9 21 16 14 20 36 7 44 -5 3 -25 -4 -45 -14 -48 -26
-61 -26 -47 0 6 11 20 20 30 20 24 0 26 15 4 24 -22 9 -22 9 -49 -19z"/>
<path d="M10378 1513 c-19 -5 -25 -23 -9 -23 17 0 41 12 41 21 0 9 -4 10 -32
2z"/>
<path d="M15775 1420 c-4 -17 -29 -77 -56 -134 -39 -83 -53 -105 -74 -110 -14
-4 -25 -11 -25 -17 0 -6 9 -8 20 -4 11 3 20 2 20 -3 0 -22 -25 -78 -39 -89
-14 -11 -14 -14 -1 -23 28 -18 35 -10 54 54 10 36 25 67 33 70 8 3 44 6 79 6
36 0 64 4 64 10 0 6 -30 10 -70 10 -38 0 -70 2 -70 4 0 2 20 46 44 98 52 109
65 158 43 158 -9 0 -18 -13 -22 -30z"/>
<path d="M8981 1423 c-33 -23 -94 -134 -117 -213 -14 -49 -27 -76 -38 -78 -20
-4 -21 -21 -1 -28 35 -14 -17 -176 -71 -224 -22 -19 -34 -37 -30 -45 23 -62
146 108 146 203 0 46 12 55 64 48 35 -6 46 -4 46 6 0 20 -21 45 -26 32 -3 -7
-17 -9 -37 -5 -27 6 -31 11 -28 31 6 42 46 143 74 187 37 58 67 76 101 63 34
-13 46 -13 46 0 0 6 -6 10 -14 10 -7 0 -19 6 -25 14 -15 18 -64 18 -90 -1z"/>
<path d="M17427 1413 c-4 -3 -7 -13 -7 -22 0 -8 -20 -40 -44 -71 -24 -31 -61
-86 -81 -123 -20 -37 -42 -70 -47 -74 -7 -3 -8 -1 -4 5 5 9 -9 12 -48 12 -70
0 -73 -17 -6 -26 28 -4 50 -8 50 -10 0 -1 -9 -19 -21 -38 -11 -19 -19 -45 -17
-57 4 -30 28 -37 28 -9 0 12 12 44 27 71 28 53 35 55 156 52 20 -1 37 2 37 7
0 16 -62 29 -107 23 l-47 -6 24 39 c13 21 47 71 76 109 56 75 77 125 52 125
-8 0 -18 -3 -21 -7z"/>
<path d="M2920 1290 c-26 -73 -37 -91 -56 -96 -27 -7 -31 -22 -8 -31 12 -4 14
-14 9 -43 -14 -83 -9 -123 19 -147 27 -23 51 -28 80 -17 26 10 18 24 -12 24
-46 0 -66 21 -64 70 1 23 7 60 12 81 9 34 15 39 40 40 17 1 35 3 40 4 6 1 15
3 20 4 6 0 10 5 10 10 0 5 -18 9 -41 9 -23 1 -43 3 -45 5 -3 2 9 40 26 83 34
90 35 94 16 94 -8 0 -27 -36 -46 -90z"/>
<path d="M14057 1373 c-3 -4 -10 -28 -17 -52 -6 -24 -27 -77 -46 -117 -19 -40
-34 -77 -34 -81 0 -5 -9 -14 -21 -21 -14 -9 -19 -9 -14 -2 5 8 0 11 -16 8 -13
-1 -25 -11 -27 -20 -3 -15 2 -17 27 -12 36 7 36 8 15 -41 -17 -41 -16 -96 3
-102 6 -2 14 11 18 29 3 18 14 52 23 75 17 42 17 42 57 36 60 -9 67 -9 72 4 3
8 -10 15 -35 19 -22 3 -44 9 -50 13 -6 4 5 50 31 128 31 91 39 125 31 133 -7
7 -14 8 -17 3z"/>
<path d="M7232 1288 c-11 -29 -28 -79 -37 -110 -17 -51 -21 -57 -48 -60 -42
-4 -48 -28 -7 -28 31 0 32 -1 26 -35 -13 -70 -16 -105 -7 -105 11 0 28 45 36
98 l7 42 48 0 c27 0 51 4 54 9 7 10 -27 21 -66 21 -16 0 -28 1 -28 3 0 1 14
43 30 92 37 108 38 117 23 122 -6 2 -20 -19 -31 -49z"/>
<path d="M9950 1314 c-13 -34 -13 -44 4 -44 13 0 26 28 26 58 0 22 -20 13 -30
-14z"/>
<path d="M16034 1326 c-8 -22 3 -33 18 -18 9 9 9 15 0 24 -9 9 -13 7 -18 -6z"/>
<path d="M4936 1318 c-3 -7 -14 -44 -26 -83 -12 -38 -23 -76 -26 -83 -2 -7 0
-11 5 -7 5 3 11 -1 13 -7 5 -14 49 111 54 154 4 28 -13 49 -20 26z"/>
<path d="M5617 1323 c-5 -9 -36 -105 -87 -270 -31 -99 -33 -139 -7 -130 6 2
12 15 13 28 1 35 103 353 114 357 6 2 10 8 10 13 0 11 -37 12 -43 2z"/>
<path d="M4670 1311 c-14 -5 -53 -22 -87 -40 -59 -29 -63 -34 -77 -84 -41
-140 -65 -241 -60 -248 10 -16 22 -9 28 17 5 19 11 24 24 19 9 -4 40 -9 67
-12 58 -6 104 16 136 64 27 40 24 60 -17 101 l-35 35 44 46 c56 58 70 84 55
99 -13 13 -41 14 -78 3z m41 -39 c-5 -9 -32 -37 -60 -60 -48 -41 -65 -72 -39
-72 18 0 78 -50 78 -65 0 -7 -12 -27 -26 -44 -28 -34 -67 -40 -136 -21 l-36
11 24 92 c15 54 33 99 45 109 10 9 19 21 19 28 0 6 8 9 18 6 9 -3 30 2 47 12
16 10 40 19 52 20 20 2 22 -1 14 -16z"/>
<path d="M9782 1258 c-11 -29 -22 -63 -26 -75 -4 -12 -17 -23 -29 -25 -12 -2
-23 -11 -25 -21 -3 -15 0 -18 17 -12 20 6 21 4 15 -22 -11 -43 -51 -125 -66
-134 -11 -7 -10 -11 2 -18 8 -5 18 -7 22 -5 14 9 55 96 67 142 10 37 15 42 36
38 14 -3 27 0 30 5 4 5 2 9 -2 9 -5 0 -17 6 -27 13 -16 12 -15 16 9 80 29 79
29 77 11 77 -8 0 -23 -23 -34 -52z"/>
<path d="M5807 1240 c-26 -16 -47 -37 -47 -45 0 -9 -4 -14 -8 -11 -13 8 -172
-108 -172 -126 0 -2 20 -5 44 -5 25 0 52 -6 61 -13 8 -7 19 -10 22 -6 13 12
-13 41 -41 46 l-28 5 24 21 c29 27 154 108 191 125 26 12 32 29 11 36 -5 2
-31 -10 -57 -27z"/>
<path d="M12567 1263 c-4 -3 -7 -12 -7 -20 0 -17 26 -17 33 1 8 21 -11 35 -26
19z"/>
<path d="M9943 1253 c-15 -5 -42 -64 -89 -192 -53 -145 -44 -155 54 -58 51 51
61 57 53 34 -15 -39 -14 -77 2 -77 8 0 18 25 26 66 19 95 6 103 -64 34 -30
-30 -55 -52 -55 -50 0 8 47 133 69 184 23 52 24 66 4 59z"/>
<path d="M16646 1229 c-35 -27 -33 -59 6 -99 l31 -33 -27 -24 c-28 -23 -80
-31 -91 -13 -11 18 -25 10 -25 -14 0 -63 150 -36 166 30 5 18 -2 36 -22 65
-25 36 -26 41 -11 56 8 9 25 16 38 17 30 1 35 22 7 30 -36 9 -43 8 -72 -15z"/>
<path d="M11635 1221 c-16 -10 -41 -30 -54 -45 -14 -14 -32 -26 -42 -26 -13 0
-26 -28 -54 -117 -21 -65 -48 -139 -61 -165 -27 -54 -30 -68 -11 -68 14 0 50
58 62 100 4 14 16 46 27 71 17 41 22 45 48 41 55 -8 158 130 148 199 -4 31
-25 34 -63 10z m35 -31 c0 -28 -53 -108 -94 -140 -19 -15 -19 -14 -2 19 16 30
16 33 2 28 -15 -6 -15 -4 -1 22 24 47 95 100 95 71z"/>
<path d="M6596 1221 c-7 -11 3 -41 14 -41 4 0 8 11 8 25 0 25 -12 33 -22 16z"/>
<path d="M11847 1209 c-64 -21 -97 -56 -104 -106 -4 -34 -2 -43 15 -52 26 -14
32 -6 25 33 -4 26 1 37 28 64 18 17 48 35 66 38 18 3 33 12 33 20 0 20 -12 21
-63 3z"/>
<path d="M2176 1175 c-14 -15 -27 -44 -31 -70 -3 -25 -13 -51 -21 -59 -20 -20
-18 -26 11 -26 20 0 25 6 31 37 11 60 36 96 73 106 37 9 32 21 -12 31 -22 5
-32 1 -51 -19z"/>
<path d="M13254 1177 l-26 -23 26 -56 c29 -61 32 -78 14 -96 -16 -16 -28 -15
-28 3 0 21 -13 19 -27 -5 -10 -15 -10 -22 3 -35 23 -22 52 -18 79 11 32 35 31
52 -5 119 l-30 55 30 15 c16 8 36 15 45 15 8 0 15 5 15 10 0 20 -68 10 -96
-13z"/>
<path d="M2415 1166 c-14 -14 -32 -43 -41 -65 -11 -28 -24 -43 -40 -47 -13 -3
-24 -11 -24 -16 0 -6 9 -8 20 -5 15 4 20 0 20 -15 0 -22 18 -60 34 -70 6 -4
23 -8 39 -8 21 0 27 5 27 21 0 16 -4 19 -20 14 -44 -14 -68 46 -32 78 10 10
23 17 28 17 11 0 84 72 84 82 0 14 -33 38 -51 38 -11 0 -31 -11 -44 -24z m60
-15 c3 -5 -7 -19 -22 -30 -16 -11 -34 -26 -40 -31 -18 -15 -16 1 4 30 26 38
46 49 58 31z"/>
<path d="M11966 1155 c-45 -45 -57 -98 -29 -126 17 -17 28 -19 71 -13 28 3 59
12 68 19 14 10 4 12 -52 11 -86 -1 -98 19 -30 52 30 14 48 30 52 46 14 56 -29
62 -80 11z m37 -20 c-10 -13 -24 -26 -31 -29 -19 -8 4 31 26 43 25 15 25 14 5
-14z"/>
<path d="M15900 1165 c-5 -14 -14 -25 -20 -25 -5 0 -19 -19 -31 -41 -16 -32
-18 -44 -8 -49 8 -5 18 3 29 23 9 18 26 49 38 70 25 43 26 47 12 47 -6 0 -15
-11 -20 -25z"/>
<path d="M10369 1161 c-20 -9 -44 -23 -53 -30 -26 -22 -20 -66 14 -98 37 -34
38 -56 4 -72 -28 -12 -44 -7 -44 15 0 21 -17 17 -23 -6 -4 -15 2 -26 20 -37
24 -16 28 -16 62 3 49 26 53 60 12 107 -17 19 -31 42 -31 51 0 17 70 55 103
56 9 0 17 5 17 10 0 6 -4 10 -9 10 -5 0 -15 2 -23 4 -7 2 -29 -3 -49 -13z"/>
<path d="M16090 1169 c0 -5 -4 -8 -9 -5 -13 8 -71 -61 -71 -83 0 -30 26 -44
71 -38 40 5 79 36 79 63 0 15 -48 74 -61 74 -5 0 -9 -5 -9 -11z m30 -49 c8
-15 6 -21 -10 -30 -12 -6 -30 -10 -42 -8 -20 3 -20 3 2 31 25 32 36 34 50 7z"/>
<path d="M16360 1140 c-50 -43 -66 -50 -50 -21 14 27 13 41 -4 41 -12 0 -46
-75 -46 -102 0 -18 40 -6 62 20 13 15 33 35 45 45 21 18 21 18 16 -25 -6 -49
13 -75 44 -63 17 6 17 7 1 16 -22 12 -23 45 -3 79 35 62 0 67 -65 10z"/>
<path d="M1888 1147 c-56 -46 -77 -152 -36 -181 29 -20 86 -20 126 0 33 16 46
42 15 29 -10 -5 -40 -9 -68 -9 l-50 -1 1 49 c0 42 5 53 33 78 28 25 39 29 67
23 35 -6 43 2 22 23 -20 20 -80 14 -110 -11z"/>
<path d="M9218 1143 c-14 -16 -32 -45 -39 -65 -7 -21 -17 -38 -21 -38 -4 0 -8
-11 -8 -25 0 -40 25 -20 53 43 30 71 48 88 77 72 16 -9 22 -8 27 6 3 9 0 20
-8 25 -26 16 -55 9 -81 -18z"/>
<path d="M15281 1135 c-42 -38 -67 -86 -58 -110 9 -22 50 -28 111 -15 79 16
73 35 -8 26 -42 -4 -67 -3 -71 4 -9 15 38 75 75 97 35 20 39 33 10 33 -11 0
-37 -16 -59 -35z"/>
<path d="M12933 1136 c-10 -13 -25 -37 -34 -54 -11 -20 -39 -41 -83 -62 -36
-18 -66 -36 -66 -41 0 -19 22 -19 49 0 16 12 34 21 41 21 6 0 8 5 4 12 -4 7
-3 8 5 4 6 -4 18 -3 26 4 10 9 15 7 20 -9 8 -28 20 -26 84 9 30 17 56 30 58
30 1 0 3 -8 3 -18 0 -41 66 -69 78 -33 3 10 0 12 -11 8 -27 -10 -42 19 -29 57
7 18 12 35 12 39 0 12 -21 7 -48 -11 -15 -10 -48 -31 -75 -46 l-47 -27 21 53
c29 73 33 88 21 88 -6 0 -19 -11 -29 -24z"/>
<path d="M3946 1119 c-15 -17 -32 -51 -38 -75 -9 -31 -17 -44 -30 -44 -10 0
-18 -4 -18 -10 0 -5 9 -10 19 -10 11 0 33 -13 49 -30 33 -32 64 -38 107 -18
37 17 30 27 -15 21 -27 -4 -47 0 -65 11 l-25 16 45 43 c46 44 54 71 35 108
-15 27 -34 24 -64 -12z m23 -65 c-32 -34 -42 -30 -23 9 28 54 38 64 42 38 2
-14 -6 -33 -19 -47z"/>
<path d="M12349 1138 c-9 -7 -27 -29 -40 -48 -47 -69 -86 -85 -74 -29 5 22 3
29 -9 29 -9 0 -18 -10 -21 -23 -9 -33 11 -77 33 -77 20 0 100 79 121 119 16
29 10 45 -10 29z"/>
<path d="M14823 1143 c-28 -5 -63 -49 -63 -77 1 -11 7 -32 15 -46 8 -14 14
-28 15 -32 0 -13 -38 -9 -43 5 -3 9 -9 8 -22 -5 -41 -38 26 -66 90 -36 30 14
32 36 5 71 -27 34 -25 61 7 82 24 16 27 16 38 1 13 -18 25 -11 25 15 0 15 -22
31 -38 28 -4 -1 -17 -4 -29 -6z"/>
<path d="M3133 1118 c-11 -13 -26 -34 -33 -46 -24 -49 29 -112 95 -112 30 0
116 41 98 47 -7 2 -21 0 -32 -6 -36 -20 -95 -13 -120 13 -20 22 -21 24 -4 30
15 6 15 8 3 16 -13 8 -11 13 8 32 l22 23 -6 -35 c-7 -32 -6 -34 10 -21 29 24
39 50 25 67 -17 20 -43 17 -66 -8z"/>
<path d="M4297 1133 c-4 -3 -7 -17 -7 -30 0 -33 24 -24 28 10 3 26 -7 35 -21
20z"/>
<path d="M9006 1087 c-56 -82 -44 -135 24 -107 43 18 61 51 59 110 -2 44 -5
50 -24 50 -16 0 -33 -16 -59 -53z m33 -63 c-45 -48 -53 -20 -11 41 l27 40 3
-29 c2 -19 -4 -36 -19 -52z"/>
<path d="M10615 1130 c-29 -11 -75 -81 -75 -111 0 -34 29 -59 67 -59 36 0 133
38 133 52 0 6 -8 7 -17 3 -10 -3 -41 -11 -70 -17 -89 -18 -113 8 -40 43 58 28
74 54 51 80 -19 21 -20 21 -49 9z m39 -33 c-5 -15 -63 -51 -70 -45 -2 3 7 17
20 31 26 28 59 37 50 14z"/>
<path d="M12625 1117 c-15 -13 -28 -37 -32 -59 -5 -33 -3 -39 20 -49 56 -26
108 9 117 78 l6 51 -43 0 c-31 1 -50 -5 -68 -21z m73 -40 c3 -21 -2 -29 -23
-37 -39 -15 -55 -12 -55 10 0 26 36 62 58 58 10 -2 18 -14 20 -31z"/>
<path d="M2588 1113 c-60 -69 -33 -126 35 -73 l25 20 6 -24 c6 -24 41 -41 52
-25 3 5 1 9 -5 9 -16 0 -22 36 -11 65 14 36 -1 55 -26 34 -13 -11 -18 -11 -21
-1 -7 18 -37 15 -55 -5z m37 -34 c-4 -5 -15 -14 -26 -20 -20 -10 -20 -10 -4
15 15 23 44 28 30 5z"/>
<path d="M4876 1122 c-3 -5 -7 -19 -11 -33 -28 -126 -29 -129 -17 -141 16 -16
20 -10 23 37 1 22 6 45 10 50 12 18 20 83 10 89 -5 4 -12 3 -15 -2z"/>
<path d="M6922 1120 c-33 -14 -37 -37 -13 -80 11 -21 21 -44 21 -52 0 -14 -40
-58 -53 -58 -12 0 -52 94 -49 115 3 19 2 20 -12 1 -11 -13 -12 -24 -6 -37 6
-10 10 -27 10 -39 0 -29 26 -76 45 -84 23 -9 53 10 75 47 26 41 25 71 -1 114
-23 37 -16 53 24 53 21 0 18 24 -4 27 -8 1 -24 -2 -37 -7z"/>
<path d="M12216 1115 c-3 -9 0 -15 9 -15 8 0 15 7 15 15 0 8 -4 15 -9 15 -5 0
-11 -7 -15 -15z"/>
<path d="M14183 1120 c-27 -11 -117 -145 -108 -160 11 -18 21 -10 75 65 30 41
61 75 68 75 7 0 20 7 28 15 14 13 12 15 -13 14 -15 0 -38 -4 -50 -9z"/>
<path d="M17481 1104 c-53 -68 8 -121 89 -79 45 23 38 63 -15 91 -38 20 -51
18 -74 -12z m82 -23 c9 -10 8 -15 -7 -27 -23 -16 -66 -19 -66 -3 0 41 43 60
73 30z"/>
<path d="M5308 1101 c-14 -11 -31 -34 -38 -51 -11 -28 -11 -34 7 -58 13 -17
31 -28 51 -30 27 -3 34 1 42 23 6 14 10 28 10 30 0 8 -35 -8 -42 -19 -9 -14
-42 5 -46 26 -5 24 37 68 65 68 15 0 23 5 21 13 -7 20 -42 19 -70 -2z"/>
<path d="M7673 1108 c-13 -6 -23 -15 -23 -20 0 -4 -5 -8 -12 -8 -6 0 -20 -7
-30 -17 -17 -15 -18 -15 -18 0 0 10 -3 17 -8 17 -6 0 -16 -24 -39 -92 -9 -28
16 -21 44 12 36 43 111 93 129 86 18 -7 14 -26 -18 -98 -32 -73 -5 -81 31 -10
52 104 24 169 -56 130z"/>
<path d="M8153 1090 c-59 -44 -75 -107 -34 -144 29 -26 102 -31 155 -11 25 10
46 22 46 27 0 6 -7 7 -16 4 -9 -3 -19 -6 -24 -6 -5 0 -16 -7 -24 -16 -9 -8
-16 -11 -16 -5 0 6 -13 11 -29 11 -51 0 -81 17 -81 45 0 19 5 25 23 25 33 0
87 37 87 60 0 16 -26 40 -42 40 -2 0 -23 -14 -45 -30z m57 -10 c0 -17 -42 -49
-56 -43 -11 4 -6 12 18 29 36 27 38 28 38 14z"/>
<path d="M10110 1068 c-38 -67 -38 -112 2 -116 35 -4 86 23 99 52 9 18 7 33
-9 70 -29 64 -52 62 -92 -6z m67 -9 c7 -17 10 -36 7 -43 -5 -13 -46 -36 -65
-36 -14 0 -1 60 17 78 8 7 14 18 14 23 0 20 16 7 27 -22z"/>
<path d="M14278 1071 c-80 -80 -54 -128 42 -79 l45 23 0 -29 c0 -16 6 -31 13
-33 10 -4 15 18 12 62 -1 3 6 13 15 22 11 10 13 19 6 26 -6 6 -29 -2 -66 -23
-68 -39 -85 -31 -30 16 30 24 46 32 64 27 21 -5 22 -4 12 16 -20 36 -58 27
-113 -28z"/>
<path d="M15032 1113 c-7 -3 -19 -18 -28 -35 -14 -28 -14 -32 0 -46 12 -13 22
-14 50 -5 26 8 33 8 30 -1 -7 -17 21 -50 35 -42 6 4 8 12 4 19 -4 6 -6 29 -4
50 1 21 -3 45 -10 53 -11 14 -51 18 -77 7z m58 -31 c0 -11 -51 -35 -58 -28 -3
3 1 12 8 21 13 16 50 21 50 7z"/>
<path d="M4115 1102 c-16 -11 -39 -88 -32 -106 9 -24 35 -19 77 14 44 35 50
36 43 12 -12 -49 89 -53 108 -5 14 38 11 63 -6 57 -8 -4 -15 -14 -15 -24 0
-23 -35 -54 -54 -47 -10 4 -13 16 -9 46 7 53 -7 53 -67 1 -24 -22 -45 -38 -47
-36 -3 3 10 49 22 79 7 18 -2 22 -20 9z"/>
<path d="M5125 1100 c-3 -5 -3 -10 2 -11 4 0 -8 -5 -27 -12 -62 -21 -67 -98
-7 -105 29 -4 85 22 93 43 3 8 -4 26 -15 41 -12 15 -21 33 -21 40 0 16 -16 19
-25 4z m23 -62 c9 -9 7 -14 -6 -24 -22 -17 -62 -18 -62 -1 0 32 45 48 68 25z"/>
<path d="M7385 1094 c-8 -9 -25 -34 -36 -56 -16 -31 -18 -43 -9 -53 10 -12 16
-12 41 1 28 14 29 14 29 -9 0 -23 16 -47 32 -47 4 0 5 13 2 29 -3 16 -1 39 6
51 19 36 -2 47 -44 22 -43 -25 -47 -10 -8 26 16 15 27 33 25 40 -6 16 -18 15
-38 -4z"/>
<path d="M12426 1076 c-19 -36 -19 -67 2 -74 7 -2 12 6 12 20 0 13 4 28 9 34
5 5 12 19 16 32 10 35 -18 27 -39 -12z"/>
<path d="M14573 1080 l-40 -30 5 25 c2 14 0 25 -5 25 -8 0 -83 -120 -83 -133
0 -17 25 -3 81 43 33 27 69 55 80 61 19 10 20 9 14 -13 -4 -12 -16 -43 -26
-67 -22 -50 -25 -85 -7 -79 16 6 72 163 65 183 -10 23 -39 18 -84 -15z"/>
<path d="M7910 1089 c-53 -21 -84 -68 -73 -108 8 -30 57 -54 94 -46 41 9 36
23 -8 27 -34 3 -38 6 -41 34 -3 27 2 35 33 54 29 18 38 20 51 10 19 -17 31 -4
18 18 -13 21 -40 25 -74 11z"/>
<path d="M6652 1044 c-30 -24 -70 -84 -56 -84 3 0 26 18 51 40 25 22 50 40 56
40 6 0 7 -17 4 -43 -6 -43 3 -74 20 -64 5 3 10 29 11 58 3 82 -26 100 -86 53z"/>
<path d="M6530 1044 c0 -9 -7 -28 -16 -44 -16 -26 -14 -60 3 -60 13 0 46 89
39 105 -7 20 -26 19 -26 -1z"/>
<path d="M5717 1033 c-3 -5 -8 -35 -12 -68 -7 -57 -6 -59 10 -44 20 20 32 103
17 113 -6 3 -13 3 -15 -1z"/>
<path d="M17240 1000 c0 -5 9 -10 19 -10 11 0 23 5 26 10 4 6 -5 10 -19 10
-14 0 -26 -4 -26 -10z"/>
<path d="M6337 853 c-20 -43 -52 -116 -71 -163 -32 -80 -36 -86 -70 -93 -43
-11 -47 -27 -7 -27 l30 0 -29 -79 c-27 -73 -29 -91 -9 -91 4 0 17 26 29 58 42
114 38 109 84 116 45 7 86 30 74 41 -3 4 -15 2 -26 -4 -12 -6 -34 -11 -51 -11
l-30 0 40 97 c22 53 54 123 70 155 32 64 35 78 16 78 -8 0 -30 -35 -50 -77z"/>
<path d="M6521 867 c-6 -8 -29 -62 -51 -121 -21 -59 -65 -158 -96 -221 -31
-63 -53 -119 -49 -125 5 -8 37 18 91 71 46 46 86 80 89 77 4 -3 2 -23 -4 -44
-12 -42 -5 -87 13 -81 6 2 10 13 9 23 -1 10 4 44 12 73 24 95 -7 100 -93 17
-39 -37 -42 -39 -33 -14 6 15 19 45 30 67 11 21 39 88 61 147 22 60 45 113 50
118 6 6 10 14 10 18 0 13 -27 9 -39 -5z"/>
<path d="M1961 778 c-12 -46 -32 -114 -46 -153 -39 -116 -75 -235 -75 -250 0
-14 21 -25 51 -25 56 0 137 83 135 137 -1 39 -36 42 -87 8 l-40 -26 7 28 c4
15 17 57 30 93 19 54 74 252 74 266 0 2 -6 4 -14 4 -9 0 -21 -29 -35 -82z m39
-296 c0 -21 -62 -92 -86 -98 -50 -13 -47 12 8 60 49 43 78 57 78 38z"/>
<path d="M4536 823 c-3 -10 -14 -80 -25 -154 -10 -75 -24 -145 -30 -157 -13
-25 -71 -59 -71 -42 0 25 33 71 55 80 32 12 32 30 2 30 -36 0 -87 -64 -87
-109 0 -54 78 -38 127 25 23 31 39 106 66 319 3 25 -29 32 -37 8z"/>
<path d="M4022 785 c-6 -13 -18 -53 -27 -87 -25 -100 -33 -115 -65 -122 -40
-7 -68 -38 -76 -81 -6 -34 7 -65 26 -65 20 0 69 54 98 107 24 47 82 232 82
265 0 18 -28 6 -38 -17z m-86 -263 c-17 -33 -44 -58 -53 -49 -10 10 18 66 35
70 31 8 33 7 18 -21z"/>
<path d="M5411 751 c-92 -136 -95 -139 -129 -146 -37 -7 -39 -32 -2 -27 19 2
21 -1 16 -20 -3 -13 -9 -50 -12 -83 -5 -48 -3 -63 9 -74 21 -16 69 -6 93 20
23 26 13 33 -22 14 -16 -8 -35 -15 -41 -15 -16 0 -16 61 0 115 14 43 31 52
104 54 23 1 45 6 48 11 4 6 11 7 17 4 7 -5 8 -2 3 6 -5 9 -27 11 -76 8 l-68
-5 21 31 c12 17 39 54 60 82 39 52 45 69 29 78 -5 4 -27 -21 -50 -53z"/>
<path d="M7940 745 c-6 -14 -10 -31 -10 -36 0 -5 -20 -53 -44 -107 -25 -53
-46 -106 -48 -116 -6 -34 20 -28 68 16 l47 43 -7 -38 c-5 -27 -3 -44 9 -59 8
-13 16 -20 16 -18 2 5 8 75 12 124 3 42 -16 42 -62 1 l-41 -37 39 88 c21 49
42 103 46 121 8 39 -11 54 -25 18z"/>
<path d="M8462 738 c-12 -16 -25 -58 -18 -58 13 0 57 50 51 59 -8 14 -20 14
-33 -1z"/>
<path d="M4167 610 c-15 -12 -39 -41 -53 -66 -25 -42 -25 -46 -10 -69 19 -29
22 -29 100 -13 65 12 58 28 -9 20 -86 -9 -96 23 -18 58 41 18 44 22 41 51 -4
41 -17 45 -51 19z m23 -29 c0 -5 -7 -12 -16 -15 -14 -5 -15 -4 -4 9 14 17 20
19 20 6z"/>
<path d="M2785 594 c-23 -24 -79 -134 -77 -151 2 -27 25 -6 53 49 38 76 56 98
82 98 16 0 17 3 7 15 -18 22 -38 18 -65 -11z"/>
<path d="M3393 585 c-42 -42 -44 -91 -3 -113 34 -19 104 -1 126 34 21 31 6 71
-30 80 -13 3 -27 12 -30 20 -9 22 -25 17 -63 -21z m78 -38 c10 -3 19 -12 19
-20 0 -17 -63 -42 -85 -33 -24 9 -17 45 13 74 26 26 27 26 30 6 2 -12 12 -24
23 -27z"/>
<path d="M8123 610 c-32 -13 -55 -63 -43 -94 11 -29 27 -31 83 -12 37 13 37
13 43 -13 10 -46 13 -51 30 -51 10 0 14 5 11 14 -3 8 -9 31 -13 50 -3 20 -11
40 -18 44 -6 4 -16 16 -22 26 -16 30 -46 45 -71 36z m47 -49 c8 -16 5 -21 -22
-30 -39 -14 -45 -8 -24 24 20 30 32 32 46 6z"/>
<path d="M2937 571 c-43 -47 -55 -93 -33 -125 18 -28 51 -38 91 -28 41 11 42
29 1 24 -37 -4 -76 12 -76 31 0 7 20 28 45 45 52 36 63 56 45 77 -19 23 -35
18 -73 -24z m53 5 c0 -2 -8 -10 -17 -17 -16 -13 -17 -12 -4 4 13 16 21 21 21
13z"/>
<path d="M3623 590 c-28 -26 -37 -60 -29 -106 7 -37 30 -43 32 -8 1 10 2 29 3
42 2 33 34 61 64 55 13 -3 28 0 32 7 10 15 5 18 -40 25 -32 5 -44 2 -62 -15z"/>
<path d="M5557 592 c-48 -24 -75 -105 -42 -132 21 -18 77 -5 109 25 37 35 33
82 -9 105 -26 14 -34 14 -58 2z m63 -52 c0 -29 -39 -60 -74 -60 -26 0 -19 46
10 74 22 20 30 22 45 13 11 -7 19 -19 19 -27z"/>
<path d="M8396 598 c-2 -7 -16 -46 -30 -86 -30 -86 -30 -82 -12 -82 8 0 24 24
36 58 28 74 36 122 21 122 -6 0 -13 -6 -15 -12z"/>
<path d="M8598 582 c-69 -58 -72 -59 -64 -34 12 37 -9 25 -27 -16 -9 -21 -17
-42 -17 -45 0 -13 38 -7 50 9 8 8 21 19 30 24 13 7 15 3 12 -23 -8 -68 56 -83
176 -43 12 4 22 12 22 18 0 6 -9 8 -22 4 -13 -3 -49 -9 -80 -12 -72 -8 -80 5
-49 80 11 28 21 55 21 59 0 14 -20 6 -52 -21z"/>
<path d="M2189 568 c-64 -60 -59 -138 10 -159 30 -9 44 -8 75 5 22 9 35 20 31
27 -5 8 -10 8 -18 0 -12 -12 -49 -14 -84 -5 -28 8 -39 44 -12 44 27 0 87 31
94 48 8 23 -22 62 -49 62 -13 0 -34 -10 -47 -22z m65 -17 c8 -13 -40 -53 -59
-49 -15 3 -15 6 5 31 21 27 44 35 54 18z"/>
<path d="M3152 558 c-31 -50 -37 -100 -15 -120 22 -20 42 -24 71 -14 22 7 31
26 12 26 -5 0 -10 -4 -10 -9 0 -5 -14 -3 -30 6 -25 12 -29 19 -24 41 10 44 32
72 51 65 13 -5 15 -2 10 11 -4 10 -7 20 -7 22 0 2 -9 4 -19 4 -11 0 -28 -14
-39 -32z"/>
<path d="M6703 558 c-45 -47 -52 -82 -19 -103 21 -14 36 -16 81 -9 71 11 67
30 -5 26 l-55 -2 39 22 c50 29 65 52 50 76 -19 30 -56 26 -91 -10z m67 -8 c0
-9 -51 -40 -66 -40 -4 0 3 11 16 25 24 25 50 33 50 15z"/>
<path d="M7596 572 c-63 -22 -94 -60 -80 -99 7 -22 19 -31 59 -41 51 -13 155
-8 155 8 0 5 -24 9 -52 9 -51 0 -128 23 -128 39 1 29 66 65 117 64 48 0 56 13
17 28 -31 12 -27 12 -88 -8z"/>
<path d="M6840 469 c0 -5 5 -7 10 -4 6 3 10 8 10 11 0 2 -4 4 -10 4 -5 0 -10
-5 -10 -11z"/>
</g>
</svg>
