<?xml version="1.0" standalone="no"?>
<!DOCTYPE svg PUBLIC "-//W3C//DTD SVG 20010904//EN"
 "http://www.w3.org/TR/2001/REC-SVG-20010904/DTD/svg10.dtd">
<svg version="1.0" xmlns="http://www.w3.org/2000/svg"
 width="1872.000000pt" height="1116.000000pt" viewBox="0 0 1872.000000 1116.000000"
 preserveAspectRatio="xMidYMid meet">

<g transform="translate(0.000000,1116.000000) scale(0.100000,-0.100000)"
fill="#000000" stroke="none">
<path d="M2917 10865 c-89 -31 -108 -85 -63 -182 39 -82 96 -257 98 -294 3
-97 -136 -222 -247 -222 -26 0 -56 8 -78 22 -67 41 -97 153 -61 222 19 37 16
43 -12 20 -96 -77 -24 -271 112 -301 88 -20 219 44 282 138 41 61 45 127 12
218 -12 32 -30 84 -40 114 -10 30 -27 75 -39 100 -40 87 -23 123 70 141 40 8
62 8 83 0 26 -10 27 -13 13 -24 -17 -13 -47 -87 -47 -117 0 -25 25 -43 50 -35
41 13 62 99 39 163 -17 49 -94 65 -172 37z m150 -122 c-7 -38 -22 -61 -33 -50
-10 10 15 87 28 87 7 0 8 -13 5 -37z"/>
<path d="M9910 10683 c-7 -16 -22 -59 -35 -98 -33 -106 -99 -255 -112 -255
-18 0 -53 -50 -53 -76 0 -31 36 -54 85 -54 76 0 146 73 131 135 -8 33 -40 33
-89 0 -20 -14 -37 -24 -37 -22 0 3 12 31 27 63 14 33 45 113 69 179 l42 120
31 -3 c35 -4 41 12 12 28 -33 17 -57 12 -71 -17z m-10 -363 c0 -41 -49 -80
-101 -80 -28 0 -14 21 38 58 49 33 63 38 63 22z m-144 -37 c-8 -15 -15 -22
-16 -15 0 14 22 53 28 47 2 -2 -3 -16 -12 -32z"/>
<path d="M6917 10693 c-4 -3 -7 -23 -7 -43 0 -68 -88 -290 -115 -290 -16 0
-21 -16 -6 -22 5 -1 -2 -36 -15 -77 -13 -41 -23 -79 -21 -85 6 -17 53 56 73
112 l18 52 50 2 c28 1 58 2 66 4 8 1 20 2 25 3 6 1 3 6 -5 11 -8 5 -39 10 -69
10 -39 0 -52 3 -48 13 54 119 77 188 77 234 0 31 5 53 13 56 9 4 8 8 -3 16
-18 13 -24 13 -33 4z"/>
<path d="M4165 10681 c-3 -6 -4 -15 -1 -20 8 -13 48 -1 43 13 -5 15 -34 20
-42 7z"/>
<path d="M10142 10627 c2 -63 -9 -93 -71 -197 -86 -146 -124 -250 -91 -250 5
0 13 12 16 28 8 32 55 128 118 236 49 86 69 157 58 201 -14 52 -32 41 -30 -18z"/>
<path d="M14565 10633 c-13 -57 -50 -155 -60 -158 -126 -35 -165 -69 -165
-144 0 -40 25 -81 50 -81 6 0 -10 -39 -35 -87 -43 -82 -55 -123 -37 -123 5 0
30 43 58 96 46 91 52 97 99 119 94 41 129 114 86 179 -19 28 -19 29 5 97 25
73 30 114 14 124 -5 3 -12 -7 -15 -22z m-75 -208 c0 -3 -19 -40 -42 -82 -38
-69 -42 -74 -55 -57 -30 41 -2 124 42 124 8 0 15 5 15 10 0 6 9 10 20 10 11 0
20 -2 20 -5z m58 -44 c3 -25 -4 -39 -31 -66 -19 -19 -42 -35 -51 -35 -13 0 -9
14 19 71 38 74 58 84 63 30z"/>
<path d="M4150 10633 c-2 -13 -3 -26 -4 -30 -9 -43 -26 -93 -78 -241 -70 -196
-69 -228 5 -127 52 72 71 83 55 31 -11 -36 -4 -86 12 -86 6 0 10 15 10 33 0
17 4 48 10 67 7 25 7 36 -3 42 -19 12 -26 10 -53 -17 -14 -14 -27 -25 -29 -25
-3 0 13 50 35 112 22 61 40 121 40 134 0 12 4 24 8 26 5 2 12 22 16 46 4 26 3
41 -3 38 -5 -4 -12 0 -14 6 -3 7 -6 3 -7 -9z"/>
<path d="M4780 10613 c0 -57 -25 -149 -76 -288 -58 -154 -52 -175 28 -94 l52
54 6 -29 c5 -29 33 -56 46 -43 4 3 2 13 -4 20 -7 8 -11 31 -9 52 1 21 -3 40
-9 42 -6 2 -32 -13 -58 -33 l-47 -36 16 39 c30 69 46 117 66 198 23 99 25 155
4 155 -11 0 -15 -11 -15 -37z"/>
<path d="M10660 10568 c-12 -28 -53 -115 -91 -193 -41 -84 -69 -154 -69 -173
0 -44 17 -40 30 7 12 47 169 373 184 384 7 5 6 10 -4 17 -24 15 -26 13 -50
-42z"/>
<path d="M6046 10584 c-3 -9 -6 -46 -6 -82 -1 -101 -22 -195 -54 -237 -30 -39
-73 -71 -83 -61 -10 10 16 83 32 90 21 8 19 26 -4 26 -25 0 -38 -17 -52 -72
-24 -88 30 -100 109 -25 60 59 83 125 90 265 4 96 3 112 -11 112 -8 0 -18 -7
-21 -16z"/>
<path d="M9173 10558 c-6 -7 -16 -30 -22 -50 -7 -20 -23 -54 -37 -74 -47 -68
-84 -147 -84 -175 0 -44 17 -35 34 19 9 26 33 72 53 102 33 50 58 105 77 168
8 24 -5 30 -21 10z"/>
<path d="M11374 10552 c-6 -4 -15 -18 -19 -32 -4 -14 -36 -82 -71 -152 -63
-126 -74 -158 -53 -158 19 0 69 34 69 47 0 7 8 13 18 13 10 0 24 6 31 13 10
10 10 7 2 -16 -13 -34 -14 -77 -2 -77 10 0 51 122 44 132 -9 15 -36 8 -72 -20
-64 -50 -65 -46 -7 60 31 58 53 108 49 111 -3 4 -2 7 4 7 6 0 13 10 16 23 2
12 8 30 12 40 7 18 -2 22 -21 9z"/>
<path d="M16629 10553 c-1 -14 -7 -37 -18 -80 -11 -41 -12 -42 -59 -45 -56 -4
-67 -30 -16 -38 l31 -5 -39 -62 c-22 -35 -46 -63 -53 -63 -27 0 -25 34 4 82
34 55 22 80 -16 32 -37 -47 -48 -90 -29 -119 9 -14 21 -25 26 -25 5 0 0 -16
-11 -35 -30 -50 -49 -119 -38 -136 8 -12 10 -12 19 1 5 8 10 21 10 29 0 8 16
42 36 76 32 55 41 63 81 74 94 25 142 110 89 160 l-23 22 19 57 c10 31 16 62
14 69 -6 14 -25 18 -27 6z m1 -188 c20 -24 -2 -61 -51 -85 -23 -12 -40 -18
-37 -13 2 4 14 32 27 61 24 54 39 63 61 37z"/>
<path d="M9002 10396 c-58 -125 -80 -204 -57 -206 5 -1 15 20 22 46 6 26 32
88 56 138 43 89 64 156 49 156 -4 0 -36 -60 -70 -134z"/>
<path d="M17018 10487 c-46 -43 -66 -83 -55 -111 4 -9 -1 -17 -12 -21 -34 -10
-101 -65 -121 -98 -31 -51 -27 -84 15 -104 30 -14 42 -15 87 -4 66 15 98 44
98 87 0 34 -37 74 -68 74 -13 0 -13 3 -4 12 10 10 15 10 21 -1 12 -18 34 -3
28 19 -3 13 2 20 18 24 30 8 85 54 85 71 0 8 -5 26 -12 42 -6 15 -10 34 -9 41
4 24 -25 11 -71 -31z m58 -29 c5 -17 0 -27 -22 -45 -60 -48 -89 -15 -32 38 39
35 45 36 54 7z m-98 -201 c34 -26 -7 -73 -72 -84 -61 -10 -71 39 -20 90 22 23
29 24 52 14 15 -6 33 -15 40 -20z"/>
<path d="M16746 10387 c-67 -137 -91 -217 -65 -217 8 0 19 15 26 33 33 95 65
171 97 231 33 63 38 86 16 86 -4 0 -38 -60 -74 -133z"/>
<path d="M16295 10487 c-30 -10 -85 -54 -85 -69 0 -15 27 -8 44 11 10 11 31
24 47 30 42 14 38 -5 -14 -75 -53 -72 -72 -88 -93 -80 -24 9 -52 -11 -74 -53
-16 -31 -17 -41 -7 -50 10 -8 23 -4 50 14 44 30 47 31 47 5 0 -11 9 -29 20
-40 21 -21 60 -27 60 -9 0 6 -9 13 -20 16 -12 3 -23 19 -30 41 -9 35 -8 38 44
92 111 116 116 201 11 167z"/>
<path d="M10814 10459 c-32 -17 -87 -51 -122 -75 -35 -24 -69 -44 -77 -44 -8
0 -15 -6 -15 -14 0 -8 -8 -28 -17 -45 -25 -42 -9 -50 23 -12 38 46 55 37 74
-38 21 -88 44 -96 38 -12 -3 46 -10 67 -28 86 -23 25 -23 25 -4 40 24 18 182
113 197 118 9 3 9 8 1 16 -8 8 -26 3 -70 -20z"/>
<path d="M14823 10476 c-23 -8 -44 -11 -47 -9 -9 10 -46 -9 -46 -23 0 -8 -7
-14 -17 -12 -11 2 -20 -6 -26 -22 -8 -21 -4 -33 17 -64 32 -48 32 -57 2 -85
-29 -28 -46 -20 -46 20 0 38 -16 38 -23 -1 -8 -39 0 -59 28 -66 53 -13 105 53
86 109 -6 17 -19 39 -28 49 -16 18 -15 20 4 40 13 12 36 21 58 23 20 1 40 6
43 11 4 5 23 11 42 12 19 2 37 8 38 13 2 5 8 7 12 4 5 -3 11 -1 15 5 9 14 -61
12 -112 -4z"/>
<path d="M15675 10478 c-22 -5 -44 -13 -49 -18 -16 -16 19 -22 61 -11 l38 10
-25 -19 c-65 -49 -66 -49 -52 -58 7 -5 24 -7 37 -5 38 8 65 -13 65 -51 0 -39
-35 -76 -76 -81 -44 -4 -56 4 -49 33 6 24 5 25 -17 10 -76 -50 9 -108 98 -67
55 26 74 52 74 102 0 30 -7 45 -30 67 -29 27 -29 28 -10 45 42 38 10 59 -65
43z"/>
<path d="M15395 10454 c-40 -21 -65 -44 -65 -61 0 -18 26 -17 33 1 3 8 20 22
36 31 29 14 31 14 31 -1 0 -24 -77 -121 -118 -149 -39 -27 -86 -91 -77 -105
10 -17 27 -11 57 17 l28 27 11 -32 c7 -19 20 -34 37 -40 32 -10 101 3 121 23
12 11 5 13 -41 9 -95 -8 -117 44 -50 124 20 25 45 57 54 71 24 35 23 78 -1 91
-24 12 -20 13 -56 -6z"/>
<path d="M8922 10443 c5 -25 28 -28 28 -4 0 12 -6 21 -16 21 -9 0 -14 -7 -12
-17z"/>
<path d="M11845 10451 c-8 -13 5 -61 16 -61 12 0 12 57 0 65 -5 3 -12 1 -16
-4z"/>
<path d="M5620 10435 c0 -8 5 -15 10 -15 6 0 10 7 10 15 0 8 -4 15 -10 15 -5
0 -10 -7 -10 -15z"/>
<path d="M7225 10440 c3 -5 10 -10 16 -10 5 0 9 5 9 10 0 6 -7 10 -16 10 -8 0
-12 -4 -9 -10z"/>
<path d="M7673 10431 c-35 -22 -57 -56 -48 -72 4 -5 24 -21 46 -35 21 -13 39
-29 39 -34 0 -15 -61 -50 -87 -50 -16 0 -21 4 -17 15 8 21 -10 19 -30 -4 -16
-17 -16 -20 -1 -35 22 -21 67 -20 114 3 49 26 63 44 59 78 -2 19 -14 35 -41
52 -35 23 -36 25 -20 43 9 10 25 18 35 18 13 0 18 6 16 17 -5 25 -28 26 -65 4z"/>
<path d="M8565 10416 c-57 -27 -92 -52 -85 -60 3 -3 28 6 55 19 101 48 103 46
46 -37 -45 -66 -63 -108 -45 -108 3 0 35 16 70 36 36 20 67 34 70 31 3 -2 5
-25 6 -51 1 -64 23 -60 55 12 14 31 32 64 40 74 10 11 11 18 3 23 -17 11 -46
-21 -60 -68 -13 -42 -14 -42 -19 -13 -10 48 -32 53 -85 22 l-47 -27 51 70 c27
39 50 78 50 86 0 23 -47 18 -105 -9z"/>
<path d="M6600 10402 c-41 -20 -48 -47 -25 -93 16 -30 16 -33 -3 -52 -18 -17
-24 -18 -53 -8 -51 18 -56 13 -19 -19 42 -35 59 -37 94 -9 29 23 33 51 11 93
-23 43 -19 54 25 67 22 7 39 17 37 23 -6 17 -29 17 -67 -2z"/>
<path d="M4365 10381 c-3 -5 -1 -12 4 -15 5 -3 11 1 15 9 6 16 -9 21 -19 6z"/>
<path d="M6282 10341 c-38 -59 -102 -118 -137 -127 -27 -7 -34 -24 -10 -24 19
0 91 36 100 49 3 6 14 2 25 -9 21 -21 38 -19 84 14 24 16 28 17 24 4 -8 -19
15 -54 29 -45 13 8 13 117 0 117 -5 0 -27 -16 -48 -35 -36 -32 -69 -45 -69
-28 0 4 12 32 27 61 37 72 18 90 -25 23z"/>
<path d="M7336 10347 c-52 -50 -61 -92 -26 -127 23 -23 115 -30 108 -7 -3 6
-15 13 -29 15 -54 6 -69 13 -69 31 0 14 10 20 39 25 21 3 49 14 62 25 20 16
22 23 14 47 -16 45 -46 42 -99 -9z m74 -5 c0 -19 -38 -42 -68 -42 -13 1 -9 8
16 30 37 34 52 38 52 12z"/>
<path d="M7070 10363 c-43 -16 -112 -109 -91 -123 7 -4 12 -10 12 -14 -1 -3 2
-6 7 -6 4 0 8 9 8 20 2 32 53 90 85 97 32 6 38 18 13 27 -9 3 -16 6 -17 5 -1
0 -9 -3 -17 -6z"/>
<path d="M11084 10359 c-37 -10 -94 -71 -94 -99 0 -31 28 -50 75 -50 24 0 46
4 50 10 3 5 12 7 19 4 8 -3 17 -1 21 5 4 7 -15 11 -59 11 -36 0 -68 5 -71 10
-10 17 23 60 58 75 23 9 37 10 54 2 33 -15 42 1 14 24 -26 21 -24 21 -67 8z"/>
<path d="M3124 10345 c-3 -8 -3 -19 1 -25 3 -5 2 -10 -2 -10 -16 0 -34 -89
-23 -110 15 -29 65 -26 95 5 35 34 32 68 -11 115 -39 43 -51 48 -60 25z m51
-115 c-37 -40 -65 -18 -39 31 l16 32 21 -21 c20 -21 20 -22 2 -42z"/>
<path d="M3760 10320 c-36 -22 -75 -40 -88 -40 -21 0 -22 -1 -8 -16 19 -18 43
-12 99 23 20 13 37 21 37 19 0 -3 -17 -37 -37 -76 -27 -52 -34 -73 -25 -82 13
-13 46 6 86 49 l25 27 24 -22 c41 -38 77 -23 77 33 0 17 5 36 11 42 15 15 -2
22 -28 12 -18 -6 -23 -16 -23 -44 l0 -36 -29 17 c-28 16 -30 16 -67 -7 l-38
-23 37 67 c60 109 50 120 -53 57z"/>
<path d="M5690 10343 c-51 -34 -87 -75 -87 -99 0 -14 5 -24 13 -24 8 0 14 5
14 10 0 6 7 10 15 10 18 0 20 17 3 22 -13 5 67 68 85 68 5 0 6 -8 2 -17 -13
-36 -18 -113 -7 -113 7 0 14 12 18 28 3 15 10 44 16 65 15 62 -18 85 -72 50z"/>
<path d="M10178 10334 c-15 -8 -35 -28 -44 -46 -15 -29 -15 -32 5 -51 18 -18
24 -19 59 -9 55 17 68 34 52 72 -17 42 -39 51 -72 34z m42 -39 c16 -19 6 -31
-31 -40 -35 -9 -45 9 -19 35 24 24 33 25 50 5z"/>
<path d="M4452 10294 c-34 -29 -42 -42 -42 -70 0 -30 5 -37 34 -49 26 -11 42
-12 72 -4 62 17 66 31 9 29 -80 -4 -85 -2 -85 24 0 28 48 69 93 80 38 9 34 26
-6 26 -24 0 -45 -10 -75 -36z"/>
<path d="M8842 10282 c-25 -53 -28 -72 -9 -72 11 0 57 87 57 110 0 26 -27 5
-48 -38z"/>
<path d="M10317 10290 c-41 -45 -43 -52 -22 -74 11 -11 26 -13 48 -9 71 13 96
48 27 37 -24 -4 -40 -3 -40 3 0 14 31 39 58 48 29 9 23 29 -10 33 -18 2 -34
-7 -61 -38z"/>
<path d="M11540 10317 c-24 -12 -70 -71 -70 -89 0 -5 7 -11 16 -15 14 -5 35 0
100 24 7 2 9 -7 6 -27 -7 -50 22 -37 34 16 11 47 2 64 -28 51 -7 -3 -31 -13
-53 -22 l-40 -17 29 31 c22 23 35 29 53 25 28 -7 31 11 4 26 -24 12 -21 12
-51 -3z"/>
<path d="M5544 10298 c-4 -13 -15 -34 -25 -47 -22 -27 -25 -51 -6 -51 17 1 57
67 57 96 0 30 -16 31 -26 2z"/>
<path d="M7130 10278 c-18 -31 -18 -48 0 -48 10 0 40 52 40 70 0 20 -21 9 -40
-22z"/>
<path d="M11736 10255 c-30 -65 -30 -65 -11 -65 17 0 42 44 50 89 8 48 -10 37
-39 -24z"/>
<path d="M11882 10278 c-43 -30 -60 -53 -49 -65 4 -3 23 7 43 22 34 26 36 26
29 6 -11 -36 11 -51 78 -51 62 0 137 17 137 31 0 5 -43 6 -95 2 -104 -7 -106
-6 -68 53 28 44 -14 45 -75 2z"/>
<path d="M4260 10272 c0 -19 12 -42 22 -42 14 0 5 43 -9 48 -7 2 -13 -1 -13
-6z"/>
<path d="M4246 10216 c-7 -27 1 -56 15 -56 10 0 9 69 -2 75 -4 3 -10 -6 -13
-19z"/>
<path d="M14891 10231 c-17 -11 -6 -31 18 -31 25 0 33 11 20 27 -13 15 -19 16
-38 4z"/>
<path d="M15832 10204 c4 -21 22 -23 26 -1 2 10 -3 17 -13 17 -10 0 -15 -6
-13 -16z"/>
<path d="M8106 10184 c-70 -26 -141 -88 -149 -132 -6 -30 23 -148 52 -213 12
-26 21 -66 21 -97 0 -48 -4 -58 -32 -86 -86 -86 -228 -28 -228 94 0 41 -18 38
-26 -5 -12 -68 23 -127 96 -160 35 -16 47 -17 91 -7 133 31 161 122 94 307
-19 53 -36 115 -37 138 -1 37 3 45 46 83 50 44 100 64 159 64 33 0 37 -3 42
-34 4 -19 2 -42 -3 -53 -12 -22 -51 -58 -56 -52 -2 2 2 27 9 54 9 32 10 54 4
60 -14 14 -26 -9 -39 -71 -19 -91 8 -109 71 -46 46 47 56 81 37 130 -13 35
-16 37 -63 39 -28 1 -68 -4 -89 -13z"/>
<path d="M11723 10153 c-78 -40 -146 -131 -198 -266 -21 -54 -43 -100 -49
-101 -47 -12 -70 -23 -74 -35 -4 -11 3 -12 32 -7 l38 7 -26 -38 c-27 -39 -35
-88 -14 -81 7 3 15 13 18 24 3 10 17 38 33 62 25 38 31 42 68 42 24 0 38 4 34
10 -3 6 -17 10 -31 10 -13 0 -24 2 -24 4 0 12 65 174 79 196 26 43 78 101 112
126 28 21 34 22 39 9 5 -13 8 -13 23 -3 21 16 14 44 -13 51 -10 3 -31 -2 -47
-10z"/>
<path d="M10194 10062 c-5 -4 -11 -16 -11 -27 -1 -11 -28 -76 -61 -145 -52
-110 -83 -194 -83 -225 0 -5 -9 -13 -20 -17 -25 -10 -17 -26 12 -24 16 1 25
11 34 41 22 71 37 90 68 87 15 -2 27 1 27 7 0 6 -6 11 -14 11 -8 0 -17 4 -20
9 -4 5 16 65 44 134 27 69 50 130 50 135 0 15 -14 22 -26 14z"/>
<path d="M8395 10048 c-6 -19 -81 -218 -96 -255 -8 -18 -21 -33 -33 -35 -24
-4 -34 -28 -12 -28 20 0 20 -2 1 -47 -8 -20 -13 -38 -10 -41 10 -10 43 30 49
59 5 29 6 29 76 29 38 0 70 4 70 9 0 14 -27 21 -77 21 -32 0 -44 4 -40 13 46
111 97 252 97 267 0 22 -18 27 -25 8z"/>
<path d="M6010 10033 c-25 -10 -50 -35 -44 -44 3 -5 20 -1 37 8 37 19 61 20
100 5 34 -14 44 -37 26 -59 -8 -9 -65 -49 -127 -90 -62 -40 -115 -80 -119 -89
-3 -9 2 -24 13 -34 23 -23 74 -37 74 -21 0 6 -6 11 -14 11 -7 0 -19 6 -25 14
-14 16 10 37 116 100 66 39 123 99 123 128 0 9 -10 29 -23 44 -18 21 -34 27
-73 30 -27 2 -56 1 -64 -3z"/>
<path d="M8727 9988 c-14 -22 -35 -60 -102 -183 -38 -69 -58 -135 -49 -159 10
-26 22 -19 34 22 11 35 90 207 131 283 10 20 19 42 19 48 0 19 -19 12 -33 -11z"/>
<path d="M8777 9868 c-60 -119 -72 -154 -68 -195 2 -28 17 -11 35 40 10 28 27
64 37 79 59 82 101 208 70 208 -4 0 -37 -60 -74 -132z"/>
<path d="M11246 9971 c-8 -12 3 -41 15 -41 5 0 9 4 9 9 0 5 3 16 6 25 7 17
-20 23 -30 7z"/>
<path d="M2586 9923 c11 -45 24 -51 24 -10 0 26 -4 37 -15 37 -12 0 -14 -7 -9
-27z"/>
<path d="M3035 9861 c-11 -5 -36 -27 -55 -48 -29 -33 -39 -56 -54 -124 -10
-46 -22 -88 -26 -94 -15 -18 -23 -85 -11 -85 17 0 53 87 55 131 1 27 4 35 13
28 15 -13 58 9 97 49 33 35 47 111 26 137 -14 17 -17 17 -45 6z m7 -110 c-22
-30 -68 -59 -78 -49 -10 11 35 96 64 119 l27 21 3 -33 c2 -20 -4 -42 -16 -58z"/>
<path d="M9971 9861 c-8 -6 -11 -16 -7 -27 6 -16 8 -16 23 -1 20 19 6 41 -16
28z"/>
<path d="M8566 9851 c-9 -14 5 -42 18 -38 15 5 14 39 -1 44 -6 2 -14 0 -17 -6z"/>
<path d="M3657 9843 c-4 -7 -3 -14 3 -18 10 -6 -46 -105 -61 -105 -5 0 -10 14
-10 30 -2 51 -4 55 -21 58 -19 4 -25 -13 -8 -23 6 -3 10 -19 10 -34 0 -16 8
-39 18 -51 17 -21 19 -21 34 -6 28 27 60 85 53 96 -4 6 -1 9 6 8 7 -2 15 5 17
15 2 10 -2 17 -11 17 -9 0 -17 5 -19 12 -3 9 -6 9 -11 1z"/>
<path d="M9227 9844 c-8 -8 1 -24 14 -24 5 0 9 7 9 15 0 15 -12 20 -23 9z"/>
<path d="M3759 9809 c-31 -33 -41 -83 -14 -73 11 5 13 2 9 -10 -4 -11 2 -19
21 -26 42 -16 80 -12 101 11 l19 21 -32 -7 c-37 -7 -93 2 -93 16 0 5 7 9 15 9
8 0 15 5 15 12 0 6 3 8 7 5 10 -10 43 23 43 43 0 18 -19 30 -47 30 -8 0 -28
-14 -44 -31z m65 -7 c3 -5 -11 -16 -30 -25 l-35 -17 18 25 c18 25 38 32 47 17z"/>
<path d="M4880 9814 c-15 -38 -12 -62 10 -84 28 -28 60 -11 60 30 0 15 2 35 5
42 4 9 -4 19 -20 26 -37 17 -44 15 -55 -14z m40 -40 c0 -14 -4 -23 -10 -19 -5
3 -10 15 -10 26 0 10 5 19 10 19 6 0 10 -12 10 -26z"/>
<path d="M5140 9821 c-64 -23 -117 -85 -84 -98 11 -4 23 2 37 21 20 27 90 69
100 60 3 -3 -1 -24 -9 -47 -15 -43 -11 -77 10 -77 19 0 27 12 16 25 -6 8 -4
25 6 53 28 69 2 91 -76 63z"/>
<path d="M10327 9822 c-33 -20 -44 -54 -28 -89 10 -22 9 -29 -10 -49 -32 -34
-43 -30 -36 12 8 47 -11 40 -29 -11 -23 -67 20 -87 83 -39 33 25 34 27 27 80
l-6 54 36 15 c39 16 45 29 20 39 -22 8 -25 8 -57 -12z"/>
<path d="M3203 9815 c-21 -15 -59 -112 -48 -123 10 -11 35 9 35 28 0 12 7 34
15 50 12 23 22 30 45 30 32 0 40 14 14 24 -24 9 -38 7 -61 -9z"/>
<path d="M11134 9813 c-3 -10 -15 -39 -26 -64 -21 -48 -21 -90 -1 -96 7 -3 15
8 19 24 4 15 17 50 30 77 12 27 20 55 17 62 -7 20 -33 17 -39 -3z"/>
<path d="M2521 9803 c-13 -26 -33 -151 -26 -164 13 -20 24 -7 30 39 3 26 10
65 15 87 10 44 -2 69 -19 38z"/>
<path d="M3325 9800 c4 -12 -3 -33 -19 -57 -29 -43 -32 -65 -12 -83 22 -17 57
-8 78 21 23 31 17 90 -13 120 -25 25 -42 24 -34 -1z m35 -77 c0 -7 -11 -25
-24 -40 l-25 -28 3 25 c5 41 28 83 38 68 4 -7 8 -18 8 -25z"/>
<path d="M11944 9783 c-48 -31 -89 -86 -80 -109 5 -12 19 -2 64 45 32 34 65
61 74 61 16 0 16 -4 3 -41 -8 -23 -15 -50 -15 -61 0 -36 28 -1 45 55 24 80
-13 101 -91 50z"/>
<path d="M12252 9783 c-82 -40 -91 -75 -30 -113 35 -21 128 -28 128 -10 0 6
-7 11 -15 11 -8 1 -19 3 -25 4 -5 1 -20 3 -33 4 -13 0 -32 7 -42 15 -19 14
-19 14 0 36 23 26 74 54 83 46 3 -3 0 -6 -6 -6 -7 0 -12 -4 -12 -10 0 -14 23
-13 38 2 13 13 -2 48 -21 47 -7 0 -36 -12 -65 -26z"/>
<path d="M12615 9750 c-62 -63 -89 -67 -65 -10 13 32 3 59 -18 46 -15 -9 -25
-95 -13 -110 8 -9 -3 -25 -40 -62 -92 -89 -170 -194 -167 -222 4 -33 24 -39
32 -10 8 31 106 149 237 286 97 100 126 142 101 142 -4 0 -34 -27 -67 -60z"/>
<path d="M10025 9779 c-4 -6 -4 -13 -1 -16 8 -8 36 5 36 17 0 13 -27 13 -35
-1z"/>
<path d="M11247 9770 c-14 -11 -30 -20 -35 -20 -12 0 -23 -40 -15 -53 3 -5 22
7 42 27 l36 35 -3 -44 c-4 -50 14 -63 24 -17 3 15 8 33 10 41 7 21 -6 51 -20
51 -7 0 -25 -9 -39 -20z"/>
<path d="M2637 9752 c-15 -15 -27 -39 -27 -53 1 -23 2 -22 31 14 36 43 52 48
43 12 -7 -29 10 -34 37 -9 16 14 19 14 42 0 13 -9 32 -14 41 -10 22 9 20 24
-4 24 -13 0 -20 7 -20 20 0 24 -22 26 -40 5 -17 -20 -27 -19 -33 5 -7 28 -39
25 -70 -8z"/>
<path d="M11678 9739 c-53 -52 -27 -96 38 -66 27 14 34 14 34 3 0 -7 7 -19 15
-26 13 -11 15 -6 15 34 0 25 -5 46 -10 46 -6 0 -29 -9 -51 -21 -28 -14 -40
-16 -37 -7 2 7 18 20 36 28 42 20 50 40 14 38 -15 -1 -39 -15 -54 -29z"/>
<path d="M9143 9728 c-34 -59 -47 -98 -36 -109 8 -8 21 10 44 56 22 45 29 69
22 76 -7 7 -16 0 -30 -23z"/>
<path d="M9229 9682 c-46 -43 -61 -63 -56 -76 5 -14 17 -6 66 44 58 59 91 78
75 43 -11 -26 -11 -76 1 -80 12 -4 39 102 30 117 -15 25 -57 8 -116 -48z"/>
<path d="M9836 9689 c-12 -29 -14 -45 -7 -52 12 -12 11 -13 34 36 17 37 16 57
-3 57 -4 0 -15 -19 -24 -41z"/>
<path d="M8449 9688 c-33 -29 -60 -66 -51 -71 4 -4 25 14 46 38 35 42 38 60 5
33z"/>
<path d="M12774 9679 c-10 -17 13 -36 27 -22 12 12 4 33 -11 33 -5 0 -12 -5
-16 -11z"/>
<path d="M5963 9453 c-7 -2 -13 -12 -13 -20 0 -10 6 -13 16 -9 9 3 18 6 20 6
2 0 4 7 4 15 0 15 -6 17 -27 8z"/>
<path d="M2522 9293 c-5 -10 -12 -35 -16 -55 -6 -34 -41 -126 -130 -340 -48
-116 -47 -128 4 -128 21 0 85 -7 141 -16 108 -17 212 -15 231 4 9 9 -5 12 -62
12 -59 0 -305 28 -318 36 -1 1 28 75 67 165 69 165 111 285 111 320 0 24 -16
25 -28 2z"/>
<path d="M8735 9138 c-38 -20 -96 -83 -125 -133 -15 -27 -42 -104 -60 -170
-18 -66 -36 -123 -39 -127 -4 -4 -54 -13 -111 -19 -58 -6 -107 -13 -110 -16
-15 -14 35 -21 117 -16 51 3 93 3 93 0 0 -3 -15 -42 -34 -87 -42 -98 -100
-178 -161 -220 -48 -33 -58 -51 -25 -45 27 5 55 26 117 86 52 51 96 127 132
228 14 42 19 46 46 44 17 0 37 -3 45 -5 8 -1 15 4 15 12 0 9 -15 18 -41 24
l-41 8 38 131 c45 156 89 229 160 266 43 23 50 24 88 11 22 -7 38 -16 36 -20
-6 -10 26 -23 34 -14 3 3 -11 21 -31 40 -31 28 -46 34 -80 34 -24 0 -52 -6
-63 -12z"/>
<path d="M3912 9043 c-16 -43 -42 -113 -58 -155 -31 -85 -39 -90 -117 -77 -39
7 -60 -7 -36 -22 8 -5 15 -4 17 1 2 6 11 10 20 10 15 0 15 -2 2 -10 -11 -7 -4
-10 28 -10 23 0 42 -1 42 -3 0 -2 -11 -35 -24 -74 -27 -78 -40 -153 -27 -153
10 0 20 25 57 141 21 66 31 85 43 82 21 -5 74 11 78 23 2 5 -16 8 -41 6 l-44
-4 59 157 c32 87 59 159 59 161 0 2 -6 4 -14 4 -9 0 -26 -31 -44 -77z"/>
<path d="M5908 9033 c-9 -10 -19 -29 -23 -43 -4 -14 -23 -66 -42 -117 l-35
-92 -44 6 c-35 5 -44 3 -44 -9 0 -10 14 -18 39 -22 l39 -6 -24 -77 c-29 -97
-31 -112 -6 -90 10 9 26 48 37 86 l19 70 53 7 c45 5 93 29 81 39 -2 1 -28 -1
-58 -5 -30 -4 -57 -6 -59 -4 -2 2 6 26 17 54 14 34 17 50 9 50 -7 0 -4 5 5 11
10 5 25 36 34 67 9 31 20 61 25 67 5 5 9 13 9 17 0 14 -16 9 -32 -9z"/>
<path d="M6073 9038 c-6 -7 -15 -28 -22 -47 -9 -27 -9 -36 1 -43 10 -6 9 -8
-4 -8 -18 0 -34 -52 -22 -71 4 -7 3 -10 -2 -6 -5 3 -17 -13 -26 -36 -66 -173
-86 -233 -77 -242 6 -6 35 16 78 59 l69 68 -7 -39 c-8 -42 3 -88 18 -78 5 3 9
18 9 33 0 15 3 46 6 69 12 66 -13 68 -75 7 l-50 -49 66 188 c36 104 65 193 65
198 0 13 -16 11 -27 -3z"/>
<path d="M10369 9043 c-4 -61 -15 -99 -53 -185 -24 -57 -49 -128 -54 -158 -11
-57 -6 -110 9 -110 5 0 9 12 9 28 0 15 11 60 25 100 14 41 25 80 25 87 0 7 13
41 29 76 32 73 42 116 34 148 -5 20 -22 30 -24 14z"/>
<path d="M4817 9013 c-3 -5 -19 -60 -36 -124 l-32 -116 -36 -9 c-48 -12 -60
-40 -13 -31 23 5 31 4 27 -6 -2 -6 -13 -36 -23 -64 -13 -37 -24 -53 -36 -53
-10 0 -18 -7 -18 -17 0 -9 3 -13 7 -10 3 4 12 2 19 -4 20 -17 29 -5 58 78 31
87 45 103 92 103 39 0 64 9 64 22 0 6 -23 8 -54 6 l-53 -3 13 45 c7 25 20 69
28 99 9 30 16 63 16 73 0 18 -15 25 -23 11z"/>
<path d="M2823 8895 c-8 -22 22 -52 74 -75 24 -10 43 -23 43 -27 0 -5 -40 -33
-90 -63 -85 -52 -103 -71 -81 -85 12 -7 169 85 199 117 l22 25 -21 27 c-11 14
-38 35 -58 46 -21 10 -43 26 -50 34 -17 20 -30 20 -38 1z"/>
<path d="M12092 8899 c2 -7 10 -15 17 -17 8 -3 12 1 9 9 -2 7 -10 15 -17 17
-8 3 -12 -1 -9 -9z"/>
<path d="M9208 8882 c-18 -3 -26 -32 -9 -32 10 0 36 29 30 33 -2 2 -12 2 -21
-1z"/>
<path d="M8796 8845 c-9 -25 -7 -45 4 -45 6 0 10 7 10 15 0 8 6 14 13 13 6 -2
12 4 12 12 0 21 -31 24 -39 5z"/>
<path d="M9877 8854 c-3 -4 -2 -15 4 -26 9 -17 11 -17 26 -2 14 13 14 17 2 25
-17 10 -24 11 -32 3z"/>
<path d="M7500 8835 c0 -8 25 -30 56 -50 l56 -36 -81 -52 c-51 -33 -80 -58
-78 -67 4 -20 38 -13 54 10 7 10 34 30 60 45 64 37 83 54 76 71 -4 12 -125 94
-138 94 -3 0 -5 -7 -5 -15z"/>
<path d="M11066 8820 c-21 -11 -44 -24 -52 -31 -21 -17 -17 -57 12 -106 31
-53 28 -82 -9 -103 -26 -14 -29 -14 -42 4 -10 12 -11 25 -5 42 6 14 6 26 0 29
-5 3 -15 -13 -21 -36 -12 -39 -12 -43 11 -61 28 -23 63 -17 98 14 29 28 28 59
-5 123 -14 29 -23 59 -20 68 7 19 91 51 112 44 9 -4 15 -19 15 -37 0 -16 4
-30 10 -30 5 0 8 21 7 48 -3 46 -3 47 -37 49 -19 2 -52 -6 -74 -17z"/>
<path d="M12797 8820 c-16 -5 -35 -14 -43 -21 -21 -17 -17 -63 7 -85 56 -51
45 -74 -34 -74 -41 0 -48 -3 -45 -17 4 -25 77 -29 117 -8 40 20 41 53 1 98
-16 19 -30 42 -30 50 0 16 54 37 98 37 25 0 30 15 6 24 -20 8 -42 6 -77 -4z"/>
<path d="M4473 8789 c-38 -24 -41 -41 -13 -87 11 -18 20 -39 20 -47 0 -22 -45
-48 -70 -40 -21 7 -25 -1 -11 -24 15 -23 63 -16 88 13 29 34 29 61 2 106 l-21
34 22 18 c12 9 37 20 56 24 19 3 34 10 34 15 0 17 -75 9 -107 -12z"/>
<path d="M11812 8733 c-79 -82 -95 -85 -108 -17 -7 38 -24 46 -24 12 1 -33 32
-92 51 -96 16 -3 134 96 125 106 -3 2 4 12 16 21 11 9 19 24 17 33 -3 12 -24
-4 -77 -59z"/>
<path d="M11335 8768 c-43 -37 -69 -90 -60 -119 7 -20 53 -49 78 -49 8 0 17
10 20 22 7 24 -3 41 -10 21 -12 -33 -65 3 -56 37 4 16 9 18 19 10 26 -22 98
42 92 82 -5 36 -40 34 -83 -4z m32 -34 c-15 -13 -33 -24 -40 -24 -7 1 3 14 22
30 19 16 37 27 40 24 3 -3 -7 -17 -22 -30z"/>
<path d="M12410 8780 c-49 -25 -88 -70 -96 -106 -5 -26 -1 -35 22 -53 21 -17
37 -20 73 -17 25 2 58 5 74 5 15 1 27 5 27 11 0 5 -28 9 -63 8 -64 -1 -107 13
-107 35 0 26 30 55 50 50 27 -7 107 24 114 44 8 21 -11 43 -38 43 -11 -1 -37
-9 -56 -20z m58 -22 c-4 -12 -66 -33 -74 -25 -5 5 56 36 69 37 5 0 7 -5 5 -12z"/>
<path d="M4153 8702 c-46 -47 -83 -87 -83 -89 0 -12 34 1 59 23 22 18 31 22
31 11 0 -22 23 -37 48 -30 26 6 24 29 -2 27 -9 -1 -16 5 -16 13 0 18 27 72 48
96 9 11 12 21 6 26 -5 6 -42 -26 -91 -77z"/>
<path d="M5006 8753 c-9 -21 -26 -55 -39 -75 -32 -54 -14 -68 52 -39 61 26 59
26 63 -1 4 -29 50 -47 72 -28 19 15 18 121 0 127 -15 5 -25 -38 -18 -75 4 -21
2 -31 -10 -35 -19 -7 -39 24 -30 47 8 21 -24 21 -71 2 -19 -8 -35 -14 -35 -12
0 1 11 17 25 36 24 32 34 90 17 90 -5 0 -17 -17 -26 -37z"/>
<path d="M6255 8737 c11 -98 15 -114 35 -132 19 -17 18 -19 -59 -114 -102
-125 -131 -168 -131 -197 0 -35 24 -29 42 10 14 28 111 155 268 348 37 45 54
88 41 101 -6 6 -16 -3 -26 -24 -17 -33 -93 -119 -105 -119 -13 0 -30 51 -30
88 0 50 -9 80 -26 86 -12 5 -14 -4 -9 -47z"/>
<path d="M11572 8777 c-31 -18 -112 -118 -112 -139 0 -22 27 -13 35 10 2 10
26 39 52 65 38 40 52 48 75 45 32 -5 37 7 9 22 -25 13 -31 12 -59 -3z"/>
<path d="M4008 8766 c-17 -12 -68 -116 -68 -136 0 -6 6 -10 13 -10 7 0 26 28
42 63 25 52 35 63 58 65 16 2 27 8 24 15 -5 17 -49 19 -69 3z"/>
<path d="M5531 8766 c-15 -18 -51 -115 -51 -138 0 -33 19 -18 44 36 14 30 26
60 26 65 0 6 11 11 24 11 33 0 42 16 17 29 -27 15 -46 14 -60 -3z"/>
<path d="M9583 8770 c-23 -9 -73 -86 -73 -113 0 -28 30 -47 73 -47 93 0 120
26 30 28 -68 2 -82 12 -63 47 30 55 49 67 99 61 l46 -7 -24 21 c-25 21 -52 24
-88 10z"/>
<path d="M12129 8757 c-19 -12 -43 -39 -54 -59 l-20 -37 21 -28 c21 -28 84
-46 84 -24 0 6 -9 11 -20 11 -11 0 -27 12 -36 26 -16 24 -16 27 3 51 10 15 36
35 56 46 20 10 37 23 37 28 0 16 -37 9 -71 -14z"/>
<path d="M9096 8699 c-18 -72 -15 -98 9 -65 16 22 38 114 29 127 -12 20 -20 6
-38 -62z"/>
<path d="M9249 8710 c-27 -27 -54 -50 -59 -50 -13 0 -13 -17 0 -25 6 -3 36 17
68 44 32 28 62 51 65 51 4 0 7 -22 7 -50 0 -49 12 -66 24 -34 3 9 6 31 6 49 0
83 -39 88 -111 15z"/>
<path d="M5353 8743 c-53 -10 -117 -132 -82 -154 36 -22 101 8 119 56 9 23 2
106 -9 104 -3 -1 -16 -4 -28 -6z m11 -48 c11 -31 -24 -85 -56 -85 -25 0 -23
18 7 63 28 40 40 45 49 22z"/>
<path d="M7231 8740 c-85 -4 -116 -9 -119 -19 -4 -11 16 -13 112 -9 64 2 121
9 127 15 17 17 2 18 -120 13z"/>
<path d="M11943 8705 c-24 -46 -30 -85 -14 -85 13 0 62 110 55 121 -10 17 -19
9 -41 -36z"/>
<path d="M4261 8695 c-37 -37 -42 -45 -28 -51 10 -3 25 0 34 7 9 8 14 10 11 4
-8 -14 9 -55 22 -55 6 0 9 8 6 18 -4 10 1 40 9 68 18 59 18 54 3 53 -7 0 -33
-20 -57 -44z"/>
<path d="M8843 8675 c-47 -48 -67 -85 -46 -85 3 0 29 25 58 55 57 62 90 73 79
28 -4 -16 -11 -33 -16 -39 -10 -13 16 -39 30 -30 12 7 23 91 16 111 -4 9 -19
15 -37 15 -24 0 -42 -12 -84 -55z"/>
<path d="M9949 8701 c-51 -52 -28 -88 37 -58 32 16 34 16 34 -2 0 -27 10 -51
22 -51 6 0 8 6 5 14 -3 8 -1 31 4 50 15 53 5 59 -54 31 -51 -26 -52 -26 -24
-3 27 24 36 48 16 48 -6 0 -24 -13 -40 -29z"/>
<path d="M9779 8675 c-7 -25 -17 -45 -21 -45 -4 0 -8 -4 -8 -10 0 -5 9 -10 19
-10 14 0 20 9 24 33 3 17 8 42 12 55 4 13 3 22 -3 22 -5 0 -16 -20 -23 -45z"/>
<path d="M8713 8653 c-3 -10 -12 -33 -19 -52 -17 -41 -18 -74 -3 -69 9 3 58
116 59 136 0 1 -7 2 -15 2 -9 0 -18 -8 -22 -17z"/>
<path d="M8958 8273 c-52 -40 -71 -75 -54 -98 10 -14 22 -17 59 -13 41 5 46 3
50 -18 6 -34 -37 -190 -52 -186 -68 15 -103 14 -123 -4 -30 -28 -48 -76 -48
-134 0 -70 22 -120 53 -120 32 0 58 30 106 128 31 61 46 82 61 82 11 0 20 5
20 10 0 6 -7 10 -15 10 -19 0 -19 -5 4 82 22 81 32 237 16 238 -5 1 -12 -7
-13 -17 -5 -27 -32 -43 -71 -43 l-36 1 42 39 c39 37 60 45 106 41 21 -3 23 15
1 23 -33 13 -72 5 -106 -21z m-6 -351 c10 -10 -60 -155 -88 -182 -42 -42 -63
104 -23 169 19 31 23 33 61 28 22 -3 45 -10 50 -15z"/>
<path d="M9825 8264 c-22 -7 -41 -14 -42 -14 -8 0 0 -29 18 -66 27 -58 22 -96
-14 -109 -24 -8 -31 -6 -42 8 -7 10 -11 27 -8 37 7 28 -21 26 -34 -2 -32 -71
76 -117 129 -56 10 12 18 26 19 32 3 26 -4 60 -17 92 -14 33 -14 35 11 44 34
13 72 13 80 0 9 -15 25 -12 25 4 0 34 -67 51 -125 30z"/>
<path d="M9562 8245 c-11 -14 -31 -47 -43 -73 -23 -48 -56 -92 -71 -92 -4 0
-8 17 -8 39 0 44 -29 82 -31 40 -3 -69 11 -109 39 -109 19 0 82 59 82 76 0 6
16 37 35 69 37 61 35 98 -3 50z"/>
<path d="M9211 8214 c-28 -20 -51 -72 -51 -117 0 -64 48 -76 105 -26 39 35 44
64 20 123 -17 40 -37 45 -74 20z m54 -58 c8 -35 7 -40 -18 -62 -39 -34 -57
-31 -57 9 0 37 35 100 53 94 7 -2 16 -21 22 -41z"/>
<path d="M9835 7822 c-17 -10 -44 -35 -62 -55 -18 -20 -37 -37 -43 -37 -15 0
-2 -70 17 -92 17 -20 59 -31 76 -21 7 4 21 7 31 8 11 0 21 5 23 12 3 8 -8 10
-35 6 -49 -7 -84 11 -80 39 2 16 17 26 56 38 84 28 113 67 76 104 -19 20 -22
20 -59 -2z m45 -31 c0 -14 -23 -29 -55 -36 l-30 -6 28 25 c28 26 57 34 57 17z"/>
<path d="M10087 7781 c-18 -14 -37 -33 -44 -41 -8 -10 -12 -11 -13 -3 0 6 5
15 10 18 6 3 10 13 10 21 0 8 -4 14 -10 14 -5 0 -10 -8 -10 -18 0 -10 -4 -22
-8 -27 -15 -17 -36 -95 -28 -103 4 -4 17 7 29 23 38 53 105 120 113 113 4 -4
-2 -38 -13 -75 -35 -116 -4 -103 35 15 12 35 19 69 16 76 -8 22 -53 15 -87
-13z"/>
<path d="M10310 7782 c-39 -21 -80 -74 -80 -104 0 -24 41 -65 74 -74 17 -4 31
0 45 13 20 19 20 19 -13 15 -25 -3 -40 2 -56 18 -12 12 -19 27 -17 33 2 7 28
26 58 42 81 46 71 100 -11 57z"/>
<path d="M10495 7750 c-24 -27 -56 -122 -45 -134 11 -11 41 11 38 28 -3 14 31
78 46 89 6 4 20 5 31 3 11 -3 27 -1 35 4 11 7 9 11 -13 19 -42 16 -72 13 -92
-9z"/>
<path d="M10726 7725 c-34 -37 -38 -63 -14 -87 20 -20 44 -20 90 -3 17 7 17 5
3 -31 -9 -22 -19 -46 -24 -54 -4 -8 -16 -42 -26 -75 -20 -71 -30 -85 -60 -85
-34 0 -49 26 -50 84 0 47 2 51 24 51 47 0 26 34 -21 35 -20 0 -38 -36 -38 -78
0 -102 81 -162 136 -101 25 28 54 121 42 137 -8 8 -6 12 5 12 16 0 16 0 54
103 25 71 25 89 -2 67 -12 -10 -15 -10 -15 2 0 14 -49 48 -70 48 -6 0 -21 -11
-34 -25z m81 -51 c-16 -16 -64 -26 -71 -16 -3 5 1 18 9 30 13 18 19 19 45 9
23 -9 27 -14 17 -23z"/>
<path d="M11007 7731 c-7 -29 8 -101 26 -118 14 -14 11 -21 -29 -70 -43 -52
-51 -74 -38 -107 9 -24 21 -19 27 12 3 15 26 51 50 81 25 29 51 65 58 80 8 14
26 47 41 72 16 25 28 51 28 58 0 26 -23 7 -58 -49 -20 -33 -43 -60 -49 -60
-14 0 -24 33 -27 82 -2 36 -21 49 -29 19z"/>
<path d="M10713 7535 c-3 -9 -3 -18 0 -21 9 -9 27 6 27 22 0 19 -19 18 -27 -1z"/>
<path d="M8746 7378 c-3 -13 -10 -57 -16 -98 -13 -89 -45 -161 -97 -214 l-38
-39 -3 27 c-5 37 27 88 66 106 36 17 40 27 15 32 -48 11 -113 -67 -113 -133 0
-79 59 -69 125 21 42 57 70 135 80 225 4 33 9 68 11 78 4 11 0 17 -10 17 -9 0
-18 -10 -20 -22z"/>
<path d="M9887 7374 c-4 -4 -4 -17 -1 -29 5 -22 -42 -122 -73 -153 -7 -7 -13
-18 -13 -23 0 -6 -8 -9 -17 -8 -30 3 -43 -1 -43 -11 0 -5 10 -10 21 -10 17 0
20 -4 15 -22 -32 -103 -10 -144 76 -142 67 2 90 24 24 24 -26 0 -56 5 -67 10
-23 13 -25 50 -4 89 14 28 16 29 56 20 53 -12 129 -2 129 17 0 17 -37 18 -76
4 -19 -8 -29 -8 -34 0 -4 6 -14 8 -23 4 -27 -10 -21 16 24 100 25 47 39 87 37
103 -3 26 -18 39 -31 27z"/>
<path d="M10237 7253 c-11 -10 -8 -20 8 -27 10 -4 15 1 15 14 0 20 -11 26 -23
13z"/>
<path d="M9151 7201 c-30 -3 -56 -12 -59 -18 -2 -7 1 -13 7 -13 6 0 4 -14 -5
-35 -19 -47 -18 -89 4 -108 23 -21 50 -21 93 -2 37 16 35 17 -31 19 -38 1 -45
4 -48 23 -5 36 34 113 57 113 26 0 51 10 51 21 0 5 -3 8 -7 7 -5 -1 -32 -4
-62 -7z"/>
<path d="M8333 7181 c-17 -11 -42 -34 -54 -50 -13 -17 -29 -31 -36 -31 -19 0
-16 -20 5 -27 9 -4 25 -17 35 -29 23 -30 66 -38 116 -23 56 17 52 29 -7 22
-46 -5 -92 7 -92 25 0 5 22 17 50 29 56 24 82 61 60 88 -17 20 -38 19 -77 -4z
m57 -21 c0 -12 -36 -35 -69 -45 -32 -10 -19 10 23 36 35 21 46 24 46 9z"/>
<path d="M8861 7160 c-33 -42 -114 -95 -130 -86 -5 3 -14 0 -20 -8 -8 -10 -8
-16 4 -26 12 -10 16 -9 21 3 3 9 12 13 20 10 8 -3 25 2 39 11 24 16 25 16 25
-4 0 -31 25 -35 65 -11 44 26 45 26 45 2 0 -11 4 -22 8 -25 13 -8 35 11 27 23
-4 7 -1 26 5 42 21 50 0 53 -63 8 -61 -44 -77 -35 -33 18 23 28 46 66 46 77 0
19 -31 0 -59 -34z"/>
<path d="M10330 7184 c0 -3 5 -14 10 -25 8 -15 7 -19 -4 -19 -8 0 -31 -16 -51
-34 -29 -28 -35 -40 -30 -58 17 -57 88 -66 129 -17 28 33 32 58 15 92 -21 41
-69 84 -69 61z m48 -103 c5 -30 -20 -51 -59 -51 -39 0 -44 26 -12 56 33 31 67
28 71 -5z"/>
<path d="M10588 7153 c-25 -30 -78 -119 -78 -131 0 -20 16 -14 86 33 36 25 71
45 75 45 5 0 9 -17 9 -39 0 -40 10 -54 48 -65 29 -10 30 17 1 38 -18 12 -20
21 -15 52 5 25 3 39 -5 44 -15 10 -64 -6 -101 -32 -33 -23 -34 -19 -8 24 11
18 20 36 20 41 0 13 -16 8 -32 -10z"/>
<path d="M9361 7132 c-40 -20 -57 -43 -48 -66 8 -20 72 -21 107 -1 34 20 35
19 35 -16 0 -32 27 -61 42 -45 4 5 2 11 -4 13 -17 6 -16 35 2 59 18 24 20 58
3 51 -46 -17 -60 -19 -53 -7 8 13 -11 30 -35 30 -8 0 -30 -8 -49 -18z m63 -21
c8 -12 -48 -34 -71 -28 -14 3 -10 8 17 20 41 19 47 20 54 8z"/>
<path d="M10083 7073 c-12 -51 -9 -63 11 -63 8 0 16 16 19 38 3 20 8 45 12 55
5 12 2 17 -12 17 -14 0 -21 -12 -30 -47z"/>
<path d="M9859 6887 c-60 -121 -82 -163 -86 -167 -3 -3 -34 -7 -71 -10 -87 -7
-99 -30 -15 -30 l60 0 -5 -54 c-4 -47 -2 -56 16 -65 32 -17 90 -21 120 -9 25
11 24 12 -32 19 -72 8 -89 25 -74 72 16 47 19 49 99 52 68 2 74 5 77 25 2 14
0 20 -7 15 -11 -6 -131 -16 -131 -10 0 1 18 42 41 90 22 48 37 91 32 95 -4 5
-15 -6 -24 -23z"/>
<path d="M9295 6858 c-2 -7 -11 -49 -21 -93 -21 -97 -58 -172 -96 -191 -60
-31 -77 -5 -32 53 17 22 33 33 50 33 32 0 27 24 -6 28 -27 4 -86 -54 -96 -95
-21 -83 95 -79 151 5 31 47 73 162 81 226 6 39 4 46 -10 46 -9 0 -18 -6 -21
-12z"/>
<path d="M9510 6825 c0 -16 17 -19 44 -9 22 9 10 24 -20 24 -15 0 -24 -6 -24
-15z"/>
<path d="M8672 6699 c-14 -5 -31 -28 -43 -56 -11 -27 -27 -61 -35 -77 -17 -36
-18 -56 -1 -55 6 0 30 37 52 82 36 73 43 82 65 79 14 -2 30 -8 37 -13 19 -16
24 7 5 23 -23 21 -53 27 -80 17z"/>
<path d="M9411 6652 c-44 -69 -41 -111 9 -119 23 -4 51 7 45 18 -4 5 -17 9
-31 9 -31 0 -31 23 1 75 47 76 24 92 -24 17z"/>
<path d="M8353 6665 c-35 -15 -58 -42 -67 -78 -10 -42 30 -77 84 -75 22 1 43
5 46 9 2 5 11 6 18 3 7 -3 19 3 27 12 13 16 12 17 -11 10 -32 -10 -112 -7
-123 3 -4 5 -5 20 -1 35 10 40 74 70 130 61 30 -4 44 -3 44 5 0 6 -4 9 -9 6
-5 -3 -12 1 -15 10 -7 18 -80 17 -123 -1z"/>
<path d="M8859 6649 c-16 -17 -29 -37 -29 -44 0 -7 -5 -15 -10 -17 -13 -4 13
-59 35 -78 17 -14 78 -4 69 11 -3 6 -12 8 -20 5 -19 -7 -55 29 -48 48 3 9 9
15 12 14 4 -2 22 3 40 9 36 13 43 41 16 67 -22 23 -32 20 -65 -15z m51 -19 c0
-9 -31 -30 -44 -30 -4 0 -1 9 6 20 13 21 38 27 38 10z"/>
<path d="M9493 6483 c-3 -10 -25 -68 -49 -130 -24 -62 -46 -123 -49 -135 -5
-18 -13 -24 -33 -23 -15 0 -29 2 -32 5 -13 13 -53 31 -57 26 -13 -13 22 -35
63 -42 24 -3 44 -9 44 -13 0 -3 -7 -28 -15 -55 -17 -55 -20 -126 -5 -126 5 0
12 17 16 38 3 20 13 63 23 95 15 54 19 60 55 72 49 17 69 35 39 35 -12 0 -25
-4 -28 -10 -8 -14 -35 -13 -35 1 0 7 18 56 40 110 44 112 58 169 41 169 -6 0
-14 -8 -18 -17z"/>
<path d="M9633 6442 c-30 -20 -153 -358 -138 -382 9 -15 23 -12 44 9 11 11 32
28 47 38 28 18 28 18 20 -2 -14 -36 -17 -70 -7 -84 9 -15 35 -6 26 9 -3 5 1
32 9 59 12 43 13 51 0 61 -11 10 -23 7 -58 -14 l-44 -25 33 103 c18 57 46 131
63 164 29 57 31 80 5 64z"/>
<path d="M9200 6425 c0 -8 0 -17 0 -20 0 -3 -6 -24 -14 -47 -78 -240 -96 -303
-91 -319 10 -29 22 -23 29 15 4 18 27 96 51 172 43 133 56 214 35 214 -5 0
-10 -7 -10 -15z"/>
<path d="M8552 6352 c-7 -5 -19 -46 -26 -93 -8 -46 -24 -122 -36 -168 -22 -88
-23 -162 -2 -169 8 -2 12 9 12 40 0 24 11 88 24 143 14 55 27 118 29 140 3 22
8 57 12 78 8 39 7 41 -13 29z"/>
<path d="M8375 6330 c-3 -5 -4 -14 0 -20 3 -5 -10 -56 -29 -114 -19 -58 -41
-130 -48 -160 -7 -31 -16 -56 -20 -56 -5 0 -8 -4 -8 -10 0 -5 9 -10 20 -10 19
0 29 23 46 108 6 30 15 37 38 33 6 -1 20 0 33 4 32 8 19 25 -18 25 -16 0 -29
3 -29 8 0 4 12 42 25 86 24 73 26 116 5 116 -5 0 -12 -4 -15 -10z"/>
<path d="M3144 6214 c-111 -74 -150 -142 -142 -247 6 -76 22 -108 104 -214 99
-126 103 -154 35 -216 -53 -47 -134 -72 -210 -63 -120 14 -207 109 -154 168
22 25 9 34 -22 14 -56 -37 -35 -124 43 -176 132 -87 340 -50 401 73 22 44 23
52 11 90 -7 23 -41 79 -77 124 -79 102 -102 152 -103 220 0 70 11 95 67 149
96 92 135 96 176 15 35 -71 34 -94 -8 -139 l-35 -37 9 30 c22 71 23 87 5 83
-16 -3 -42 -81 -44 -130 0 -26 26 -22 66 9 66 50 79 105 43 183 -42 94 -92
113 -165 64z"/>
<path d="M8662 6177 c-11 -12 -30 -44 -42 -70 -18 -41 -19 -51 -8 -74 19 -40
60 -57 103 -43 48 16 56 33 12 25 -44 -9 -74 0 -87 26 -10 18 -1 51 13 50 19
-1 78 32 87 49 27 50 -37 81 -78 37z m48 -21 c0 -7 -9 -16 -20 -19 -23 -6 -26
3 -8 21 16 16 28 15 28 -2z"/>
<path d="M9934 6161 c-70 -32 -107 -95 -80 -136 26 -39 124 -48 110 -10 -4 10
-13 13 -25 10 -25 -8 -56 2 -63 21 -13 35 73 106 117 96 20 -4 22 9 5 26 -15
15 -15 15 -64 -7z"/>
<path d="M10338 6156 c-30 -29 -63 -108 -54 -131 9 -25 22 -10 37 40 17 56 47
86 91 90 18 2 35 4 38 5 3 0 -2 5 -10 10 -27 18 -74 11 -102 -14z"/>
<path d="M8878 6153 c-23 -26 -48 -79 -48 -101 0 -40 24 -44 69 -10 37 27 42
28 41 12 -4 -34 0 -58 8 -50 15 15 41 111 32 120 -5 5 -32 -8 -65 -33 -30 -23
-55 -39 -55 -36 0 17 41 83 55 89 18 7 11 26 -9 26 -7 0 -20 -8 -28 -17z"/>
<path d="M10568 6138 c-54 -19 -90 -127 -53 -158 23 -19 97 -24 154 -10 73 17
63 30 -20 24 -100 -8 -119 -2 -119 40 0 26 8 41 31 61 22 18 35 23 42 16 13
-13 -18 -40 -45 -41 -25 0 -22 -20 2 -20 28 0 76 26 83 44 13 32 -32 58 -75
44z"/>
<path d="M10077 6106 c-53 -69 -22 -115 56 -83 33 14 35 14 40 -5 7 -24 27
-15 27 12 0 10 5 22 10 25 11 7 14 45 4 45 -3 0 -18 -8 -32 -18 -22 -16 -85
-42 -98 -42 -2 0 -4 6 -4 13 1 22 38 57 60 57 30 0 20 24 -12 28 -19 2 -31 -6
-51 -32z"/>
<path d="M8440 6120 c0 -5 7 -10 15 -10 8 0 15 5 15 10 0 6 -7 10 -15 10 -8 0
-15 -4 -15 -10z"/>
<path d="M6545 6107 c-4 -9 -4 -28 -1 -41 13 -51 -33 -243 -94 -399 -33 -83
-58 -157 -56 -164 3 -7 1 -13 -4 -13 -4 0 -11 14 -15 30 -10 47 -33 38 -29
-12 3 -45 15 -58 55 -58 53 0 148 90 152 146 2 25 -2 29 -26 32 -16 2 -35 -2
-43 -9 -8 -6 -16 -10 -18 -8 -3 2 11 45 31 94 37 96 68 221 78 320 5 46 3 65
-9 80 -13 19 -15 19 -21 2z m-29 -536 c-18 -33 -71 -81 -91 -81 -35 0 58 109
93 110 10 0 9 -7 -2 -29z"/>
<path d="M4503 6030 c-97 -71 -206 -244 -232 -367 -13 -59 -18 -66 -107 -154
-52 -50 -94 -96 -94 -100 0 -19 39 8 106 73 l70 69 2 -56 c2 -62 12 -88 45
-110 20 -13 29 -12 81 1 54 14 95 38 84 50 -3 2 -17 0 -31 -5 -37 -14 -102
-20 -117 -11 -7 4 -16 27 -21 51 -17 92 -16 97 77 192 46 48 101 113 120 143
66 103 103 240 69 251 -6 2 -29 -10 -52 -27z m13 -99 c-14 -36 -39 -86 -55
-110 -31 -46 -151 -175 -157 -168 -9 9 31 117 64 172 41 68 165 202 170 185 3
-7 -7 -42 -22 -79z"/>
<path d="M5035 6008 c-2 -7 -11 -44 -20 -83 -9 -38 -32 -113 -52 -166 l-37
-97 -38 6 c-31 4 -38 1 -38 -12 0 -11 9 -16 28 -16 16 0 31 -2 34 -5 3 -3 -6
-42 -19 -88 -13 -45 -22 -91 -21 -102 3 -19 4 -19 17 4 7 13 23 58 35 100 18
61 26 76 41 76 11 0 26 4 33 8 7 5 12 4 12 -2 0 -6 9 -11 20 -11 36 0 21 18
-20 25 -22 4 -42 11 -45 15 -3 5 11 51 31 102 33 86 63 199 64 241 0 20 -18
23 -25 5z"/>
<path d="M7377 5993 c-4 -3 -7 -19 -7 -34 0 -55 -42 -157 -120 -294 -56 -98
-80 -150 -80 -173 0 -43 22 -38 31 6 4 17 39 88 78 158 94 164 136 270 99 248
-7 -4 -5 2 5 13 27 30 21 104 -6 76z"/>
<path d="M7690 5948 c-10 -24 -28 -87 -39 -140 -36 -168 -86 -276 -151 -332
-36 -30 -47 -30 -68 2 -14 21 -12 25 30 67 27 26 55 45 68 45 13 0 20 5 18 13
-13 37 -88 1 -133 -64 -21 -30 -24 -41 -16 -62 15 -38 52 -60 82 -48 50 19
143 142 173 229 8 23 25 88 37 144 11 57 30 118 40 136 24 42 24 52 -2 52 -14
0 -25 -12 -39 -42z"/>
<path d="M5450 5938 c-24 -26 -38 -49 -34 -58 4 -12 3 -12 -7 -3 -10 10 -16 9
-31 -4 -26 -24 -24 -47 3 -33 29 16 96 78 120 112 33 46 -5 36 -51 -14z"/>
<path d="M10727 5903 c-4 -3 -7 -17 -7 -30 0 -13 -32 -85 -71 -159 -83 -161
-92 -181 -78 -189 8 -6 52 75 49 91 -1 3 6 11 14 17 27 21 116 207 116 243 0
32 -9 42 -23 27z"/>
<path d="M11168 5872 c-35 -77 -48 -114 -41 -126 3 -6 2 -8 -2 -4 -8 8 -57
-96 -69 -149 -4 -15 -9 -36 -12 -45 -3 -10 -1 -18 5 -18 6 0 11 6 11 13 0 6 7
26 16 42 33 62 124 287 124 306 0 30 -13 22 -32 -19z"/>
<path d="M9839 5833 c-7 -16 -24 -46 -38 -68 -13 -21 -25 -55 -27 -75 -2 -19
-13 -62 -24 -94 -15 -41 -18 -62 -11 -69 8 -8 11 -4 11 11 0 12 4 22 9 22 5 0
16 19 24 43 20 55 82 217 92 240 12 29 -20 20 -36 -10z"/>
<path d="M10300 5800 c0 -5 -24 -62 -54 -125 -30 -63 -50 -115 -45 -115 10 0
119 218 119 239 0 6 -4 11 -10 11 -5 0 -10 -4 -10 -10z"/>
<path d="M7080 5745 c0 -8 5 -15 10 -15 6 0 10 7 10 15 0 8 -4 15 -10 15 -5 0
-10 -7 -10 -15z"/>
<path d="M3403 5688 c-46 -49 -71 -166 -41 -196 24 -24 69 -14 109 26 52 53
59 85 27 142 -30 54 -62 63 -95 28z m65 -53 c11 -29 10 -39 -3 -64 -15 -29
-42 -51 -64 -51 -17 0 -12 61 9 108 23 51 42 54 58 7z"/>
<path d="M5348 5683 c-47 -51 -52 -69 -29 -114 12 -22 19 -45 15 -50 -11 -18
-105 -7 -117 13 -15 23 -27 23 -27 -1 0 -29 51 -61 100 -63 34 -1 46 3 61 23
24 31 24 44 -2 86 l-21 34 27 34 c14 19 30 35 36 35 5 0 9 7 9 15 0 23 -24 18
-52 -12z"/>
<path d="M4628 5633 c-54 -59 -75 -137 -42 -164 23 -19 104 -20 147 -2 34 15
55 42 23 30 -29 -11 -107 -19 -131 -13 -32 8 -33 36 -2 36 13 0 39 16 61 39
29 30 37 45 34 67 -5 42 -53 46 -90 7z m62 -16 c0 -18 -66 -80 -79 -76 -15 5
46 89 65 89 8 0 14 -6 14 -13z"/>
<path d="M6739 5628 c-12 -18 -49 -61 -82 -94 -64 -67 -64 -98 0 -45 36 30 38
30 45 11 10 -27 40 -25 76 5 17 14 32 25 34 25 2 0 2 -17 0 -39 -2 -21 1 -41
6 -45 13 -8 44 126 32 138 -5 5 -31 -9 -62 -34 -63 -50 -73 -38 -34 41 14 28
26 55 26 60 0 19 -19 8 -41 -23z"/>
<path d="M8886 5631 c-51 -41 -146 -139 -146 -151 0 -23 26 -6 96 62 41 39 74
67 74 62 0 -6 -9 -38 -21 -72 -19 -58 -19 -108 0 -86 16 18 61 177 56 195 -8
25 -16 24 -59 -10z"/>
<path d="M9140 5628 c-51 -26 -90 -78 -90 -119 0 -34 41 -69 81 -69 49 0 173
30 191 47 25 22 13 34 -20 18 -15 -7 -60 -19 -100 -26 -84 -14 -122 -4 -122
33 0 35 11 43 65 47 58 4 80 14 96 42 27 51 -26 65 -101 27z m76 -17 c-7 -11
-97 -43 -104 -37 -2 3 13 14 35 25 39 21 78 28 69 12z"/>
<path d="M6985 5583 c-25 -56 -30 -94 -11 -94 6 0 15 17 22 38 6 21 19 51 27
67 16 29 14 46 -3 46 -5 0 -20 -26 -35 -57z"/>
<path d="M8621 5605 c-35 -30 -66 -104 -56 -134 11 -36 41 -45 78 -24 70 41
101 135 55 167 -30 22 -42 20 -77 -9z m50 -41 c13 -35 4 -59 -32 -85 -54 -38
-62 14 -14 88 20 30 33 29 46 -3z"/>
<path d="M6360 5570 c0 -5 5 -10 10 -10 6 0 10 5 10 10 0 6 -4 10 -10 10 -5 0
-10 -4 -10 -10z"/>
<path d="M10171 5519 c-13 -38 -14 -59 -2 -59 5 0 11 12 14 28 3 15 9 35 12
45 4 9 3 17 -3 17 -6 0 -15 -14 -21 -31z"/>
<path d="M10549 5382 c-16 -13 -20 -24 -15 -38 6 -16 9 -15 31 11 38 47 28 62
-16 27z"/>
<path d="M10978 5393 c-20 -5 -23 -18 -8 -28 12 -7 40 12 40 26 0 9 -4 10 -32
2z"/>
<path d="M10115 5279 c-4 -6 -5 -13 -2 -16 7 -7 27 6 27 18 0 12 -17 12 -25
-2z"/>
<path d="M9665 5246 c-14 -10 -15 -15 -6 -21 8 -4 19 -1 28 8 20 19 1 30 -22
13z"/>
<path d="M7493 5095 c-18 -8 -33 -21 -33 -30 0 -18 17 -20 22 -3 6 18 114 13
144 -6 56 -37 9 -103 -94 -131 -123 -34 -280 -87 -290 -97 -26 -26 3 -104 48
-128 22 -12 43 -4 23 8 -6 4 -20 23 -31 42 -20 32 -20 35 -5 52 15 17 116 52
263 92 76 21 140 76 140 120 0 44 -34 73 -99 86 -30 5 -54 10 -55 10 0 -1 -16
-7 -33 -15z"/>
<path d="M2136 4863 c-9 -70 -32 -192 -45 -240 -15 -53 -71 -128 -96 -128 -29
0 -39 51 -32 154 3 36 -20 37 -53 1 -17 -18 -30 -29 -30 -25 0 5 -10 0 -22
-11 l-22 -19 15 25 c88 139 118 215 99 249 -6 12 -21 21 -33 21 -31 0 -127
-57 -127 -75 0 -19 16 -19 24 0 3 8 12 15 19 15 8 0 28 7 45 16 18 8 36 13 41
9 17 -10 -15 -92 -73 -188 -31 -51 -56 -100 -56 -109 0 -31 19 -29 47 7 24 30
93 85 107 85 2 0 2 -9 -1 -20 -8 -28 6 -125 20 -144 7 -9 22 -18 34 -20 31 -6
94 67 126 148 27 65 55 250 44 279 -12 30 -24 18 -31 -30z"/>
<path d="M2280 4893 c0 -19 -48 -157 -99 -286 -48 -120 -40 -134 37 -66 l47
41 3 -33 c5 -49 19 -58 27 -16 14 74 -11 95 -67 56 -29 -21 -31 -21 -24 -3 48
118 107 288 104 301 -4 23 -28 29 -28 6z"/>
<path d="M2725 4898 c-2 -7 -19 -60 -38 -118 l-34 -105 -43 -15 c-24 -8 -45
-21 -48 -28 -5 -15 17 -16 53 -2 17 6 24 6 20 0 -10 -17 -35 -120 -35 -146 0
-34 16 -22 30 24 32 101 54 143 79 148 54 10 105 31 109 44 4 10 0 11 -14 5
-21 -9 -104 -19 -104 -13 0 3 9 30 19 61 26 76 36 143 22 151 -6 4 -13 1 -16
-6z"/>
<path d="M5464 4883 c-3 -10 -25 -65 -49 -123 -87 -210 -106 -262 -103 -282 5
-32 28 -35 28 -3 0 24 42 134 111 287 34 77 48 138 30 138 -6 0 -14 -8 -17
-17z"/>
<path d="M6941 4757 c-19 -67 -49 -147 -67 -177 -36 -61 -90 -118 -101 -106
-14 14 30 111 67 148 21 21 34 41 29 44 -13 8 -72 -55 -94 -103 -19 -38 -26
-106 -12 -119 9 -9 64 9 57 19 -3 3 5 14 18 23 26 18 69 82 74 110 2 10 9 25
16 32 7 8 9 18 6 24 -4 6 -2 13 3 17 11 6 63 168 63 195 0 9 -6 16 -12 16 -8
0 -27 -50 -47 -123z"/>
<path d="M5565 4823 c-10 -27 -37 -91 -61 -143 -45 -100 -69 -207 -44 -198 8
2 19 29 26 59 7 30 29 90 49 134 39 84 75 175 75 188 0 4 -6 7 -14 7 -7 0 -21
-21 -31 -47z"/>
<path d="M5257 4723 c-4 -3 -7 -17 -7 -30 0 -33 24 -24 28 10 3 26 -7 35 -21
20z"/>
<path d="M4843 4667 c-35 -17 -63 -37 -63 -44 0 -19 20 -16 69 12 23 14 47 25
53 25 5 0 -9 -34 -31 -75 -23 -41 -41 -81 -41 -90 0 -21 26 -19 50 5 11 11 24
20 29 20 5 0 23 11 39 25 29 24 29 24 25 2 -2 -12 2 -31 10 -42 15 -19 15 -19
52 0 34 18 94 89 83 100 -2 2 -29 -16 -58 -40 -30 -25 -57 -40 -58 -35 -2 6 3
28 12 49 14 37 13 51 -5 51 -4 0 -34 -23 -65 -50 -31 -28 -59 -48 -62 -46 -2
3 10 31 28 64 33 62 36 95 10 99 -8 1 -43 -12 -77 -30z"/>
<path d="M6351 4655 c-39 -36 -81 -106 -81 -137 0 -9 12 -30 26 -47 23 -28 31
-31 78 -30 51 2 86 13 86 27 0 5 -29 6 -64 4 -59 -4 -65 -2 -80 20 -13 20 -14
31 -5 57 11 30 48 57 75 52 19 -2 36 26 32 55 -4 40 -22 40 -67 -1z m34 -24
c-3 -6 -11 -11 -17 -11 -6 0 -6 6 2 15 14 17 26 13 15 -4z"/>
<path d="M3650 4609 c-38 -79 -42 -79 -82 9 -19 42 -38 56 -38 27 0 -21 39
-101 55 -115 16 -13 17 -12 -116 -212 -45 -68 -73 -120 -67 -124 15 -9 35 16
137 173 98 153 171 280 171 301 0 33 -29 5 -60 -59z"/>
<path d="M6067 4673 c-3 -5 -20 -45 -37 -91 -42 -106 -31 -122 33 -46 50 60
95 99 103 91 3 -3 -2 -30 -11 -61 -16 -55 -15 -86 3 -86 15 0 47 150 36 168
-17 26 -29 24 -79 -14 -33 -25 -46 -30 -40 -18 14 35 17 64 7 64 -6 0 -13 -3
-15 -7z"/>
<path d="M6580 4633 c-57 -57 -74 -111 -45 -143 10 -11 31 -20 47 -20 35 0 71
17 63 30 -3 5 3 13 12 19 23 12 13 22 -15 14 -12 -3 -22 -12 -22 -19 0 -17
-55 -19 -65 -3 -16 25 6 56 57 80 47 21 53 28 53 54 0 48 -29 44 -85 -12z m55
-2 c-3 -6 -11 -11 -17 -11 -6 0 -6 6 2 15 14 17 26 13 15 -4z"/>
<path d="M3767 4622 c-9 -10 -28 -44 -43 -76 -22 -48 -24 -62 -15 -82 14 -32
54 -32 98 2 63 48 73 105 23 136 -11 7 -20 18 -20 25 0 19 -24 16 -43 -5z m51
-44 c21 -21 13 -55 -19 -82 -29 -24 -69 -35 -69 -19 0 4 10 31 22 60 22 53 42
65 66 41z"/>
<path d="M4048 4613 c-9 -10 -23 -31 -31 -48 -9 -16 -41 -54 -72 -84 -30 -29
-55 -55 -55 -57 0 -10 20 -2 52 20 29 20 37 21 52 10 21 -15 37 -10 94 28 39
27 42 27 42 9 0 -23 44 -61 71 -61 30 0 22 25 -12 37 -31 12 -31 13 -24 63 4
27 4 50 1 50 -3 0 -34 -22 -68 -50 -75 -61 -95 -65 -71 -15 9 19 20 35 25 35
4 0 8 5 8 11 0 6 7 17 15 25 19 19 20 44 2 44 -8 0 -21 -8 -29 -17z"/>
<path d="M2405 4593 c-32 -35 -40 -60 -25 -78 10 -13 17 -13 46 0 32 13 34 13
34 -6 0 -33 24 -16 32 22 9 47 -4 56 -46 29 -42 -25 -47 -14 -11 20 14 13 25
27 25 32 0 17 -30 7 -55 -19z"/>
<path d="M5166 4576 c-20 -42 -21 -82 -1 -89 18 -7 27 6 19 27 -3 8 1 30 10
47 20 39 20 49 2 49 -7 0 -21 -15 -30 -34z"/>
<path d="M7043 4473 c-15 -5 -18 -33 -4 -33 8 0 25 30 19 35 -2 1 -9 0 -15 -2z"/>
<path d="M16112 4397 c-12 -18 -25 -43 -30 -57 -5 -14 -45 -99 -87 -189 l-78
-165 32 -28 c22 -19 42 -28 67 -28 89 0 158 86 106 133 -23 21 -52 21 -96 3
l-33 -14 72 157 c40 86 75 168 79 183 9 40 -9 43 -32 5z m-6 -361 c15 -40 -59
-79 -116 -61 -29 9 -21 26 26 52 45 26 82 29 90 9z"/>
<path d="M10568 4383 c-14 -21 -54 -74 -89 -118 -35 -45 -73 -97 -84 -118 -18
-33 -23 -36 -69 -39 -62 -4 -77 -28 -18 -28 l41 0 -31 -58 c-35 -68 -41 -119
-16 -135 29 -19 168 36 168 66 0 3 -31 -5 -70 -19 -38 -13 -75 -24 -81 -24
-17 0 -2 46 36 116 l35 61 120 8 c66 4 120 10 120 15 0 12 -72 18 -144 13 -40
-4 -66 -2 -66 4 0 10 18 34 138 192 34 46 62 87 62 92 0 22 -29 6 -52 -28z"/>
<path d="M16351 4361 c-11 -15 -36 -71 -55 -123 -18 -52 -46 -119 -61 -149
-45 -87 -62 -179 -34 -179 5 0 9 8 9 18 0 10 20 59 43 108 24 49 63 141 87
204 23 63 46 119 51 125 13 14 11 25 -5 25 -8 0 -24 -13 -35 -29z"/>
<path d="M15263 4343 c-3 -10 -24 -63 -45 -118 -22 -55 -42 -106 -45 -112 -3
-7 -17 -13 -32 -13 -40 0 -72 -11 -68 -24 2 -6 20 -10 42 -8 42 4 41 10 11
-90 -9 -30 -11 -50 -5 -53 9 -6 18 11 53 107 10 26 28 56 42 67 27 21 30 31
10 31 -11 0 -6 21 20 84 40 99 52 146 35 146 -6 0 -14 -8 -18 -17z"/>
<path d="M15400 4323 c-7 -21 -41 -99 -76 -174 -86 -184 -86 -239 2 -166 77
64 73 63 67 18 -5 -34 -2 -43 22 -65 35 -33 52 -23 25 15 -17 23 -20 37 -15
73 11 71 -2 70 -113 -10 -22 -16 -22 -16 -13 7 5 13 32 71 60 128 28 57 51
112 51 122 0 10 5 21 10 24 13 8 13 65 1 65 -5 0 -15 -17 -21 -37z"/>
<path d="M7960 4247 l-35 -72 -50 -5 c-35 -4 -50 -9 -50 -20 0 -11 10 -14 43
-12 23 2 42 1 42 -3 0 -3 -9 -23 -20 -45 -37 -73 -18 -128 46 -131 47 -3 64 0
64 12 0 5 -8 9 -17 8 -10 -1 -30 1 -45 5 -36 10 -36 35 -3 110 23 53 26 55 54
50 28 -6 91 13 91 27 0 4 -18 5 -40 2 -66 -9 -73 -1 -45 49 27 46 33 98 13 97
-7 0 -29 -33 -48 -72z"/>
<path d="M13646 4278 c-3 -7 -6 -54 -8 -104 -3 -76 -7 -96 -27 -126 -24 -34
-68 -70 -103 -84 -28 -10 -23 29 8 65 20 24 34 31 61 31 46 0 39 24 -8 28 -28
2 -40 -3 -67 -31 -40 -41 -56 -88 -37 -113 11 -16 18 -16 51 -6 55 16 141 94
154 140 15 50 9 204 -7 210 -7 2 -15 -2 -17 -10z"/>
<path d="M16899 4263 c-27 -68 -105 -216 -116 -220 -9 -3 -13 -27 -13 -69 0
-88 22 -85 32 5 2 19 10 25 36 27 55 6 72 -9 72 -66 0 -58 23 -71 34 -19 10
54 7 72 -20 100 l-27 28 103 66 c68 45 99 70 92 77 -12 12 -53 -7 -49 -24 1
-7 -5 -13 -13 -14 -8 0 -20 -2 -26 -2 -7 -1 -47 -27 -89 -57 -43 -31 -79 -54
-82 -51 -2 2 17 45 42 96 25 51 44 99 41 107 -3 8 -1 11 4 8 6 -3 10 3 10 14
0 30 -19 26 -31 -6z"/>
<path d="M17402 4261 c-11 -19 -19 -38 -16 -43 3 -4 0 -8 -6 -8 -5 0 -21 -24
-35 -52 -13 -29 -38 -78 -54 -108 -53 -99 -39 -130 29 -62 22 22 40 38 40 35
0 -2 9 1 20 7 19 10 20 9 14 -14 -6 -27 3 -66 15 -66 5 0 11 19 14 43 4 23 7
51 9 62 5 31 -25 29 -79 -8 l-51 -34 40 74 c22 40 37 80 34 89 -3 8 -1 12 4 9
12 -7 52 71 48 93 -3 13 -10 8 -26 -17z"/>
<path d="M5687 4236 c-25 -19 -64 -44 -86 -56 -41 -20 -54 -40 -27 -40 16 0
81 35 109 58 25 22 22 11 -27 -86 -24 -48 -49 -106 -56 -130 -13 -41 -14 -42
-59 -42 -52 0 -77 -12 -66 -30 6 -10 42 -12 153 -7 80 4 147 9 150 12 12 12
-11 17 -92 22 -74 5 -83 8 -70 20 8 8 14 18 14 23 0 5 27 67 61 137 33 70 61
132 62 137 5 22 -24 14 -66 -18z"/>
<path d="M5220 4230 c0 -26 -5 -30 -42 -40 -24 -6 -49 -13 -57 -16 -9 -3 -11
1 -7 12 3 9 3 20 0 25 -8 14 -34 -10 -34 -31 0 -11 -10 -20 -27 -24 -82 -20
-103 -28 -103 -38 0 -7 17 -8 51 -4 45 6 51 5 45 -9 -3 -9 -6 -21 -6 -26 0 -6
-18 -8 -46 -3 -37 5 -46 4 -42 -7 3 -8 19 -18 37 -23 22 -6 30 -14 26 -23 -3
-8 -8 -32 -11 -52 -5 -30 -2 -39 10 -44 11 -5 16 -1 16 13 0 11 8 36 17 57 10
21 18 39 19 40 0 2 21 7 46 12 l46 8 -14 -40 c-18 -50 -19 -100 -1 -95 6 3 13
15 15 29 4 39 33 109 44 109 26 0 118 33 118 42 0 6 -11 7 -27 3 -16 -4 -40
-8 -55 -10 l-28 -4 15 36 c8 19 15 38 15 41 0 2 23 2 50 -1 38 -5 50 -3 50 7
0 17 -22 26 -61 26 -26 0 -29 4 -29 30 0 20 -5 30 -15 30 -10 0 -15 -10 -15
-30z m-20 -80 c0 -13 -22 -60 -29 -60 -3 -1 -25 -5 -49 -9 -38 -7 -42 -7 -36
8 3 9 9 24 11 34 7 24 103 50 103 27z"/>
<path d="M10231 4246 c-7 -9 -8 -17 -2 -20 13 -9 43 4 38 17 -5 17 -23 19 -36
3z"/>
<path d="M15087 4213 c-4 -3 -7 -15 -7 -25 0 -26 24 -17 28 10 3 21 -8 29 -21
15z"/>
<path d="M17865 4181 c-3 -5 -1 -12 5 -16 5 -3 10 1 10 9 0 18 -6 21 -15 7z"/>
<path d="M13790 4135 c0 -42 10 -45 27 -8 10 21 10 28 0 35 -22 14 -27 9 -27
-27z"/>
<path d="M13994 4160 c-42 -16 -122 -138 -140 -212 -11 -50 15 -31 41 29 32
71 68 119 104 138 26 13 30 12 49 -5 25 -23 32 -25 32 -7 0 13 -32 47 -55 59
-5 3 -19 2 -31 -2z"/>
<path d="M6918 4105 c-75 -55 -87 -100 -37 -137 30 -23 93 -28 112 -9 10 10 9
12 -3 10 -26 -4 -89 13 -101 27 -23 28 39 96 109 118 31 10 28 26 -5 26 -16 0
-49 -16 -75 -35z"/>
<path d="M7210 4132 c0 -5 -27 -36 -60 -69 -59 -58 -78 -103 -45 -103 8 0 15
7 15 15 0 20 88 115 106 115 20 0 27 19 14 35 -14 16 -30 20 -30 7z"/>
<path d="M14665 4109 c-27 -11 -58 -28 -68 -37 -32 -28 -3 -32 51 -5 29 14 55
24 58 21 2 -3 -11 -29 -31 -58 -40 -59 -41 -63 -20 -80 12 -10 24 -7 65 14 43
22 53 24 70 14 17 -11 26 -10 58 7 30 16 38 27 40 54 3 24 0 32 -10 29 -7 -3
-14 -14 -16 -25 -4 -27 -47 -47 -70 -32 -14 9 -27 7 -61 -11 -24 -12 -45 -20
-47 -17 -2 2 16 32 41 67 24 35 42 67 39 71 -8 14 -45 9 -99 -12z"/>
<path d="M7404 4109 c-45 -13 -94 -72 -94 -113 0 -59 52 -81 131 -55 59 20 53
27 -23 25 -92 -1 -96 14 -15 62 63 36 76 54 57 77 -14 17 -13 17 -56 4z m30
-32 c-3 -8 -22 -22 -42 -33 -56 -28 -58 -29 -37 -4 15 17 63 46 82 50 1 0 0
-6 -3 -13z"/>
<path d="M12296 4100 c-53 -21 -84 -45 -73 -56 4 -4 33 5 66 20 76 34 88 33
89 -4 1 -43 8 -50 54 -50 34 0 47 6 79 39 40 39 51 71 25 71 -8 0 -17 -9 -21
-20 -9 -27 -53 -60 -81 -60 -25 0 -27 6 -24 53 1 24 -2 27 -32 27 -18 -1 -55
-10 -82 -20z"/>
<path d="M9033 4090 c-38 -23 -53 -48 -53 -89 0 -50 48 -60 117 -23 15 8 22 7
31 -9 13 -20 47 -26 57 -9 3 6 -1 10 -9 10 -24 0 -29 19 -11 46 28 43 -1 59
-45 24 -35 -27 -42 -25 -22 9 14 24 14 31 3 45 -17 21 -29 20 -68 -4z m38 -54
c-18 -39 -51 -55 -51 -26 0 17 43 60 60 60 4 0 0 -15 -9 -34z"/>
<path d="M11068 4095 c-24 -14 -67 -86 -83 -142 -13 -46 21 -23 44 30 30 69
57 97 94 97 25 0 28 2 17 15 -15 19 -37 19 -72 0z"/>
<path d="M11513 4090 c-18 -11 -33 -25 -33 -30 0 -6 -4 -8 -10 -5 -12 8 -66
-66 -96 -133 -13 -29 -40 -84 -59 -123 -35 -71 -38 -102 -7 -77 14 12 58 99
83 166 8 20 12 22 24 12 22 -18 97 22 142 77 28 34 37 53 37 86 1 38 -2 42
-24 45 -14 1 -40 -7 -57 -18z m57 -23 c0 -34 -123 -144 -151 -135 -15 5 44 88
87 120 41 30 64 36 64 15z"/>
<path d="M12930 4073 c-12 -15 -20 -38 -18 -52 2 -21 9 -27 36 -29 19 -2 47 1
62 7 28 9 29 9 24 -18 -6 -28 13 -53 42 -57 17 -3 19 12 3 22 -10 6 -6 54 7
88 3 7 -6 24 -20 39 -20 22 -34 27 -70 27 -36 0 -48 -5 -66 -27z m110 -11 c0
-11 -55 -42 -74 -42 -19 0 -20 5 -6 31 8 13 21 19 45 19 19 0 35 -4 35 -8z"/>
<path d="M8199 4075 c-55 -30 -62 -109 -13 -141 28 -19 130 -30 148 -15 6 5
21 11 34 13 12 1 21 8 20 13 -2 6 -7 8 -13 7 -32 -11 -117 -13 -147 -3 -50 17
-61 47 -30 83 14 15 35 28 46 28 18 0 16 -3 -10 -19 -33 -20 -51 -41 -36 -41
25 0 74 24 83 42 22 41 -29 62 -82 33z"/>
<path d="M11671 4033 c-44 -61 -50 -83 -25 -107 23 -24 55 -19 107 14 36 23
47 36 47 55 0 33 -24 81 -45 89 -33 12 -45 5 -84 -51z m84 -17 c7 -21 5 -30
-11 -47 -26 -25 -80 -31 -78 -8 2 22 56 90 69 86 6 -2 14 -16 20 -31z"/>
<path d="M7605 4064 c-36 -18 -64 -52 -65 -76 0 -26 44 -33 90 -14 51 20 48
21 46 -16 -1 -24 4 -33 17 -36 15 -3 18 0 12 17 -4 14 2 38 15 67 24 48 20 65
-9 47 -14 -9 -20 -7 -29 8 -15 23 -37 24 -77 3z m65 -24 c11 -7 5 -13 -30 -29
-65 -30 -81 -26 -42 9 34 32 48 35 72 20z"/>
<path d="M9866 4058 c-38 -34 -44 -81 -14 -111 13 -13 30 -26 37 -28 10 -4 10
-14 -1 -53 l-15 -49 -61 -1 c-97 -2 -142 -46 -142 -143 0 -60 17 -83 61 -83
32 0 99 30 116 52 9 11 18 34 50 128 3 8 7 28 9 44 6 43 45 166 66 209 18 37
17 64 -3 51 -6 -3 -22 -33 -36 -65 -14 -32 -29 -59 -34 -59 -12 0 -39 30 -39
43 0 24 31 56 57 59 14 2 28 9 31 16 7 21 -55 14 -82 -10z m-6 -278 c8 -5 11
-10 6 -10 -5 0 -3 -7 4 -15 9 -11 9 -15 1 -15 -6 0 -20 -20 -30 -43 -20 -47
-72 -81 -114 -75 -19 3 -22 10 -25 50 -2 26 2 57 8 68 21 39 113 64 150 40z"/>
<path d="M14985 4050 c-17 -32 -20 -80 -6 -80 8 0 41 82 41 102 0 19 -21 6
-35 -22z"/>
<path d="M17570 4065 c-14 -8 -35 -20 -48 -26 -24 -13 -39 -50 -27 -70 5 -7
23 -9 51 -5 35 4 44 3 44 -9 0 -8 5 -15 10 -15 6 0 13 -1 17 -2 3 -2 7 6 8 17
1 11 5 30 9 42 10 31 -8 36 -46 13 -18 -11 -42 -20 -53 -20 -17 0 -16 3 10 25
17 13 38 24 47 25 23 0 31 15 15 28 -9 8 -20 7 -37 -3z"/>
<path d="M16324 4024 c-22 -37 -25 -51 -18 -73 8 -21 17 -27 46 -29 30 -3 40
1 53 22 14 21 15 31 6 58 -12 33 -38 68 -52 68 -5 0 -20 -21 -35 -46z m60 -58
c-8 -20 -43 -21 -50 -2 -3 8 3 26 13 40 l18 24 12 -23 c7 -13 10 -31 7 -39z"/>
<path d="M11186 4020 c-58 -54 -74 -91 -52 -125 19 -28 67 -34 127 -14 61 21
53 28 -23 22 -83 -6 -95 0 -77 40 11 24 26 33 72 43 10 2 31 11 48 19 25 13
28 19 19 35 -18 34 -64 26 -114 -20z m84 6 c0 -2 -14 -9 -31 -15 -27 -9 -30
-9 -19 4 11 13 50 22 50 11z"/>
<path d="M16517 4039 c-9 -5 -24 -24 -33 -40 -14 -27 -14 -33 0 -53 14 -23 53
-36 103 -36 42 0 20 24 -30 34 -26 4 -47 12 -47 18 0 5 11 20 25 34 19 19 34
25 58 22 23 -2 32 1 32 12 0 18 -81 25 -108 9z"/>
<path d="M17038 4023 c-42 -48 -47 -84 -18 -113 28 -28 100 -28 100 -1 0 11
-4 23 -10 26 -5 3 -10 1 -10 -4 0 -13 -57 -15 -64 -2 -11 17 39 76 67 79 39 5
28 26 -14 30 -24 2 -40 -3 -51 -15z"/>
<path d="M17925 4004 c-72 -43 -95 -63 -95 -81 0 -19 25 -16 41 6 8 10 40 33
71 50 l57 32 -9 -30 c-11 -40 12 -73 48 -69 14 2 28 9 30 17 3 8 0 11 -6 7 -7
-4 -20 -2 -31 4 -17 8 -18 15 -10 42 5 18 9 39 9 45 0 23 -44 13 -105 -23z"/>
<path d="M13722 3998 c-14 -14 -16 -44 -3 -52 11 -7 26 11 35 42 8 25 -11 31
-32 10z"/>
<path d="M10059 3956 c-19 -44 -17 -80 5 -73 6 2 12 12 12 23 1 10 7 32 13 47
25 63 -2 66 -30 3z"/>
<path d="M17756 3958 c-18 -31 -22 -46 -14 -53 7 -7 12 -6 15 1 2 6 15 26 28
44 23 31 25 50 5 50 -5 0 -20 -19 -34 -42z"/>
<path d="M5956 3941 c-3 -5 1 -14 8 -20 16 -13 32 2 21 19 -8 12 -22 13 -29 1z"/>
<path d="M7155 3706 c-50 -98 -62 -115 -87 -120 -29 -6 -39 -26 -13 -26 18 0
19 -11 4 -43 -14 -32 4 -101 34 -122 12 -8 36 -15 55 -15 26 0 33 4 30 18 -1
9 1 23 5 30 6 8 2 12 -13 12 -11 0 -23 -7 -26 -15 -14 -35 -54 -2 -54 44 0 11
7 38 16 60 12 31 22 40 47 45 75 13 98 19 104 29 4 7 -14 8 -55 4 -34 -3 -62
-1 -62 3 0 5 18 39 39 77 43 74 58 118 43 127 -5 3 -35 -46 -67 -108z"/>
<path d="M9372 3754 c-29 -14 -67 -45 -86 -67 -37 -47 -103 -168 -115 -213 -6
-24 -16 -31 -59 -44 -49 -14 -81 -34 -71 -44 3 -3 27 1 54 9 26 8 50 13 53 10
7 -7 -37 -174 -59 -224 -10 -24 -19 -49 -19 -56 0 -7 -11 -29 -25 -49 -30 -44
-30 -46 -6 -46 38 0 104 158 155 373 6 26 9 27 66 27 61 0 87 13 47 24 -12 3
-39 6 -60 6 -45 0 -45 2 6 113 48 107 179 212 208 166 4 -7 11 -10 15 -6 9 8
-24 47 -41 47 -6 0 -35 -12 -63 -26z"/>
<path d="M12426 3763 c-3 -4 -6 -36 -6 -72 -1 -36 -7 -93 -14 -126 l-12 -60
-42 3 c-34 3 -46 -2 -67 -22 -43 -43 -27 -96 28 -96 73 0 136 118 144 270 5
81 3 98 -10 103 -8 3 -18 3 -21 0z m-66 -293 c12 -7 12 -12 -4 -29 -20 -22
-66 -29 -66 -10 0 39 37 60 70 39z"/>
<path d="M5230 3714 c-28 -26 -50 -53 -50 -60 0 -22 11 -17 50 20 57 56 98 59
90 6 -4 -28 -170 -190 -195 -190 -13 0 -65 -41 -65 -51 0 -22 33 -20 71 5 l40
27 -6 -35 c-16 -82 27 -103 121 -60 67 31 60 40 -18 26 -29 -6 -56 -8 -59 -6
-3 2 -5 25 -3 51 2 45 7 53 77 123 75 77 91 108 75 151 -21 55 -65 52 -128 -7z"/>
<path d="M4857 3743 c-3 -5 -8 -27 -12 -50 -7 -46 -8 -46 -159 -70 -27 -5 -51
-13 -53 -19 -6 -17 46 -24 97 -14 76 15 92 13 85 -10 -4 -14 -2 -20 9 -20 9 0
18 11 22 24 3 15 16 27 31 31 32 8 36 4 24 -28 -11 -29 -12 -29 -145 -56 -50
-10 -92 -23 -94 -29 -4 -14 37 -15 91 -3 30 7 37 6 34 -4 -3 -7 -9 -33 -12
-59 -6 -36 -4 -46 6 -46 9 0 20 24 29 63 13 53 19 63 39 65 20 3 23 1 17 -15
-14 -36 -36 -127 -31 -131 11 -11 35 10 35 30 0 13 8 46 19 73 17 45 23 51 65
65 53 17 66 44 14 29 -38 -10 -42 -7 -34 25 5 19 15 27 41 32 19 3 44 4 54 1
26 -7 35 20 11 33 -10 5 -30 10 -45 10 -19 0 -25 5 -23 16 5 27 -21 28 -33 1
-7 -16 -22 -27 -41 -29 l-29 -5 6 49 c4 30 2 48 -4 48 -5 0 -12 -3 -14 -7z"/>
<path d="M9937 3618 c-4 -29 -7 -70 -7 -91 0 -64 -38 -117 -84 -117 -24 0 -19
28 10 57 29 29 26 41 -5 21 -30 -18 -52 -68 -40 -90 14 -26 62 -23 98 8 37 31
59 99 63 194 2 52 0 65 -13 68 -13 2 -17 -9 -22 -50z"/>
<path d="M12985 3609 c-22 -5 -43 -13 -47 -17 -4 -4 -8 -33 -9 -64 -1 -32 -6
-58 -10 -58 -13 0 -41 48 -48 82 -8 39 -31 50 -31 14 0 -55 46 -126 81 -126
24 0 49 49 49 94 l0 34 68 7 c37 4 78 10 92 14 24 8 23 9 -15 20 -46 13 -74
13 -130 0z"/>
<path d="M8304 3590 c-26 -10 -54 -48 -54 -71 0 -31 36 -52 79 -45 27 4 42 2
50 -8 6 -8 20 -16 29 -18 24 -7 62 8 62 24 0 9 -3 9 -11 1 -9 -9 -20 -6 -43 9
-26 17 -31 27 -28 48 3 20 -3 32 -23 49 -31 23 -31 23 -61 11z m57 -52 c13
-24 13 -25 -33 -33 -43 -8 -49 4 -23 42 17 25 40 21 56 -9z"/>
<path d="M10412 3593 c-24 -5 -102 -112 -102 -140 0 -27 25 -7 55 45 32 55 51
67 103 63 41 -3 42 14 1 28 -18 6 -32 10 -33 10 -1 -1 -11 -4 -24 -6z"/>
<path d="M6201 3578 c-27 -15 -56 -52 -66 -85 -14 -49 78 -88 150 -62 19 7 35
16 35 19 0 3 -29 5 -65 5 -72 0 -92 13 -73 49 19 38 51 56 101 56 34 0 47 4
45 13 -6 17 -97 20 -127 5z"/>
<path d="M6623 3569 c-39 -25 -66 -79 -57 -114 10 -39 61 -61 115 -49 61 13
60 30 -2 25 -37 -2 -55 1 -70 15 -10 9 -19 20 -19 24 0 3 22 16 49 28 26 12
57 32 67 43 18 20 18 21 -1 35 -26 19 -44 17 -82 -7z m67 -17 c0 -4 -21 -18
-47 -30 l-48 -23 33 31 c31 28 62 40 62 22z"/>
<path d="M6437 3559 c-28 -22 -54 -88 -44 -113 11 -28 24 -17 31 24 8 50 37
80 76 80 32 0 40 14 14 24 -28 11 -51 6 -77 -15z"/>
<path d="M6812 3573 c-18 -7 -44 -62 -38 -79 7 -18 44 -18 88 0 l34 15 -4 -31
c-6 -40 19 -34 30 8 7 26 3 33 -30 61 -36 31 -53 37 -80 26z m53 -32 c7 -12
-26 -31 -51 -31 -16 0 -16 1 1 20 19 21 40 26 50 11z"/>
<path d="M9674 3572 c-16 -11 -85 -162 -92 -201 -9 -56 18 -33 43 37 12 33 29
72 37 84 14 21 34 88 26 88 -2 0 -8 -4 -14 -8z"/>
<path d="M10122 3560 c-36 -22 -58 -60 -49 -85 11 -27 55 -37 114 -24 67 15
69 31 3 26 -79 -7 -126 13 -61 26 16 3 41 17 56 30 51 43 0 65 -63 27z"/>
<path d="M7403 3560 c-31 -12 -56 -55 -48 -80 15 -47 103 -70 185 -49 72 18
62 32 -17 25 -68 -6 -133 8 -140 29 -2 6 4 20 12 30 14 19 15 19 8 1 -5 -17
-3 -18 23 -12 43 11 61 31 44 50 -14 18 -34 19 -67 6z"/>
<path d="M12549 3521 c-22 -21 -39 -47 -39 -56 0 -28 64 -81 112 -93 31 -8 55
-8 85 0 49 12 49 29 0 21 -41 -6 -108 11 -139 37 -20 17 -20 19 -5 20 26 0 94
37 106 57 16 29 -5 53 -46 53 -28 0 -44 -8 -74 -39z m96 0 c-20 -18 -105 -60
-105 -52 0 18 62 61 88 61 15 0 22 -4 17 -9z"/>
<path d="M11610 3543 c-50 -9 -130 -35 -130 -42 0 -17 14 -19 58 -6 26 8 85
19 132 25 108 15 128 30 35 29 -39 -1 -81 -4 -95 -6z"/>
<path d="M9392 3435 c-34 -38 -39 -54 -20 -73 36 -36 118 6 118 59 0 58 -51
65 -98 14z m68 -14 c0 -25 -24 -43 -50 -39 l-22 3 22 28 c25 31 50 36 50 8z"/>
<path d="M5414 3446 c-18 -14 -18 -15 -1 -21 19 -8 50 12 41 26 -7 13 -17 11
-40 -5z"/>
<path d="M12030 3313 c0 -21 89 -26 340 -19 135 3 349 6 475 7 234 0 275 3
275 21 0 7 -181 9 -545 7 -412 -3 -545 -7 -545 -16z"/>
<path d="M2078 3285 c-3 -3 -2 -23 3 -43 25 -110 -5 -258 -68 -332 -38 -44
-66 -51 -83 -21 -24 46 5 91 57 91 14 0 23 6 23 15 0 20 -42 20 -80 0 -58 -30
-49 -127 13 -149 76 -27 166 118 174 279 6 110 -13 186 -39 160z"/>
<path d="M4560 3268 c0 -13 -14 -88 -31 -168 -38 -178 -43 -216 -32 -223 6 -4
38 25 72 63 87 97 119 92 105 -17 -5 -43 -4 -53 9 -53 10 0 17 16 22 55 7 63
-7 103 -43 116 -19 7 -31 1 -73 -37 -27 -26 -49 -45 -49 -43 0 2 5 20 10 39
11 36 39 228 40 268 0 13 -6 22 -15 22 -9 0 -15 -9 -15 -22z"/>
<path d="M3943 3188 c0 -29 -3 -88 -7 -130 -7 -56 -5 -85 4 -107 19 -47 29
-37 23 21 -3 28 0 88 7 132 9 59 9 89 1 109 -17 43 -29 32 -28 -25z"/>
<path d="M8446 3231 c-3 -5 -5 -41 -5 -80 2 -94 -31 -166 -91 -200 -23 -13
-44 -20 -47 -17 -3 3 11 22 31 42 20 20 36 38 36 40 0 11 -27 1 -57 -22 -26
-20 -33 -32 -33 -61 0 -35 1 -35 32 -29 92 18 160 116 160 228 0 35 5 66 11
70 7 4 7 11 -2 22 -15 18 -27 20 -35 7z"/>
<path d="M12102 3230 c-146 -9 -182 -15 -182 -31 0 -8 30 -9 103 -3 83 6 1141
9 1173 3 31 -6 124 3 124 12 0 6 -22 10 -52 9 -29 0 -82 4 -118 9 -77 11 -856
12 -1048 1z"/>
<path d="M3817 3213 c-14 -23 -35 -116 -30 -130 4 -11 3 -14 -5 -9 -8 4 -12 0
-13 -11 0 -10 -4 -44 -8 -75 -7 -54 0 -88 17 -88 4 0 9 23 10 50 1 28 7 72 13
98 6 26 14 67 19 92 4 25 11 53 15 63 7 16 -9 25 -18 10z"/>
<path d="M3687 3133 c-16 -15 -6 -30 18 -25 28 5 33 17 9 26 -19 7 -19 7 -27
-1z"/>
<path d="M5340 3098 c-53 -27 -59 -47 -30 -88 25 -35 23 -73 -4 -78 -12 -3
-16 0 -11 8 5 8 3 11 -6 8 -8 -3 -15 -14 -17 -26 -3 -16 3 -23 24 -28 56 -14
83 62 44 121 -11 17 -20 32 -20 35 0 3 18 16 40 30 37 23 51 40 32 40 -4 0
-28 -10 -52 -22z"/>
<path d="M8572 3080 c-44 -32 -79 -82 -88 -128 -5 -25 -2 -33 21 -48 25 -16
32 -16 98 -3 60 12 71 18 69 33 -2 10 5 25 15 33 17 14 16 14 -7 9 -14 -3 -29
-6 -34 -6 -4 0 -6 -6 -3 -14 4 -11 -8 -18 -48 -27 -29 -6 -60 -9 -69 -6 -24 9
-19 34 7 40 36 10 107 82 107 110 0 37 -24 39 -68 7z m38 -24 c0 -17 -67 -72
-77 -63 -5 6 62 77 73 77 2 0 4 -7 4 -14z"/>
<path d="M2511 3087 c-6 -8 -16 -38 -21 -68 -6 -30 -13 -63 -16 -73 -6 -19 -7
-19 -20 -1 -8 10 -14 27 -14 37 0 10 -4 18 -10 18 -23 0 2 -72 34 -99 26 -22
42 2 61 90 10 46 23 83 31 86 8 3 14 9 14 14 0 14 -46 11 -59 -4z"/>
<path d="M2230 3058 c-11 -18 -20 -37 -20 -42 0 -5 -8 -15 -17 -22 -17 -13
-17 -15 0 -25 9 -5 17 -16 17 -24 0 -22 29 -45 58 -45 l27 1 -26 22 c-26 22
-46 59 -29 54 15 -4 69 36 74 56 5 21 -26 57 -49 57 -8 0 -24 -15 -35 -32z
m37 -35 c-21 -22 -32 -11 -15 16 8 13 16 17 22 11 7 -7 4 -16 -7 -27z"/>
<path d="M3310 3068 c-64 -23 -67 -25 -54 -38 7 -7 30 -3 69 10 32 11 59 19
61 17 1 -1 -15 -29 -37 -62 -59 -90 -50 -114 27 -69 l47 27 26 -31 c30 -38 74
-43 91 -13 14 28 -1 95 -23 99 -19 4 -23 -19 -7 -48 5 -10 7 -26 4 -34 -5 -13
-10 -13 -27 -4 -12 6 -28 19 -35 30 -17 23 -29 23 -75 -1 l-37 -19 45 63 c25
35 45 71 45 79 0 22 -51 20 -120 -6z"/>
<path d="M5568 3078 c-26 -20 -58 -80 -58 -109 0 -44 42 -73 105 -73 38 -1 59
4 71 16 17 16 15 17 -37 12 -58 -5 -102 10 -106 36 -1 8 19 29 45 46 34 23 47
37 47 55 0 18 -6 25 -25 27 -14 2 -32 -3 -42 -10z m29 -43 c-37 -33 -57 -32
-27 0 13 14 31 25 39 25 11 -1 8 -8 -12 -25z"/>
<path d="M4806 3010 c-33 -73 -31 -114 6 -118 16 -2 36 6 54 22 24 20 29 32
29 69 0 45 -24 87 -50 87 -7 0 -24 -27 -39 -60z m59 -10 c4 -20 1 -39 -11 -60
-34 -56 -52 -30 -29 40 19 57 31 63 40 20z"/>
<path d="M6364 3062 c-6 -4 -28 -34 -50 -67 -38 -58 -39 -59 -42 -30 -6 69
-13 95 -28 95 -11 0 -13 -9 -9 -40 3 -22 7 -58 10 -81 5 -35 1 -47 -26 -82
-18 -23 -38 -46 -44 -52 -6 -5 -23 -28 -38 -50 -30 -44 -36 -85 -12 -85 8 0
15 4 15 9 0 10 53 90 179 270 39 57 68 108 64 112 -5 5 -13 5 -19 1z"/>
<path d="M7897 3049 c-35 -27 -60 -74 -52 -100 11 -34 68 -52 115 -38 52 16
52 31 0 23 -29 -5 -47 -2 -65 10 -24 16 -24 18 -11 44 8 15 26 34 41 42 25 14
29 13 46 -9 26 -32 34 -21 14 18 -19 37 -47 40 -88 10z"/>
<path d="M7026 3045 c-23 -12 -31 -13 -37 -3 -12 19 -19 6 -39 -71 -12 -46
-14 -73 -8 -77 12 -8 28 14 28 38 0 9 18 36 39 58 40 43 44 43 100 22 8 -3 12
0 10 7 -3 7 -8 12 -12 11 -4 0 -15 6 -23 15 -19 19 -22 19 -58 0z"/>
<path d="M6462 3007 c-48 -51 -65 -82 -57 -106 19 -61 145 -4 145 65 0 29 -19
71 -35 78 -7 2 -30 -14 -53 -37z m56 -52 c-2 -28 -7 -41 -15 -38 -7 3 -25 -2
-41 -9 -25 -13 -28 -13 -29 3 -2 21 65 101 78 93 5 -3 8 -25 7 -49z"/>
<path d="M6702 3020 c-12 -16 -22 -33 -22 -37 0 -4 -27 -26 -60 -48 -57 -38
-72 -55 -50 -55 5 0 25 9 45 20 l35 20 0 -24 c0 -15 7 -27 18 -30 23 -8 92 20
92 36 0 6 3 8 7 5 3 -4 12 -2 20 4 10 9 13 8 13 -4 0 -8 7 -20 15 -27 15 -13
55 -5 55 12 0 5 -7 7 -15 4 -25 -9 -30 22 -11 73 19 55 20 61 4 60 -7 0 -31
-24 -53 -52 -39 -49 -100 -95 -111 -84 -10 9 15 71 41 107 14 19 25 38 25 42
0 18 -28 6 -48 -22z"/>
<path d="M5030 2994 c-11 -26 -20 -50 -20 -55 0 -4 -16 -21 -35 -36 -19 -15
-35 -31 -35 -35 0 -16 28 -7 49 16 19 20 27 23 41 13 21 -12 55 7 43 26 -3 5
-1 7 5 3 6 -3 18 4 27 16 l16 23 -1 -25 c-5 -66 9 -90 41 -69 12 8 12 10 0 18
-15 9 -17 73 -5 114 11 37 -32 16 -70 -34 -21 -28 -40 -49 -42 -46 -3 2 4 27
15 55 19 47 19 62 0 62 -5 0 -17 -21 -29 -46z"/>
<path d="M8117 3012 c-31 -32 -36 -79 -10 -89 22 -8 101 34 109 59 7 25 -22
58 -51 58 -12 0 -33 -13 -48 -28z m67 -10 c6 -11 -4 -24 -31 -39 -27 -16 -33
-16 -33 -3 0 27 52 61 64 42z"/>
<path d="M3660 2975 c-13 -38 -8 -65 11 -65 7 0 10 12 7 30 -3 18 0 31 9 34
18 7 17 36 -1 36 -8 0 -20 -16 -26 -35z"/>
<path d="M2323 2932 c-13 -2 -23 -8 -23 -13 0 -13 37 -11 45 2 9 14 5 16 -22
11z"/>
<path d="M8993 2874 c-8 -21 13 -42 28 -27 13 13 5 43 -11 43 -6 0 -13 -7 -17
-16z"/>
<path d="M9748 2780 c-21 -61 -58 -162 -83 -224 -50 -127 -54 -157 -25 -186
54 -54 150 20 150 114 0 26 -5 36 -20 41 -24 8 -59 -2 -82 -23 -14 -12 -13 -2
8 49 57 142 114 313 110 326 -11 28 -22 9 -58 -97z m-4 -276 c22 -8 20 -42 -4
-81 -36 -59 -107 -53 -74 6 26 47 39 66 49 73 12 9 10 9 29 2z"/>
<path d="M9974 2783 c-10 -27 -48 -114 -85 -195 -79 -171 -94 -216 -85 -252 8
-33 24 -34 24 -2 0 35 30 122 73 208 54 107 109 243 109 267 0 36 -18 23 -36
-26z"/>
<path d="M6807 2803 c-3 -5 -8 -29 -12 -55 -6 -42 -10 -48 -39 -54 -37 -8 -82
-38 -96 -65 -15 -27 3 -55 50 -79 22 -11 40 -23 40 -26 0 -25 -25 -94 -34 -94
-19 0 -64 34 -100 76 -37 41 -48 33 -19 -14 25 -40 75 -92 89 -92 23 0 24 -17
4 -95 -27 -106 -26 -175 4 -175 7 0 11 24 12 68 0 37 8 93 18 124 14 48 22 59
44 64 15 4 39 13 55 21 39 20 37 66 -4 109 l-32 33 13 65 c10 54 16 66 31 66
10 0 24 -9 31 -20 18 -28 30 -25 26 8 -2 21 -10 29 -36 37 -35 10 -36 13 -16
83 5 16 2 22 -9 22 -9 0 -18 -3 -20 -7z m-27 -138 c0 -2 -5 -26 -11 -54 -11
-53 -17 -55 -66 -23 -25 15 -22 20 32 59 29 22 45 28 45 18z m40 -201 c0 -14
-30 -34 -50 -34 -11 0 -6 51 7 73 7 11 43 -22 43 -39z"/>
<path d="M10456 2768 c-3 -7 -12 -38 -20 -68 -9 -30 -40 -111 -70 -180 -30
-68 -52 -128 -50 -132 14 -23 47 5 112 92 2 3 15 -8 28 -23 17 -19 24 -40 24
-68 0 -29 4 -39 16 -39 28 0 13 94 -19 128 l-27 28 85 84 c59 58 82 87 74 95
-7 7 -45 -25 -123 -105 l-112 -115 37 85 c65 149 84 220 62 227 -7 3 -15 -1
-17 -9z"/>
<path d="M7852 2758 c-5 -7 -13 -24 -17 -38 -3 -14 -22 -61 -42 -106 -30 -68
-40 -82 -66 -90 -40 -12 -51 -39 -13 -32 22 4 26 2 21 -11 -17 -45 -27 -113
-17 -123 13 -13 64 5 83 28 18 22 3 28 -30 11 -17 -9 -31 -14 -31 -13 0 13 50
121 56 122 5 1 30 5 57 9 26 3 47 11 47 16 0 6 -17 8 -45 3 -55 -8 -57 2 -19
78 23 46 54 131 54 151 0 12 -27 8 -38 -5z"/>
<path d="M10940 2728 c-5 -13 -25 -63 -44 -113 -18 -49 -46 -119 -61 -153 -44
-104 -22 -119 59 -42 58 55 66 59 66 31 0 -10 7 -21 15 -25 21 -8 21 57 0 74
-18 15 -51 -4 -97 -54 -27 -29 -28 -29 -19 -6 5 14 21 52 36 84 26 59 75 200
75 217 0 18 -21 8 -30 -13z"/>
<path d="M8715 2730 c-3 -5 -12 -34 -20 -65 -8 -30 -35 -109 -60 -177 -27 -74
-41 -126 -36 -131 6 -6 30 6 61 30 l52 40 24 -24 c16 -16 33 -23 51 -21 39 4
42 28 4 28 -24 0 -34 6 -43 25 -15 32 -39 32 -79 -2 l-32 -27 8 25 c4 13 13
35 20 49 14 29 60 171 70 217 6 30 -7 54 -20 33z"/>
<path d="M5218 2658 c-32 -7 -48 -15 -48 -25 0 -12 9 -14 46 -8 26 3 54 9 63
12 9 2 4 -5 -11 -17 -39 -31 -35 -54 16 -89 63 -44 72 -76 31 -116 -38 -39
-127 -31 -112 10 5 13 2 16 -16 13 -33 -5 -34 -41 -1 -67 82 -64 222 40 173
130 -5 11 -28 33 -50 48 l-39 29 37 29 c66 54 29 75 -89 51z"/>
<path d="M4757 2611 c-6 -28 -11 -31 -57 -37 -58 -8 -64 -30 -6 -27 37 2 41
-3 30 -44 -4 -13 -14 -23 -24 -23 -25 0 -50 -10 -50 -21 0 -5 12 -9 28 -9 27
0 27 -1 24 -56 -4 -64 13 -68 23 -6 12 68 15 72 47 72 24 0 29 -3 24 -17 -13
-34 -19 -133 -8 -133 12 0 17 15 27 75 12 75 12 75 66 75 62 0 64 15 3 25 -44
6 -45 8 -39 33 3 15 11 29 16 30 5 2 6 9 2 15 -4 8 -1 8 9 -1 11 -9 22 -9 39
-3 13 5 20 11 14 12 -5 1 -14 2 -20 4 -5 1 -18 3 -29 3 -12 1 -16 7 -12 17 6
17 -2 45 -14 45 -4 0 -10 -13 -13 -30 -5 -24 -12 -30 -31 -30 -21 0 -24 5 -23
26 3 38 -19 41 -26 5z m63 -68 c-1 -35 -14 -53 -41 -53 -33 0 -32 0 -19 34 7
19 17 26 35 26 14 0 25 -3 25 -7z"/>
<path d="M12005 2609 c-11 -33 9 -44 28 -16 9 14 13 27 10 31 -13 13 -32 5
-38 -15z"/>
<path d="M11350 2601 c0 -16 12 -41 20 -41 4 0 8 11 8 25 0 15 -6 25 -14 25
-8 0 -14 -4 -14 -9z"/>
<path d="M8433 2518 c-58 -62 -65 -105 -21 -129 22 -12 88 -4 88 10 0 5 -16 9
-36 9 -20 0 -40 4 -46 10 -12 12 11 60 46 93 14 13 26 27 26 32 0 17 -28 5
-57 -25z"/>
<path d="M12236 2534 c-78 -28 -83 -47 -31 -120 19 -27 35 -53 35 -58 0 -5
-23 -6 -50 -4 -54 5 -69 -4 -50 -27 18 -22 93 -19 113 3 24 26 22 39 -20 99
-42 61 -40 65 35 84 24 7 42 17 42 25 0 17 -24 17 -74 -2z"/>
<path d="M7946 2498 c-48 -54 -47 -91 2 -96 66 -7 126 99 73 128 -30 16 -36
13 -75 -32z m59 -28 c-7 -23 -50 -48 -62 -36 -10 10 21 62 35 59 7 -2 12 2 12
9 0 9 3 9 11 1 6 -6 8 -21 4 -33z"/>
<path d="M8170 2485 c-22 -30 -49 -59 -60 -65 -20 -11 -27 -30 -11 -30 4 0 20
11 34 24 20 18 27 21 31 10 6 -17 38 -18 53 -3 9 9 16 8 28 -5 18 -18 45 -22
45 -6 0 6 -4 10 -10 10 -5 0 -10 16 -10 35 0 42 -10 44 -46 10 -37 -34 -42
-23 -11 24 24 36 26 51 6 51 -5 0 -27 -25 -49 -55z"/>
<path d="M10157 2500 c-33 -26 -41 -53 -26 -82 16 -30 28 -38 62 -38 36 0 34
12 -6 30 -42 20 -42 48 0 75 18 11 32 23 33 28 0 14 -38 7 -63 -13z"/>
<path d="M10660 2498 c-41 -24 -65 -74 -51 -104 6 -13 22 -26 36 -30 35 -9
114 1 128 16 7 6 8 11 2 10 -32 -7 -104 2 -120 14 -19 14 -18 16 19 51 34 32
45 36 73 32 24 -4 33 -2 33 8 0 30 -74 31 -120 3z"/>
<path d="M11114 2490 c-31 -12 -84 -78 -84 -105 0 -21 5 -25 28 -25 15 0 41 9
59 20 22 13 30 15 27 5 -3 -7 0 -23 6 -35 9 -17 14 -19 26 -10 7 7 11 17 7 23
-4 7 -6 26 -4 44 3 41 -13 43 -65 8 -20 -14 -41 -25 -46 -25 -23 0 40 70 75
83 8 3 9 8 2 15 -6 6 -19 7 -31 2z"/>
<path d="M12006 2463 c-3 -16 -8 -55 -11 -88 -14 -134 -76 -318 -111 -332 -24
-9 -35 10 -41 71 -8 76 -23 71 -23 -8 0 -86 32 -117 89 -86 22 11 64 108 87
200 18 74 42 241 36 258 -7 21 -20 13 -26 -15z"/>
<path d="M10010 2466 c0 -9 7 -16 15 -16 25 0 17 -30 -11 -41 -34 -12 -40 -6
-26 26 7 15 8 26 2 30 -11 7 -30 -35 -30 -65 0 -28 36 -34 73 -13 26 16 32 25
32 54 0 30 -3 34 -27 37 -20 2 -28 -1 -28 -12z"/>
<path d="M11270 2438 c-21 -44 -26 -78 -11 -78 12 0 37 50 46 90 10 44 -11 37
-35 -12z"/>
<path d="M11415 2444 c-35 -38 -69 -94 -61 -101 3 -4 25 14 48 40 22 26 45 47
49 47 5 0 9 -13 9 -30 0 -19 7 -33 21 -40 24 -13 35 -7 23 12 -5 7 -13 31 -19
53 -12 49 -36 56 -70 19z"/>
<path d="M10960 2411 c0 -21 13 -41 26 -41 17 0 18 22 2 38 -14 14 -28 16 -28
3z"/>
<path d="M5461 2396 c-14 -17 -7 -36 15 -36 15 0 18 18 5 38 -6 10 -10 10 -20
-2z"/>
<path d="M11715 2340 c-8 -12 20 -24 35 -15 6 3 8 11 5 16 -8 12 -32 12 -40
-1z"/>
<path d="M6781 1854 c-6 -53 -14 -101 -17 -105 -3 -5 -15 -9 -27 -9 -66 0 -87
-68 -42 -134 l25 -37 -24 -95 c-13 -53 -27 -98 -30 -101 -9 -9 -46 27 -63 61
-8 16 -13 44 -11 63 6 47 -24 40 -36 -9 -8 -31 -5 -43 18 -82 21 -36 55 -69
83 -81 1 0 -9 -38 -23 -85 -27 -94 -30 -138 -11 -164 14 -19 42 -13 51 11 8
21 -4 39 -15 22 -16 -26 -10 30 13 117 21 80 23 84 50 84 32 0 97 30 117 53
27 34 12 111 -34 172 -39 50 -39 53 -24 124 9 45 13 50 29 41 25 -13 30 -13
30 5 0 9 -11 20 -24 26 -21 10 -23 15 -15 48 13 59 15 163 3 168 -7 2 -15 -32
-23 -93z m-34 -171 c-3 -10 -8 -31 -12 -48 -6 -29 -7 -29 -21 -11 -17 24 -18
63 -1 69 25 11 38 7 34 -10z m50 -189 c29 -50 29 -79 -1 -109 -24 -24 -72 -42
-82 -32 -10 9 40 187 51 184 5 -2 20 -21 32 -43z"/>
<path d="M7639 1818 c-1 -1 -3 -14 -4 -28 -3 -26 -81 -217 -96 -236 -5 -7 -23
-14 -39 -18 -36 -7 -40 -26 -5 -26 31 0 31 -6 1 -78 -13 -31 -27 -74 -31 -94
-6 -30 -4 -38 13 -47 26 -14 82 -14 102 0 11 8 12 12 2 16 -6 2 -10 9 -7 13
10 16 -13 20 -25 5 -7 -8 -24 -15 -37 -15 -22 0 -24 3 -18 28 4 15 20 62 37
105 30 75 32 77 64 77 40 0 45 15 9 24 -14 4 -25 11 -25 16 0 5 20 57 46 116
25 58 44 113 42 122 -3 13 -26 30 -29 20z"/>
<path d="M10383 1768 c-10 -24 -16 -45 -14 -47 1 -2 -2 -7 -8 -10 -6 -4 -28
-47 -50 -97 -27 -62 -44 -90 -57 -92 -47 -7 -64 -13 -64 -22 0 -6 16 -10 35
-10 l34 0 -14 -41 c-21 -59 -19 -132 3 -152 34 -31 103 -16 146 32 24 26 16
26 -35 0 -22 -11 -53 -19 -67 -17 -26 3 -27 6 -27 58 0 30 6 69 14 87 12 29
17 32 74 38 78 8 97 14 97 27 0 7 -24 9 -74 5 l-74 -5 33 71 c18 40 47 101 63
136 17 35 29 68 26 73 -11 18 -25 6 -41 -34z"/>
<path d="M9642 1775 c-14 -31 -15 -38 -3 -30 11 6 -26 -106 -58 -177 -18 -39
-28 -49 -59 -58 -20 -5 -43 -10 -49 -10 -7 0 -13 -7 -13 -16 0 -13 7 -15 40
-9 22 4 40 5 40 3 0 -1 -7 -25 -15 -52 -15 -51 -20 -122 -9 -150 8 -22 37 -20
59 4 18 20 29 90 14 90 -12 0 -23 -22 -23 -49 -1 -13 -7 -26 -13 -28 -29 -10
-4 152 30 195 6 7 24 12 41 10 23 -2 32 2 34 15 3 13 -3 17 -28 17 -22 0 -30
4 -27 13 65 146 92 257 65 257 -8 0 -20 -11 -26 -25z"/>
<path d="M8446 1702 c-3 -5 -12 -44 -21 -87 -9 -43 -34 -116 -56 -162 -21 -45
-39 -92 -39 -103 0 -33 36 -24 85 21 l45 42 0 -27 c0 -34 17 -66 34 -66 20 0
28 27 10 34 -9 4 -14 21 -14 51 0 37 -3 45 -19 45 -10 0 -24 -7 -31 -16 -8 -8
-22 -20 -32 -25 -18 -10 -18 -9 -2 28 22 51 31 85 49 169 8 39 17 79 21 88 6
17 -20 24 -30 8z"/>
<path d="M6576 1564 c-9 -24 -7 -28 9 -14 17 14 20 30 6 30 -5 0 -12 -7 -15
-16z"/>
<path d="M10960 1570 c0 -5 5 -10 10 -10 6 0 10 5 10 10 0 6 -4 10 -10 10 -5
0 -10 -4 -10 -10z"/>
<path d="M11123 1496 l-28 -24 17 -48 c9 -27 15 -50 13 -53 -8 -7 -35 21 -29
30 3 5 -2 9 -10 9 -28 0 -28 -22 0 -51 34 -36 52 -37 64 -4 7 19 5 37 -7 67
-15 39 -15 42 2 54 10 8 27 14 37 14 10 0 18 7 18 15 0 23 -45 18 -77 -9z"/>
<path d="M10012 1487 c-30 -32 -28 -51 13 -94 42 -44 43 -53 10 -53 -17 0 -29
8 -37 25 -16 36 -31 31 -23 -7 10 -44 22 -58 52 -58 70 0 81 45 27 108 -39 45
-36 67 8 74 12 2 23 9 26 16 7 22 -53 14 -76 -11z"/>
<path d="M9798 1479 c-28 -16 -68 -93 -68 -130 0 -51 30 -79 84 -79 49 0 106
17 106 32 0 5 -9 6 -22 1 -31 -10 -108 -5 -125 8 -26 22 -8 96 31 128 25 21
20 -8 -6 -36 -12 -13 -18 -26 -15 -30 4 -3 21 9 38 28 46 52 29 109 -23 78z"/>
<path d="M7725 1464 c15 -37 16 -59 2 -78 -20 -27 -41 -11 -33 26 5 24 3 29
-12 26 -24 -4 -28 -60 -6 -82 22 -23 53 -17 77 16 17 23 19 34 11 65 -6 25
-16 39 -28 41 -15 3 -17 0 -11 -14z"/>
<path d="M8181 1448 c-33 -33 -41 -78 -18 -95 30 -24 87 -19 87 8 0 6 -4 8
-10 4 -5 -3 -21 -3 -35 1 -34 8 -32 36 5 67 34 29 36 33 16 40 -9 4 -28 -8
-45 -25z"/>
<path d="M7952 1441 c-6 -16 -26 -47 -46 -69 -20 -22 -36 -42 -36 -46 0 -13
28 -5 44 13 10 11 25 16 40 14 13 -3 29 2 37 10 12 13 17 12 36 -11 16 -20 24
-24 33 -16 8 8 9 14 1 18 -6 4 -11 20 -11 37 0 35 -12 36 -52 7 l-31 -22 6 25
c4 13 10 34 13 47 10 34 -22 28 -34 -7z"/>
<path d="M10860 1333 c-15 -89 -52 -212 -79 -262 l-18 -35 -18 35 c-20 38 -75
90 -88 82 -5 -3 2 -16 14 -29 13 -14 35 -46 49 -72 14 -26 32 -48 40 -50 19
-3 72 92 94 168 16 56 46 205 46 228 0 6 -6 12 -14 12 -9 0 -17 -25 -26 -77z"/>
<path d="M3168 1323 c0 -5 -2 -62 -2 -128 -1 -106 -5 -130 -31 -204 -17 -47
-35 -86 -42 -88 -28 -9 -103 170 -103 247 0 39 -14 60 -30 44 -5 -5 -16 -54
-26 -109 -18 -107 -46 -196 -70 -220 -17 -17 -9 -58 9 -52 22 7 66 101 83 177
l17 75 18 -54 c42 -123 102 -179 140 -130 23 30 64 156 74 226 10 77 -4 223
-21 223 -8 0 -15 -3 -16 -7z"/>
<path d="M10605 1310 c-8 -14 3 -30 21 -30 8 0 14 9 14 20 0 21 -24 28 -35 10z"/>
<path d="M5050 1169 c0 -17 -10 -58 -21 -90 -20 -55 -24 -59 -62 -66 -56 -11
-65 -38 -10 -31 l40 6 -19 -61 c-25 -81 -21 -157 8 -168 14 -5 33 -2 55 9 36
19 56 51 23 37 -11 -4 -29 -10 -41 -12 -21 -5 -23 -2 -23 34 0 42 37 164 53
174 5 4 18 4 28 2 13 -4 19 0 19 11 0 9 5 16 12 16 9 0 8 3 -1 13 -11 10 -14
10 -18 0 -3 -7 -12 -13 -20 -13 -12 0 -14 7 -7 38 12 58 11 125 -3 129 -9 3
-13 -6 -13 -28z"/>
<path d="M11036 1145 c-43 -56 -78 -141 -83 -206 -8 -81 9 -75 29 11 18 77 52
151 80 177 19 17 25 53 9 53 -5 0 -21 -16 -35 -35z"/>
<path d="M10230 1086 c0 -8 -7 -16 -15 -19 -18 -7 -48 -76 -41 -94 9 -24 23
-14 34 26 7 21 19 44 27 51 17 14 20 50 5 50 -5 0 -10 -6 -10 -14z"/>
<path d="M10466 1065 c-19 -45 -36 -134 -26 -140 6 -4 39 79 61 154 9 31 -21
20 -35 -14z"/>
<path d="M9051 1001 c-59 -62 -131 -189 -152 -266 -9 -33 -20 -71 -26 -85 -20
-49 -23 -78 -10 -89 10 -8 20 -4 39 17 37 39 59 87 78 167 15 61 20 70 45 77
85 22 165 186 106 218 -29 15 -31 14 -80 -39z m51 -68 c-24 -46 -66 -87 -83
-81 -21 7 -18 52 7 85 13 17 24 39 24 48 0 9 4 13 10 10 5 -3 20 1 32 10 22
15 23 14 26 -9 2 -13 -6 -42 -16 -63z m-135 -112 c-4 -19 -2 -31 6 -34 8 -3 7
-9 -4 -18 -9 -8 -20 -27 -24 -44 -7 -30 -43 -115 -49 -115 -8 0 17 108 37 159
12 31 22 59 23 64 1 4 2 9 3 12 0 3 4 5 7 5 4 0 4 -13 1 -29z"/>
<path d="M9700 1035 c0 -8 2 -15 4 -15 2 0 11 -3 20 -6 12 -4 16 0 16 15 0 14
-6 21 -20 21 -11 0 -20 -7 -20 -15z"/>
<path d="M3239 992 c-58 -59 -65 -144 -15 -177 13 -9 31 -13 40 -9 39 15 60
109 35 156 -9 17 -8 23 5 30 22 12 20 25 -6 31 -16 5 -31 -4 -59 -31z m31 -82
c0 -38 -9 -60 -26 -60 -16 0 -18 37 -4 75 12 32 30 24 30 -15z"/>
<path d="M3452 999 c-23 -17 -42 -35 -42 -40 0 -13 24 -11 38 3 19 19 14 2
-13 -53 -24 -47 -26 -69 -4 -69 5 0 37 22 72 49 52 41 64 47 75 35 7 -8 8 -14
2 -14 -5 0 -10 -20 -10 -45 0 -38 3 -45 19 -45 33 0 76 46 105 110 27 59 31
96 11 94 -6 -1 -26 -34 -46 -73 -49 -98 -59 -106 -59 -49 0 75 -33 83 -99 24
-23 -21 -23 -21 3 32 40 79 20 94 -52 41z"/>
<path d="M7665 958 c-15 -18 -36 -36 -47 -40 -21 -9 -44 -55 -95 -197 -39
-109 -42 -122 -27 -128 11 -4 67 109 79 160 5 19 13 27 29 27 34 0 102 56 125
103 30 63 26 88 -15 101 -17 5 -28 -1 -49 -26z m36 -52 c-23 -37 -76 -86 -92
-86 -14 0 29 76 64 113 20 22 31 27 39 19 7 -7 4 -21 -11 -46z"/>
<path d="M7440 963 c-8 -3 -23 -13 -33 -22 -11 -9 -26 -16 -35 -16 -9 0 -25
-17 -34 -37 -10 -21 -23 -38 -28 -38 -6 0 -10 -9 -10 -20 0 -11 4 -20 8 -20 4
0 34 27 67 60 33 33 62 60 65 60 3 0 6 -24 5 -52 0 -39 4 -53 15 -55 11 -3 15
7 15 39 1 24 3 56 5 73 5 30 -8 40 -40 28z"/>
<path d="M9215 960 c-13 -21 -44 -143 -39 -152 11 -17 23 3 40 64 12 41 23 62
36 66 22 5 23 18 2 26 -22 9 -32 8 -39 -4z"/>
<path d="M5237 949 c-19 -11 -47 -67 -47 -94 0 -24 37 -55 66 -55 37 0 104 21
104 33 0 5 -10 6 -22 2 -50 -15 -118 0 -118 26 0 5 16 15 35 23 36 16 46 41
23 64 -14 14 -18 14 -41 1z m33 -28 c0 -12 -20 -25 -27 -18 -7 7 6 27 18 27 5
0 9 -4 9 -9z"/>
<path d="M9352 921 c-50 -46 -56 -82 -17 -107 29 -19 59 -12 98 24 32 31 37
80 9 105 -27 25 -42 21 -90 -22z m73 -26 c0 -32 -44 -71 -69 -62 -26 10 -18
44 17 71 39 31 52 29 52 -9z"/>
<path d="M4155 934 c-73 -38 -110 -105 -81 -149 19 -29 74 -42 124 -29 55 14
49 29 -12 30 -50 0 -86 15 -86 35 0 5 14 24 30 43 33 37 84 56 103 37 15 -15
27 -14 27 3 0 17 -38 46 -60 46 -8 0 -28 -7 -45 -16z"/>
<path d="M6226 929 c-17 -14 -26 -29 -24 -43 3 -18 9 -21 51 -19 l47 3 0 -34
c0 -50 52 -87 87 -61 17 14 17 14 -3 15 -33 0 -44 22 -41 84 1 42 -2 59 -13
66 -26 16 -76 11 -104 -11z"/>
<path d="M7842 928 c-12 -12 -22 -17 -22 -10 0 7 -4 12 -10 12 -5 0 -10 -4
-10 -10 0 -5 -11 -26 -25 -46 -37 -55 -16 -69 33 -22 29 29 43 35 63 31 15 -3
30 0 33 6 11 18 24 13 28 -10 2 -12 10 -26 19 -32 23 -15 82 0 97 24 18 28 9
35 -20 15 -12 -9 -32 -16 -45 -16 -17 0 -23 7 -29 35 -7 39 -18 43 -52 19 -22
-15 -23 -15 -20 1 5 27 -15 28 -40 3z"/>
<path d="M4492 908 c-20 -22 -42 -68 -42 -89 0 -5 9 -18 20 -29 22 -22 93 -28
120 -10 8 5 13 10 10 10 -3 1 -25 3 -50 6 -57 6 -67 17 -36 38 36 23 49 51 36
76 -14 26 -32 25 -58 -2z m36 -38 c-12 -19 -38 -35 -38 -24 0 2 7 16 16 29 19
29 39 24 22 -5z"/>
<path d="M4716 911 c-45 -30 -52 -49 -27 -74 19 -19 25 -20 62 -10 40 10 41
10 51 -18 15 -42 32 -37 25 8 -9 52 -19 59 -68 44 -22 -7 -43 -10 -46 -7 -11
10 19 36 51 44 17 5 30 12 29 18 -4 17 -48 14 -77 -5z"/>
<path d="M6465 904 c-3 -10 -15 -36 -25 -58 -30 -59 -13 -63 41 -10 44 43 49
46 49 25 0 -31 18 -61 36 -61 9 0 13 6 10 13 -2 6 -10 32 -17 55 -11 40 -14
43 -39 39 -15 -3 -32 -1 -38 5 -8 8 -13 6 -17 -8z"/>
<path d="M9638 817 c-34 -182 -71 -271 -130 -307 l-33 -20 -17 20 c-16 20 -17
37 -3 73 4 10 3 17 -3 17 -11 0 -32 -60 -32 -91 0 -8 11 -26 25 -39 l25 -24
45 22 c80 39 135 158 155 335 12 105 12 107 -3 107 -8 0 -18 -34 -29 -93z"/>
<path d="M4336 878 c-28 -26 -59 -118 -46 -139 12 -18 13 -15 36 56 16 50 24
62 52 74 17 8 32 18 32 23 0 17 -50 7 -74 -14z"/>
<path d="M10415 670 c-7 -12 2 -30 16 -30 5 0 9 9 9 20 0 21 -15 27 -25 10z"/>
<path d="M10886 643 c-11 -11 -6 -23 9 -23 8 0 15 4 15 9 0 13 -16 22 -24 14z"/>
<path d="M10100 620 c0 -5 7 -10 16 -10 8 0 12 5 9 10 -3 6 -10 10 -16 10 -5
0 -9 -4 -9 -10z"/>
</g>
</svg>
