<?xml version="1.0" standalone="no"?>
<!DOCTYPE svg PUBLIC "-//W3C//DTD SVG 20010904//EN"
 "http://www.w3.org/TR/2001/REC-SVG-20010904/DTD/svg10.dtd">
<svg version="1.0" xmlns="http://www.w3.org/2000/svg"
 width="1872.000000pt" height="660.000000pt" viewBox="0 0 1872.000000 660.000000"
 preserveAspectRatio="xMidYMid meet">

<g transform="translate(0.000000,660.000000) scale(0.100000,-0.100000)"
fill="#000000" stroke="none">
<path d="M2195 6114 c-6 -2 -9 -30 -7 -63 3 -52 -5 -86 -57 -245 -34 -102 -61
-187 -61 -190 0 -4 7 -6 15 -6 8 0 15 5 15 11 0 14 79 109 91 109 5 0 6 -30 3
-70 -5 -46 -3 -70 3 -70 13 0 21 31 30 110 5 51 3 61 -11 66 -11 4 -29 -2 -47
-15 -16 -12 -29 -20 -29 -17 0 3 18 59 40 126 31 95 40 137 40 191 0 66 -3 73
-25 63z"/>
<path d="M3172 6109 c-12 -5 -30 -25 -39 -46 -9 -21 -41 -87 -70 -146 -29 -60
-56 -126 -59 -148 -5 -32 -20 -51 -75 -104 -49 -46 -77 -65 -95 -65 -22 0 -25
-2 -14 -15 21 -25 42 -18 105 35 52 43 61 47 70 33 23 -38 46 -53 81 -53 40 0
94 27 94 47 0 10 -6 9 -25 -3 -48 -31 -115 -1 -115 51 0 10 23 42 50 72 70 77
95 124 119 229 12 50 21 96 21 102 0 15 -22 20 -48 11z m-7 -124 c-8 -36 -20
-76 -26 -88 -20 -39 -81 -118 -87 -113 -2 3 17 52 43 108 68 146 79 168 83
164 1 -2 -4 -34 -13 -71z"/>
<path d="M3846 6112 c-2 -4 -11 -35 -20 -69 -26 -99 -82 -223 -101 -223 -7 0
-12 -12 -13 -27 0 -16 -4 -53 -7 -84 -6 -50 -5 -59 14 -78 25 -25 88 -28 131
-6 41 21 37 27 -12 20 -60 -9 -98 7 -98 41 0 54 21 102 49 110 14 4 30 6 34 5
14 -3 122 31 132 41 7 7 0 9 -20 5 -51 -9 -155 -20 -155 -15 0 2 16 41 35 87
19 45 38 101 41 122 4 22 13 46 20 54 8 7 14 16 14 19 0 9 -38 7 -44 -2z"/>
<path d="M1925 6094 c-27 -8 -81 -20 -119 -28 -65 -13 -108 -37 -93 -52 4 -4
18 -2 31 4 13 6 53 14 88 18 35 4 74 11 88 16 14 6 76 14 138 18 63 5 116 11
119 14 28 28 -162 36 -252 10z"/>
<path d="M13252 6093 c-6 -10 -13 -38 -17 -62 -4 -24 -18 -64 -31 -90 -44 -86
-144 -314 -144 -327 0 -32 24 -20 81 40 34 37 65 66 70 66 4 0 2 -19 -6 -41
-20 -55 -20 -109 0 -109 8 0 15 8 15 18 1 9 12 49 24 87 20 57 22 72 11 83
-15 17 -44 5 -87 -36 -16 -14 -28 -23 -28 -20 0 3 20 48 43 99 64 138 113 309
88 309 -5 0 -14 -8 -19 -17z"/>
<path d="M10403 6083 c-7 -3 -13 -17 -13 -31 0 -33 -34 -168 -54 -215 -12 -31
-20 -36 -52 -39 -50 -4 -58 -28 -10 -28 20 0 36 -3 36 -8 0 -4 -9 -39 -20 -77
-11 -38 -20 -73 -20 -77 0 -14 29 4 34 20 3 10 12 43 21 75 13 43 21 57 35 57
27 0 36 20 12 27 -21 5 -21 6 -3 52 27 67 64 233 54 241 -4 4 -14 5 -20 3z"/>
<path d="M10549 6065 c-2 -19 -3 -24 -17 -58 -7 -16 -12 -33 -12 -38 0 -6 -27
-77 -60 -158 -33 -82 -60 -153 -60 -159 0 -24 19 -19 56 14 97 87 108 87 78 0
-11 -33 -13 -51 -6 -58 14 -14 28 15 46 91 12 51 12 62 0 72 -10 8 -21 6 -48
-10 -18 -12 -39 -28 -46 -36 -19 -22 -32 -18 -20 6 7 11 9 27 6 35 -3 8 -2 13
3 10 12 -8 101 256 101 297 0 14 -20 7 -21 -8z"/>
<path d="M15757 6057 c-8 -12 -30 -54 -50 -92 -34 -69 -35 -70 -78 -73 -24 -2
-54 -10 -67 -18 -54 -36 -80 -127 -47 -170 8 -10 15 -22 15 -25 0 -3 -25 -38
-55 -78 -53 -70 -69 -106 -42 -96 6 3 37 39 67 80 42 57 61 75 80 75 38 1 104
34 128 65 26 32 28 81 7 112 -14 20 -12 28 30 114 44 89 55 129 36 129 -5 0
-15 -10 -24 -23z m-117 -203 c0 -3 -19 -37 -41 -76 -30 -51 -44 -67 -50 -57
-22 36 0 102 42 125 25 14 49 18 49 8z m50 -67 c-1 -31 -21 -54 -65 -73 l-38
-15 20 34 c29 48 65 87 75 81 4 -3 8 -15 8 -27z"/>
<path d="M9125 6023 c-32 -152 -56 -208 -96 -222 -33 -11 -42 -47 -9 -36 19 6
19 5 0 -62 -10 -37 -17 -69 -15 -72 14 -13 34 16 55 78 l24 70 63 -4 c35 -3
63 -1 63 4 0 11 -18 17 -77 26 l-42 7 20 46 c16 36 49 164 49 188 0 2 -7 4
-15 4 -8 0 -17 -12 -20 -27z"/>
<path d="M6004 6006 c-8 -14 -26 -67 -38 -118 l-23 -93 -37 -3 c-37 -3 -52
-22 -17 -22 47 0 50 -7 30 -73 -24 -80 -24 -93 4 -121 l23 -23 -52 -72 c-28
-40 -64 -100 -79 -134 -14 -34 -30 -71 -35 -82 -17 -37 -31 -100 -37 -157 -5
-49 -3 -58 11 -58 10 0 16 9 16 25 0 21 36 152 45 163 1 1 35 5 75 7 41 3 76
7 78 10 13 13 -15 20 -74 19 -61 -1 -64 0 -58 20 24 77 135 239 158 230 20 -8
30 28 12 42 -9 6 -13 14 -9 17 3 4 -8 7 -25 7 -42 0 -46 21 -22 105 11 39 20
71 20 72 0 2 7 3 15 3 8 0 15 7 15 15 0 18 17 20 22 4 2 -7 13 -9 26 -5 37 12
24 25 -23 22 -25 -1 -45 1 -45 5 0 23 41 174 50 183 13 13 13 36 0 36 -5 0
-17 -11 -26 -24z"/>
<path d="M14884 5994 c-9 -21 -23 -54 -30 -71 -15 -36 -28 -42 -38 -18 -15 40
-97 -1 -122 -61 -22 -51 -18 -91 12 -121 l25 -25 -25 -39 c-26 -39 -33 -73
-17 -83 5 -3 26 23 47 59 27 45 45 65 59 65 23 0 84 35 102 59 17 22 16 72 -2
98 -13 18 -12 28 5 89 21 78 11 110 -16 48z m-74 -151 c0 -5 -47 -91 -56 -102
-2 -2 -10 2 -19 9 -16 13 -20 57 -7 76 9 16 82 31 82 17z m58 -44 c-2 -13 -17
-31 -36 -42 l-34 -20 29 51 c28 50 48 56 41 11z"/>
<path d="M1969 6018 c0 -2 -2 -34 -3 -73 -2 -46 -16 -107 -40 -181 -37 -114
-47 -189 -24 -182 7 3 16 25 20 49 3 24 20 87 36 140 17 53 33 117 37 142 8
49 -1 107 -16 107 -5 0 -9 -1 -10 -2z"/>
<path d="M11556 5988 c-7 -18 -29 -76 -50 -128 l-38 -95 -40 -2 c-46 -1 -80
-28 -110 -87 -22 -44 -18 -82 12 -91 40 -13 119 53 160 134 40 81 111 273 106
287 -9 24 -26 16 -40 -18z m-106 -253 c0 -3 -9 -22 -19 -43 -23 -45 -78 -89
-93 -74 -15 15 30 93 62 109 26 13 50 17 50 8z"/>
<path d="M13917 6013 c-4 -3 -7 -19 -7 -35 0 -30 -25 -99 -39 -108 -13 -8
-111 -231 -111 -251 0 -29 20 -33 52 -9 16 12 31 20 32 18 2 -1 9 -13 15 -25
14 -28 58 -33 45 -5 -5 9 -7 36 -7 60 2 37 -1 42 -19 42 -12 0 -30 -8 -41 -17
-19 -18 -19 -17 -4 17 46 108 69 158 83 183 30 53 30 160 1 130z"/>
<path d="M15094 5990 c-11 -4 -44 -32 -73 -61 -84 -85 -102 -149 -55 -196 31
-31 65 -27 127 15 75 49 53 102 -34 83 -46 -10 -75 -33 -65 -50 10 -15 36 -14
70 4 34 18 48 11 20 -9 -30 -22 -76 -28 -92 -12 -26 25 -4 74 62 142 57 59 77
69 134 73 6 1 12 6 12 11 0 12 -76 12 -106 0z"/>
<path d="M7843 5948 c-33 -53 -92 -222 -100 -286 -10 -86 17 -62 38 34 19 84
80 236 98 242 6 2 11 8 11 13 0 14 -38 11 -47 -3z"/>
<path d="M7959 5933 c-5 -16 -24 -64 -41 -108 -22 -57 -31 -98 -32 -144 -1
-72 19 -98 22 -29 3 63 11 93 48 190 19 48 34 94 34 103 0 25 -20 17 -31 -12z"/>
<path d="M16738 5918 c-7 -13 -18 -36 -24 -52 -7 -19 -18 -30 -35 -33 -51 -7
-97 -96 -78 -152 8 -22 4 -39 -16 -84 -29 -66 -33 -117 -10 -117 8 0 15 6 15
14 0 8 12 42 26 75 24 54 30 61 55 61 39 0 80 17 112 48 38 37 36 72 -9 111
l-35 32 15 47 c19 57 20 66 7 70 -5 2 -16 -7 -23 -20z m-75 -173 c-19 -41 -37
-48 -22 -9 13 36 19 44 29 44 6 0 2 -16 -7 -35z m105 -13 c2 -15 -6 -27 -30
-42 -32 -19 -73 -27 -66 -12 44 93 52 102 72 88 12 -7 22 -23 24 -34z"/>
<path d="M15868 5910 c-20 -11 -40 -24 -43 -30 -9 -15 5 -32 18 -22 27 20 76
31 86 18 23 -27 -69 -140 -145 -176 -51 -25 -78 -54 -71 -75 9 -22 34 -18 73
11 l34 26 0 -25 c0 -21 22 -57 34 -57 18 0 66 25 70 37 9 23 1 27 -33 15 -29
-10 -29 -10 -33 29 -3 36 1 43 49 91 78 77 90 137 33 168 -25 13 -28 13 -72
-10z"/>
<path d="M16959 5913 c-1 -4 -3 -17 -4 -28 -1 -11 -19 -63 -40 -115 -44 -112
-54 -160 -34 -160 17 0 111 230 113 275 1 20 -4 30 -16 33 -10 2 -19 0 -19 -5z"/>
<path d="M17162 5898 c-39 -28 -73 -92 -63 -119 5 -15 -6 -32 -46 -74 -43 -45
-53 -61 -53 -90 0 -50 31 -68 94 -56 73 13 100 38 104 94 2 26 -2 55 -8 66 -9
18 -5 24 29 46 46 28 61 52 61 93 0 59 -60 80 -118 40z m42 -33 c-8 -20 6 -19
21 2 11 15 13 15 20 -6 10 -32 -18 -69 -59 -77 -19 -3 -39 -3 -44 0 -17 10 -1
45 32 71 37 29 37 29 30 10z m-50 -161 c22 -59 -4 -96 -76 -108 -35 -6 -38 -5
-38 17 0 27 71 107 94 107 8 0 17 -7 20 -16z"/>
<path d="M16382 5873 c-66 -43 -47 -63 22 -23 62 38 62 -17 -2 -85 -26 -28
-44 -39 -60 -37 -26 4 -92 -55 -92 -82 0 -23 27 -31 58 -17 19 9 28 9 30 2 13
-40 83 -61 128 -39 42 20 42 38 0 31 -99 -16 -113 29 -36 113 57 64 73 113 45
144 -24 27 -43 25 -93 -7z"/>
<path d="M9570 5881 c0 -6 5 -13 10 -16 6 -3 10 1 10 9 0 9 -4 16 -10 16 -5 0
-10 -4 -10 -9z"/>
<path d="M7750 5861 c0 -22 16 -36 24 -22 8 12 -3 41 -15 41 -5 0 -9 -9 -9
-19z"/>
<path d="M4470 5826 c-38 -25 -66 -61 -94 -115 -14 -26 -20 -31 -27 -20 -5 8
-4 15 1 17 5 2 6 10 3 18 -6 16 -53 20 -53 4 0 -5 6 -10 13 -10 22 0 4 -136
-27 -200 -29 -62 -32 -80 -12 -80 21 0 42 38 66 120 17 58 24 70 32 57 25 -45
93 9 140 110 31 65 34 116 8 121 -8 1 -31 -8 -50 -22z m20 -76 c-12 -23 -36
-58 -53 -77 -30 -33 -32 -33 -39 -13 -9 25 8 57 66 118 48 50 59 37 26 -28z"/>
<path d="M7358 5792 c-43 -20 -78 -40 -78 -44 0 -14 40 -8 80 12 22 11 40 19
40 17 0 -2 -13 -28 -30 -58 -51 -92 -36 -118 41 -70 27 16 49 26 49 21 0 -6 9
-19 20 -30 19 -19 23 -19 49 -5 44 22 71 62 67 99 -2 22 -8 31 -22 31 -15 0
-18 -6 -16 -34 3 -38 -20 -71 -50 -71 -11 0 -18 7 -18 20 0 31 -25 35 -66 11
l-36 -22 37 66 c33 59 40 97 18 94 -4 0 -43 -17 -85 -37z"/>
<path d="M3519 5804 c-9 -3 -22 -16 -29 -29 -11 -20 -10 -28 8 -57 12 -19 30
-43 42 -53 27 -25 25 -45 -5 -45 -14 0 -24 3 -24 8 3 19 -3 22 -22 12 -13 -7
-19 -19 -17 -33 2 -18 11 -23 47 -25 87 -6 106 51 39 124 -39 43 -40 45 -22
59 11 8 29 11 42 8 20 -5 23 -2 20 13 -3 19 -43 28 -79 18z"/>
<path d="M6488 5799 c-10 -5 -30 -31 -45 -57 -24 -40 -28 -44 -31 -24 -7 46
-22 20 -22 -38 0 -33 4 -60 9 -60 5 0 28 34 51 75 44 76 63 93 85 75 16 -13
28 2 19 24 -7 18 -40 21 -66 5z"/>
<path d="M9260 5764 c-28 -26 -50 -55 -50 -64 0 -28 30 -32 71 -11 l38 20 3
-36 c4 -48 28 -57 28 -11 0 18 7 44 16 57 26 37 4 46 -52 22 l-49 -21 35 30
c19 17 45 30 57 30 14 0 23 6 23 15 0 11 -11 15 -35 15 -29 0 -46 -9 -85 -46z"/>
<path d="M4863 5778 c-35 -39 -49 -80 -44 -135 2 -28 19 -11 25 25 3 20 15 52
26 70 15 25 26 32 51 32 27 0 30 2 19 15 -18 22 -53 18 -77 -7z"/>
<path d="M5625 5778 c-37 -29 -58 -80 -45 -112 13 -36 64 -59 108 -51 44 8 92
32 92 45 0 13 3 13 -58 -5 -57 -17 -98 -12 -112 15 -14 27 -13 30 13 30 28 0
86 35 94 57 7 18 -21 43 -48 43 -9 0 -29 -10 -44 -22z m45 -28 c-14 -10 -33
-21 -44 -24 -16 -4 -15 -2 5 20 12 13 32 24 43 24 20 0 20 -2 -4 -20z"/>
<path d="M8412 5784 c-29 -20 -54 -88 -43 -118 11 -27 56 -46 95 -39 40 8 42
23 2 23 -32 0 -66 20 -66 39 0 5 10 23 23 42 18 27 29 33 50 31 15 -2 27 1 27
7 0 25 -59 36 -88 15z"/>
<path d="M5325 5778 c-29 -17 -67 -58 -87 -95 -22 -38 -22 -43 -4 -43 8 0 27
20 42 44 30 47 74 84 59 49 -32 -75 -10 -82 57 -16 l48 47 0 -46 c0 -29 6 -53
16 -62 21 -22 38 -21 28 2 -4 9 -10 42 -13 72 -7 66 -28 76 -70 36 -27 -26
-28 -26 -27 -4 1 26 -20 33 -49 16z"/>
<path d="M9485 5733 c-9 -32 -18 -63 -20 -70 -2 -7 0 -15 5 -18 8 -5 21 28 34
87 3 14 9 33 12 42 3 9 1 16 -5 16 -6 0 -18 -26 -26 -57z"/>
<path d="M2395 5764 c-66 -67 -29 -184 60 -184 25 0 34 4 29 12 -4 6 -3 8 4 5
12 -8 42 2 42 14 0 4 -22 5 -48 2 -42 -5 -52 -2 -70 18 -30 31 -28 45 8 53 56
11 66 86 13 94 -11 2 -28 -5 -38 -14z m45 -22 c0 -12 -39 -46 -45 -41 -6 7 24
49 36 49 5 0 9 -4 9 -8z"/>
<path d="M3325 5770 c-4 -6 -4 -14 -1 -17 3 -4 -1 -14 -10 -24 -10 -11 -15
-28 -12 -42 4 -19 -2 -28 -24 -41 -28 -17 -28 -17 -28 8 0 13 11 38 25 54 26
31 24 42 -7 42 -46 0 -79 -128 -39 -150 28 -14 34 -13 75 15 l37 25 8 -23 c12
-31 37 -50 57 -43 14 5 13 9 -7 25 -18 14 -24 33 -30 86 -7 67 -29 110 -44 85z"/>
<path d="M6184 5735 c-23 -25 -49 -45 -58 -45 -9 0 -16 -4 -16 -10 0 -5 9 -10
20 -10 11 0 20 -6 20 -13 0 -39 68 -59 126 -37 37 15 24 23 -38 24 -66 1 -69
17 -8 49 47 25 60 48 40 72 -20 25 -42 17 -86 -30z m61 5 c-3 -5 -16 -15 -28
-21 -21 -10 -21 -9 2 10 25 23 36 27 26 11z"/>
<path d="M8606 5755 c-55 -51 -21 -136 45 -113 27 9 59 52 59 78 0 16 -47 60
-63 60 -8 0 -26 -11 -41 -25z m69 -32 c4 -12 -2 -25 -20 -41 -30 -25 -45 -21
-45 12 0 42 51 65 65 29z"/>
<path d="M4644 5762 c-22 -14 -52 -74 -47 -93 6 -20 38 -25 62 -10 10 7 19 5
26 -6 13 -18 36 -10 31 10 -15 50 -13 48 -51 33 -26 -11 -35 -12 -35 -3 1 18
25 47 39 47 14 0 10 22 -5 27 -5 1 -14 -1 -20 -5z"/>
<path d="M5080 5760 c0 -5 -7 -7 -15 -4 -23 9 -59 -19 -85 -69 -20 -38 -22
-48 -11 -61 17 -21 47 -20 91 2 34 16 36 16 52 -3 17 -20 17 -20 18 3 0 12 7
33 16 46 21 33 0 44 -34 19 -38 -28 -88 -53 -106 -53 -38 0 30 85 75 95 32 7
38 20 14 29 -8 3 -15 1 -15 -4z"/>
<path d="M10704 5718 c-30 -29 -54 -58 -54 -64 0 -6 10 -24 22 -39 19 -24 26
-27 65 -21 24 3 58 13 76 23 30 16 31 18 9 21 -13 2 -37 -1 -54 -7 -76 -27
-96 6 -24 38 24 11 47 28 50 37 6 16 -17 64 -30 64 -4 0 -30 -24 -60 -52z m61
2 c-3 -5 -16 -15 -28 -21 -22 -12 -22 -12 -3 10 19 21 43 30 31 11z"/>
<path d="M13622 5753 c-19 -17 -20 -21 -8 -56 14 -38 11 -71 -7 -94 -15 -20
-37 -15 -37 7 0 11 -4 20 -10 20 -5 0 -10 -9 -10 -19 0 -11 -5 -23 -10 -26
-18 -11 10 -35 40 -35 15 0 39 11 55 26 25 23 27 30 21 72 -13 86 -13 87 12
90 13 2 21 9 19 15 -6 19 -42 19 -65 0z"/>
<path d="M15244 5756 c-8 -22 3 -33 18 -18 9 9 9 15 0 24 -9 9 -13 7 -18 -6z"/>
<path d="M8799 5728 c-25 -19 -37 -24 -26 -12 19 23 22 34 6 34 -5 0 -17 -17
-26 -37 -8 -21 -22 -45 -30 -55 -10 -11 -11 -18 -3 -23 5 -3 32 12 58 35 26
23 55 46 66 52 17 9 18 7 12 -17 -7 -29 0 -65 13 -65 14 0 22 92 10 106 -17
21 -30 17 -80 -18z"/>
<path d="M9611 5720 c-21 -22 -43 -40 -49 -40 -14 0 -16 -16 -3 -24 5 -3 27
12 50 34 23 23 46 38 51 35 6 -4 10 -21 10 -39 0 -25 5 -35 19 -39 17 -4 19
-1 14 32 -15 93 -34 101 -92 41z"/>
<path d="M7669 5723 c-14 -38 -16 -95 -3 -100 6 -2 14 11 17 29 3 18 9 48 13
66 8 40 -12 44 -27 5z"/>
<path d="M11625 5699 c-27 -28 -61 -57 -75 -64 -38 -20 -75 -64 -64 -75 10
-10 32 0 83 38 l31 23 0 -29 c0 -64 60 -67 115 -6 l32 35 6 -31 c4 -16 11 -30
17 -30 6 0 9 4 6 9 -5 8 11 69 29 114 15 35 -23 16 -74 -38 -29 -30 -61 -60
-71 -65 -17 -9 -20 -7 -20 10 0 19 26 74 52 111 11 16 5 49 -9 49 -4 0 -30
-23 -58 -51z"/>
<path d="M11901 5736 c-6 -7 -20 -39 -31 -71 -34 -100 -21 -127 26 -55 31 46
37 50 28 16 -11 -43 13 -36 82 25 61 54 69 58 72 40 2 -12 -4 -35 -12 -53 -13
-25 -14 -33 -4 -40 21 -13 24 -10 36 31 17 54 15 88 -5 100 -20 11 -67 -9 -76
-33 -3 -8 -15 -20 -26 -26 -19 -10 -20 -9 -10 16 15 41 -4 53 -41 26 l-30 -22
10 25 c6 15 10 28 10 31 0 9 -18 3 -29 -10z"/>
<path d="M12610 5705 c-39 -40 -45 -43 -60 -30 -21 19 -30 19 -30 -1 0 -25 31
-44 53 -32 10 5 -24 -47 -76 -115 -52 -68 -100 -135 -107 -148 -14 -25 -25
-89 -16 -89 4 0 23 26 43 58 20 31 66 96 102 144 36 48 85 120 109 161 62 109
56 127 -18 52z"/>
<path d="M13388 5723 c-9 -10 -23 -32 -32 -50 -14 -28 -14 -33 -1 -47 12 -12
22 -13 42 -5 14 5 27 8 28 7 1 -2 8 -13 14 -25 16 -32 35 -29 27 2 -4 16 0 39
10 60 23 49 8 63 -30 27 -17 -16 -41 -35 -54 -42 -21 -10 -23 -10 -14 7 6 10
20 27 31 37 24 22 28 46 8 46 -8 0 -21 -8 -29 -17z"/>
<path d="M12299 5715 c-13 -8 -34 -11 -46 -8 -16 3 -23 1 -23 -9 0 -8 -16 -41
-35 -73 -49 -81 -30 -90 35 -15 29 33 61 65 72 71 17 9 18 7 13 -18 -4 -15
-12 -38 -18 -51 -7 -15 -7 -26 0 -33 7 -7 23 8 52 46 23 30 45 55 50 55 4 0 6
-13 3 -30 -6 -39 5 -80 21 -80 8 0 12 22 12 72 0 82 -10 93 -56 59 -28 -21
-29 -21 -29 -2 0 25 -21 32 -51 16z"/>
<path d="M16014 5654 c-13 -20 -14 -28 -5 -37 10 -9 17 -7 31 11 18 22 18 52
-1 52 -5 0 -16 -11 -25 -26z"/>
<path d="M10493 5476 c-1 -19 -13 -71 -28 -115 -26 -78 -28 -81 -66 -91 -42
-11 -50 -38 -11 -32 26 4 26 7 6 -52 -12 -34 -13 -51 -6 -58 8 -8 14 -4 21 13
52 127 44 117 110 130 58 11 73 21 52 33 -5 3 -29 2 -53 -3 l-45 -8 19 50 c11
28 21 64 22 81 2 17 7 39 11 48 8 20 -1 38 -19 38 -7 0 -12 -14 -13 -34z"/>
<path d="M6595 5388 c-39 -113 -64 -171 -78 -180 -7 -4 -26 -8 -44 -8 -17 0
-38 -3 -47 -6 -32 -12 -15 -24 33 -24 l50 0 -20 -57 c-22 -65 -24 -93 -6 -93
7 0 20 28 30 68 22 83 24 87 65 95 l32 7 -20 -40 c-40 -79 -20 -94 30 -22 38
54 58 72 78 72 12 0 13 -9 7 -42 -18 -108 -18 -111 -5 -106 15 5 42 102 38
137 -5 40 -32 49 -67 23 l-30 -22 15 42 c23 66 63 222 58 227 -10 10 -24 -17
-48 -92 -14 -43 -25 -81 -24 -85 1 -4 -7 -25 -17 -47 -13 -29 -19 -35 -22 -22
-5 20 -14 22 -32 5 -12 -11 -13 -9 -6 7 52 132 85 222 85 232 0 7 -6 13 -13
13 -8 0 -26 -35 -42 -82z"/>
<path d="M2443 5436 c-10 -15 21 -26 82 -28 143 -5 192 -4 218 5 44 15 32 24
-35 25 -35 1 -107 3 -161 4 -55 2 -101 -1 -104 -6z"/>
<path d="M12704 5438 c-32 -8 -45 -29 -77 -128 -8 -25 -31 -81 -51 -125 -30
-68 -33 -82 -22 -94 11 -11 21 -11 50 -1 21 7 54 9 81 5 37 -6 45 -4 45 8 0
19 -66 32 -110 22 l-30 -7 16 39 c9 21 26 58 39 83 12 25 25 59 29 75 17 77
25 86 75 85 75 -3 78 -2 61 14 -24 22 -73 33 -106 24z"/>
<path d="M16477 5443 c-4 -3 -7 -17 -7 -30 0 -13 -17 -58 -38 -101 -58 -116
-84 -187 -80 -218 5 -46 33 -42 83 13 38 41 43 44 35 21 -6 -19 -6 -37 1 -55
11 -28 12 -27 23 22 7 28 20 62 30 77 18 27 15 48 -7 48 -6 0 -38 -26 -70 -57
-69 -67 -69 -61 -2 87 24 52 46 111 50 130 3 19 9 43 11 53 5 17 -15 24 -29
10z"/>
<path d="M13107 5414 c-16 -16 -4 -23 51 -30 l58 -6 -14 -82 c-7 -44 -19 -110
-25 -144 l-12 -64 -70 -4 c-84 -5 -95 -9 -95 -28 0 -13 16 -15 95 -13 87 2 96
4 101 22 2 11 13 79 24 150 11 72 23 142 26 156 5 24 2 28 -23 32 -70 14 -109
17 -116 11z"/>
<path d="M16327 5413 c-3 -5 -25 -46 -50 -93 -42 -80 -47 -85 -78 -86 -40 0
-50 -21 -14 -30 19 -5 24 -11 20 -23 -32 -77 -30 -112 8 -133 28 -15 78 -12
97 7 13 13 10 15 -21 15 -19 0 -44 6 -54 14 -19 14 -19 15 1 63 17 43 24 49
59 57 65 14 72 20 28 24 -24 2 -43 5 -43 6 0 2 16 33 35 70 19 37 35 76 35 86
0 20 -16 35 -23 23z"/>
<path d="M1854 5396 c-6 -17 32 -132 47 -142 20 -12 6 -41 -31 -64 -39 -24
-50 -43 -31 -54 5 -3 14 1 21 9 20 24 30 17 27 -20 -3 -52 16 -43 32 14 8 28
17 51 20 51 3 0 21 -23 40 -50 56 -83 75 -51 20 34 l-30 49 75 75 c42 41 76
79 76 84 0 21 -30 2 -93 -59 l-69 -68 8 45 c11 63 11 84 -1 88 -5 2 -14 -13
-18 -35 -15 -68 -17 -68 -46 -9 -35 69 -39 74 -47 52z"/>
<path d="M2527 5393 c-4 -3 -7 -22 -7 -42 -1 -20 -13 -79 -29 -131 -28 -96
-29 -110 -8 -110 14 0 56 150 64 223 5 46 -5 76 -20 60z"/>
<path d="M4355 5380 c11 -34 -53 -159 -85 -166 -50 -11 -60 -16 -60 -25 0 -5
18 -9 39 -9 l40 0 -10 -32 c-12 -42 -12 -108 0 -108 5 0 17 26 26 58 9 31 18
65 21 75 4 12 16 17 40 17 19 0 34 5 34 11 0 8 4 8 14 0 9 -8 16 -8 20 -2 6 9
-23 23 -40 20 -5 -1 -19 -1 -30 0 l-22 1 25 67 c27 75 27 106 0 111 -15 3 -18
0 -12 -18z"/>
<path d="M7816 5383 c-2 -10 -8 -43 -11 -73 -4 -30 -20 -91 -36 -134 -16 -44
-29 -81 -29 -83 0 -7 30 -2 30 5 0 4 14 23 31 42 l31 35 -6 -30 c-6 -40 6 -60
30 -50 11 4 14 9 8 11 -7 3 -9 24 -6 56 5 50 4 51 -21 46 -23 -5 -25 -3 -16
20 15 40 24 172 11 172 -6 0 -13 -8 -16 -17z"/>
<path d="M11736 5384 c-3 -9 -6 -48 -6 -88 0 -57 -5 -83 -25 -123 -42 -83
-105 -133 -105 -83 0 30 37 98 60 110 20 11 28 40 11 40 -18 0 -63 -44 -81
-81 -23 -43 -26 -89 -8 -107 34 -34 92 4 144 93 26 44 29 61 32 152 3 65 1
103 -6 103 -5 0 -13 -7 -16 -16z"/>
<path d="M14162 5347 c-26 -61 -26 -67 -9 -67 15 0 49 107 37 115 -4 2 -16
-19 -28 -48z"/>
<path d="M2947 5373 c-2 -5 -8 -26 -11 -48 -4 -22 -18 -74 -31 -115 -31 -99
-38 -150 -20 -150 15 0 25 22 25 55 0 50 80 86 110 50 10 -12 9 -25 -9 -66
-24 -60 -27 -89 -7 -89 17 0 56 89 56 128 0 21 -9 38 -29 55 l-29 24 74 68
c41 38 74 72 74 77 0 18 -33 7 -58 -20 -58 -61 -143 -135 -148 -130 -3 4 2 30
10 59 18 59 21 109 7 109 -6 0 -12 -3 -14 -7z"/>
<path d="M15550 5305 c0 -36 -2 -65 -5 -65 -3 0 -28 11 -55 25 -53 27 -80 32
-80 14 0 -5 30 -24 68 -42 62 -30 65 -32 37 -35 -36 -4 -55 -19 -37 -31 8 -5
-5 -22 -44 -55 -36 -32 -52 -52 -46 -58 7 -7 31 7 72 41 33 28 63 51 65 51 2
0 -2 -16 -8 -35 -6 -19 -8 -38 -4 -41 11 -11 27 7 38 47 19 60 39 66 104 29
42 -24 55 -28 55 -16 0 8 -4 18 -10 21 -17 10 -11 25 10 25 11 0 20 4 20 10 0
5 -15 9 -32 8 -37 -1 -78 10 -78 21 0 3 12 14 28 23 15 9 43 33 61 52 27 28
32 39 23 48 -9 9 -16 5 -32 -14 -11 -14 -42 -42 -70 -62 l-50 -36 0 70 c0 56
-3 70 -15 70 -12 0 -15 -14 -15 -65z"/>
<path d="M11330 5340 c0 -5 7 -10 15 -10 8 0 15 5 15 10 0 6 -7 10 -15 10 -8
0 -15 -4 -15 -10z"/>
<path d="M8330 5316 c0 -22 17 -28 24 -10 9 22 8 24 -9 24 -8 0 -15 -6 -15
-14z"/>
<path d="M9680 5294 c-43 -39 -69 -86 -124 -228 -32 -80 -34 -96 -15 -96 10 0
43 62 75 140 20 49 25 55 53 56 37 2 75 25 98 60 20 31 10 69 -24 91 -20 13
-25 12 -63 -23z m60 -19 c11 -20 11 -27 0 -40 -13 -15 -62 -45 -74 -45 -14 0
4 64 24 86 29 30 33 30 50 -1z"/>
<path d="M12901 5308 c-23 -37 -51 -131 -45 -150 7 -25 34 -23 34 2 0 11 11
48 25 82 14 34 25 67 25 75 0 20 -24 15 -39 -9z"/>
<path d="M14687 5324 c-13 -13 -7 -24 14 -24 11 0 19 5 17 12 -5 14 -22 21
-31 12z"/>
<path d="M16755 5301 c-7 -12 12 -24 25 -16 11 7 4 25 -10 25 -5 0 -11 -4 -15
-9z"/>
<path d="M9897 5270 c-44 -38 -53 -77 -24 -107 21 -23 42 -28 71 -17 26 10 18
25 -10 22 -15 -2 -29 3 -31 10 -3 6 2 12 11 12 9 0 30 13 47 28 26 23 31 33
25 55 -9 37 -46 36 -89 -3z m63 -13 c0 -16 -27 -41 -52 -50 -28 -10 -22 19 8
42 31 24 44 26 44 8z"/>
<path d="M9184 5258 c-27 -18 -61 -51 -76 -73 -35 -51 -132 -315 -119 -328 14
-14 46 42 82 146 26 74 38 97 52 97 30 0 71 26 115 74 46 50 54 89 23 106 -26
13 -22 15 -77 -22z m61 -26 c-8 -27 -81 -92 -102 -92 -14 0 -15 2 -1 18 9 9
14 22 11 28 -6 16 82 80 95 68 2 -1 1 -11 -3 -22z"/>
<path d="M4511 5266 c-17 -20 3 -30 29 -14 11 7 20 16 20 20 0 14 -37 9 -49
-6z"/>
<path d="M10116 5247 c-37 -35 -60 -82 -52 -104 8 -19 26 -16 26 5 0 32 48 90
85 102 43 14 46 30 6 30 -20 0 -41 -11 -65 -33z"/>
<path d="M14095 5210 c-48 -96 -45 -136 9 -95 14 11 16 18 8 27 -8 10 -3 28
18 70 24 46 26 57 14 62 -10 4 -24 -15 -49 -64z"/>
<path d="M9401 5263 c-66 -13 -144 -96 -128 -137 10 -25 24 -19 31 14 6 35 41
71 91 94 32 15 57 38 38 35 -4 -1 -19 -4 -32 -6z"/>
<path d="M9465 5257 c-11 -28 0 -90 17 -101 14 -8 23 -5 48 19 47 45 38 82
-23 92 -28 4 -38 2 -42 -10z m59 -36 c3 -4 -3 -16 -14 -26 -11 -10 -20 -13
-20 -7 0 6 -3 17 -6 26 -4 11 0 16 14 16 12 0 23 -4 26 -9z"/>
<path d="M16796 5254 c-21 -21 -20 -37 4 -59 11 -10 20 -31 20 -47 0 -28 -2
-29 -42 -26 -32 2 -43 -1 -43 -12 0 -21 78 -42 99 -27 22 16 23 80 3 111 -21
32 -21 33 3 39 10 3 24 -1 31 -9 15 -18 29 -18 29 -1 0 40 -74 62 -104 31z"/>
<path d="M4941 5234 c-43 -36 -65 -86 -58 -131 7 -42 20 -53 62 -53 28 0 95
32 95 45 0 3 -27 3 -60 -1 -56 -6 -60 -5 -60 14 0 14 11 27 33 38 17 10 37 24
44 33 19 24 15 59 -6 71 -16 8 -26 5 -50 -16z m39 -18 c0 -8 -14 -25 -32 -37
-33 -24 -30 -11 5 29 24 26 27 27 27 8z"/>
<path d="M6881 5225 c-17 -20 -31 -40 -31 -44 0 -5 -9 -7 -20 -4 -11 3 -20 0
-20 -6 0 -6 7 -11 15 -11 8 0 15 -8 15 -18 0 -21 30 -52 50 -52 22 0 90 23 90
30 0 4 -23 7 -52 6 -42 -1 -53 2 -56 16 -2 10 5 19 17 23 12 3 21 11 21 17 0
5 -8 7 -17 4 -13 -5 -11 0 6 18 28 29 53 36 28 8 -18 -19 -14 -32 9 -32 19 0
36 37 29 60 -10 32 -49 25 -84 -15z"/>
<path d="M10645 5233 c-11 -15 -29 -42 -40 -60 l-21 -34 -18 41 c-9 22 -24 40
-32 40 -19 0 -18 -6 10 -63 l23 -48 -73 -118 c-71 -113 -99 -181 -75 -181 6 0
17 10 25 23 54 87 210 343 226 372 31 54 11 76 -25 28z"/>
<path d="M15034 5246 c-8 -22 3 -33 18 -18 9 9 9 15 0 24 -9 9 -13 7 -18 -6z"/>
<path d="M3195 5198 c-30 -27 -38 -43 -42 -81 -6 -54 7 -77 45 -77 30 0 112
37 112 51 0 13 -12 11 -53 -6 -54 -22 -77 -20 -77 9 0 18 7 25 30 30 69 13
108 97 48 104 -19 2 -37 -6 -63 -30z m42 -23 c-15 -14 -33 -25 -40 -25 -7 0 1
12 16 25 15 14 33 25 40 25 7 0 -1 -12 -16 -25z"/>
<path d="M3913 5183 c-29 -32 -43 -42 -43 -30 0 18 -8 21 -25 9 -14 -9 -39
-111 -30 -120 3 -4 32 22 63 57 l57 64 -3 -47 c-4 -50 14 -70 43 -46 19 16 19
34 0 26 -19 -7 -19 16 -1 77 22 74 2 77 -61 10z"/>
<path d="M5614 5212 c-31 -24 -44 -55 -44 -100 0 -71 48 -80 96 -17 25 33 35
99 20 124 -11 16 -48 13 -72 -7z m48 -24 c7 -21 -5 -55 -32 -85 l-25 -28 -3
24 c-8 57 44 134 60 89z"/>
<path d="M8033 5210 c-50 -30 -70 -110 -27 -110 9 0 29 9 44 20 l29 21 -2 -28
c-1 -19 3 -28 13 -28 8 0 14 6 12 13 -1 7 5 29 13 48 21 51 19 68 -5 61 -11
-3 -20 -2 -20 3 0 17 -29 17 -57 0z m27 -45 c-13 -14 -28 -25 -34 -25 -11 1
40 50 51 50 4 0 -4 -11 -17 -25z"/>
<path d="M8239 5203 c-14 -37 -16 -87 -4 -91 9 -3 34 75 35 106 0 22 -20 12
-31 -15z"/>
<path d="M11846 5209 c-57 -45 -69 -115 -26 -154 35 -31 137 -41 127 -11 -2 6
3 16 12 23 13 10 13 12 2 13 -8 0 -22 -7 -31 -15 -13 -11 -24 -12 -53 -4 -48
13 -53 25 -20 45 69 43 90 83 61 112 -18 18 -42 15 -72 -9z m52 -25 c-2 -9
-20 -28 -41 -41 l-38 -24 16 30 c22 43 70 69 63 35z"/>
<path d="M13870 5221 c-110 -34 -148 -103 -90 -161 32 -32 178 -24 215 13 7 6
-5 7 -35 2 -87 -14 -144 -5 -161 26 -13 26 2 46 56 70 37 17 72 16 44 -2 -19
-11 -5 -22 19 -15 29 10 34 34 12 56 -22 22 -23 22 -60 11z"/>
<path d="M14152 5187 c-36 -27 -40 -32 -25 -40 12 -8 21 -5 34 12 25 30 28 26
14 -16 -13 -37 -10 -63 6 -63 5 0 12 -1 15 -2 3 -2 7 20 9 47 2 28 5 59 7 69
5 29 -13 27 -60 -7z"/>
<path d="M14376 5186 c-20 -18 -36 -41 -36 -50 0 -25 30 -31 61 -14 l28 16 -2
-41 c-1 -30 2 -42 12 -42 9 0 14 19 18 63 5 70 0 73 -56 41 l-36 -21 30 26
c17 14 33 26 38 26 4 0 7 7 7 15 0 25 -26 17 -64 -19z"/>
<path d="M2655 5185 c-27 -26 -29 -33 -16 -54 6 -10 20 -12 45 -8 31 5 36 3
36 -14 0 -28 18 -59 35 -59 21 0 30 21 13 31 -16 9 -33 69 -29 100 1 10 -8 19
-21 23 -34 9 -37 8 -63 -19z m45 -25 c-8 -5 -19 -10 -25 -10 -5 0 -3 5 5 10 8
5 20 10 25 10 6 0 3 -5 -5 -10z"/>
<path d="M4651 5198 c-13 -7 -33 -25 -44 -40 -20 -26 -20 -30 -5 -62 18 -36
58 -51 104 -40 44 11 28 29 -23 25 -12 -1 -28 7 -37 20 -15 22 -14 25 10 51
15 15 36 28 48 30 11 2 20 8 19 13 -4 15 -45 17 -72 3z"/>
<path d="M7519 5191 c-35 -29 -33 -91 6 -131 42 -44 125 -42 125 4 0 1 -13 1
-29 -2 -56 -8 -112 56 -81 93 16 19 64 19 80 0 16 -19 30 -19 30 -1 0 22 -49
56 -80 56 -15 0 -38 -9 -51 -19z"/>
<path d="M8368 5179 c-54 -29 -70 -50 -49 -63 5 -4 22 4 38 16 37 30 74 51 80
45 2 -3 -2 -28 -11 -55 -13 -44 -13 -52 0 -63 18 -15 24 -9 35 38 13 59 11
100 -7 107 -22 9 -23 8 -86 -25z"/>
<path d="M15380 5195 c0 -13 8 -16 38 -13 20 2 37 8 37 13 0 6 -17 11 -37 13
-30 3 -38 0 -38 -13z"/>
<path d="M4466 5184 c-9 -24 -7 -74 4 -74 11 0 32 69 24 82 -8 13 -21 9 -28
-8z"/>
<path d="M11195 5155 c-29 -49 -30 -92 -3 -109 14 -8 22 -6 40 11 26 26 19 40
-11 23 -18 -9 -21 -8 -21 8 0 11 11 36 25 56 29 42 31 56 10 56 -8 0 -26 -20
-40 -45z"/>
<path d="M12100 5185 c0 -9 6 -29 14 -44 13 -25 13 -29 -4 -43 -10 -9 -21 -14
-24 -11 -3 4 -6 1 -6 -5 0 -7 -7 -12 -15 -12 -8 0 -15 -4 -15 -10 0 -14 8 -13
51 12 l39 22 29 -28 c16 -16 31 -23 35 -18 8 13 -3 42 -15 42 -20 0 -7 30 16
36 24 6 52 31 43 39 -2 2 -23 -5 -46 -16 l-43 -21 -19 22 c-11 13 -20 29 -20
37 0 7 -4 13 -10 13 -5 0 -10 -7 -10 -15z"/>
<path d="M4066 5159 c-33 -39 -35 -86 -3 -98 49 -18 104 39 85 89 -18 49 -46
52 -82 9z m45 -16 c0 -5 2 -16 4 -26 4 -23 -33 -44 -41 -23 -6 17 12 56 26 56
6 0 10 -3 11 -7z"/>
<path d="M14567 5141 c-29 -53 -34 -81 -14 -81 12 0 57 93 57 118 0 25 -18 10
-43 -37z"/>
<path d="M14687 5152 c-34 -25 -57 -65 -44 -78 3 -3 24 13 46 35 23 23 51 41
62 41 19 0 21 -4 16 -39 -2 -21 -1 -44 4 -52 12 -20 31 36 27 80 -3 33 -6 36
-38 38 -25 2 -46 -5 -73 -25z"/>
<path d="M11374 5148 c-55 -40 -103 -108 -77 -108 4 0 29 21 55 47 52 51 68
52 48 2 -11 -26 -11 -32 1 -40 21 -13 29 2 32 61 2 64 -11 73 -59 38z"/>
<path d="M16627 5115 c-33 -69 -12 -93 23 -25 23 46 25 60 7 60 -7 0 -21 -16
-30 -35z"/>
<path d="M14996 5098 c-20 -28 -3 -39 22 -14 12 11 13 19 5 27 -8 8 -15 4 -27
-13z"/>
<path d="M12365 5059 c-4 -6 -4 -13 -1 -16 8 -8 36 5 36 17 0 13 -27 13 -35
-1z"/>
<path d="M2783 5033 c-7 -3 -13 -17 -13 -33 0 -33 -46 -259 -55 -268 -3 -3
-27 -9 -52 -12 -68 -8 -71 -33 -3 -29 l52 4 -7 -45 c-4 -25 -14 -53 -23 -63
-14 -16 -14 -19 -2 -27 26 -17 35 -5 50 70 13 59 20 75 38 81 22 8 31 39 11
39 -5 0 -7 -4 -4 -10 3 -5 0 -7 -8 -4 -12 4 -9 29 15 146 28 136 28 161 1 151z"/>
<path d="M8892 4963 c-26 -73 -95 -234 -127 -294 -26 -49 -33 -99 -14 -99 6 0
30 16 52 36 l42 35 3 -38 c3 -34 18 -57 32 -48 11 7 -2 114 -15 118 -7 3 -29
-6 -49 -20 l-37 -25 15 30 c37 73 146 339 146 359 0 1 -6 3 -14 3 -8 0 -23
-24 -34 -57z"/>
<path d="M17978 4994 c-7 -16 -30 -49 -51 -74 -22 -25 -48 -64 -59 -87 -17
-36 -25 -43 -48 -43 -16 0 -35 -3 -44 -6 -26 -10 -18 -24 14 -24 35 0 34 3 14
-45 -8 -20 -14 -53 -12 -73 3 -33 7 -38 41 -49 28 -10 44 -10 65 -1 16 7 21
12 12 14 -8 1 -32 5 -52 9 -35 5 -38 9 -38 38 0 18 11 50 23 72 22 39 24 40
86 43 67 4 111 16 111 31 0 5 -18 7 -40 5 -22 -2 -58 -6 -81 -8 -35 -4 -39 -2
-33 12 3 10 6 25 6 35 0 9 3 15 8 12 19 -12 113 145 97 161 -3 4 -12 -6 -19
-22z"/>
<path d="M4131 4993 c-31 -59 -101 -342 -101 -409 0 -49 38 -19 89 71 9 17 10
14 5 -18 -6 -35 12 -104 24 -92 9 9 13 185 4 185 -15 0 -40 -25 -62 -60 l-21
-35 6 45 c9 61 40 182 65 254 11 33 20 63 20 68 0 15 -19 9 -29 -9z"/>
<path d="M2917 4974 c-8 -16 -20 -58 -27 -94 -6 -36 -27 -116 -46 -177 -19
-62 -34 -119 -34 -127 0 -35 21 -21 69 45 29 39 55 69 57 66 3 -3 1 -22 -5
-44 -15 -52 -14 -106 1 -101 11 4 36 100 37 144 2 42 -31 39 -73 -8 -29 -32
-37 -37 -31 -20 4 13 24 92 45 175 37 143 40 205 7 141z"/>
<path d="M11272 4974 c-6 -11 -30 -80 -55 -155 -25 -75 -59 -164 -76 -197 -35
-69 -27 -85 21 -48 44 33 88 39 88 12 0 -20 -57 -60 -62 -44 -3 8 -14 3 -32
-14 -16 -14 -25 -31 -22 -37 14 -21 49 -11 98 30 39 33 48 47 46 68 -4 32 -42
53 -75 40 -28 -10 -28 -12 -4 48 49 125 101 297 92 306 -6 6 -13 2 -19 -9z"/>
<path d="M13805 4963 c-8 -39 -15 -58 -59 -162 -38 -90 -39 -91 -73 -91 -23 0
-33 -4 -30 -12 2 -7 14 -13 26 -12 18 1 21 -3 16 -20 -3 -12 -9 -38 -12 -60
-9 -58 17 -42 35 22 14 51 15 52 53 52 21 0 49 4 63 10 29 11 36 34 9 27 -100
-27 -104 -20 -49 98 30 63 46 112 46 136 0 45 -17 52 -25 12z"/>
<path d="M16931 4954 c-11 -14 -32 -62 -46 -107 -26 -79 -53 -132 -98 -191
-16 -21 -18 -30 -9 -33 6 -3 9 -9 6 -14 -11 -19 28 -48 73 -55 38 -5 48 -3 69
17 19 18 24 32 24 75 0 61 -16 79 -60 70 l-30 -6 19 38 c10 20 26 61 35 91 9
30 25 69 36 88 33 56 19 76 -19 27z m-11 -309 c0 -52 -11 -61 -64 -51 -46 9
-44 43 4 73 51 33 60 30 60 -22z"/>
<path d="M11573 4933 c-14 -47 0 -67 16 -22 13 37 14 59 3 59 -4 0 -12 -17
-19 -37z"/>
<path d="M6663 4948 c2 -21 -23 -122 -42 -174 -18 -47 -21 -49 -62 -54 -57 -7
-65 -30 -10 -30 l40 0 -15 -42 c-22 -62 0 -74 26 -14 11 26 20 51 20 56 0 4
26 11 57 15 31 4 67 11 80 16 43 16 15 26 -48 17 -34 -4 -64 -7 -65 -5 -2 2 5
31 16 65 11 33 22 84 26 112 5 41 4 50 -9 50 -8 0 -14 -6 -14 -12z"/>
<path d="M11990 4838 c-12 -57 -40 -150 -61 -207 -22 -57 -39 -110 -39 -118 0
-31 26 -4 44 45 17 49 20 51 62 58 59 9 89 -11 98 -64 6 -42 30 -73 38 -50 5
13 -3 44 -24 100 -6 16 -23 32 -45 40 l-35 14 36 25 c20 13 36 30 36 37 0 6 6
12 13 12 19 0 173 147 164 156 -12 12 -42 -10 -45 -34 -2 -12 -9 -19 -16 -16
-7 3 -33 -13 -57 -35 -24 -22 -73 -64 -109 -92 -36 -29 -70 -59 -77 -68 -7 -9
-1 20 13 63 14 44 23 85 20 93 -3 7 -2 13 2 13 4 0 12 21 19 48 6 26 13 53 15
61 1 8 -4 16 -13 18 -12 3 -20 -17 -39 -99z"/>
<path d="M8093 4798 c-80 -162 -89 -190 -74 -239 16 -52 41 -64 97 -49 44 13
83 44 70 58 -4 4 -13 0 -19 -9 -7 -9 -19 -16 -27 -16 -8 0 -25 -3 -37 -7 -48
-15 -68 77 -26 119 9 10 34 15 73 15 32 0 65 3 74 6 33 13 2 24 -64 24 l-69 0
44 104 c40 95 44 116 25 116 -4 0 -34 -55 -67 -122z"/>
<path d="M7735 4885 c-160 -32 -165 -34 -165 -46 0 -13 69 -6 197 20 56 12
127 22 157 22 31 1 56 6 56 11 0 5 4 7 9 3 5 -3 12 -1 16 5 11 18 -145 9 -270
-15z"/>
<path d="M11544 4865 c-4 -11 -29 -69 -56 -130 -65 -144 -71 -162 -64 -181 7
-19 26 -9 26 15 0 9 15 48 34 87 65 133 87 194 77 212 -9 16 -10 15 -17 -3z"/>
<path d="M17175 4859 c-12 -19 5 -23 22 -6 16 16 16 17 1 17 -9 0 -20 -5 -23
-11z"/>
<path d="M14563 4853 c-22 -8 -14 -23 13 -23 15 0 24 5 22 12 -5 14 -18 18
-35 11z"/>
<path d="M7771 4828 c-5 -13 -21 -52 -36 -88 -15 -36 -27 -75 -27 -87 0 -13
-4 -23 -8 -23 -4 0 -10 -9 -13 -21 -4 -14 -1 -19 9 -17 12 2 114 231 114 254
0 15 -32 0 -39 -18z"/>
<path d="M13647 4843 c-10 -10 -8 -43 2 -43 9 0 21 24 21 41 0 11 -14 12 -23
2z"/>
<path d="M1890 4825 c0 -9 9 -15 21 -15 18 0 19 2 9 15 -7 8 -16 15 -21 15 -5
0 -9 -7 -9 -15z"/>
<path d="M4535 4830 c-7 -12 2 -30 16 -30 12 0 12 27 0 35 -5 3 -12 1 -16 -5z"/>
<path d="M12980 4805 c0 -8 0 -18 -1 -22 0 -4 4 -9 10 -11 6 -2 11 8 11 22 0
14 -4 26 -10 26 -5 0 -10 -7 -10 -15z"/>
<path d="M3762 4778 c-69 -75 -45 -178 43 -178 37 0 125 36 125 51 0 11 -3 11
-37 -2 -40 -15 -103 -13 -121 5 -13 13 -14 21 -3 56 16 52 35 60 70 26 48 -46
58 -26 15 30 -31 40 -61 44 -92 12z"/>
<path d="M5339 4755 c-25 -18 -55 -45 -66 -59 -12 -14 -25 -26 -31 -26 -11 0
-32 -53 -32 -80 0 -10 -18 -71 -40 -136 -44 -131 -45 -134 -29 -134 13 0 72
127 66 143 -2 7 3 18 10 26 8 8 12 22 10 32 -7 25 9 35 63 42 37 5 52 13 86
51 42 45 55 85 46 132 -8 43 -33 46 -83 9z m54 -54 c-14 -58 -66 -101 -123
-101 -23 0 -24 3 -11 28 10 19 24 53 25 64 1 3 5 10 10 15 5 5 6 2 2 -7 -6
-13 -6 -13 6 0 7 9 27 25 43 37 27 20 31 21 42 6 7 -9 10 -27 6 -42z"/>
<path d="M15907 4751 c-36 -19 -54 -24 -50 -15 9 25 -17 15 -29 -11 -6 -13
-28 -36 -49 -50 -35 -23 -53 -55 -30 -55 4 0 41 22 82 49 85 55 139 84 145 78
3 -2 -13 -26 -34 -53 -50 -63 -65 -92 -58 -110 7 -19 26 -18 26 1 0 9 23 45
50 81 83 109 60 145 -53 85z"/>
<path d="M15624 4757 c-59 -33 -96 -117 -63 -138 52 -32 189 30 189 86 0 25
-34 60 -49 51 -5 -4 -12 -2 -16 4 -8 13 -35 12 -61 -3z m88 -35 c18 -18 1 -42
-44 -62 -46 -21 -83 -25 -92 -11 -5 8 35 66 57 82 13 9 67 3 79 -9z"/>
<path d="M14784 4731 c-39 -23 -72 -70 -80 -109 -5 -24 -1 -36 19 -56 33 -33
112 -37 148 -7 33 27 21 33 -32 17 -38 -12 -50 -12 -77 0 -42 17 -45 52 -4 47
63 -10 127 71 87 111 -21 20 -23 20 -61 -3z m31 -68 c-14 -13 -37 -23 -51 -23
l-25 0 21 30 c31 43 52 53 68 32 11 -15 9 -20 -13 -39z"/>
<path d="M16104 4723 c-55 -36 -84 -64 -78 -74 3 -5 0 -9 -5 -9 -18 0 -12 -29
10 -51 18 -18 29 -20 70 -15 60 8 79 15 79 28 0 6 -7 7 -17 3 -21 -9 -99 -9
-113 0 -19 12 -10 23 25 35 19 6 35 18 35 26 0 9 -4 12 -10 9 -24 -15 -7 4 18
21 24 16 25 16 13 1 -18 -23 -8 -32 18 -17 24 12 29 55 7 63 -7 3 -31 -6 -52
-20z"/>
<path d="M17490 4723 c-34 -23 -40 -33 -40 -70 0 -52 69 -85 100 -48 7 8 21
15 31 15 11 0 19 5 19 11 0 7 -10 9 -27 4 -16 -4 -41 -7 -58 -8 -25 -2 -30 2
-33 24 -3 29 18 51 51 53 28 1 29 30 2 34 -11 1 -31 -5 -45 -15z"/>
<path d="M3091 4704 c-11 -14 -25 -41 -31 -59 -14 -44 3 -84 44 -103 26 -13
30 -12 49 7 22 22 17 42 -6 22 -18 -14 -44 -5 -58 21 -13 23 -14 22 33 41 45
19 62 62 33 84 -27 19 -41 16 -64 -13z m49 -24 c0 -12 -9 -24 -22 -29 -31 -12
-34 -6 -14 24 20 30 36 32 36 5z"/>
<path d="M9248 4719 c-26 -15 -22 -47 12 -86 17 -18 30 -40 30 -49 0 -22 -28
-28 -58 -13 -15 7 -31 15 -35 17 -5 2 -7 -9 -5 -24 2 -24 9 -31 42 -39 35 -8
40 -7 62 18 32 37 30 59 -6 100 -35 41 -37 53 -10 60 11 3 20 10 20 16 0 14
-29 14 -52 0z"/>
<path d="M14435 4718 c-40 -22 -65 -52 -71 -85 -12 -63 42 -105 90 -70 15 11
14 13 -16 15 -18 2 -36 6 -40 10 -13 13 30 92 57 104 26 12 35 38 13 38 -7 0
-22 -6 -33 -12z"/>
<path d="M17268 4703 c-46 -50 -52 -70 -31 -106 21 -35 40 -43 81 -32 26 7 26
8 -13 19 -38 11 -63 46 -32 46 23 0 59 46 55 71 -4 34 -29 34 -60 2z m32 -17
c0 -2 -8 -10 -17 -17 -16 -13 -17 -12 -4 4 13 16 21 21 21 13z"/>
<path d="M2030 4713 c-34 -13 -70 -46 -70 -64 0 -11 17 -36 38 -54 26 -24 32
-35 20 -35 -27 0 -48 11 -42 22 4 6 1 9 -7 6 -26 -9 -21 -35 10 -48 68 -28 99
16 46 66 -19 18 -35 38 -35 43 0 10 39 32 83 45 9 3 17 10 17 16 0 11 -35 12
-60 3z"/>
<path d="M5887 4669 c-38 -42 -47 -47 -47 -30 0 47 -18 17 -30 -51 -7 -40 -24
-101 -37 -136 -25 -68 -30 -106 -12 -100 6 2 23 41 38 87 l27 82 61 30 c91 44
122 94 93 150 -17 31 -43 22 -93 -32z m73 -8 c0 -9 -12 -29 -27 -43 -29 -26
-93 -63 -93 -53 0 18 34 66 65 94 37 32 55 33 55 2z"/>
<path d="M6843 4693 c-32 -53 -85 -113 -93 -108 -4 3 -11 23 -15 45 -4 25 -12
40 -21 40 -8 0 -14 -6 -14 -12 1 -16 16 -78 24 -99 5 -11 -9 -35 -41 -75 -76
-92 -142 -190 -163 -245 -23 -57 -23 -59 -11 -59 6 0 38 43 71 95 34 51 95
136 137 187 41 51 79 102 84 113 5 11 25 42 44 69 35 48 44 76 25 76 -5 0 -17
-12 -27 -27z"/>
<path d="M10376 4674 c-20 -21 -36 -42 -36 -46 0 -4 -7 -8 -15 -8 -8 0 -15 -4
-15 -10 0 -5 5 -10 10 -10 6 0 10 -11 10 -24 0 -33 35 -56 86 -56 40 0 104 26
104 43 0 11 -14 8 -36 -7 -18 -13 -36 -13 -101 0 -40 8 -28 40 23 64 50 24 63
44 47 69 -18 28 -41 23 -77 -15z m44 -14 c-24 -15 -37 -11 -16 5 11 8 22 12
25 9 3 -3 -1 -9 -9 -14z"/>
<path d="M13521 4684 c-25 -31 -36 -67 -27 -89 8 -23 54 -41 68 -27 8 8 4 14
-15 23 -33 15 -34 31 -6 71 29 40 10 61 -20 22z"/>
<path d="M16603 4698 c-36 -9 -83 -60 -83 -89 0 -32 38 -62 68 -54 42 10 64
36 60 67 -3 16 -1 28 4 28 13 0 9 36 -4 47 -8 6 -25 7 -45 1z m17 -80 c0 -17
-28 -38 -49 -38 -18 0 -12 33 11 57 23 24 38 17 38 -19z"/>
<path d="M5537 4689 c-65 -15 -88 -37 -85 -77 4 -46 26 -54 30 -10 3 29 9 36
56 57 28 14 52 28 52 33 0 9 -2 9 -53 -3z"/>
<path d="M5655 4688 c-16 -6 -33 -16 -37 -22 -12 -18 -9 -91 4 -104 19 -19 31
-15 76 24 48 41 54 74 20 98 -25 18 -23 18 -63 4z m52 -35 c4 -11 -4 -25 -28
-45 l-34 -29 -6 28 c-7 34 -3 42 25 53 31 13 36 12 43 -7z"/>
<path d="M9904 4666 c-54 -54 -42 -96 28 -96 78 0 113 39 88 100 -10 25 -18
30 -47 30 -26 0 -43 -8 -69 -34z m94 -19 c6 -29 -17 -47 -59 -47 -45 0 -49 11
-14 46 29 29 68 29 73 1z"/>
<path d="M13011 4664 c-39 -34 -53 -64 -31 -64 5 0 25 17 45 38 34 36 34 37
35 11 0 -26 24 -68 34 -59 3 3 2 28 -2 55 -9 64 -28 68 -81 19z"/>
<path d="M6120 4654 c-40 -47 -40 -102 2 -121 29 -15 58 -8 58 13 0 8 5 14 10
14 6 0 10 5 10 10 0 16 -28 12 -38 -5 -5 -10 -15 -13 -25 -9 -22 8 -22 30 -1
38 12 5 14 9 5 20 -8 10 -6 17 9 31 11 10 23 15 28 11 4 -4 -1 -14 -11 -21
-10 -7 -14 -16 -8 -19 11 -7 41 20 41 38 0 15 -20 36 -36 36 -7 0 -26 -16 -44
-36z"/>
<path d="M8988 4663 c-40 -43 -51 -70 -38 -93 13 -24 35 -25 73 -6 22 12 27
12 27 1 0 -19 27 -26 40 -9 9 10 9 14 1 14 -16 0 -13 31 5 51 9 10 14 26 10
35 -5 13 -13 9 -45 -24 -37 -38 -76 -60 -88 -48 -8 7 35 64 58 76 10 6 19 15
19 20 0 20 -37 9 -62 -17z"/>
<path d="M10123 4659 c-27 -19 -40 -24 -37 -14 3 8 2 15 -4 15 -11 0 -42 -71
-42 -95 0 -8 4 -15 8 -15 16 0 30 23 25 38 -4 9 -2 13 3 9 6 -3 30 10 53 29
65 51 77 44 42 -24 -29 -59 -35 -82 -18 -82 17 0 67 107 67 144 0 22 -4 26
-27 26 -16 -1 -47 -14 -70 -31z"/>
<path d="M12884 4658 c-6 -18 -14 -41 -19 -50 -5 -13 -3 -18 9 -18 18 0 46 49
46 80 0 32 -24 24 -36 -12z"/>
<path d="M17072 4631 c-17 -93 -55 -161 -137 -246 l-75 -77 0 68 c0 84 -19 75
-27 -12 -6 -71 11 -104 45 -89 32 15 159 174 188 235 26 55 43 130 36 163 -7
34 -20 16 -30 -42z"/>
<path d="M1809 4638 c-15 -55 -17 -120 -3 -125 6 -2 15 28 23 72 15 91 15 89
2 93 -5 2 -15 -16 -22 -40z"/>
<path d="M4258 4653 c-31 -34 -39 -55 -28 -73 7 -11 15 -11 48 2 l40 16 -8
-27 c-4 -14 -11 -34 -15 -44 -6 -15 -4 -18 15 -15 15 2 24 10 25 23 1 11 5 35
9 52 11 47 1 55 -41 38 -46 -20 -50 -19 -28 5 10 11 26 20 37 20 10 0 18 7 18
15 0 25 -44 17 -72 -12z"/>
<path d="M4437 4619 c-29 -66 -31 -77 -18 -98 6 -9 14 2 27 40 10 30 19 59 19
66 0 6 4 15 8 19 9 10 9 34 -1 34 -4 0 -20 -27 -35 -61z"/>
<path d="M4608 4669 c-28 -16 -88 -100 -81 -112 4 -6 23 8 48 36 l40 46 0 -56
c0 -36 4 -58 13 -60 8 -3 12 10 13 44 0 26 4 57 8 68 5 11 4 25 -1 33 -12 14
-17 15 -40 1z"/>
<path d="M6355 4656 c-16 -7 -37 -22 -46 -32 -18 -22 -41 -93 -33 -106 12 -19
24 -5 35 38 8 29 21 51 36 61 22 14 35 18 77 22 12 1 -14 31 -28 31 -6 -1 -24
-7 -41 -14z"/>
<path d="M11527 4598 c-37 -42 -33 -72 11 -76 37 -4 82 20 82 44 0 16 -43 64
-57 64 -5 0 -21 -14 -36 -32z m53 -38 c-8 -5 -24 -10 -35 -10 -19 1 -18 2 4
21 17 14 27 17 35 9 8 -8 7 -14 -4 -20z"/>
<path d="M11706 4595 c-23 -36 -20 -64 9 -77 28 -13 75 -2 82 19 3 8 -8 10
-36 6 -33 -5 -41 -3 -41 11 0 9 9 21 20 28 11 7 20 18 20 25 0 22 -37 14 -54
-12z"/>
<path d="M17975 4610 c3 -5 8 -10 11 -10 2 0 4 5 4 10 0 6 -5 10 -11 10 -5 0
-7 -4 -4 -10z"/>
<path d="M17935 4600 c-3 -5 1 -10 9 -10 9 0 16 5 16 10 0 6 -4 10 -9 10 -6 0
-13 -4 -16 -10z"/>
<path d="M14587 4593 c-4 -3 -7 -11 -7 -17 0 -6 5 -5 12 2 6 6 9 14 7 17 -3 3
-9 2 -12 -2z"/>
<path d="M15035 4589 c-4 -6 -5 -13 -2 -16 7 -7 27 6 27 18 0 12 -17 12 -25
-2z"/>
<path d="M6898 4561 c7 -4 10 -15 6 -24 -8 -22 24 -36 37 -16 15 24 5 42 -26
45 -17 2 -25 0 -17 -5z"/>
<path d="M7685 4550 c-27 -5 -72 -9 -98 -9 -34 -1 -47 -5 -45 -13 7 -20 44
-20 183 -4 145 16 191 37 80 35 -39 -1 -92 -5 -120 -9z"/>
<path d="M13818 4545 c-7 -7 3 -55 11 -55 3 0 14 6 23 14 16 12 16 14 -3 29
-21 19 -23 19 -31 12z"/>
<path d="M2580 4351 c0 -6 5 -13 10 -16 6 -3 10 1 10 9 0 9 -4 16 -10 16 -5 0
-10 -4 -10 -9z"/>
<path d="M2580 4303 c0 -17 -17 -95 -45 -208 -13 -49 -7 -74 14 -61 5 4 24 29
42 56 33 50 46 64 35 34 -10 -25 4 -84 20 -84 10 0 13 14 10 60 -3 73 -17 92
-46 65 -11 -10 -17 -21 -15 -25 3 -4 -1 -10 -9 -13 -12 -5 -12 0 -5 26 16 55
22 167 10 167 -6 0 -11 -8 -11 -17z"/>
<path d="M3030 4253 c1 -11 26 -43 34 -43 16 0 0 45 -16 48 -10 2 -18 0 -18
-5z"/>
<path d="M3547 4254 c-8 -8 1 -24 14 -24 5 0 9 7 9 15 0 15 -12 20 -23 9z"/>
<path d="M3129 4172 c-25 -26 -39 -49 -39 -66 0 -36 17 -32 34 8 15 36 50 66
78 66 20 0 22 -9 18 -97 -2 -50 1 -63 13 -63 10 0 16 18 20 67 8 85 -5 117
-51 121 -27 3 -40 -4 -73 -36z"/>
<path d="M2285 4161 c-62 -36 -83 -72 -60 -107 8 -13 25 -24 38 -25 43 -2 91
3 114 12 42 16 24 25 -37 19 -65 -6 -104 3 -98 22 3 7 24 28 48 46 34 26 50
32 72 28 30 -6 36 2 16 22 -18 18 -38 15 -93 -17z"/>
<path d="M2810 4162 c-25 -8 -80 -65 -80 -83 0 -28 24 -41 55 -29 15 6 28 9
29 8 10 -26 27 -44 45 -46 24 -4 29 13 6 22 -9 3 -15 19 -15 41 0 38 -13 44
-44 20 -11 -8 -27 -15 -35 -15 -21 1 43 60 64 60 8 0 15 4 15 9 0 12 -22 19
-40 13z"/>
<path d="M3507 4133 c-4 -3 -7 -15 -7 -25 0 -26 24 -17 28 10 3 21 -8 29 -21
15z"/>
<path d="M2987 4113 c-11 -10 -8 -73 3 -73 6 0 11 6 11 13 1 6 3 24 5 40 3 26
-5 34 -19 20z"/>
<path d="M6853 3993 c-13 -2 -23 -10 -23 -18 0 -10 19 -12 86 -7 81 5 86 4 81
-14 -7 -22 -23 -147 -32 -249 -4 -38 -15 -126 -26 -195 -12 -78 -22 -203 -25
-330 -3 -113 -12 -252 -21 -310 -9 -64 -15 -168 -14 -265 2 -187 -16 -393 -35
-415 -7 -9 -10 -21 -5 -28 4 -7 2 -36 -5 -65 -7 -29 -15 -68 -18 -88 -8 -48
-25 -52 -191 -54 -107 -1 -130 -3 -130 -15 0 -8 7 -14 15 -12 8 2 42 -2 76 -9
50 -10 82 -10 168 1 99 13 107 16 102 34 -3 11 2 54 11 95 8 42 17 105 19 141
2 36 6 79 9 95 3 17 10 134 15 260 5 127 14 255 20 285 6 30 14 165 20 300 5
135 16 290 25 345 15 97 57 444 59 495 1 25 0 25 -79 26 -44 1 -90 0 -102 -3z"/>
<path d="M2875 3980 c-3 -5 -20 -10 -36 -10 -17 0 -51 -9 -77 -19 -26 -11 -55
-22 -64 -25 -22 -7 -20 97 -19 -879 0 -786 6 -975 32 -1044 7 -20 14 -21 91
-18 86 2 168 19 168 35 0 4 -54 7 -119 6 l-119 -2 -11 106 c-5 58 -11 238 -13
400 -4 403 2 1310 9 1337 5 22 103 73 141 73 18 0 42 25 42 44 0 10 -18 7 -25
-4z"/>
<path d="M3960 3892 c-27 -8 -60 -45 -60 -68 0 -12 11 -46 25 -76 35 -75 34
-131 -5 -170 -28 -27 -34 -29 -78 -23 -38 5 -51 3 -62 -10 -19 -22 4 -37 45
-29 19 3 38 -1 50 -10 22 -17 23 -15 -45 -123 -19 -30 -34 -70 -37 -96 -5 -39
-2 -46 22 -65 33 -26 72 -28 122 -7 44 18 37 32 -8 16 -32 -11 -74 -6 -96 12
-29 22 -12 76 55 175 32 47 35 56 25 81 -9 26 -8 30 15 42 55 30 66 115 27
211 -31 77 -31 82 4 107 33 24 61 27 79 9 6 -6 15 -9 19 -5 20 21 -54 42 -97
29z"/>
<path d="M3228 3872 c-20 -4 -20 -4 -47 -172 -12 -71 -17 -128 -12 -133 5 -5
18 -4 29 2 11 6 36 11 54 11 38 0 83 20 77 35 -2 6 -7 9 -11 8 -3 -1 -32 -6
-63 -11 l-57 -9 6 51 c19 145 28 174 57 187 16 6 40 8 55 5 21 -6 25 -4 22 11
-3 14 -13 18 -48 18 -25 0 -53 -1 -62 -3z"/>
<path d="M4772 3793 c-1 -32 2 -81 8 -109 13 -62 -3 -112 -44 -140 -38 -24
-43 -11 -18 41 15 31 28 45 42 45 11 0 20 5 20 10 0 6 -14 10 -30 10 -23 0
-35 -7 -50 -32 -30 -49 -36 -96 -16 -116 10 -11 19 -13 24 -7 4 6 20 17 36 25
61 32 71 59 70 190 -2 120 -6 140 -27 140 -8 0 -14 -20 -15 -57z"/>
<path d="M7280 3841 c0 -5 22 -17 48 -25 32 -11 70 -37 114 -79 63 -59 68 -66
97 -160 17 -53 31 -111 31 -127 0 -16 -28 -98 -62 -182 -52 -127 -62 -163 -62
-212 -1 -56 1 -60 38 -92 l39 -34 -39 -34 -39 -34 -1 -238 c-1 -201 -4 -247
-18 -289 -45 -126 -185 -234 -250 -192 -17 12 -26 13 -35 4 -17 -17 -14 -25
21 -43 61 -32 155 8 234 99 76 88 96 187 89 447 -2 91 -2 175 1 187 7 26 65
63 100 63 41 0 27 28 -25 51 -71 30 -86 51 -85 113 1 36 15 85 49 166 90 218
89 208 44 354 -30 97 -34 104 -98 166 -36 36 -83 73 -103 83 -39 18 -88 23
-88 8z"/>
<path d="M6205 3772 c-22 -21 -59 -46 -83 -56 -45 -20 -69 -42 -58 -53 8 -8
92 33 116 57 46 44 46 36 -3 -97 -42 -114 -54 -138 -71 -140 -12 -1 -51 -3
-88 -4 -47 -2 -68 -7 -68 -16 0 -7 12 -15 28 -19 15 -3 32 -7 39 -9 6 -2 37 3
70 10 32 8 74 14 94 15 50 0 99 11 99 21 0 5 -27 9 -59 9 l-60 0 9 28 c4 15
27 75 49 135 39 101 51 157 34 157 -5 0 -26 -17 -48 -38z"/>
<path d="M4430 3790 c0 -5 4 -10 9 -10 6 0 13 5 16 10 3 6 -1 10 -9 10 -9 0
-16 -4 -16 -10z"/>
<path d="M4978 3670 c-14 -10 -31 -33 -38 -50 -8 -18 -20 -30 -31 -30 -11 0
-19 -4 -19 -10 0 -5 7 -10 15 -10 9 0 15 -6 13 -12 -10 -50 32 -88 97 -88 50
0 51 16 2 23 -25 4 -48 14 -59 27 -17 21 -15 50 5 50 5 0 25 11 44 26 34 26
43 60 21 82 -16 16 -21 15 -50 -8z m32 -25 c0 -8 -10 -19 -21 -26 -22 -11 -21
-3 4 29 12 16 17 15 17 -3z"/>
<path d="M5667 3684 c-13 -13 -7 -44 8 -44 8 0 15 7 15 15 0 8 0 18 1 22 1 10
-16 15 -24 7z"/>
<path d="M4538 3637 c-36 -29 -79 -88 -72 -98 10 -16 21 -9 47 29 15 20 35 42
46 49 18 11 19 10 10 -20 -9 -32 -4 -67 10 -67 9 0 32 110 25 121 -9 16 -38
10 -66 -14z"/>
<path d="M5195 3611 c-3 -10 0 -31 7 -45 11 -25 9 -29 -18 -51 -36 -29 -28
-41 13 -20 28 14 34 13 88 -10 54 -24 94 -27 81 -6 -4 5 -29 17 -56 26 -53 17
-62 30 -31 40 10 3 38 24 62 46 l44 40 -37 -15 c-20 -8 -54 -26 -75 -40 l-38
-26 -9 40 c-10 43 -21 51 -31 21z"/>
<path d="M4320 3583 c-30 -51 -32 -97 -4 -101 24 -3 77 35 68 50 -4 5 -15 1
-28 -11 -12 -12 -26 -21 -30 -21 -11 0 4 61 20 85 16 23 18 35 5 35 -5 0 -19
-17 -31 -37z"/>
<path d="M5640 3561 c0 -32 13 -41 26 -19 4 6 2 14 -4 16 -7 2 -10 8 -7 12 3
5 1 11 -5 15 -6 4 -10 -6 -10 -24z"/>
<path d="M6510 3468 c0 -54 -16 -85 -55 -106 -36 -20 -47 -34 -36 -45 15 -15
92 42 107 80 17 40 15 104 -3 111 -9 2 -13 -10 -13 -40z"/>
<path d="M16555 3463 c-10 -41 -99 -242 -145 -329 -22 -42 -40 -86 -40 -99 0
-21 4 -22 63 -23 52 -1 68 3 101 26 47 32 52 44 31 66 -20 20 -71 21 -106 2
-26 -13 -27 -13 -19 13 4 14 21 53 38 86 45 90 112 250 112 269 0 27 -27 18
-35 -11z m-43 -393 c-18 -11 -42 -20 -55 -20 l-22 1 24 19 c13 11 37 20 55 20
l31 0 -33 -20z"/>
<path d="M14695 3467 c-4 -8 4 -43 15 -78 37 -109 14 -196 -74 -277 -41 -38
-76 -54 -76 -34 0 16 40 72 61 82 15 9 18 15 10 23 -29 29 -108 -70 -95 -120
13 -47 61 -34 131 37 65 64 88 121 87 210 -1 81 -16 141 -39 160 -12 10 -16 9
-20 -3z"/>
<path d="M11307 3434 c-8 -16 -31 -90 -52 -164 -22 -80 -46 -145 -59 -159 -13
-15 -17 -25 -10 -28 8 -3 9 -15 2 -43 -11 -41 -6 -70 12 -70 5 0 10 9 10 20 0
11 5 40 12 65 14 51 35 63 83 45 41 -16 54 -38 55 -97 0 -56 13 -75 29 -44 15
27 14 91 -2 120 -18 37 -62 64 -99 63 -31 -1 -32 0 -13 14 42 31 175 168 175
181 0 20 -18 15 -25 -7 -4 -11 -10 -18 -15 -15 -12 7 -33 -23 -24 -36 5 -8 3
-9 -5 -4 -8 5 -33 -12 -68 -46 -31 -30 -53 -46 -50 -36 4 9 18 61 33 114 14
53 31 105 37 115 9 13 9 20 0 29 -8 8 -15 4 -26 -17z"/>
<path d="M16796 3403 c-10 -32 -43 -116 -73 -187 -59 -139 -76 -202 -52 -194
8 3 16 13 18 24 1 10 29 80 61 154 62 146 93 237 84 251 -11 19 -21 7 -38 -48z"/>
<path d="M17397 3423 c-4 -3 -7 -22 -7 -40 0 -19 -13 -60 -28 -91 -40 -80 -79
-219 -65 -233 10 -10 17 3 37 65 4 12 13 17 26 13 13 -3 20 0 20 9 0 18 48 30
69 17 24 -15 44 -62 49 -115 5 -52 18 -63 28 -23 16 63 -37 169 -89 177 -17 3
-13 8 27 38 101 74 165 130 171 150 10 33 0 34 -31 4 -16 -14 -63 -56 -104
-93 -41 -36 -91 -82 -112 -102 -39 -38 -48 -31 -24 18 41 84 56 128 56 168 0
42 -7 54 -23 38z"/>
<path d="M10544 3403 c-3 -10 -10 -29 -14 -43 -5 -14 -14 -45 -20 -70 -6 -25
-27 -83 -46 -129 -26 -61 -33 -86 -25 -94 9 -9 17 -5 34 15 20 23 56 48 71 48
13 0 5 -51 -14 -94 -24 -58 -58 -76 -95 -52 -15 10 -25 26 -25 41 0 16 -6 25
-15 25 -10 0 -15 -10 -15 -29 0 -35 49 -81 85 -81 54 0 110 85 114 173 1 35
-35 55 -68 38 -25 -14 -26 -5 -4 39 16 33 50 148 60 203 6 30 -14 38 -23 10z"/>
<path d="M14487 3404 c-4 -4 -7 -40 -7 -79 0 -40 -3 -93 -6 -118 -6 -43 -9
-47 -48 -59 -35 -11 -43 -19 -56 -56 -23 -68 16 -107 60 -60 59 62 93 179 88
297 -3 68 -13 93 -31 75z m-44 -305 c-24 -41 -53 -67 -53 -48 1 44 19 66 68
78 2 1 -5 -13 -15 -30z"/>
<path d="M6396 3372 c-2 -4 -1 -14 3 -21 6 -10 10 -9 14 3 6 16 -8 32 -17 18z"/>
<path d="M10727 3313 c-10 -32 -20 -65 -21 -73 -1 -8 -10 -32 -19 -54 -9 -21
-17 -42 -17 -47 0 -4 -9 -23 -20 -42 -28 -48 -59 -138 -53 -154 9 -22 31 -14
31 11 0 13 16 61 37 107 53 120 76 189 78 226 1 18 5 33 10 33 4 0 7 11 7 25
0 42 -14 28 -33 -32z"/>
<path d="M8121 3275 c-11 -36 -21 -73 -21 -83 0 -9 -11 -61 -24 -115 -16 -66
-20 -100 -13 -104 6 -4 16 2 21 12 6 10 20 29 31 42 l21 25 -1 -59 c0 -53 2
-58 23 -61 12 -2 22 1 22 7 0 6 -5 11 -11 11 -8 0 -9 20 -4 65 5 54 4 66 -9
71 -9 3 -23 1 -31 -6 -9 -7 -15 -8 -15 -2 0 24 41 204 50 222 14 26 13 40 -4
40 -7 0 -22 -27 -35 -65z"/>
<path d="M7984 3258 c-3 -12 -22 -45 -40 -74 -19 -29 -34 -57 -34 -63 0 -5
-12 -9 -26 -8 -33 2 -44 -20 -12 -25 20 -3 23 -9 25 -57 4 -75 36 -108 94 -96
38 9 37 24 -2 23 -37 -1 -57 17 -60 57 -4 62 -2 66 36 59 43 -8 47 9 5 26 -16
7 -30 15 -30 19 0 3 16 29 35 58 41 62 54 103 32 103 -9 0 -19 -10 -23 -22z"/>
<path d="M17705 3231 c-49 -10 -46 -44 9 -83 51 -36 59 -64 21 -74 -16 -4 -36
1 -60 16 -26 16 -40 19 -47 12 -22 -22 49 -72 101 -72 28 0 61 38 61 71 0 26
-17 45 -66 75 -26 16 -10 29 37 29 39 0 54 17 23 29 -18 7 -37 6 -79 -3z"/>
<path d="M12272 3197 c-50 -52 -41 -79 10 -30 15 14 30 25 32 22 2 -2 -13 -33
-34 -69 -42 -70 -47 -91 -27 -108 9 -8 29 2 77 38 36 27 66 47 67 46 2 -1 4
-18 7 -37 4 -43 29 -49 63 -17 33 31 53 70 53 106 0 15 6 34 13 41 10 10 7 12
-13 9 -21 -3 -25 -9 -28 -43 -2 -24 -14 -54 -30 -75 l-27 -35 -5 40 c-7 53
-28 56 -90 10 l-49 -36 41 70 c33 59 38 74 28 86 -20 24 -54 17 -88 -18z"/>
<path d="M12652 3207 c-17 -12 -42 -42 -54 -66 -19 -40 -20 -47 -7 -70 8 -14
27 -30 41 -35 37 -13 142 4 146 24 2 12 -9 14 -66 12 -89 -4 -105 10 -71 65
23 38 47 62 62 63 16 0 5 -24 -23 -50 -31 -29 -37 -40 -21 -40 15 0 81 66 81
81 0 20 -20 39 -39 38 -9 0 -31 -10 -49 -22z"/>
<path d="M13755 3208 c-11 -6 -30 -20 -42 -31 -20 -18 -23 -18 -23 -4 0 31
-17 17 -29 -24 -7 -23 -15 -47 -18 -55 -12 -31 26 -11 69 36 52 57 75 65 62
23 -12 -42 -11 -96 2 -100 12 -4 34 69 34 114 0 26 -15 53 -29 53 -4 0 -15 -6
-26 -12z"/>
<path d="M13204 3176 c-58 -58 -40 -122 41 -145 37 -10 65 -6 65 9 0 5 -15 12
-32 15 -39 9 -68 32 -68 55 0 31 43 60 88 60 50 0 54 12 9 28 -51 18 -66 15
-103 -22z"/>
<path d="M15677 3180 c-14 -16 -29 -40 -32 -52 -4 -13 -14 -31 -22 -40 -15
-17 -9 -42 9 -36 5 2 24 30 41 63 30 55 35 60 65 59 37 -2 38 -1 16 20 -23 24
-49 19 -77 -14z"/>
<path d="M8897 3194 c-12 -12 4 -24 31 -24 26 1 26 1 8 15 -22 17 -30 18 -39
9z"/>
<path d="M15185 3176 c-22 -17 -35 -22 -47 -15 -18 10 -34 -4 -23 -21 3 -5 -8
-36 -25 -69 -16 -33 -30 -65 -30 -71 0 -23 21 -7 54 43 50 75 93 123 101 115
5 -4 -2 -32 -13 -62 -30 -78 -11 -80 58 -7 68 70 87 78 65 25 -21 -51 -19 -74
6 -74 15 0 19 5 15 16 -3 8 1 31 9 51 20 47 19 60 -4 72 -15 8 -27 4 -59 -19
l-41 -29 -3 32 c-4 40 -24 44 -63 13z"/>
<path d="M15851 3162 c-62 -65 -70 -145 -17 -170 29 -13 111 1 136 23 31 28
24 37 -16 20 -47 -19 -88 -19 -108 1 -25 25 -19 37 31 64 56 30 73 53 57 78
-19 30 -44 25 -83 -16z m60 -15 c-5 -7 -24 -20 -41 -31 l-32 -18 17 26 c20 29
45 47 58 39 4 -3 4 -10 -2 -16z"/>
<path d="M13463 3170 c-35 -21 -57 -54 -50 -74 7 -17 48 -25 75 -15 17 6 22 5
22 -7 0 -25 19 -54 33 -48 8 3 11 19 9 47 -5 65 -8 70 -33 56 -12 -6 -35 -15
-50 -19 -26 -8 -28 -7 -19 10 13 24 41 40 69 40 25 0 28 15 5 24 -23 9 -26 8
-61 -14z"/>
<path d="M14131 3152 c-29 -14 -56 -56 -46 -73 9 -14 56 -11 88 5 26 14 27 14
27 -13 0 -48 53 -79 80 -46 11 13 8 15 -14 15 -15 0 -28 6 -30 13 -2 6 -8 26
-13 44 -8 23 -8 33 1 36 19 7 -12 32 -40 32 -14 1 -38 -5 -53 -13z m69 -17 c0
-8 -62 -37 -67 -31 -3 3 10 12 28 20 42 18 39 17 39 11z"/>
<path d="M15472 3162 c-26 -8 -62 -58 -62 -87 0 -44 46 -58 100 -30 33 17 50
43 50 77 0 43 -29 56 -88 40z m58 -39 c0 -24 -10 -38 -37 -52 -52 -27 -69 -4
-32 43 24 30 69 36 69 9z"/>
<path d="M17046 3153 c-47 -24 -44 -73 5 -98 36 -19 53 -19 69 0 11 13 8 15
-18 15 -21 0 -35 7 -42 21 -14 26 -14 27 48 41 56 14 66 25 30 32 -35 7 -65 3
-92 -11z"/>
<path d="M8307 3154 c-3 -3 -3 -13 0 -21 5 -12 7 -12 14 -1 15 23 4 40 -14 22z"/>
<path d="M9869 3131 c-16 -7 -27 -16 -25 -19 3 -2 -3 -12 -14 -21 -10 -9 -22
-33 -26 -53 -10 -58 17 -48 41 14 17 43 26 53 54 63 19 6 36 16 39 23 5 15
-33 11 -69 -7z"/>
<path d="M16846 3131 c-10 -11 -16 -31 -14 -48 2 -22 9 -29 31 -31 34 -4 67
22 67 53 0 45 -52 61 -84 26z m54 -32 c0 -12 -29 -24 -37 -16 -3 4 -3 13 0 21
6 16 37 11 37 -5z"/>
<path d="M8973 3115 c-40 -17 -41 -30 -8 -65 16 -17 23 -33 19 -43 -7 -20 -40
-23 -47 -4 -3 9 -10 7 -23 -6 -19 -18 -19 -19 0 -33 31 -23 72 -17 95 12 27
35 26 59 -3 88 l-23 24 23 11 c25 11 33 31 12 31 -7 -1 -28 -7 -45 -15z"/>
<path d="M9382 3113 c-7 -3 -19 -18 -27 -33 -27 -53 -14 -100 28 -100 24 0 77
53 77 77 0 37 -45 69 -78 56z m45 -50 c5 -13 -31 -53 -47 -53 -13 0 -13 26 1
51 11 21 40 22 46 2z"/>
<path d="M9579 3063 c-24 -32 -51 -66 -61 -76 -10 -10 -18 -22 -18 -27 0 -17
26 -11 45 10 16 18 19 18 30 3 15 -20 56 -12 85 17 17 17 23 18 40 8 17 -11
22 -10 30 2 14 22 12 33 -6 26 -13 -5 -15 -1 -10 17 10 42 -6 39 -56 -10 -26
-26 -50 -44 -53 -41 -4 3 5 29 20 57 24 48 26 71 6 71 -5 0 -28 -26 -52 -57z"/>
<path d="M10761 3099 c-20 -8 -22 -14 -17 -40 3 -17 1 -40 -5 -51 -9 -16 -7
-24 9 -40 23 -24 45 -16 86 33 56 67 9 131 -73 98z m69 -43 c0 -17 -38 -66
-51 -66 -18 0 -9 45 14 66 23 22 37 22 37 0z"/>
<path d="M8820 3054 c-23 -52 -24 -60 -10 -69 6 -4 21 18 35 50 29 66 29 65
10 65 -9 0 -24 -20 -35 -46z"/>
<path d="M10380 3075 c0 -8 5 -15 10 -15 6 0 10 7 10 15 0 8 -4 15 -10 15 -5
0 -10 -7 -10 -15z"/>
<path d="M10946 3071 c-9 -10 -19 -34 -22 -52 -8 -49 20 -73 75 -64 50 8 54
27 6 23 -19 -1 -40 3 -46 9 -18 18 -2 62 26 75 14 6 25 15 25 20 0 16 -47 8
-64 -11z"/>
<path d="M8382 3068 c-7 -7 -12 -21 -12 -32 0 -12 -7 -34 -15 -49 -13 -25 -13
-29 6 -48 27 -27 60 -21 72 14 8 24 5 33 -14 53 -20 21 -21 28 -11 44 7 11 12
22 12 25 0 10 -26 5 -38 -7z m28 -100 c0 -18 -23 -2 -32 22 -9 23 -8 23 12 5
11 -10 20 -22 20 -27z"/>
<path d="M8272 3042 c-17 -11 -32 -66 -21 -83 10 -16 13 -13 26 26 6 17 14 38
18 48 8 18 -2 22 -23 9z"/>
<path d="M11719 3002 c-1 -7 -2 -15 -4 -19 -1 -5 -5 -21 -10 -38 -11 -45 -33
-75 -54 -75 -11 0 -21 8 -23 18 -3 14 -6 13 -17 -7 -12 -21 -11 -26 5 -38 27
-20 43 -16 78 20 36 35 58 119 37 140 -8 8 -11 8 -12 -1z"/>
<path d="M4525 2772 c-54 -10 -95 -24 -95 -32 0 -9 95 -4 111 5 5 4 0 -9 -10
-27 -37 -63 -53 -145 -52 -284 l0 -131 -62 -6 c-88 -9 -157 -34 -157 -58 0
-23 0 -23 78 1 35 11 83 20 106 20 69 0 75 13 74 170 -1 126 1 141 31 226 17
50 31 96 31 102 0 12 -28 19 -55 14z"/>
<path d="M4042 2718 c-20 -20 -13 -27 22 -21 27 4 39 0 65 -24 27 -24 31 -33
26 -56 -4 -16 -23 -40 -43 -55 -88 -67 -104 -102 -57 -124 l24 -11 -19 -25
c-15 -18 -20 -40 -20 -81 0 -95 -52 -163 -113 -147 -15 3 -27 13 -27 21 0 7
-5 17 -10 20 -7 4 -9 -7 -7 -30 5 -42 19 -55 60 -55 79 0 131 73 128 178 -2
69 7 88 49 104 25 9 25 10 5 24 -11 8 -30 17 -42 21 -13 3 -23 9 -23 14 0 5
24 27 53 50 87 68 98 118 37 173 -42 37 -85 47 -108 24z"/>
<path d="M4856 2416 c-4 -25 -20 -63 -37 -86 -41 -56 -24 -76 19 -24 31 37 59
124 47 144 -13 21 -23 9 -29 -34z"/>
<path d="M14440 1923 c-13 -49 -36 -124 -52 -169 -26 -73 -32 -81 -63 -93 -43
-15 -47 -36 -6 -28 l30 6 -25 -71 c-25 -75 -30 -108 -15 -108 9 0 16 16 52
123 15 44 28 67 38 67 9 0 26 3 39 6 21 6 20 3 -15 -63 -25 -47 -34 -75 -29
-88 6 -16 16 -9 75 55 38 41 72 72 76 68 5 -4 -4 -34 -18 -65 -30 -68 -36 -95
-22 -100 13 -4 75 137 75 171 0 41 -43 41 -91 0 -9 -8 8 34 37 93 30 59 56
128 59 153 3 25 8 55 11 68 3 14 0 22 -10 22 -17 0 -26 -21 -26 -62 0 -30 -50
-162 -79 -208 -12 -19 -24 -25 -52 -25 l-36 0 19 55 c38 111 79 261 73 270
-13 21 -22 7 -45 -77z"/>
<path d="M13767 1953 c-2 -5 -8 -26 -12 -48 -4 -22 -15 -58 -25 -80 -93 -204
-84 -190 -125 -200 -49 -13 -63 -41 -15 -32 28 6 31 5 25 -11 -48 -125 -21
-182 75 -153 49 15 64 43 17 34 -79 -16 -93 2 -62 83 15 40 20 44 50 44 18 0
40 3 49 6 24 9 19 26 -6 24 -60 -5 -60 -5 -19 83 54 117 87 257 62 257 -6 0
-12 -3 -14 -7z"/>
<path d="M12696 1928 c-2 -7 -11 -44 -20 -81 -34 -149 -118 -307 -163 -307
-21 0 -15 17 17 53 36 41 37 49 8 45 -14 -2 -31 -18 -45 -43 -27 -47 -28 -55
-9 -81 14 -19 15 -19 50 0 20 11 47 33 60 50 66 88 155 376 116 376 -6 0 -12
-6 -14 -12z"/>
<path d="M5187 1898 c4 -18 8 -67 7 -110 0 -65 -5 -86 -32 -140 -18 -34 -45
-79 -62 -98 -25 -30 -30 -32 -30 -15 0 26 27 65 46 65 16 0 19 16 4 25 -19 12
-50 -6 -66 -37 -17 -32 -12 -92 7 -104 11 -7 80 63 122 123 48 70 70 202 46
286 -7 27 -15 37 -30 37 -18 0 -20 -4 -12 -32z"/>
<path d="M7051 1848 c-11 -35 -25 -85 -31 -113 -6 -27 -22 -91 -36 -142 -27
-98 -24 -125 15 -138 52 -16 161 48 161 94 0 29 -35 61 -65 61 -15 0 -38 -6
-53 -14 l-27 -14 28 111 c15 62 25 120 23 130 -2 9 0 17 4 17 10 0 30 56 23
64 -14 14 -23 2 -42 -56z m73 -291 c9 -15 6 -21 -14 -37 -27 -20 -90 -32 -104
-19 -5 5 -2 19 8 34 30 45 89 57 110 22z"/>
<path d="M12490 1878 c-5 -13 -19 -60 -30 -105 -29 -118 -36 -132 -57 -127
-45 12 -107 -81 -83 -126 12 -22 31 -25 61 -10 31 17 94 156 123 269 14 57 23
107 20 112 -9 16 -24 10 -34 -13z m-87 -289 c-34 -58 -74 -78 -58 -29 8 25 44
60 62 60 11 0 10 -7 -4 -31z"/>
<path d="M5033 1878 c-6 -7 -13 -49 -15 -93 -6 -108 -65 -234 -110 -235 -18 0
-6 34 22 62 28 27 38 48 25 48 -21 0 -64 -34 -74 -59 -33 -77 18 -107 85 -49
56 49 86 125 92 231 4 88 -4 121 -25 95z"/>
<path d="M7346 1837 c-59 -131 -92 -283 -71 -317 12 -19 23 6 23 52 1 46 22
123 63 225 32 80 34 93 18 93 -5 0 -21 -24 -33 -53z"/>
<path d="M7930 1854 c-6 -14 -10 -31 -10 -38 0 -8 -16 -65 -36 -127 -51 -161
-62 -203 -57 -212 9 -14 33 15 33 39 0 13 9 33 20 44 11 11 20 27 20 35 0 20
13 19 34 -4 14 -16 16 -30 11 -74 -5 -37 -3 -57 5 -62 16 -10 17 -7 25 65 6
61 5 67 -19 93 l-26 28 62 65 c34 36 77 74 96 86 21 13 30 24 24 30 -22 22
-150 -78 -138 -107 3 -10 2 -13 -5 -9 -6 3 -21 -4 -34 -16 l-24 -22 18 59 c25
83 35 153 21 153 -6 0 -15 -12 -20 -26z"/>
<path d="M11296 1858 c-18 -62 -58 -160 -99 -242 -46 -95 -48 -101 -30 -114
31 -23 111 -8 147 28 25 25 29 33 20 48 -9 12 -24 17 -58 15 -41 -1 -45 1 -36
16 15 30 80 225 80 244 0 19 -19 23 -24 5z m3 -304 c-17 -21 -55 -35 -74 -28
-30 12 15 42 64 43 20 1 22 -1 10 -15z"/>
<path d="M10715 1778 c-23 -48 -39 -99 -39 -120 0 -22 -5 -38 -12 -38 -12 0
-23 -30 -31 -87 -4 -31 14 -49 21 -20 10 41 73 221 92 266 13 29 24 60 24 67
0 33 -20 8 -55 -68z"/>
<path d="M2544 1787 c-1 -75 -25 -158 -70 -251 -54 -112 -42 -130 26 -40 43
54 75 84 94 84 8 0 5 -43 -10 -122 -5 -30 -3 -38 8 -38 16 0 38 78 38 136 0
46 -36 65 -75 40 -14 -9 -25 -15 -25 -14 0 2 9 30 19 63 26 85 35 159 21 184
-18 35 -25 24 -26 -42z"/>
<path d="M10840 1789 c-87 -170 -126 -319 -85 -319 11 0 15 11 15 39 0 49 48
182 106 293 16 31 18 48 4 48 -5 0 -24 -27 -40 -61z"/>
<path d="M2153 1792 c-59 -47 -117 -118 -108 -132 10 -17 19 -12 42 25 26 39
117 115 139 115 8 0 14 -5 14 -11 0 -13 -75 -168 -115 -238 -38 -67 -16 -76
43 -18 26 26 50 47 52 47 3 0 4 -40 2 -88 -3 -69 0 -91 12 -101 11 -9 20 -9
34 -2 29 16 80 100 103 172 11 35 24 73 29 84 20 45 28 114 15 125 -19 16 -32
-7 -40 -69 -10 -76 -49 -185 -87 -245 l-33 -51 -5 70 c-3 39 -2 77 2 85 16 36
-32 66 -61 38 -7 -7 7 25 30 71 24 48 42 100 43 120 1 33 -1 36 -30 39 -24 2
-43 -6 -81 -36z"/>
<path d="M15546 1822 c-2 -4 -16 -50 -31 -102 -14 -51 -37 -121 -51 -154 -42
-103 -26 -114 47 -33 l48 52 -6 -52 c-5 -43 -3 -53 9 -53 14 0 28 55 28 111 0
27 -38 24 -68 -3 l-23 -23 11 30 c6 16 21 67 34 114 13 47 27 94 31 104 5 12
2 17 -8 17 -9 0 -18 -4 -21 -8z"/>
<path d="M12800 1771 c0 -6 5 -13 10 -16 6 -3 10 1 10 9 0 9 -4 16 -10 16 -5
0 -10 -4 -10 -9z"/>
<path d="M10602 1754 c4 -21 22 -23 26 -1 2 10 -3 17 -13 17 -10 0 -15 -6 -13
-16z"/>
<path d="M16015 1720 c-8 -12 20 -24 35 -15 6 3 8 11 5 16 -8 12 -32 12 -40
-1z"/>
<path d="M10200 1700 c-35 -10 -110 -51 -110 -59 0 -19 16 -18 61 5 27 13 49
22 49 19 0 -3 -14 -33 -31 -66 -34 -67 -36 -106 -5 -101 11 2 42 19 70 38 50
34 89 43 101 24 3 -5 15 -10 26 -10 20 0 31 20 42 78 6 30 5 33 -16 30 -18 -2
-21 -8 -19 -35 3 -31 -11 -52 -23 -33 -12 20 -72 10 -111 -18 -60 -44 -65 -45
-56 -25 4 10 20 41 35 70 39 76 36 97 -13 83z"/>
<path d="M9498 1673 c-9 -10 -26 -38 -38 -63 -13 -24 -50 -73 -83 -107 -33
-35 -58 -66 -55 -69 11 -10 66 25 89 57 15 21 24 27 29 19 10 -15 64 -4 81 16
7 9 33 29 57 46 37 25 42 27 33 10 -16 -30 -13 -78 5 -97 23 -22 40 -4 23 23
-10 17 -10 28 1 64 7 23 17 47 22 53 10 11 11 45 1 45 -5 0 -48 -32 -98 -71
-51 -40 -91 -66 -93 -59 -2 6 10 39 26 73 31 61 30 94 0 60z"/>
<path d="M11465 1676 c-31 -21 -68 -103 -61 -132 10 -40 90 -61 103 -26 4 9
13 22 21 28 11 8 12 13 4 18 -6 4 -21 -3 -33 -15 -14 -14 -28 -19 -45 -15 -31
8 -31 29 2 47 35 18 74 66 74 90 0 23 -36 26 -65 5z m45 -21 c0 -8 -54 -54
-59 -50 -6 6 39 55 51 55 4 0 8 -2 8 -5z"/>
<path d="M6296 1659 c-62 -49 -71 -128 -19 -169 22 -17 35 -20 72 -15 51 7 91
23 91 37 0 5 -12 7 -27 4 -105 -22 -135 -13 -138 42 -2 41 46 104 66 85 9 -9
4 -17 -27 -35 -30 -18 -35 -24 -20 -26 22 -5 70 29 74 52 4 20 -15 46 -33 46
-7 0 -24 -9 -39 -21z"/>
<path d="M9153 1668 c-5 -7 -22 -43 -37 -80 -16 -37 -32 -66 -36 -63 -5 3 -12
20 -15 38 -10 42 -43 107 -55 107 -6 0 -10 -3 -10 -7 0 -11 33 -97 39 -103 4
-3 7 -12 8 -20 0 -8 4 -28 8 -45 5 -23 1 -39 -17 -65 -72 -106 -120 -229 -85
-218 22 8 227 421 227 459 0 13 -16 11 -27 -3z"/>
<path d="M5776 1636 l-45 -35 -3 27 c-7 64 -92 21 -135 -67 -13 -25 -23 -52
-23 -58 0 -24 21 -13 38 18 30 54 72 109 83 109 8 0 10 -14 6 -40 -3 -22 -1
-42 3 -45 5 -3 35 17 67 45 61 52 81 62 67 33 -4 -10 -8 -38 -8 -63 -1 -34 3
-45 14 -45 10 0 14 8 12 28 -2 15 2 43 8 63 9 27 9 38 0 49 -18 22 -34 19 -84
-19z"/>
<path d="M6109 1631 c-28 -30 -33 -44 -34 -86 0 -57 17 -73 25 -23 3 18 14 50
25 71 16 32 23 37 53 37 28 0 32 2 23 14 -25 30 -58 25 -92 -13z"/>
<path d="M7436 1646 c-31 -29 -46 -59 -46 -93 0 -63 51 -70 110 -17 43 39 50
66 25 101 -21 31 -62 35 -89 9z m48 -26 c34 -13 33 -33 -5 -64 -54 -46 -72
-29 -47 41 13 36 15 37 52 23z"/>
<path d="M8200 1657 c-47 -16 -48 -35 -4 -81 36 -38 36 -38 14 -53 -27 -19
-58 -10 -40 12 19 23 3 31 -20 10 -28 -25 -25 -53 6 -65 36 -14 49 -13 72 8
36 30 36 57 2 96 l-32 36 24 9 c12 5 31 12 41 15 9 3 17 10 17 16 0 13 -36 12
-80 -3z"/>
<path d="M14707 1640 c-39 -34 -67 -85 -67 -124 0 -33 32 -66 64 -66 37 0 116
37 116 55 0 19 -18 19 -65 -1 -43 -17 -85 -12 -85 12 0 45 62 124 96 124 30 0
12 -32 -26 -48 -41 -18 -54 -42 -21 -42 10 0 33 10 52 23 28 19 34 29 34 57 0
32 -3 35 -32 38 -23 2 -40 -5 -66 -28z"/>
<path d="M4643 1653 c-26 -5 -73 -57 -73 -82 0 -40 48 -53 99 -26 29 14 29 14
35 -19 4 -22 13 -36 26 -39 25 -6 36 9 19 29 -9 11 -9 23 0 55 20 67 5 74 -66
29 -50 -32 -76 -38 -67 -16 6 16 47 36 74 36 26 0 26 16 1 30 -11 5 -21 9 -23
9 -2 -1 -13 -4 -25 -6z"/>
<path d="M12059 1629 c-38 -41 -40 -94 -5 -110 20 -10 33 -7 79 18 51 28 56
29 60 12 5 -20 33 -36 44 -25 3 3 1 11 -5 18 -5 7 -12 24 -14 38 -4 30 -24 29
-77 -4 -81 -51 -106 -39 -51 24 29 34 30 34 36 13 8 -30 24 -29 24 0 0 54 -48
62 -91 16z"/>
<path d="M17542 1648 c-7 -7 -12 -16 -12 -20 0 -4 -20 -28 -44 -54 l-44 -46
-17 31 c-8 17 -14 39 -13 48 5 27 -21 26 -28 -1 -4 -18 2 -39 19 -71 l26 -46
-73 -113 c-90 -138 -106 -168 -106 -200 0 -34 24 -24 41 17 7 17 31 58 52 91
22 34 55 84 73 111 17 28 49 76 70 109 66 100 84 131 84 144 0 15 -12 16 -28
0z"/>
<path d="M2769 1619 c-61 -65 -44 -143 30 -137 27 2 36 7 35 21 -1 9 2 17 7
17 5 0 9 5 9 10 0 16 -30 12 -36 -5 -6 -15 -44 -22 -44 -7 0 4 18 20 40 36 45
33 58 60 40 81 -20 24 -50 17 -81 -16z m50 -21 c-11 -24 -59 -65 -59 -51 0 19
41 73 55 73 12 0 12 -5 4 -22z"/>
<path d="M5961 1615 c-36 -41 -40 -83 -11 -110 22 -20 59 -15 84 11 17 16 22
90 8 110 -19 29 -49 25 -81 -11z m44 -72 c-4 -16 -12 -23 -23 -21 -26 5 -26
41 0 73 l23 30 3 -29 c2 -16 1 -39 -3 -53z"/>
<path d="M9284 1617 c-6 -12 -23 -44 -39 -70 -46 -81 -10 -133 61 -85 41 28
54 60 42 113 -15 66 -43 85 -64 42z m36 -77 c0 -27 -38 -70 -62 -70 -14 0 0
49 23 82 24 33 39 28 39 -12z"/>
<path d="M12856 1612 c-29 -28 -61 -92 -47 -92 5 0 25 20 45 45 50 60 64 59
68 -7 4 -73 28 -77 28 -5 0 31 -3 62 -6 71 -10 26 -57 19 -88 -12z"/>
<path d="M13122 1628 c-6 -7 -14 -26 -17 -41 -8 -30 -36 -50 -63 -45 -14 3
-11 10 16 35 37 35 39 43 15 43 -26 -1 -51 -22 -63 -55 -15 -40 3 -59 52 -52
33 4 38 3 34 -11 -2 -10 -8 -33 -11 -52 -4 -19 -16 -58 -26 -86 -18 -47 -21
-50 -48 -46 -41 6 -96 -15 -114 -41 -25 -38 -50 -133 -43 -161 5 -20 12 -26
35 -26 32 0 111 76 152 148 17 29 31 42 46 42 29 0 38 16 14 23 -19 5 -19 7 5
83 14 42 27 98 30 123 3 25 10 56 16 67 19 40 -5 82 -30 52z m-102 -347 c0
-16 -89 -130 -111 -142 -21 -11 -22 -10 -17 28 7 53 35 111 56 116 31 8 72 7
72 -2z"/>
<path d="M15234 1621 c-65 -40 -86 -114 -42 -145 30 -22 151 -22 168 -1 7 8 9
15 4 15 -58 2 -137 11 -144 15 -6 4 -10 14 -10 24 0 36 91 94 114 71 15 -15
26 -12 26 9 0 36 -66 42 -116 12z"/>
<path d="M16835 1618 c-34 -27 -55 -75 -55 -129 0 -50 23 -50 28 1 4 42 57
121 76 114 22 -9 28 14 7 25 -26 14 -24 14 -56 -11z"/>
<path d="M3582 1598 c-11 -18 -27 -49 -34 -68 l-15 -35 -17 33 c-10 19 -18 45
-19 58 -1 13 -5 24 -10 24 -4 0 -11 0 -17 0 -17 0 -11 -32 15 -89 l26 -55 -42
-82 c-39 -77 -45 -114 -19 -114 6 0 19 19 29 43 10 23 48 97 85 165 36 68 66
130 66 138 0 25 -28 15 -48 -18z"/>
<path d="M7602 1617 c-49 -15 -68 -48 -52 -87 21 -51 73 -73 124 -54 29 11 17
24 -23 24 -92 0 -94 85 -3 97 25 3 41 10 39 17 -5 15 -45 17 -85 3z"/>
<path d="M15717 1601 c-72 -64 -73 -132 -1 -97 41 19 54 14 36 -14 -10 -16 -8
-20 9 -25 26 -9 25 -9 31 47 7 59 -3 64 -61 30 l-44 -25 22 31 c12 18 32 38
44 47 15 11 18 18 10 26 -7 7 -20 2 -46 -20z"/>
<path d="M16123 1608 c-52 -29 -107 -93 -99 -114 5 -13 15 -7 47 30 46 52 94
82 104 66 4 -6 4 -28 0 -49 -4 -23 -2 -42 4 -45 13 -9 20 5 27 56 5 34 2 48
-11 61 -21 22 -24 21 -72 -5z"/>
<path d="M17020 1612 c-41 -22 -100 -104 -100 -138 0 -36 18 -29 35 14 21 49
71 100 107 107 30 7 39 35 10 35 -9 0 -33 -8 -52 -18z"/>
<path d="M16595 1610 c-36 -15 -65 -50 -65 -78 0 -56 44 -68 104 -27 33 22 36
23 36 6 0 -22 35 -69 45 -60 7 7 -23 107 -34 113 -4 3 -26 -9 -50 -25 -41 -27
-71 -37 -71 -24 0 25 35 67 61 72 16 3 28 11 26 17 -5 14 -27 17 -52 6z"/>
<path d="M3010 1595 c-42 -14 -93 -96 -73 -116 9 -9 20 1 48 40 55 76 112 83
101 12 -19 -116 -19 -124 -6 -119 14 4 39 92 40 136 0 27 -33 62 -57 61 -10
-1 -34 -7 -53 -14z"/>
<path d="M3752 1598 c-17 -17 -15 -28 4 -28 25 0 13 -50 -18 -73 -15 -12 -30
-18 -34 -15 -3 3 2 27 11 53 8 26 13 50 10 53 -9 10 -35 -32 -31 -51 2 -9 0
-15 -5 -12 -17 11 -22 -46 -6 -62 20 -20 56 -11 91 24 23 22 26 34 24 72 -3
48 -21 64 -46 39z"/>
<path d="M3913 1571 c-15 -22 -45 -49 -65 -61 -21 -12 -38 -25 -38 -30 0 -20
20 -18 53 4 28 20 37 22 41 10 9 -23 39 -16 79 17 27 22 37 26 37 15 0 -24 1
-30 11 -48 12 -22 36 -24 36 -3 0 8 -5 15 -10 15 -5 0 -7 22 -2 55 8 70 -2 71
-73 9 -28 -25 -52 -43 -52 -39 0 3 9 23 20 44 18 36 18 51 -1 51 -4 0 -20 -18
-36 -39z"/>
<path d="M10543 1598 c-4 -7 -8 -15 -9 -18 0 -3 -6 -18 -13 -34 -16 -41 2 -58
22 -20 20 40 29 84 18 84 -5 0 -13 -6 -18 -12z"/>
<path d="M12708 1593 c-21 -24 -31 -60 -19 -67 9 -6 51 56 51 75 0 14 -16 11
-32 -8z"/>
<path d="M13870 1587 c-45 -36 -67 -118 -34 -131 25 -9 31 -8 63 20 33 28 39
56 19 99 -12 27 -25 31 -48 12z m30 -51 c0 -31 -43 -67 -48 -41 -4 18 24 65
38 65 6 0 10 -11 10 -24z"/>
<path d="M15931 1582 c-5 -9 -12 -34 -16 -55 -6 -29 -4 -37 8 -37 13 0 37 65
37 99 0 17 -18 13 -29 -7z"/>
<path d="M17145 1573 c-29 -32 -34 -83 -9 -104 13 -10 23 -9 64 8 l48 20 11
-23 c6 -13 18 -24 26 -24 12 0 14 4 5 19 -5 11 -10 33 -10 50 0 38 -8 38 -56
6 -38 -26 -64 -32 -64 -16 0 23 15 43 42 57 16 8 26 19 23 24 -12 19 -55 10
-80 -17z"/>
<path d="M8570 1466 c0 -8 -20 -44 -45 -80 -45 -66 -55 -96 -34 -96 23 0 96
107 104 153 6 30 4 37 -9 37 -9 0 -16 -6 -16 -14z"/>
<path d="M4406 1348 c-75 -38 -96 -52 -87 -61 9 -9 23 -5 60 16 68 37 72 34
22 -17 -31 -31 -42 -50 -39 -67 3 -21 9 -24 55 -27 42 -2 56 -8 73 -29 31 -39
26 -83 -12 -120 -46 -43 -93 -65 -123 -57 -33 8 -65 50 -65 85 0 36 -16 46
-30 18 -25 -47 20 -123 82 -140 36 -9 48 -8 89 12 112 52 142 146 73 228 -22
26 -33 31 -70 31 -24 0 -44 3 -44 8 0 4 32 39 70 77 39 38 70 72 70 76 0 21
-36 11 -124 -33z"/>
<path d="M10365 1388 c-2 -7 -9 -31 -15 -53 -7 -22 -34 -99 -61 -171 -60 -161
-67 -202 -44 -238 23 -35 61 -34 113 5 41 30 72 74 72 102 0 18 -32 47 -53 47
-9 0 -32 -13 -50 -30 -19 -16 -37 -30 -40 -30 -3 0 19 75 49 168 29 92 54 177
54 190 0 23 -18 31 -25 10z m31 -353 c9 -23 -22 -63 -62 -80 -69 -29 -73 -11
-10 51 46 47 63 53 72 29z"/>
<path d="M5072 1361 c-7 -4 -24 -59 -37 -122 -26 -124 -60 -251 -75 -280 -24
-44 5 -89 58 -89 54 0 132 59 132 101 0 53 -58 72 -112 35 -29 -19 -36 -21
-31 -8 3 9 9 22 14 27 4 6 19 73 33 150 15 77 32 148 37 159 12 21 0 39 -19
27z m29 -371 c10 -6 19 -17 19 -25 0 -20 -54 -55 -95 -62 -49 -8 -46 16 7 61
47 41 43 39 69 26z"/>
<path d="M9046 1258 c-15 -57 -48 -156 -73 -221 -33 -83 -43 -121 -36 -128 8
-8 16 -3 29 17 26 43 106 124 122 124 10 0 13 -8 9 -27 -19 -89 -19 -93 -6
-93 8 0 21 23 30 55 14 47 14 57 2 75 -18 26 -37 25 -75 -1 -16 -12 -31 -19
-33 -17 -2 2 13 58 34 123 48 152 57 195 38 195 -9 0 -23 -35 -41 -102z"/>
<path d="M15474 1343 c-3 -10 -29 -68 -57 -129 l-51 -112 -58 -6 c-68 -8 -69
-26 -1 -26 32 0 44 -4 40 -12 -34 -86 -43 -105 -56 -115 -14 -10 -14 -12 1
-18 10 -4 15 -12 12 -17 -4 -6 -1 -9 5 -7 7 3 21 27 31 54 39 107 48 123 77
127 14 2 28 9 31 16 3 9 -3 11 -22 6 -25 -6 -26 -5 -17 19 5 14 26 58 47 99
45 89 58 138 38 138 -8 0 -17 -8 -20 -17z"/>
<path d="M8150 1330 c0 -11 -13 -52 -28 -92 -74 -190 -107 -297 -94 -310 10
-10 21 -4 56 32 24 25 48 44 52 44 4 -1 17 -19 29 -40 13 -23 30 -40 43 -42
24 -4 30 15 8 24 -8 3 -24 25 -35 50 -26 54 -50 57 -94 12 -20 -22 -28 -26
-22 -13 27 67 115 323 115 338 0 9 -7 17 -15 17 -8 0 -15 -9 -15 -20z"/>
<path d="M15629 1297 c-15 -29 -54 -105 -87 -170 -85 -165 -93 -216 -25 -143
32 34 89 64 100 53 3 -4 -4 -29 -16 -58 -22 -50 -22 -79 -1 -79 5 0 10 7 10
15 0 8 11 39 24 68 16 38 21 59 14 70 -10 19 -50 22 -79 7 -17 -10 -18 -8 -9
15 5 14 34 76 65 138 30 62 55 119 55 125 0 29 -27 7 -51 -41z"/>
<path d="M7565 1328 c-2 -7 -6 -24 -8 -38 -3 -14 -30 -91 -60 -171 -31 -80
-59 -157 -62 -172 -11 -42 17 -34 50 14 28 39 82 85 90 77 3 -2 -4 -31 -16
-63 -19 -55 -15 -93 8 -63 13 17 43 115 43 139 0 33 -29 34 -75 1 l-43 -30 28
76 c16 43 37 100 48 127 29 75 35 115 16 115 -8 0 -16 -6 -19 -12z"/>
<path d="M13232 1327 c-7 -8 -11 -62 -10 -143 2 -126 1 -132 -26 -178 -29 -49
-107 -109 -136 -104 -8 2 -16 16 -18 31 -4 35 59 101 106 112 38 8 43 25 7 25
-91 0 -179 -126 -126 -179 28 -28 48 -27 103 8 109 69 138 150 129 364 -3 77
-9 89 -29 64z"/>
<path d="M5286 1293 c-3 -16 -8 -48 -11 -73 -4 -25 -18 -97 -32 -160 -20 -91
-23 -118 -13 -133 7 -12 7 -17 1 -12 -7 3 -11 -2 -11 -13 0 -11 6 -22 14 -25
11 -4 15 7 18 51 3 31 16 113 30 182 38 183 41 210 24 210 -8 0 -17 -12 -20
-27z"/>
<path d="M12566 1248 c-18 -29 -39 -70 -47 -90 -11 -32 -18 -38 -41 -38 -31 0
-38 -19 -9 -27 16 -4 17 -10 10 -41 -14 -60 -10 -108 10 -133 18 -22 20 -22
60 -9 45 14 81 41 81 58 0 5 -18 1 -41 -9 -22 -11 -48 -19 -57 -17 -22 4 -27
53 -12 107 10 38 13 41 48 43 20 0 42 2 47 3 6 2 16 3 23 4 7 0 10 6 7 12 -4
6 -28 9 -54 8 -43 -3 -46 -1 -43 21 1 12 18 49 37 80 19 32 35 63 35 69 0 25
-22 8 -54 -41z"/>
<path d="M5817 1233 c-3 -32 -17 -97 -31 -146 -30 -100 -35 -197 -11 -197 11
0 15 12 15 49 0 27 3 63 6 80 5 25 9 29 20 20 11 -9 14 -8 14 5 0 15 3 15 38
1 45 -19 62 -40 62 -75 0 -40 -20 -90 -36 -90 -18 0 -18 -8 0 -26 24 -23 31
-17 49 39 31 98 17 146 -51 174 l-34 14 25 27 c13 15 22 34 20 42 -4 13 -3 13
6 0 9 -12 22 -4 76 51 60 62 77 89 56 89 -4 0 -55 -45 -112 -100 -57 -54 -105
-98 -107 -96 -2 2 4 31 12 64 20 75 21 132 2 132 -9 0 -15 -18 -19 -57z"/>
<path d="M1963 1196 c1 -41 -1 -72 -5 -69 -13 7 -9 -22 4 -35 8 -8 5 -10 -14
-7 -38 7 -109 34 -125 47 -10 8 -17 8 -25 0 -14 -14 -15 -13 47 -45 l50 -26
-50 -2 c-27 -1 -54 -1 -59 0 -19 4 -66 -11 -66 -21 0 -7 36 -9 109 -6 l110 6
-35 -52 c-19 -28 -34 -56 -34 -63 0 -28 27 -10 55 38 16 27 31 44 34 37 2 -7
9 -19 15 -27 9 -11 12 -9 16 13 l5 28 27 -21 c52 -41 58 -17 9 35 -23 25 -17
38 10 24 12 -7 20 -6 25 1 8 13 -21 39 -43 39 -19 0 -17 4 24 80 35 64 40 92
13 75 -5 -3 -22 -29 -36 -57 -14 -27 -27 -48 -29 -46 -3 3 -14 82 -14 111 -1
9 -5 17 -11 17 -6 0 -9 -30 -7 -74z"/>
<path d="M2980 1228 c0 -28 -66 -178 -78 -178 -9 0 -11 -7 -7 -20 3 -10 1 -37
-4 -58 -15 -53 1 -96 42 -115 36 -17 83 -12 109 11 19 16 14 39 -5 23 -17 -13
-48 -16 -75 -7 -31 10 -43 46 -31 89 10 37 28 47 87 47 21 0 32 5 32 15 0 12
-9 13 -45 8 -25 -3 -45 -3 -45 0 0 4 11 40 25 81 29 86 31 116 10 116 -8 0
-15 -6 -15 -12z"/>
<path d="M14472 1211 c2 -7 7 -12 11 -12 12 1 9 15 -3 20 -7 2 -11 -2 -8 -8z"/>
<path d="M7762 1168 c3 -7 15 -15 28 -16 21 -3 22 -2 11 12 -16 19 -44 21 -39
4z"/>
<path d="M14203 1169 c-28 -10 -28 -19 -3 -69 24 -46 25 -73 5 -90 -16 -13
-75 -5 -75 11 0 5 -7 9 -16 9 -32 0 -11 -43 28 -58 47 -18 81 -10 96 23 17 36
15 60 -8 107 -19 40 -19 40 0 45 11 3 20 9 20 13 0 13 -24 18 -47 9z"/>
<path d="M3202 1138 c3 -7 13 -15 24 -17 16 -3 17 -1 5 13 -16 19 -34 21 -29
4z"/>
<path d="M11754 1129 c-3 -6 -9 -40 -12 -75 -4 -55 -2 -64 12 -64 11 0 16 9
16 29 0 15 5 42 11 60 9 27 16 31 45 31 35 0 46 13 18 24 -26 10 -82 7 -90 -5z"/>
<path d="M11948 1117 c-36 -30 -68 -86 -68 -120 0 -30 39 -77 64 -77 20 0 110
39 104 46 -3 2 -26 0 -52 -6 -57 -13 -86 -1 -86 35 0 14 3 25 8 26 4 0 17 2
29 3 27 3 72 33 80 52 8 22 -14 64 -34 64 -10 0 -30 -10 -45 -23z m52 -21 c0
-16 -14 -27 -55 -45 l-30 -13 20 23 c40 47 65 60 65 35z"/>
<path d="M13894 1104 c-16 -20 -39 -47 -51 -59 -28 -27 -135 -85 -157 -85 -9
0 -16 -5 -16 -10 0 -24 35 -21 93 8 39 20 65 28 71 22 17 -17 48 -11 103 20
l53 30 0 -33 c0 -40 30 -73 57 -62 17 6 16 8 -4 22 -20 13 -23 24 -23 74 0 67
-12 75 -51 33 -25 -27 -98 -69 -106 -61 -2 3 9 20 25 38 41 47 56 79 44 91 -6
6 -20 -3 -38 -28z"/>
<path d="M9584 1121 c3 -5 -2 -19 -12 -32 -10 -13 -33 -50 -52 -82 -37 -67
-50 -63 -50 16 0 35 -4 47 -12 44 -9 -2 -13 -24 -13 -60 0 -66 25 -103 56 -86
11 5 19 14 19 18 0 11 65 119 86 142 19 21 12 49 -11 49 -9 0 -14 -4 -11 -9z"/>
<path d="M9721 1099 c-17 -17 -31 -39 -31 -49 0 -11 -8 -24 -17 -30 -13 -8
-14 -13 -5 -16 6 -3 12 -18 12 -33 0 -42 31 -65 81 -58 37 5 79 30 79 47 0 4
-19 1 -42 -7 -63 -21 -82 -15 -86 29 -2 29 1 38 16 42 35 12 72 53 65 73 -7
18 -22 33 -35 33 -3 0 -20 -14 -37 -31z m34 -34 c-16 -13 -31 -22 -34 -20 -8
8 32 45 48 45 11 -1 7 -8 -14 -25z"/>
<path d="M11497 1112 c-62 -68 -25 -142 64 -127 21 4 39 10 39 15 0 5 3 15 6
24 5 12 0 16 -20 16 -16 0 -26 -6 -26 -15 0 -22 -37 -19 -49 4 -13 24 25 79
42 62 15 -15 27 -14 27 4 0 15 -29 35 -53 35 -8 0 -21 -8 -30 -18z"/>
<path d="M6082 1113 c-36 -7 -38 -31 -6 -66 63 -69 65 -72 51 -91 -11 -15 -17
-17 -35 -7 -12 6 -22 18 -22 27 0 12 -4 12 -20 4 -31 -17 -25 -46 14 -64 60
-28 86 -19 99 33 7 28 -11 66 -47 100 -32 30 -26 41 25 41 28 0 39 4 39 15 0
15 -43 18 -98 8z"/>
<path d="M10779 1090 c-13 -17 -36 -44 -51 -60 -25 -27 -26 -32 -13 -56 7 -15
20 -31 27 -35 22 -14 75 -10 82 6 4 12 -3 15 -33 15 -27 0 -41 5 -45 17 -7 16
8 33 30 33 22 0 66 58 62 81 -5 35 -32 34 -59 -1z"/>
<path d="M10553 1088 c-45 -50 -58 -122 -27 -153 18 -17 76 -15 113 5 34 17
15 29 -29 18 -73 -19 -96 14 -36 50 19 11 39 29 44 39 13 25 -3 63 -26 63 -10
0 -28 -10 -39 -22z m23 -46 c-22 -23 -29 -10 -9 18 11 16 18 19 21 11 2 -7 -3
-20 -12 -29z"/>
<path d="M10986 1096 c-41 -18 -99 -126 -68 -126 5 0 24 21 43 46 36 49 63 69
79 59 13 -8 13 -46 0 -79 -5 -14 -7 -33 -4 -41 7 -18 36 -20 33 -2 -1 6 1 34
6 60 14 87 -16 115 -89 83z"/>
<path d="M15809 1092 c-46 -24 -71 -63 -77 -120 -4 -44 -2 -51 23 -70 18 -15
42 -22 70 -22 56 0 132 27 132 46 0 11 -7 14 -23 10 -13 -4 -50 -9 -82 -12
-48 -5 -60 -3 -72 11 -12 14 -12 19 -2 23 7 2 34 18 60 35 41 28 47 37 47 66
0 44 -29 57 -76 33z m51 -35 c0 -7 -20 -27 -45 -45 l-44 -31 10 27 c6 15 18
35 26 44 19 21 53 24 53 5z"/>
<path d="M2515 1068 c-22 -18 -34 -25 -27 -16 16 20 8 40 -13 31 -8 -3 -15
-17 -16 -32 0 -14 -11 -48 -24 -76 -13 -27 -21 -53 -19 -57 10 -16 24 -7 43
30 30 59 121 146 121 116 0 -3 -12 -39 -26 -81 -17 -50 -23 -78 -16 -85 7 -7
17 5 31 37 33 75 43 122 31 145 -15 28 -39 25 -85 -12z"/>
<path d="M7136 1089 c-25 -15 -2 -30 36 -22 27 5 28 4 19 -20 -6 -14 -24 -53
-41 -87 -39 -77 -29 -97 27 -53 63 50 82 57 110 42 35 -19 57 -1 61 47 2 22
14 53 28 72 22 28 23 32 7 32 -37 -1 -65 -34 -70 -84 -4 -33 -9 -44 -16 -37
-16 16 -38 14 -79 -8 l-37 -18 16 30 c26 50 34 89 22 104 -14 16 -57 17 -83 2z"/>
<path d="M12205 1086 c-43 -19 -77 -60 -73 -88 2 -19 10 -24 40 -26 20 -2 46
2 58 8 17 9 20 8 20 -9 0 -29 34 -66 53 -58 19 7 24 29 6 25 -23 -6 -34 29
-21 66 17 46 7 64 -22 38 -48 -44 -98 -56 -89 -21 4 13 21 28 45 37 21 8 37
20 35 26 -5 16 -20 16 -52 2z"/>
<path d="M14394 1083 c-3 -10 -10 -28 -15 -41 -13 -32 -11 -74 2 -70 13 4 39
74 39 106 0 26 -18 30 -26 5z"/>
<path d="M14572 1084 c-13 -9 -21 -22 -18 -30 3 -9 -1 -14 -12 -14 -23 -1 -58
-48 -44 -62 6 -6 24 8 52 41 29 35 51 51 67 51 28 0 28 -5 2 -64 -19 -43 -19
-66 0 -66 5 0 11 8 14 18 3 9 13 36 21 60 12 32 13 48 6 62 -13 25 -57 26 -88
4z"/>
<path d="M7839 1063 c-36 -31 -62 -84 -53 -108 4 -9 18 -21 31 -26 31 -12 99
5 107 26 6 18 -6 19 -54 5 -26 -7 -38 -7 -47 3 -11 11 -9 19 10 48 12 19 35
40 50 47 15 7 27 17 27 23 0 18 -39 8 -71 -18z"/>
<path d="M14765 1066 c-46 -46 -26 -114 30 -104 20 4 24 2 21 -11 -3 -9 -8
-38 -12 -66 -10 -78 -15 -82 -90 -87 -64 -4 -69 -6 -101 -44 -18 -21 -41 -63
-50 -91 -16 -50 -16 -54 2 -73 47 -51 130 -6 202 112 l37 60 55 -3 c74 -3 91
-1 91 10 0 6 -31 13 -70 17 -38 3 -67 10 -64 15 2 5 11 45 19 89 8 45 24 99
37 121 17 30 19 42 10 51 -9 9 -20 2 -48 -30 -36 -43 -64 -54 -64 -26 0 27 20
54 41 54 12 0 19 5 17 13 -8 22 -37 19 -63 -7z m-21 -347 c-49 -90 -142 -151
-160 -105 -7 20 27 95 59 129 22 23 34 27 77 27 l51 0 -27 -51z"/>
<path d="M5530 1038 c-44 -73 -12 -128 74 -128 49 0 45 15 -6 32 -48 16 -58
37 -34 73 11 16 22 22 36 18 24 -6 28 22 4 31 -33 13 -55 5 -74 -26z"/>
<path d="M7085 1050 c-17 -19 -17 -20 -1 -20 10 0 27 5 38 11 17 9 18 13 7 20
-20 12 -24 11 -44 -11z"/>
<path d="M2708 1031 c-32 -31 -46 -84 -28 -106 20 -24 66 -18 89 11 25 32 27
71 5 102 -19 28 -32 27 -66 -7z m52 -32 c0 -32 -19 -59 -40 -59 -26 0 -26 30
1 64 22 29 39 26 39 -5z"/>
<path d="M3460 1028 c-34 -57 -22 -115 32 -148 45 -27 85 -26 113 4 13 14 21
27 18 29 -7 8 -43 -4 -43 -14 0 -20 -62 -8 -85 16 -33 32 -32 57 4 73 32 14
44 34 35 57 -11 27 -53 18 -74 -17z"/>
<path d="M9252 1043 c-39 -19 -67 -56 -58 -78 7 -19 39 -19 75 0 27 13 29 13
39 -10 7 -15 20 -25 32 -25 24 0 26 13 5 30 -11 9 -14 23 -9 45 4 26 2 34 -13
39 -10 3 -22 8 -28 11 -5 2 -25 -3 -43 -12z m43 -23 c-9 -14 -65 -42 -65 -33
0 9 50 42 63 43 5 0 5 -5 2 -10z"/>
<path d="M5349 1024 c-31 -16 -47 -63 -27 -75 10 -7 10 -9 -2 -9 -11 -1 -8 -6
9 -20 68 -58 157 25 105 98 -17 25 -46 27 -85 6z m67 -39 c8 -33 -12 -57 -45
-53 -33 4 -38 31 -12 57 28 28 49 26 57 -4z"/>
<path d="M7692 1013 c-19 -50 -23 -73 -14 -73 6 0 17 21 26 47 19 55 19 53 7
53 -5 0 -13 -12 -19 -27z"/>
<path d="M3297 1008 c-27 -42 -28 -63 -6 -92 22 -28 53 -31 102 -11 33 13 17
25 -26 19 -32 -5 -45 -3 -49 7 -9 22 10 60 32 66 28 7 20 27 -13 31 -18 2 -30
-4 -40 -20z"/>
<path d="M12745 997 c-55 -55 -45 -117 23 -138 28 -8 49 -8 80 0 58 16 54 33
-5 26 -53 -7 -103 7 -103 29 0 7 21 24 48 37 37 19 47 29 47 49 0 20 -6 26
-28 28 -21 3 -36 -5 -62 -31z m65 -7 c0 -10 -41 -30 -58 -30 -10 1 39 40 49
40 5 0 9 -5 9 -10z"/>
<path d="M3133 1008 c-6 -7 -15 -29 -22 -47 -9 -29 -9 -38 3 -50 17 -16 19
-13 29 39 3 14 9 35 12 48 8 24 -6 30 -22 10z"/>
<path d="M10840 955 c0 -17 2 -18 24 -9 23 9 20 24 -4 24 -11 0 -20 -7 -20
-15z"/>
<path d="M6397 883 c-4 -3 -7 -20 -7 -38 0 -30 -15 -55 -33 -55 -5 0 -7 9 -4
21 3 13 1 19 -6 16 -7 -2 -13 -18 -15 -35 -3 -28 0 -32 22 -32 35 0 66 43 66
91 0 37 -8 48 -23 32z"/>
<path d="M6741 763 c-12 -36 -21 -71 -21 -77 0 -6 -5 -28 -11 -48 -7 -27 -15
-38 -29 -38 -24 0 -25 -9 -5 -24 13 -10 14 -23 7 -84 -15 -128 11 -117 40 18
l14 65 45 5 c51 6 72 17 63 32 -4 5 -10 6 -15 1 -5 -5 -25 -7 -44 -5 -38 5
-41 13 -26 72 6 19 12 53 16 75 3 21 11 42 17 46 13 8 2 29 -17 29 -8 0 -22
-28 -34 -67z"/>
<path d="M4650 779 c0 -18 -16 -93 -36 -167 -35 -132 -40 -202 -17 -209 7 -3
14 11 18 34 3 21 19 90 36 153 20 75 29 132 27 164 -3 57 -28 78 -28 25z"/>
<path d="M5171 792 c-5 -10 -9 -32 -9 -48 1 -16 -2 -39 -6 -52 -5 -13 -3 -22
3 -22 6 0 11 -4 11 -10 0 -5 -6 -10 -12 -10 -8 0 -24 -42 -41 -103 -31 -115
-34 -147 -12 -147 9 0 15 9 15 24 0 63 11 83 51 95 87 26 155 -17 152 -95 -2
-48 11 -58 28 -20 26 55 -27 130 -104 150 l-48 12 78 72 c43 40 80 72 83 71 2
0 6 4 8 10 2 6 1 11 -3 11 -13 0 -164 -131 -195 -168 l-29 -36 19 65 c11 35
23 89 26 119 3 30 7 65 10 78 5 26 -11 29 -25 4z"/>
<path d="M7410 723 c0 -49 -6 -110 -14 -138 -29 -108 -87 -183 -121 -155 -33
27 0 80 58 94 37 9 34 26 -4 26 -22 0 -41 -10 -65 -34 -40 -40 -44 -76 -13
-107 44 -44 118 11 159 117 31 79 42 284 16 284 -14 0 -16 -13 -16 -87z"/>
<path d="M3536 792 c-3 -6 -5 -63 -4 -128 1 -125 -16 -208 -49 -235 -24 -21
-58 27 -88 124 -44 141 -55 167 -75 167 -22 0 -30 -25 -36 -110 -3 -36 -12
-93 -20 -127 -9 -34 -13 -67 -9 -73 10 -16 30 -6 30 16 1 10 6 44 13 74 6 30
14 76 17 103 4 26 10 47 14 47 4 0 18 -37 30 -82 13 -46 34 -102 47 -125 59
-102 132 -49 152 112 13 97 10 237 -5 242 -6 2 -14 0 -17 -5z"/>
<path d="M6911 783 c-5 -10 -17 -49 -26 -88 -10 -38 -31 -105 -46 -148 -33
-88 -37 -127 -14 -127 14 0 20 12 16 33 -1 5 2 6 7 3 5 -3 22 8 37 24 37 39
49 38 41 -3 -4 -22 -1 -40 9 -52 8 -11 15 -18 16 -15 0 3 3 31 5 62 4 49 1 59
-15 68 -17 8 -27 5 -56 -21 l-36 -32 16 39 c30 76 54 174 44 180 -6 3 -4 11 4
17 17 14 31 77 17 77 -5 0 -13 -8 -19 -17z"/>
<path d="M2825 748 c-8 -18 -20 -59 -27 -90 -8 -41 -17 -58 -31 -62 -20 -5
-15 -26 7 -26 7 0 18 -17 24 -38 14 -47 58 -90 100 -98 44 -9 44 18 0 31 -19
6 -42 24 -55 44 -35 52 -31 61 26 61 54 0 81 7 81 21 0 5 -29 9 -65 9 -76 0
-77 2 -45 95 11 32 20 64 20 72 0 25 -21 13 -35 -19z"/>
<path d="M4408 746 c-38 -18 -48 -20 -52 -9 -9 21 -29 4 -23 -19 4 -12 -7 -40
-25 -69 -29 -48 -31 -84 -2 -45 18 25 18 12 -1 -50 -8 -27 -15 -59 -15 -71 0
-16 -4 -21 -16 -16 -14 5 -15 0 -9 -38 4 -24 9 -46 11 -48 1 -2 25 -5 52 -8
103 -9 195 74 166 151 -3 8 -22 20 -41 27 l-35 11 40 42 c77 80 91 122 50 150
-30 21 -44 20 -100 -8z m85 -12 c12 -12 -26 -68 -80 -122 -31 -29 -57 -52 -59
-50 -2 3 2 33 9 69 13 61 15 65 57 87 46 23 62 26 73 16z m-38 -218 c17 -12
18 -17 6 -39 -24 -45 -119 -84 -136 -57 -4 6 -2 33 5 59 l11 48 48 2 c27 1 55
-5 66 -13z"/>
<path d="M3722 603 c-15 -6 -52 -75 -52 -98 0 -8 -7 -15 -15 -15 -19 0 -19 2
5 -48 22 -46 50 -59 92 -43 46 17 45 33 -2 29 -31 -2 -45 1 -53 14 -9 14 -3
24 32 55 41 36 44 41 37 76 -7 35 -16 42 -44 30z m-1 -76 c-13 -12 -20 -15
-16 -7 14 26 28 41 33 35 3 -3 -5 -16 -17 -28z"/>
<path d="M4084 597 c-3 -8 -1 -24 4 -38 13 -36 -3 -84 -34 -98 -32 -14 -47 0
-40 37 6 35 -18 37 -60 5 -30 -22 -36 -24 -31 -10 18 48 19 67 4 67 -27 0 -50
-101 -26 -115 5 -4 28 5 50 20 24 16 39 21 38 13 -3 -27 2 -38 22 -48 40 -22
108 25 123 83 12 48 -34 125 -50 84z"/>
<path d="M6248 585 c-44 -30 -44 -30 -51 -5 -6 22 -36 27 -55 8 -10 -10 -15
-10 -21 1 -12 18 -31 5 -31 -22 0 -12 -9 -42 -20 -66 -37 -81 -12 -100 26 -20
12 24 34 55 49 69 l28 25 -7 -42 c-7 -47 7 -65 26 -33 15 25 106 85 115 77 3
-4 1 -23 -4 -44 -11 -44 -7 -63 14 -63 8 0 13 6 10 13 -2 6 2 34 9 61 7 27 11
52 9 56 -10 16 -64 8 -97 -15z"/>
<path d="M6478 579 c-66 -54 -73 -160 -11 -175 36 -9 112 3 130 21 21 22 13
26 -28 15 -55 -16 -97 -12 -109 9 -17 32 -12 41 24 41 60 0 110 72 74 108 -19
19 -41 14 -80 -19z m62 -13 c0 -21 -28 -46 -51 -46 -26 0 -24 10 9 37 32 26
42 28 42 9z"/>
<path d="M3034 588 c-36 -20 -54 -52 -54 -99 0 -50 26 -89 61 -89 51 0 110 23
130 51 24 34 10 38 -30 8 -28 -20 -88 -28 -110 -14 -22 13 -10 41 27 60 30 16
37 26 37 49 0 33 -30 50 -61 34z m17 -59 c-13 -11 -27 -17 -30 -13 -3 3 5 14
18 25 13 11 27 17 30 13 3 -3 -5 -14 -18 -25z"/>
<path d="M1955 580 c-32 -13 -95 -88 -95 -113 0 -46 71 -88 106 -62 21 16 38
20 30 6 -4 -5 7 -4 24 2 16 6 30 15 30 19 0 10 -24 10 -34 1 -10 -10 -97 -6
-108 5 -18 18 1 59 42 92 22 17 37 25 34 17 -3 -8 0 -18 6 -22 14 -9 16 -7 25
33 6 29 4 32 -17 31 -13 0 -32 -4 -43 -9z"/>
<path d="M2152 544 c-28 -34 -42 -72 -42 -116 0 -14 6 -19 22 -16 18 2 23 10
25 43 3 46 31 89 62 93 33 5 26 32 -8 32 -22 0 -37 -10 -59 -36z"/>
<path d="M2308 563 c-28 -33 -38 -61 -38 -112 0 -42 4 -53 26 -70 27 -21 58
-26 88 -15 29 11 17 24 -22 24 -21 0 -43 5 -50 12 -19 19 -14 56 8 63 10 3 30
19 44 36 19 22 23 35 17 52 -10 28 -52 34 -73 10z m52 -23 c0 -14 -50 -64 -56
-57 -10 9 26 67 41 67 8 0 15 -5 15 -10z"/>
<path d="M4756 571 c-15 -6 -20 -20 -23 -68 -4 -55 -2 -62 17 -68 81 -26 131
66 67 125 -22 21 -31 23 -61 11z m54 -70 c0 -20 -19 -41 -37 -41 -16 0 -17 34
-2 61 8 16 13 18 25 8 8 -6 14 -19 14 -28z"/>
<path d="M4943 565 c-27 -19 -39 -75 -24 -104 12 -21 43 -27 75 -15 26 10 18
30 -11 29 -39 0 -43 33 -8 61 43 34 13 61 -32 29z"/>
<path d="M2517 559 c-21 -12 -47 -61 -47 -89 0 -32 26 -35 80 -8 l49 25 6 -28
c6 -28 31 -56 41 -46 8 7 -16 78 -32 96 -11 12 -18 11 -49 -8 -46 -27 -59 -27
-45 -1 7 13 21 20 40 20 36 0 37 6 8 31 -27 21 -28 22 -51 8z"/>
<path d="M7064 515 c-49 -75 25 -146 78 -74 18 24 19 28 4 62 -19 46 -56 51
-82 12z m59 -27 c7 -24 -8 -48 -29 -48 -15 0 -18 27 -8 54 9 23 31 20 37 -6z"/>
<path d="M7524 435 c-4 -9 -3 -19 0 -23 9 -8 42 12 39 24 -4 16 -33 16 -39 -1z"/>
<path d="M2410 389 c0 -5 5 -7 10 -4 6 3 10 8 10 11 0 2 -4 4 -10 4 -5 0 -10
-5 -10 -11z"/>
</g>
</svg>
