<?xml version="1.0" standalone="no"?>
<!DOCTYPE svg PUBLIC "-//W3C//DTD SVG 20010904//EN"
 "http://www.w3.org/TR/2001/REC-SVG-20010904/DTD/svg10.dtd">
<svg version="1.0" xmlns="http://www.w3.org/2000/svg"
 width="1872.000000pt" height="1404.000000pt" viewBox="0 0 1872.000000 1404.000000"
 preserveAspectRatio="xMidYMid meet">

<g transform="translate(0.000000,1404.000000) scale(0.100000,-0.100000)"
fill="#000000" stroke="none">
<path d="M2701 13558 c-18 -5 -44 -16 -56 -24 -22 -14 -89 -140 -144 -270 -20
-48 -42 -76 -99 -128 -62 -57 -76 -65 -99 -60 -26 7 -27 1 0 -33 12 -17 51 4
97 52 59 62 67 62 67 2 0 -56 22 -111 48 -121 32 -12 82 -6 98 12 19 21 23 42
5 24 -7 -7 -29 -12 -49 -12 -31 0 -38 5 -48 28 -13 30 -16 57 -13 115 2 33 13
50 80 120 74 79 90 103 127 194 10 23 26 50 36 59 24 22 25 54 2 53 -10 0 -33
-5 -52 -11z m-13 -75 c-11 -42 -84 -157 -118 -188 -16 -14 -8 9 29 85 42 87
79 140 96 140 2 0 -1 -17 -7 -37z"/>
<path d="M3477 13564 c-3 -3 -3 -12 0 -20 3 -8 -1 -14 -9 -14 -8 0 -29 -15
-46 -34 -17 -19 -36 -36 -44 -39 -7 -2 -10 -7 -6 -11 16 -18 126 64 120 90 -2
8 2 14 8 14 6 0 8 5 5 10 -7 11 -19 13 -28 4z"/>
<path d="M3136 13551 c-3 -4 -9 -34 -15 -67 -8 -53 -67 -227 -93 -276 -5 -10
-20 -18 -33 -18 -30 0 -33 -20 -4 -27 16 -4 19 -11 14 -27 -4 -11 -9 -48 -12
-81 -5 -53 -4 -58 10 -47 9 7 20 35 26 61 20 92 24 97 88 110 32 6 65 16 73
21 27 17 0 23 -56 11 -32 -6 -58 -10 -60 -8 -1 1 13 43 33 92 19 50 38 119 42
155 5 36 11 72 15 81 7 17 -19 35 -28 20z"/>
<path d="M15620 13477 c0 -14 -22 -58 -64 -130 -26 -44 -32 -48 -58 -43 -38 7
-92 -15 -113 -48 -21 -32 -22 -100 -1 -131 14 -21 14 -25 -3 -47 -31 -38 -82
-161 -79 -187 5 -39 28 -38 28 1 0 24 15 57 50 111 47 72 52 77 85 77 52 0
102 24 119 59 21 39 20 59 -4 105 l-19 38 24 37 c14 19 25 42 25 51 0 8 9 30
20 48 24 39 26 72 5 72 -8 0 -15 -6 -15 -13z m-120 -223 c0 -2 -16 -29 -35
-59 -39 -61 -55 -63 -55 -8 0 47 31 82 65 75 14 -2 25 -6 25 -8z m56 -49 c8
-33 -17 -70 -52 -79 -14 -4 -28 -5 -31 -3 -6 6 58 107 68 107 5 0 11 -11 15
-25z"/>
<path d="M9681 13456 c-7 -8 -24 -66 -38 -128 -29 -130 -62 -209 -99 -233 -14
-9 -28 -15 -30 -12 -9 8 14 53 40 77 30 29 34 53 9 48 -23 -4 -83 -94 -83
-123 0 -31 31 -40 69 -21 33 18 61 54 81 106 7 19 17 40 22 46 5 7 19 58 32
115 13 57 27 112 31 122 9 21 -17 24 -34 3z"/>
<path d="M8065 13418 c-30 -78 -96 -178 -116 -178 -20 0 -27 -26 -8 -32 7 -2
3 -22 -10 -56 -26 -66 -26 -94 -1 -117 15 -14 29 -16 60 -11 42 7 80 25 80 38
0 4 -28 5 -62 1 l-61 -6 6 32 c4 17 16 54 28 81 l21 49 72 3 c86 4 90 21 6 28
l-60 5 24 37 c34 48 77 148 70 159 -12 20 -33 6 -49 -33z"/>
<path d="M14710 13387 l-25 -52 -47 3 c-44 3 -48 2 -72 -35 -27 -39 -34 -104
-17 -148 6 -14 -1 -34 -25 -70 -35 -53 -61 -111 -60 -134 2 -27 26 -23 37 6 5
15 26 55 45 88 l35 60 58 0 c47 0 64 5 93 27 21 16 42 43 48 63 10 30 9 40 -7
68 -10 17 -29 36 -41 42 -12 5 -21 12 -19 15 21 35 47 102 42 110 -11 18 -20
10 -45 -43z m-67 -93 c3 -3 -9 -29 -26 -57 l-32 -52 -3 33 c-5 50 36 101 61
76z m89 -45 c24 -32 13 -60 -35 -89 -29 -18 -87 -28 -87 -15 0 3 11 24 25 46
14 22 30 51 35 65 12 31 36 29 62 -7z"/>
<path d="M14948 13346 c-90 -61 -118 -100 -144 -200 -11 -41 -11 -53 2 -77 23
-45 48 -53 91 -32 20 10 45 30 56 44 16 22 17 30 7 49 -11 20 -18 22 -61 18
-37 -4 -49 -2 -49 9 0 27 50 111 79 134 17 13 44 34 61 47 17 13 28 28 24 33
-8 13 -14 11 -66 -25z m-23 -246 c-3 -6 -19 -17 -35 -25 -25 -13 -29 -13 -40
0 -10 12 -8 17 11 24 32 13 72 13 64 1z"/>
<path d="M16955 13333 c-4 -15 -18 -55 -32 -88 -50 -118 -64 -167 -52 -182 18
-21 25 -16 38 30 7 23 28 78 46 122 41 96 47 138 23 143 -12 2 -19 -5 -23 -25z"/>
<path d="M17204 13345 c-4 -8 -10 -12 -15 -9 -6 3 -28 -12 -49 -34 -30 -29
-40 -48 -40 -71 0 -17 -9 -48 -20 -68 -26 -49 -25 -77 2 -103 57 -53 198 14
198 95 0 8 -9 24 -20 35 -17 17 -18 22 -5 47 8 15 15 39 15 53 0 50 -52 93
-66 55z m26 -47 c0 -32 -10 -43 -49 -56 -41 -14 -41 -14 -41 -2 0 14 63 78 78
79 6 1 12 -9 12 -21z m-6 -131 c15 -11 17 -17 7 -35 -26 -50 -123 -69 -129
-26 -2 11 7 32 18 47 24 30 73 37 104 14z"/>
<path d="M11350 13340 c0 -5 7 -10 15 -10 8 0 15 5 15 10 0 6 -7 10 -15 10 -8
0 -15 -4 -15 -10z"/>
<path d="M16732 13323 c-5 -10 -15 -35 -21 -55 -13 -40 -17 -43 -41 -28 -9 6
-19 5 -29 -3 -8 -7 -17 -11 -20 -10 -15 6 -38 -10 -58 -40 -29 -42 -30 -100
-3 -127 20 -20 20 -20 -14 -81 -31 -56 -38 -105 -14 -97 5 2 26 34 46 72 35
64 41 70 84 83 52 15 98 61 98 97 0 13 -9 35 -21 50 l-21 27 21 49 c23 53 27
80 11 80 -5 0 -13 -8 -18 -17z m-67 -123 c9 -14 -54 -122 -69 -117 -6 2 -12
18 -14 35 -5 47 63 114 83 82z m51 -78 c-6 -18 -45 -47 -53 -39 -2 3 6 23 19
46 17 30 25 36 31 25 5 -8 6 -22 3 -32z"/>
<path d="M9900 13320 c0 -5 5 -10 10 -10 6 0 10 5 10 10 0 6 -4 10 -10 10 -5
0 -10 -4 -10 -10z"/>
<path d="M15731 13317 c-27 -14 -49 -43 -39 -53 4 -3 21 1 39 10 63 31 66 -8
7 -88 -29 -40 -48 -56 -64 -56 -26 0 -94 -55 -94 -75 0 -21 29 -26 64 -11 33
14 34 14 39 -14 3 -15 14 -30 23 -34 37 -14 102 60 75 87 -9 9 -17 5 -35 -17
l-23 -30 -7 29 c-6 23 -2 34 22 59 54 56 82 107 82 147 0 21 -3 40 -7 42 -23
13 -61 15 -82 4z"/>
<path d="M16322 13303 c-28 -18 -38 -31 -32 -37 7 -7 20 -4 39 7 39 23 91 23
91 0 0 -43 -96 -153 -134 -153 -29 0 -91 -63 -83 -84 9 -22 39 -20 71 5 l26
20 0 -24 c0 -14 8 -35 18 -47 16 -19 24 -21 59 -15 23 3 44 13 47 22 9 22 3
25 -29 13 -35 -13 -52 -1 -57 45 -3 29 1 40 30 67 48 46 92 117 92 149 0 32
-32 59 -70 59 -14 0 -45 -12 -68 -27z"/>
<path d="M8946 13258 c-21 -17 -52 -52 -68 -77 -28 -43 -29 -44 -23 -14 3 18
2 34 -4 37 -13 9 -37 -49 -61 -144 -10 -41 -25 -97 -35 -124 -12 -35 -14 -51
-6 -59 7 -7 14 -7 20 -1 9 10 62 114 79 157 8 18 19 27 33 27 38 0 87 40 124
99 36 61 44 98 23 119 -19 19 -41 14 -82 -20z m23 -79 c-45 -71 -102 -105 -85
-51 18 56 104 139 114 111 2 -5 -11 -32 -29 -60z"/>
<path d="M4285 13245 c-14 -13 -25 -19 -25 -14 0 6 -7 9 -16 7 -11 -2 -30 -41
-55 -113 -45 -127 -48 -155 -19 -155 13 0 20 7 20 19 0 11 14 57 30 102 30 80
38 91 102 132 l28 19 10 -26 c12 -33 29 -34 26 -1 -7 57 -59 73 -101 30z"/>
<path d="M6862 13253 c-23 -9 -62 -82 -68 -127 -5 -36 -3 -47 16 -66 15 -15
28 -20 43 -15 12 3 29 7 37 9 24 4 50 17 50 26 0 4 -24 7 -52 6 -50 -1 -53 0
-56 25 -3 22 4 29 42 47 53 25 72 53 56 82 -10 19 -39 25 -68 13z"/>
<path d="M2773 13228 c-82 -90 -85 -238 -4 -238 31 0 83 24 105 49 24 26 11
27 -44 2 -56 -25 -80 -18 -80 24 0 27 8 39 39 64 47 37 69 84 51 106 -18 21
-43 19 -67 -7z"/>
<path d="M6563 13214 c-1 -20 -15 -63 -33 -96 -21 -40 -28 -64 -21 -71 16 -16
37 -2 55 38 22 46 97 125 119 125 22 0 22 3 -13 -72 -34 -72 -36 -84 -15 -92
11 -4 23 12 44 59 43 95 45 104 25 126 -22 24 -50 24 -92 -1 -30 -19 -33 -19
-30 -3 2 12 -4 19 -18 21 -17 2 -20 -3 -21 -34z"/>
<path d="M7101 13211 c-71 -89 -66 -155 10 -117 30 15 32 15 51 -9 25 -32 49
-32 86 0 37 31 81 143 61 156 -19 12 -29 11 -33 -3 -27 -97 -43 -131 -67 -144
-24 -12 -28 -12 -33 2 -3 9 -6 24 -6 35 0 23 -19 25 -46 4 -10 -8 -22 -15 -26
-15 -9 0 10 46 34 82 39 57 14 66 -31 9z"/>
<path d="M9118 13200 c-40 -42 -48 -56 -48 -88 0 -21 5 -43 12 -50 14 -14 77
-16 98 -2 22 14 3 25 -37 21 -43 -3 -41 9 6 41 52 35 75 71 62 96 -21 39 -42
35 -93 -18z m56 -21 c-10 -11 -28 -26 -39 -31 -12 -7 -7 3 14 26 36 37 59 42
25 5z"/>
<path d="M11586 13230 c-45 -20 -65 -51 -66 -97 0 -60 59 -77 142 -40 34 14
37 31 6 24 -100 -24 -138 -14 -67 19 67 30 87 79 42 102 -13 8 -29 5 -57 -8z
m54 -29 c0 -9 -34 -34 -63 -44 -15 -6 -16 -4 -6 16 7 12 17 25 23 29 15 11 46
10 46 -1z"/>
<path d="M3345 13218 c-24 -19 -27 -25 -20 -62 16 -97 17 -106 7 -106 -6 0
-22 14 -35 31 -24 30 -25 31 -35 12 -9 -16 -5 -26 19 -56 35 -42 61 -47 83
-15 19 27 20 57 4 111 -11 38 -11 41 16 62 28 22 28 45 2 45 -7 0 -26 -10 -41
-22z"/>
<path d="M4778 13209 c-21 -17 -38 -26 -38 -20 0 6 -4 11 -8 11 -13 0 -73
-120 -67 -131 12 -19 31 -7 56 35 26 42 95 104 105 94 2 -3 -5 -27 -16 -53
-22 -50 -23 -86 -4 -92 17 -6 69 146 57 166 -16 26 -46 23 -85 -10z"/>
<path d="M10014 13223 c-29 -17 -114 -103 -114 -117 0 -18 29 0 81 49 32 30
65 55 73 55 20 0 21 -30 1 -56 -21 -27 -18 -41 7 -40 19 1 24 9 31 48 5 27 7
55 3 63 -7 20 -44 19 -82 -2z"/>
<path d="M5642 13217 c-32 -18 -48 -46 -56 -95 -9 -57 0 -87 30 -101 65 -29
249 40 194 74 -6 3 -27 -3 -48 -14 -40 -21 -104 -33 -128 -24 -8 3 -14 16 -14
29 0 18 6 24 21 24 24 0 89 61 89 84 0 16 -29 36 -52 36 -7 -1 -23 -6 -36 -13z
m48 -37 c0 -14 -49 -44 -58 -35 -4 3 4 15 17 26 26 21 41 24 41 9z"/>
<path d="M10309 13183 c-15 -51 -47 -80 -94 -85 -41 -4 -45 28 -10 66 20 22
24 31 15 40 -9 8 -19 2 -41 -24 -59 -70 -27 -131 58 -108 21 5 46 17 56 26 16
14 17 12 17 -45 0 -33 -7 -80 -16 -106 l-16 -47 -59 0 c-108 0 -169 -43 -169
-118 0 -42 35 -82 71 -82 44 0 62 13 120 83 36 43 63 65 87 72 44 13 54 35 17
35 -20 0 -26 4 -22 14 17 43 26 103 31 209 6 109 5 117 -12 117 -13 0 -23 -13
-33 -47z m-70 -340 c-68 -92 -130 -127 -144 -82 -19 57 28 98 114 99 40 0 42
-1 30 -17z"/>
<path d="M11208 13193 c-50 -53 -56 -120 -12 -137 18 -7 64 18 64 34 0 13 -7
13 -30 0 -13 -7 -19 -6 -24 6 -7 17 29 94 44 94 6 0 10 7 10 15 0 23 -24 18
-52 -12z"/>
<path d="M5285 13198 c-11 -6 -30 -20 -42 -31 -20 -18 -23 -18 -23 -4 0 30
-18 18 -30 -20 -7 -21 -20 -51 -30 -68 -10 -16 -15 -36 -13 -42 8 -23 32 -13
48 20 18 38 102 133 111 125 3 -3 -4 -24 -15 -47 -40 -78 -18 -82 58 -11 29
28 60 50 67 50 16 0 18 -28 4 -64 -11 -29 -3 -59 14 -53 15 5 35 64 35 105 1
26 -4 34 -25 42 -21 8 -33 5 -69 -20 -36 -25 -42 -27 -38 -11 7 26 -25 43 -52
29z"/>
<path d="M8212 13187 c-30 -32 -29 -72 3 -93 26 -17 67 -13 92 8 21 17 15 63
-10 86 -30 28 -58 28 -85 -1z m76 -50 c4 -18 -39 -34 -57 -22 -15 8 -14 38 1
53 14 14 51 -6 56 -31z"/>
<path d="M9796 13201 c-15 -24 -45 -124 -40 -132 10 -16 21 -1 43 62 15 40 19
65 13 71 -6 6 -12 6 -16 -1z"/>
<path d="M4466 13179 c-15 -12 -32 -32 -36 -45 -6 -14 -18 -24 -30 -24 -26 0
-26 -17 0 -25 13 -4 20 -15 20 -30 0 -33 36 -55 91 -55 33 0 54 6 70 21 l24
20 -34 -5 c-18 -3 -51 -3 -72 0 -32 5 -39 11 -39 29 0 16 9 26 30 35 33 14 65
63 56 86 -8 21 -49 17 -80 -7z"/>
<path d="M4975 13155 c-48 -47 -54 -65 -30 -85 12 -10 23 -7 60 14 l45 27 0
-29 c0 -27 15 -52 32 -52 4 0 8 30 8 68 -1 113 -40 133 -115 57z"/>
<path d="M9306 13168 c-28 -44 -50 -98 -42 -105 4 -4 20 7 34 25 26 32 79 72
95 72 4 0 5 -22 1 -49 -8 -63 10 -75 25 -16 23 92 12 110 -53 85 -17 -6 -26
-6 -26 0 0 18 -19 11 -34 -12z"/>
<path d="M11753 13103 c-17 -6 -16 -33 1 -33 17 0 38 24 29 33 -7 8 -12 8 -30
0z"/>
<path d="M11357 13083 c-4 -3 -7 -15 -7 -25 0 -21 20 -24 38 -6 18 18 15 38
-6 38 -10 0 -22 -3 -25 -7z"/>
<path d="M15025 13050 c-4 -7 -3 -16 3 -22 14 -14 47 -6 47 12 0 18 -40 26
-50 10z"/>
<path d="M15890 13014 c-9 -10 -10 -18 -2 -26 12 -12 32 -2 32 17 0 21 -16 26
-30 9z"/>
<path d="M5690 12950 c0 -5 4 -10 9 -10 10 0 -36 -141 -73 -222 -23 -52 -29
-58 -56 -58 -16 0 -30 -4 -30 -10 0 -5 11 -10 25 -10 l24 0 -19 -42 c-21 -47
-25 -78 -11 -78 5 0 16 12 24 28 37 71 53 92 72 92 11 0 27 5 35 10 12 8 9 10
-12 10 -32 0 -32 -1 -17 37 27 68 78 247 73 255 -7 11 -44 10 -44 -2z"/>
<path d="M12173 12918 c-6 -7 -22 -53 -36 -103 -41 -144 -41 -145 -82 -145
-43 0 -46 -18 -5 -27 22 -4 29 -10 26 -22 -12 -38 -25 -106 -21 -109 14 -14
36 15 51 65 9 32 21 63 26 70 5 6 31 14 58 18 30 4 51 13 54 22 5 13 -2 14
-48 9 l-53 -7 29 98 c16 54 31 107 31 117 2 23 -16 31 -30 14z"/>
<path d="M12330 12896 c0 -32 -12 -78 -30 -121 -39 -88 -71 -187 -67 -200 8
-20 26 -19 34 1 3 9 21 33 39 53 19 20 34 40 34 44 0 5 5 5 11 2 7 -5 8 -25 4
-55 -4 -32 -3 -50 5 -55 16 -10 18 -7 26 63 6 61 6 62 -17 62 -14 0 -35 -8
-49 -17 -23 -16 -23 -16 -15 3 4 10 18 57 31 104 28 100 31 150 9 150 -10 0
-15 -10 -15 -34z"/>
<path d="M7953 12892 c-10 -6 -10 -28 -2 -97 9 -84 8 -94 -16 -167 -14 -43
-23 -83 -20 -88 5 -8 133 -3 143 5 2 2 0 14 -4 29 -5 21 -9 24 -24 16 -10 -6
-30 -10 -43 -10 l-25 0 19 60 c14 47 17 77 12 141 l-6 81 49 -3 c39 -3 49 -1
52 12 2 10 -6 19 -20 23 -32 8 -101 7 -115 -2z"/>
<path d="M3996 12870 c-139 -3 -201 -9 -203 -17 -7 -19 97 -26 297 -20 172 5
280 20 280 39 0 4 -39 7 -87 6 -49 -1 -178 -5 -287 -8z"/>
<path d="M8342 12873 c-60 -3 -82 -7 -79 -16 2 -7 29 -13 66 -15 60 -3 63 -4
56 -25 -37 -115 -47 -174 -38 -220 12 -60 -2 -72 -62 -51 -51 18 -65 17 -65
-1 0 -20 52 -45 96 -47 54 -2 66 17 69 114 1 59 9 105 28 161 28 79 33 109 20
105 -5 -1 -45 -4 -91 -5z"/>
<path d="M14647 12863 c-3 -5 -8 -24 -12 -43 -4 -19 -19 -65 -32 -102 -24 -64
-27 -68 -57 -68 -17 0 -38 -5 -46 -10 -17 -11 -9 -13 34 -10 15 1 27 -2 25 -7
-26 -59 -41 -105 -36 -109 11 -11 26 7 51 61 23 52 27 55 60 55 20 0 36 5 36
10 0 6 -14 10 -31 10 -26 0 -30 3 -24 18 19 44 55 165 55 182 0 20 -15 27 -23
13z"/>
<path d="M3090 12769 c-26 -113 -50 -166 -95 -209 -43 -42 -54 -34 -28 20 15
28 17 40 8 40 -17 0 -47 -77 -40 -101 8 -23 17 -24 54 -5 50 26 114 142 146
266 16 62 14 80 -10 80 -9 0 -21 -32 -35 -91z"/>
<path d="M11535 12823 c-4 -21 -22 -77 -41 -125 -32 -83 -44 -148 -26 -148 9
0 102 268 102 294 0 33 -28 15 -35 -21z"/>
<path d="M9684 12803 c-8 -21 -26 -78 -40 -128 -41 -153 -30 -169 53 -80 29
30 56 55 62 55 5 0 3 -19 -4 -43 -14 -46 -10 -90 9 -106 9 -8 15 12 25 76 12
80 12 87 -4 99 -21 16 -45 6 -92 -39 -18 -17 -33 -28 -33 -24 0 11 37 139 49
170 24 63 1 81 -25 20z"/>
<path d="M11431 12808 c-38 -100 -72 -213 -74 -244 -3 -53 19 -55 28 -2 4 24
23 87 41 140 19 53 34 104 34 113 0 23 -19 18 -29 -7z"/>
<path d="M4012 12803 c-5 -10 -28 -69 -51 -132 -29 -79 -41 -126 -39 -154 5
-63 24 -56 31 10 3 33 23 104 46 162 23 58 41 111 41 118 0 19 -18 16 -28 -4z"/>
<path d="M3340 12770 c-20 -12 -5 -24 16 -12 9 5 12 12 7 15 -5 3 -15 2 -23
-3z"/>
<path d="M5890 12771 c0 -12 29 -35 36 -28 11 10 -5 37 -21 37 -8 0 -15 -4
-15 -9z"/>
<path d="M2408 12728 c-22 -24 -54 -58 -71 -77 -19 -20 -27 -36 -21 -38 9 -3
9 -14 -1 -41 -32 -90 -65 -201 -65 -216 0 -9 8 -16 18 -16 13 0 24 19 42 71
23 65 29 73 67 91 51 24 108 84 134 142 23 50 24 75 3 104 -24 35 -60 28 -106
-20z m82 -13 c0 -14 -9 -42 -19 -63 -19 -36 -87 -112 -101 -112 -18 0 5 98 32
137 44 65 88 84 88 38z"/>
<path d="M13268 12741 c-84 -53 -109 -95 -149 -244 -12 -45 -30 -101 -41 -125
-22 -52 -22 -62 -4 -62 25 0 41 32 96 199 l55 166 49 33 c48 32 76 40 76 23 0
-15 -98 -123 -123 -135 -27 -14 -29 -39 -3 -44 33 -7 166 140 166 183 0 44
-57 47 -122 6z"/>
<path d="M12535 12716 c-33 -33 -45 -54 -50 -88 -6 -42 -5 -47 26 -72 29 -25
37 -27 83 -21 56 8 106 30 106 46 0 8 -4 8 -12 2 -21 -16 -130 -16 -152 0 -29
21 -15 64 24 72 61 13 98 63 68 93 -22 22 -50 12 -93 -32z m65 -5 c0 -5 -7
-12 -16 -15 -14 -5 -15 -4 -4 9 14 17 20 19 20 6z"/>
<path d="M16050 12705 c-30 -44 -32 -45 -86 -45 -64 0 -73 -23 -11 -28 20 -2
37 -5 37 -7 0 -2 -7 -25 -16 -51 -27 -79 9 -129 72 -102 l29 12 -30 4 c-42 5
-57 21 -50 51 13 53 41 78 95 85 60 8 67 26 10 26 -22 0 -40 3 -40 8 0 4 11
24 25 44 29 43 30 48 10 48 -8 0 -28 -20 -45 -45z"/>
<path d="M14810 12725 c0 -9 5 -15 11 -13 6 2 11 8 11 13 0 5 -5 11 -11 13 -6
2 -11 -4 -11 -13z"/>
<path d="M8606 12695 c-22 -33 -14 -42 20 -27 15 8 24 19 22 29 -5 27 -24 26
-42 -2z"/>
<path d="M6551 12701 c-8 -5 -20 -7 -27 -4 -16 6 -54 -14 -54 -30 0 -7 16 -25
35 -40 19 -15 35 -32 35 -38 0 -19 -32 -21 -65 -3 -41 22 -54 14 -31 -21 19
-29 59 -41 95 -29 38 14 41 65 6 98 l-26 24 42 14 c24 8 45 20 47 26 4 14 -36
16 -57 3z"/>
<path d="M13428 12683 c-50 -54 -71 -123 -38 -123 5 0 21 23 35 50 18 35 36
56 60 67 44 21 45 33 2 33 -23 0 -41 -8 -59 -27z"/>
<path d="M13594 12703 c-22 -15 -54 -78 -54 -106 0 -38 37 -55 80 -37 75 31
82 128 10 145 -14 3 -30 2 -36 -2z m46 -63 c0 -20 -35 -50 -57 -50 -23 0 -14
38 13 59 29 23 44 20 44 -9z"/>
<path d="M2587 12655 c-38 -36 -50 -54 -54 -85 -4 -25 -1 -46 7 -55 16 -19 64
-19 83 0 8 8 16 12 18 10 3 -2 15 5 29 15 36 27 20 33 -28 10 -55 -27 -72 -26
-72 5 0 17 9 29 29 39 34 18 83 74 78 90 -8 25 -44 14 -90 -29z"/>
<path d="M7290 12694 c-8 -3 -21 -8 -29 -10 -13 -4 -13 -7 0 -19 11 -11 30
-12 91 -7 76 8 98 15 84 29 -9 9 -126 14 -146 7z"/>
<path d="M13821 12677 c-49 -25 -61 -43 -120 -187 -38 -90 -40 -120 -9 -107 7
2 26 38 42 79 29 73 30 74 63 70 52 -6 89 14 107 59 21 51 20 72 -2 92 -23 21
-27 21 -81 -6z m69 -38 c0 -25 -43 -69 -68 -69 -36 0 -32 28 9 65 41 37 59 38
59 4z"/>
<path d="M14954 12686 c-17 -8 -44 -30 -60 -50 -16 -20 -35 -36 -41 -36 -7 0
-13 -4 -13 -10 0 -5 4 -10 9 -10 5 0 11 -13 14 -30 8 -36 42 -48 97 -31 62 18
59 32 -6 29 -46 -2 -59 0 -62 13 -1 9 8 20 23 27 28 13 35 35 8 25 -16 -6 -16
-5 -4 11 8 9 27 24 43 32 24 13 28 13 28 0 0 -8 -9 -18 -20 -21 -11 -3 -20
-11 -20 -16 0 -11 38 -2 58 13 15 13 16 40 0 56 -15 15 -15 15 -54 -2z"/>
<path d="M3629 12670 c-95 -50 -131 -159 -56 -168 29 -4 111 40 127 66 18 32
11 -91 -9 -143 -17 -45 -23 -51 -57 -58 -84 -17 -110 -28 -141 -56 -25 -23
-33 -38 -33 -64 0 -49 19 -95 41 -102 36 -12 60 7 119 88 32 45 68 92 80 104
13 12 17 22 10 25 -8 2 -5 21 9 56 36 90 23 211 -22 220 -12 3 -17 -3 -17 -21
0 -30 -35 -63 -77 -72 -48 -10 -42 9 22 73 60 60 61 82 4 52z m21 -339 c0 -14
-92 -133 -112 -145 -22 -13 -29 -6 -34 41 -6 51 19 82 82 98 61 17 64 17 64 6z"/>
<path d="M4171 12673 c-63 -33 -132 -163 -86 -163 8 0 15 6 15 14 0 15 17 50
40 82 23 32 62 54 93 54 18 0 27 4 25 13 -7 19 -50 19 -87 0z"/>
<path d="M10528 12650 c-23 -22 -47 -40 -55 -40 -20 0 -16 -18 6 -25 10 -3 22
-16 25 -29 8 -34 58 -50 103 -34 44 16 42 31 -2 22 -66 -12 -93 45 -31 66 18
6 41 19 50 29 16 17 16 20 1 35 -26 26 -54 19 -97 -24z"/>
<path d="M11168 12675 c-42 -23 -61 -112 -24 -116 17 -2 20 -2 42 5 16 5 23 2
27 -14 3 -11 11 -20 19 -20 10 0 13 17 12 66 0 53 -4 70 -19 80 -23 17 -23 17
-57 -1z m23 -58 c-11 -12 -23 -19 -25 -16 -9 9 25 50 36 43 6 -4 2 -14 -11
-27z"/>
<path d="M15295 12685 c-5 -2 -27 -6 -47 -10 -70 -11 -78 -39 -32 -102 26 -35
29 -48 14 -58 -15 -9 -60 22 -60 40 0 19 -14 19 -29 1 -17 -20 1 -51 39 -71
61 -32 118 15 90 73 -8 15 -20 35 -28 44 -19 22 -9 34 33 42 19 4 37 11 41 17
7 12 -6 28 -21 24z"/>
<path d="M6222 12663 c-37 -18 -132 -106 -132 -122 0 -27 24 -17 67 27 44 46
103 91 103 79 0 -2 -7 -21 -15 -40 -8 -20 -15 -50 -15 -67 0 -20 5 -30 15 -30
10 0 15 10 15 33 1 17 7 43 15 57 8 14 14 37 15 53 0 32 -18 35 -68 10z"/>
<path d="M14059 12662 c-18 -9 -40 -29 -49 -44 -13 -25 -13 -31 0 -55 9 -16
24 -29 34 -31 26 -5 68 7 61 18 -4 6 -10 8 -15 5 -5 -3 -21 0 -36 5 l-27 11
39 20 c38 20 64 45 64 61 0 21 -38 26 -71 10z m21 -27 c0 -2 -10 -9 -22 -15
-22 -11 -22 -10 -4 4 21 17 26 19 26 11z"/>
<path d="M2772 12658 c-7 -7 -12 -18 -12 -24 0 -7 -11 -26 -25 -42 -14 -17
-25 -37 -25 -46 0 -27 27 -18 49 17 26 42 98 85 107 64 3 -8 -4 -34 -15 -58
-22 -46 -27 -79 -11 -79 10 0 48 81 56 120 8 38 -27 67 -61 52 -15 -7 -25 -8
-25 -2 0 14 -24 12 -38 -2z"/>
<path d="M2989 12654 c-12 -14 -11 -16 5 -13 11 2 21 10 24 17 5 17 -13 15
-29 -4z"/>
<path d="M3231 12628 c-11 -24 -22 -53 -25 -65 -8 -24 8 -40 21 -21 17 27 50
117 45 123 -13 13 -24 2 -41 -37z"/>
<path d="M3366 12609 c-41 -43 -55 -64 -47 -72 12 -12 93 71 86 89 -2 6 7 12
19 12 20 0 22 -5 22 -42 -1 -60 25 -56 29 4 5 90 -31 92 -109 9z"/>
<path d="M4605 12652 c-38 -24 -58 -48 -50 -62 4 -6 22 2 46 22 21 17 41 29
44 27 2 -3 -2 -27 -10 -54 -8 -26 -15 -57 -15 -69 0 -18 2 -18 14 -6 15 16 46
111 46 142 0 24 -36 24 -75 0z"/>
<path d="M4832 12654 c-20 -14 -23 -22 -17 -48 3 -17 7 -44 8 -61 2 -26 -1
-30 -20 -27 -17 2 -24 -3 -29 -23 -10 -39 10 -54 44 -35 44 25 59 61 45 112
-13 47 -9 56 27 61 14 2 25 10 25 18 0 21 -56 23 -83 3z"/>
<path d="M5287 12642 c-40 -42 -45 -85 -14 -116 25 -25 80 -36 91 -18 8 13
-22 45 -38 39 -8 -3 -20 1 -26 9 -15 17 3 69 26 78 18 7 18 36 1 36 -7 0 -25
-13 -40 -28z"/>
<path d="M14266 12655 c-40 -21 -55 -44 -56 -82 0 -23 5 -33 15 -33 9 0 15 9
15 23 0 32 31 58 85 72 25 6 47 15 48 21 3 16 -76 15 -107 -1z"/>
<path d="M5783 12638 c-28 -29 -45 -75 -33 -83 13 -8 30 3 30 19 0 7 10 25 21
40 28 35 12 56 -18 24z"/>
<path d="M9428 12627 c-73 -56 -62 -112 28 -137 36 -10 50 -10 72 0 27 13 26
13 -26 22 -29 4 -62 13 -73 18 -28 15 -23 46 11 70 17 12 27 26 24 31 -3 6 2
9 11 7 10 -2 20 3 22 10 8 22 -25 12 -69 -21z"/>
<path d="M10317 12642 c-25 -28 -32 -76 -13 -91 9 -7 23 -11 31 -7 12 4 15 -3
15 -39 0 -35 -18 -141 -25 -153 -1 -1 -25 2 -53 8 -64 14 -88 3 -102 -49 -11
-40 -1 -112 21 -152 23 -44 71 -5 130 106 13 25 29 45 35 45 7 0 12 10 12 23
1 12 4 75 8 139 3 65 3 126 0 135 -6 15 -10 13 -31 -12 -19 -23 -24 -26 -25
-12 0 9 9 26 20 37 12 12 18 25 15 30 -9 15 -20 12 -38 -8z m-49 -312 c37 0
45 -15 27 -51 -23 -44 -66 -102 -72 -95 -3 2 -9 23 -14 47 -12 51 5 114 28
105 8 -3 22 -6 31 -6z"/>
<path d="M4334 12606 c-36 -35 -45 -50 -42 -72 4 -40 32 -42 83 -5 l43 31 7
-40 c8 -46 25 -54 25 -11 0 16 2 41 5 57 3 16 1 36 -4 44 -9 12 -14 11 -38
-11 -44 -41 -93 -72 -93 -59 0 13 46 62 74 77 18 10 15 33 -4 33 -5 0 -30 -20
-56 -44z"/>
<path d="M5000 12618 c-28 -47 -26 -76 6 -84 14 -4 36 -2 48 4 20 9 24 6 33
-19 6 -16 18 -29 27 -29 19 0 20 4 4 29 -9 15 -9 25 0 46 19 40 6 46 -41 19
-23 -13 -48 -24 -54 -24 -21 0 -15 26 12 51 30 29 31 39 5 39 -12 0 -28 -13
-40 -32z"/>
<path d="M5987 12639 c-24 -14 -49 -66 -42 -89 9 -27 31 -31 75 -14 35 14 40
20 40 49 0 18 -3 40 -6 49 -7 18 -40 21 -67 5z m40 -63 c-4 -9 -16 -16 -27
-16 -24 0 -25 8 -3 32 19 21 40 9 30 -16z"/>
<path d="M9883 12628 c-27 -30 -41 -60 -36 -75 7 -19 54 -15 91 7 40 24 38 24
45 0 3 -11 10 -20 16 -20 15 0 14 42 -2 64 -13 18 -16 17 -62 -9 -43 -26 -46
-26 -36 -8 6 12 24 26 41 31 40 14 38 32 -3 32 -22 0 -41 -8 -54 -22z"/>
<path d="M10100 12624 c-46 -40 -70 -94 -40 -94 3 0 20 20 38 45 17 25 39 45
48 45 13 0 15 -8 9 -50 -5 -40 -4 -50 7 -48 28 6 39 112 12 122 -27 11 -42 7
-74 -20z"/>
<path d="M16216 12613 c-47 -47 -26 -101 34 -88 33 7 64 44 55 66 -3 8 -18 22
-35 31 -28 16 -30 16 -54 -9z m54 -37 c0 -15 -37 -32 -47 -22 -3 3 -3 12 0 21
8 19 47 20 47 1z"/>
<path d="M16394 12606 c-91 -91 17 -151 114 -63 39 36 19 96 -28 84 -11 -3
-20 -1 -20 4 0 20 -34 7 -66 -25z m98 -20 c11 -16 -24 -46 -57 -49 -36 -3 -41
13 -14 47 16 20 26 25 43 20 11 -4 24 -12 28 -18z"/>
<path d="M14707 12565 c-9 -19 -13 -35 -8 -35 10 0 41 45 41 60 0 21 -17 9
-33 -25z"/>
<path d="M4512 12563 c-17 -19 -20 -29 -12 -37 8 -8 17 -5 31 13 19 23 25 51
12 51 -5 0 -18 -12 -31 -27z"/>
<path d="M7262 12583 c-36 -3 -52 -8 -49 -16 7 -22 217 -9 217 14 0 9 -57 9
-168 2z"/>
<path d="M4775 12559 c-4 -6 -3 -15 3 -21 6 -6 11 -4 15 6 7 18 -9 31 -18 15z"/>
<path d="M8610 12556 c0 -8 4 -17 9 -20 20 -13 -22 -88 -63 -114 -23 -15 -43
-28 -45 -29 -3 -2 0 -8 6 -14 35 -35 126 59 126 131 0 21 -3 43 -7 49 -10 16
-26 14 -26 -3z"/>
<path d="M15461 12478 c-34 -90 -63 -138 -97 -166 -32 -27 -36 -34 -24 -42 24
-15 31 -12 71 29 38 41 79 132 79 176 0 31 -18 32 -29 3z"/>
</g>
</svg>
